<?xml version="1.0" encoding="UTF-8"?>
<svg version="1.1" xmlns="http://www.w3.org/2000/svg" width="359" height="644">
<path d="M0 0 C0.72058594 0.63808594 1.44117188 1.27617188 2.18359375 1.93359375 C31.86723636 29.64244101 47.5566338 72.36306636 49.1262207 112.20385742 C49.51142914 128.04876457 48.69135834 143.37968101 46 159 C45.86078125 159.8240332 45.7215625 160.64806641 45.578125 161.49707031 C39.53178909 196.13753647 23.3895221 228.31651138 2 256 C1.2884375 256.92554688 0.576875 257.85109375 -0.15625 258.8046875 C-23.2747004 288.2531898 -51.23079236 313.73914052 -89 321 C-88.29875 322.093125 -87.5975 323.18625 -86.875 324.3125 C-84.19252042 328.59078896 -81.80548477 333.00117319 -79.42578125 337.453125 C-78.25531884 339.5439236 -77.03343706 341.44399796 -75.625 343.375 C-73.82652226 346.28023327 -73.27729679 347.65749766 -74 351 C-76.31538963 353.28254722 -77.65102399 353.96065237 -80.91015625 354.328125 C-81.95042969 354.30234375 -82.99070313 354.2765625 -84.0625 354.25 C-85.10535156 354.23453125 -86.14820313 354.2190625 -87.22265625 354.203125 C-90 354 -90 354 -93 353 C-92.938125 354.27875 -92.87625 355.5575 -92.8125 356.875 C-92.92420204 370.27924461 -96.3071631 382.38244108 -100.5625 395 C-104.16269762 405.74323061 -106.74464106 415.65974161 -107 427 C-107.02835938 428.10472656 -107.05671875 429.20945312 -107.0859375 430.34765625 C-106.67374 445.46780993 -100.01108388 458.89644663 -92.31518555 471.56835938 C-82.55011289 487.69248775 -80.0277894 505.94322313 -83.75390625 524.578125 C-85.39784827 530.53499727 -87.57074578 535.85611866 -91 541 C-92.65 541 -94.3 541 -96 541 C-97.53381853 536.25070649 -96.21444602 532.64815756 -94.625 528.125 C-88.84118851 511.31381165 -90.19806055 494.31801483 -97.4140625 478.02734375 C-99.57448175 473.90339075 -102.11505693 470.08509609 -104.68847656 466.21069336 C-115.26185764 450.09094803 -118.76099512 430.40946325 -114.8671875 411.56713867 C-113.21620748 404.42353813 -110.82779623 397.69104886 -108.15307617 390.87646484 C-103.43378599 378.60903042 -102.46159681 366.00429637 -102 353 C-102.7425 353.32355469 -103.485 353.64710938 -104.25 353.98046875 C-107.94194269 355.34921455 -111.11143608 355.54094942 -115 355 C-118 353.5 -118 353.5 -120 352 C-119.68267405 344.9196647 -116.44341429 339.69461275 -113 333.625 C-112.16082031 332.11099609 -112.16082031 332.11099609 -111.3046875 330.56640625 C-107.20027546 323.20027546 -107.20027546 323.20027546 -106 322 C-107.20011719 321.69449219 -108.40023437 321.38898438 -109.63671875 321.07421875 C-134.17970208 314.47798084 -154.79699556 301.59623763 -173 284 C-173.60875977 283.4117041 -174.21751953 282.8234082 -174.84472656 282.21728516 C-182.73936251 274.55150665 -190.53240425 266.93750436 -197 258 C-197.44794922 257.38543945 -197.89589844 256.77087891 -198.35742188 256.13769531 C-233.25686407 208.09990655 -251.92648766 151.28314504 -242.62548828 91.59667969 C-238.11058603 65.20776009 -228.0023842 39.53505301 -212 18 C-211.30648437 17.06414062 -210.61296875 16.12828125 -209.8984375 15.1640625 C-199.41783069 1.77871822 -187.10299899 -9.56692435 -173 -19 C-172.1646875 -19.56976563 -171.329375 -20.13953125 -170.46875 -20.7265625 C-115.49378222 -55.93313433 -46.20181713 -42.35032838 0 0 Z " fill="#80A582" transform="translate(270,79)"/>
<path d="M0 0 C2.5 1.625 2.5 1.625 4 4 C4.66320805 7.44868188 4.64959745 9.75662988 3 12.9140625 C-1.63372238 19.52238248 -7.96637908 24.65827756 -14.140625 29.7734375 C-28.16510285 41.53412168 -35.91620141 58.14031613 -42.66821289 74.83642578 C-44.50768016 79.2891279 -46.52642491 83.76321245 -51 86 C-54.3125 86.375 -54.3125 86.375 -58 86 C-60.875 83.5625 -60.875 83.5625 -63 81 C-63.33 80.67 -63.66 80.34 -64 80 C-66.29131681 61.01480361 -53.1131954 41.56473391 -42 27 C-39.12095416 23.54121455 -36.10758302 20.25342626 -33 17 C-32.38898438 16.31421875 -31.77796875 15.6284375 -31.1484375 14.921875 C-23.48458673 6.63839374 -11.73033675 -2.99749048 0 0 Z " fill="#D4CB9E" transform="translate(121,82)"/>
<path d="M0 0 C0.77279226 8.60620714 -1.51072174 15.46060389 -4.375 23.5 C-8.06464773 34.41419763 -10.74043222 44.47283087 -11 56 C-11.02835938 57.10472656 -11.05671875 58.20945312 -11.0859375 59.34765625 C-10.67374 74.46780993 -4.01108388 87.89644663 3.68481445 100.56835938 C13.44988711 116.69248775 15.9722106 134.94322313 12.24609375 153.578125 C10.60215173 159.53499727 8.42925422 164.85611866 5 170 C3.35 170 1.7 170 0 170 C-1.53381853 165.25070649 -0.21444602 161.64815756 1.375 157.125 C7.15881149 140.31381165 5.80193945 123.31801483 -1.4140625 107.02734375 C-3.57448175 102.90339075 -6.11505693 99.08509609 -8.68847656 95.21069336 C-19.26342529 79.08855805 -22.75833287 59.40993682 -18.8671875 40.56542969 C-16.74774459 31.40220331 -13.46866458 22.72253519 -10 14 C-7.52684798 7.63953624 -7.52684798 7.63953624 -6 1 C-3.92446352 0.4465236 -2.15634036 0 0 0 Z " fill="#265354" transform="translate(174,450)"/>
<path d="M0 0 C6.38851162 2.12666832 8.24759818 6.13485067 11.125 11.8125 C11.95860179 13.40356967 12.79449849 14.99343934 13.6328125 16.58203125 C14.02823242 17.33911377 14.42365234 18.09619629 14.83105469 18.8762207 C15.89101678 20.80199561 17.02585813 22.59848195 18.2734375 24.40625 C20 27 20 27 20.5 29.6875 C20 32 20 32 18.34765625 33.62890625 C15.36043412 35.3735235 13.37573957 35.3352104 9.9375 35.25 C8.89464844 35.23453125 7.85179687 35.2190625 6.77734375 35.203125 C4 35 4 35 1 34 C1.02320313 34.55945313 1.04640625 35.11890625 1.0703125 35.6953125 C1.24080009 43.26983266 0.20494252 50.53365972 -1 58 C-1.33 58 -1.66 58 -2 58 C-2 56.02 -2 54.04 -2 52 C-4.4937794 52.58763638 -4.4937794 52.58763638 -7 54 C-8.25015355 56.61138286 -8.25015355 56.61138286 -8.8125 59.625 C-9.04582031 60.62789063 -9.27914062 61.63078125 -9.51953125 62.6640625 C-9.75736328 63.82035156 -9.75736328 63.82035156 -10 65 C-10.99519458 61.88125642 -10.93881132 59.96183831 -10.125 56.8125 C-8.45577841 49.31228139 -8.3373293 41.65204891 -8 34 C-8.7425 34.32355469 -9.485 34.64710938 -10.25 34.98046875 C-13.94194269 36.34921455 -17.11143608 36.54094942 -21 36 C-24 34.5 -24 34.5 -26 33 C-25.64970451 26.02328147 -22.60179685 20.83376363 -19.25 14.8125 C-18.46109375 13.33620117 -18.46109375 13.33620117 -17.65625 11.83007812 C-13.47178501 4.21207317 -9.70280486 -1.94757927 0 0 Z " fill="#83A784" transform="translate(176,398)"/>
<path d="M0 0 C0.79946497 8.76619687 -1.55165714 16.02246712 -4.375 24.25 C-4.7875 25.49007813 -5.2 26.73015625 -5.625 28.0078125 C-7.09026266 32.40360047 -8.5762645 36.79145861 -10.109375 41.1640625 C-11.21377025 44.68068947 -11.4573911 48.09498813 -11.625 51.75 C-11.66294678 52.44867188 -11.70089355 53.14734375 -11.73999023 53.8671875 C-12.01349222 59.24543962 -12.11649805 64.61520134 -12 70 C-13.98 69.67 -15.96 69.34 -18 69 C-18 67.35 -18 65.7 -18 64 C-18.66 64 -19.32 64 -20 64 C-20.81997686 45.80106914 -16.67645086 30.78904842 -10 14 C-7.52684798 7.63953624 -7.52684798 7.63953624 -6 1 C-3.92446352 0.4465236 -2.15634036 0 0 0 Z " fill="#3D665F" transform="translate(174,450)"/>
<path d="M0 0 C1.32 0.99 2.64 1.98 4 3 C4.66 2.34 5.32 1.68 6 1 C6.33 2.98 6.66 4.96 7 7 C7.66 7 8.32 7 9 7 C9.98314607 40.5252809 9.98314607 40.5252809 1 54 C-0.65 54 -2.3 54 -4 54 C-5.53381853 49.25070649 -4.21444602 45.64815756 -2.625 41.125 C1.20214648 30.00104127 1.75412191 19.62105766 0 8 C-0.08058637 5.32642869 -0.04694212 2.67570102 0 0 Z " fill="#37564D" transform="translate(178,566)"/>
<path d="M0 0 C1.32 0 2.64 0 4 0 C4.11991409 7.78109211 3.8974518 15.47293533 3.35791016 23.23046875 C3.00177909 28.49658012 2.88586387 33.72437448 3 39 C1.02 38.67 -0.96 38.34 -3 38 C-3 36.35 -3 34.7 -3 33 C-3.66 33 -4.32 33 -5 33 C-5.38297872 14.65957447 -5.38297872 14.65957447 -3 6 C-2.34 6 -1.68 6 -1 6 C0.15811388 3.05270463 0.15811388 3.05270463 0 0 Z " fill="#012B36" transform="translate(159,481)"/>
<path d="M0 0 C2.60851304 2.35609184 4.16634146 4.81835635 5.84765625 7.89453125 C6.37037109 8.85037109 6.89308594 9.80621094 7.43164062 10.79101562 C7.96982422 11.78810547 8.50800781 12.78519531 9.0625 13.8125 C9.87557617 15.29073242 9.87557617 15.29073242 10.70507812 16.79882812 C17.40418642 29.1288309 17.40418642 29.1288309 17 36 C16.34 34.68 15.68 33.36 15 32 C12.37886292 32 10.49064888 32.31292445 8 33 C7.70867187 32.09378906 7.41734375 31.18757812 7.1171875 30.25390625 C4.27693045 21.774609 4.27693045 21.774609 -0.5 14.25 C-2.49498476 11.56132764 -3.06339784 10.60741983 -2.7109375 7.23046875 C-1.95901483 4.71820376 -1.10188851 2.37749819 0 0 Z " fill="#254F50" transform="translate(169,537)"/>
<path d="M0 0 C0.33 0 0.66 0 1 0 C1.33 2.97 1.66 5.94 2 9 C2.66 8.01 3.32 7.02 4 6 C4.144375 6.7425 4.28875 7.485 4.4375 8.25 C4.91130836 10.87930894 4.91130836 10.87930894 5.6484375 12.85546875 C6.12232473 15.74618087 5.32946785 17.38714775 4.1875 20.0625 C3.83042969 20.91972656 3.47335938 21.77695312 3.10546875 22.66015625 C2 25 2 25 0 28 C-2.625 28.1875 -2.625 28.1875 -5 28 C-6.53381853 23.25070649 -5.21444602 19.64815756 -3.625 15.125 C-1.88209966 10.05909737 -0.5989702 5.33501366 0 0 Z " fill="#375F5B" transform="translate(179,592)"/>
<path d="M0 0 C2.20248093 3.30372139 2.24768405 4.31043777 2.23046875 8.1484375 C2.22853516 9.15390625 2.22660156 10.159375 2.22460938 11.1953125 C2.21236328 12.24460937 2.20011719 13.29390625 2.1875 14.375 C2.18685547 15.4165625 2.18621094 16.458125 2.18554688 17.53125 C2.15882354 22.17517263 2.02919332 26.45512337 1 31 C-0.33333333 31 -1.66666667 31 -3 31 C-3 21.76 -3 12.52 -3 3 C-2.67 3 -2.34 3 -2 3 C-2 4.98 -2 6.96 -2 9 C-1.34 9 -0.68 9 0 9 C0 6.03 0 3.06 0 0 Z " fill="#003444" transform="translate(183,571)"/>
<path d="M0 0 C1.65 0.33 3.3 0.66 5 1 C5 7.27 5 13.54 5 20 C4.34 20 3.68 20 3 20 C1.1261218 16.83783053 0.90166642 14.63834261 1 11 C0.67 10.67 0.34 10.34 0 10 C0 13.3 0 16.6 0 20 C-0.33 20 -0.66 20 -1 20 C-1.02888514 16.85418577 -1.04675923 13.70840531 -1.0625 10.5625 C-1.07087891 9.66466797 -1.07925781 8.76683594 -1.08789062 7.84179688 C-1.09111328 6.98779297 -1.09433594 6.13378906 -1.09765625 5.25390625 C-1.10551147 4.06776733 -1.10551147 4.06776733 -1.11352539 2.85766602 C-1 1 -1 1 0 0 Z " fill="#012129" transform="translate(170,429)"/>
<path d="M0 0 C5.93193821 5.93193821 8.53194165 13.73096908 9 22 C8.34 20.68 7.68 19.36 7 18 C3.79788698 17.87873219 3.79788698 17.87873219 0 19 C-0.33 16.03 -0.66 13.06 -1 10 C-0.67 10 -0.34 10 0 10 C0 6.7 0 3.4 0 0 Z " fill="#325D5B" transform="translate(177,551)"/>
<path d="M0 0 C0.33 0 0.66 0 1 0 C0.97679687 0.92039062 0.95359375 1.84078125 0.9296875 2.7890625 C0.80229113 11.72500783 1.48543066 20.16685474 3 29 C3.28037109 30.68416016 3.28037109 30.68416016 3.56640625 32.40234375 C3.78103516 33.68818359 3.78103516 33.68818359 4 35 C3.67 34.34 3.34 33.68 3 33 C2.34 33 1.68 33 1 33 C0.34 31.02 -0.32 29.04 -1 27 C-1.66 27 -2.32 27 -3 27 C-3.33 27.99 -3.66 28.98 -4 30 C-4.66 30 -5.32 30 -6 30 C-6.33 26.7 -6.66 23.4 -7 20 C-6.34 21.32 -5.68 22.64 -5 24 C-2.94999129 24.80528889 -2.94999129 24.80528889 -1 25 C-1.01160156 23.865625 -1.02320313 22.73125 -1.03515625 21.5625 C-1.0445441 20.04166833 -1.05364322 18.52083486 -1.0625 17 C-1.07087891 16.25621094 -1.07925781 15.51242187 -1.08789062 14.74609375 C-1.10966272 9.73851156 -0.71541549 4.95720968 0 0 Z " fill="#71907C" transform="translate(162,494)"/>
<path d="M0 0 C0.99 0.33 1.98 0.66 3 1 C4.39848671 4.24856808 3.80190751 6.7670123 3 10.125 C1.98340052 13.66504816 1.98340052 13.66504816 3 17 C3.039992 18.99960012 3.04346799 21.00047242 3 23 C2.67 23 2.34 23 2 23 C1.34 21.02 0.68 19.04 0 17 C-0.33 20.3 -0.66 23.6 -1 27 C-1.33 27 -1.66 27 -2 27 C-2.38297872 8.65957447 -2.38297872 8.65957447 0 0 Z " fill="#497069" transform="translate(156,487)"/>
<path d="M0 0 C3.48584286 0.03134751 6.09479083 0.60989542 9.25 2.1875 C9.25 3.1775 9.25 4.1675 9.25 5.1875 C3.97 5.1875 -1.31 5.1875 -6.75 5.1875 C-4.26282051 0.21314103 -4.26282051 0.21314103 0 0 Z " fill="#00343A" transform="translate(171.75,397.8125)"/>
<path d="M0 0 C2.60657669 1.56394601 3.85261318 2.67656781 5.125 5.46875 C6.28751562 10.1603309 6.21421704 14.56414274 6.125 19.375 C6.11597656 20.30183594 6.10695312 21.22867188 6.09765625 22.18359375 C6.07422937 24.45600077 6.04142748 26.7278618 6 29 C5.67 29 5.34 29 5 29 C5 24.05 5 19.1 5 14 C3.68 14.33 2.36 14.66 1 15 C0.15318867 9.91913204 -0.09038099 5.15171623 0 0 Z " fill="#1C4A4F" transform="translate(178,566)"/>
<path d="M0 0 C-0.33 2.97 -0.66 5.94 -1 9 C-1.78375 9.20625 -2.5675 9.4125 -3.375 9.625 C-6.30916286 10.80676612 -6.30916286 10.80676612 -7.3125 14.125 C-7.539375 15.07375 -7.76625 16.0225 -8 17 C-9.3805087 13.23331402 -8.59568159 10.55210827 -7.5625 6.75 C-7.27503906 5.67234375 -6.98757812 4.5946875 -6.69140625 3.484375 C-6.46324219 2.66453125 -6.23507813 1.8446875 -6 1 C-3.92446352 0.4465236 -2.15634036 0 0 0 Z " fill="#012D39" transform="translate(174,450)"/>
<path d="M0 0 C0.66 0.33 1.32 0.66 2 1 C1.979375 1.7425 1.95875 2.485 1.9375 3.25 C1.99328688 5.70462279 2.3069904 7.66109261 3 10 C3.66 10 4.32 10 5 10 C5 12.31 5 14.62 5 17 C4.67 17 4.34 17 4 17 C4 15.02 4 13.04 4 11 C1.5062206 11.58763638 1.5062206 11.58763638 -1 13 C-2.25015355 15.61138286 -2.25015355 15.61138286 -2.8125 18.625 C-3.04582031 19.62789063 -3.27914062 20.63078125 -3.51953125 21.6640625 C-3.75736328 22.82035156 -3.75736328 22.82035156 -4 24 C-5.3805087 20.23331402 -4.59568159 17.55210827 -3.5625 13.75 C-3.27503906 12.67234375 -2.98757812 11.5946875 -2.69140625 10.484375 C-2.46324219 9.66453125 -2.23507813 8.8446875 -2 8 C-1.67 8 -1.34 8 -1 8 C-0.67 5.36 -0.34 2.72 0 0 Z " fill="#416E6A" transform="translate(170,439)"/>
<path d="M0 0 C3.28698449 3.28698449 4.93295361 5.86590721 7 10 C6.67 10.99 6.34 11.98 6 13 C5.67 12.34 5.34 11.68 5 11 C2.52391899 10.25475806 2.52391899 10.25475806 0 10 C-0.33 10.33 -0.66 10.66 -1 11 C-1.66 10.67 -2.32 10.34 -3 10 C-2.01 6.7 -1.02 3.4 0 0 Z " fill="#3A615C" transform="translate(169,537)"/>
<path d="M0 0 C2.31 0.33 4.62 0.66 7 1 C7.37211538 8.56634615 7.37211538 8.56634615 5.48828125 10.76171875 C4.99714844 11.17035156 4.50601563 11.57898438 4 12 C3.3291288 10.3767313 2.66342971 8.75132422 2 7.125 C1.62875 6.22007812 1.2575 5.31515625 0.875 4.3828125 C0 2 0 2 0 0 Z " fill="#083845" transform="translate(162,533)"/>
<path d="M0 0 C1.60080151 4.00200378 0.29279692 7.04556236 -1 11 C-1.99 11 -2.98 11 -4 11 C-6.60280568 11.32041397 -6.60280568 11.32041397 -9 12 C-9.33 12.66 -9.66 13.32 -10 14 C-9.67 12.02 -9.34 10.04 -9 8 C-8.34 8.33 -7.68 8.66 -7 9 C-6.7525 8.195625 -6.505 7.39125 -6.25 6.5625 C-5.8375 5.716875 -5.425 4.87125 -5 4 C-2.9375 3.375 -2.9375 3.375 -1 3 C-0.67 2.01 -0.34 1.02 0 0 Z " fill="#3A6562" transform="translate(173,456)"/>
<path d="M0 0 C0.99 0.33 1.98 0.66 3 1 C3 1.99 3 2.98 3 4 C4.65 4.33 6.3 4.66 8 5 C7.67 5.66 7.34 6.32 7 7 C4.8203125 7.484375 4.8203125 7.484375 2.125 7.75 C0.79855469 7.89695312 0.79855469 7.89695312 -0.5546875 8.046875 C-3 8 -3 8 -6 6 C-5.01 5.67 -4.02 5.34 -3 5 C-3 4.01 -3 3.02 -3 2 C-2.01 1.34 -1.02 0.68 0 0 Z " fill="#729D7F" transform="translate(159,425)"/>
<path d="M0 0 C0.66 0.99 1.32 1.98 2 3 C1.67 3.66 1.34 4.32 1 5 C-0.65 4.67 -2.3 4.34 -4 4 C-3.69964844 4.69867187 -3.39929688 5.39734375 -3.08984375 6.1171875 C-2.70957031 7.02726563 -2.32929688 7.93734375 -1.9375 8.875 C-1.55464844 9.77992188 -1.17179688 10.68484375 -0.77734375 11.6171875 C0 14 0 14 -1 16 C-1.8466034 14.61217515 -2.67675339 13.21430603 -3.5 11.8125 C-3.9640625 11.03519531 -4.428125 10.25789062 -4.90625 9.45703125 C-6.10729647 6.75896614 -6.20741043 4.9193018 -6 2 C-3.03 2.495 -3.03 2.495 0 3 C0 2.01 0 1.02 0 0 Z " fill="#507164" transform="translate(166,529)"/>
<path d="M0 0 C0.99 1.32 1.98 2.64 3 4 C2.01 5.485 2.01 5.485 1 7 C0.2884375 8.0828125 0.2884375 8.0828125 -0.4375 9.1875 C-0.953125 9.785625 -1.46875 10.38375 -2 11 C-2.99 11 -3.98 11 -5 11 C-3.77472971 6.94718288 -2.30119506 3.55639236 0 0 Z " fill="#85A986" transform="translate(49,111)"/>
<path d="M0 0 C1.125 3.75 1.125 3.75 0 6 C-0.66 6 -1.32 6 -2 6 C-2.66 7.98 -3.32 9.96 -4 12 C-4.66 12 -5.32 12 -6 12 C-7.125 7.25 -7.125 7.25 -6 5 C-5.175 4.690625 -4.35 4.38125 -3.5 4.0625 C-2.675 3.711875 -1.85 3.36125 -1 3 C-0.67 2.01 -0.34 1.02 0 0 Z " fill="#002F3C" transform="translate(170,463)"/>
<path d="M0 0 C2.72663215 2.35481867 3.86550393 4.5965118 5 8 C5 10 5 10 4 12 C2.68 12 1.36 12 0 12 C0 10 0 8 0 6 C-0.33 5.01 -0.66 4.02 -1 3 C-0.67 2.01 -0.34 1.02 0 0 Z " fill="#8DAC88" transform="translate(291,106)"/>
<path d="M0 0 C2 1 2 1 4 3 C4.75 5.9375 4.75 5.9375 5 9 C4.01 10.485 4.01 10.485 3 12 C-1.06153846 5.72307692 -1.06153846 5.72307692 -0.75 2.0625 C-0.5025 1.381875 -0.255 0.70125 0 0 Z " fill="#89AB88" transform="translate(50,295)"/>
<path d="M0 0 C0.33 0 0.66 0 1 0 C1 4.29 1 8.58 1 13 C-0.32 12.67 -1.64 12.34 -3 12 C-3 9.36 -3 6.72 -3 4 C-2.34 4 -1.68 4 -1 4 C-0.67 2.68 -0.34 1.36 0 0 Z " fill="#00374A" transform="translate(159,500)"/>
<path d="M0 0 C0 0.99 0 1.98 0 3 C-4.95 3 -9.9 3 -15 3 C-9.84395253 -0.8670356 -6.21724931 -1.64574246 0 0 Z " fill="#043C45" transform="translate(181,400)"/>
<path d="M0 0 C2.8675003 2.69835 4.4497184 5.35683825 6 9 C5.67 9.66 5.34 10.32 5 11 C3.046875 10.2890625 3.046875 10.2890625 1 9 C0.390625 6.8359375 0.390625 6.8359375 0.25 4.375 C0.19328125 3.55773437 0.1365625 2.74046875 0.078125 1.8984375 C0.05234375 1.27195312 0.0265625 0.64546875 0 0 Z " fill="#43675D" transform="translate(177,551)"/>
<path d="M0 0 C1.32 0 2.64 0 4 0 C3.67 1.98 3.34 3.96 3 6 C2.01 6.33 1.02 6.66 0 7 C-0.99 6.01 -1.98 5.02 -3 4 C-2 2 -2 2 0 0 Z " fill="#8AAB87" transform="translate(75,332)"/>
<path d="M0 0 C0.66 0.33 1.32 0.66 2 1 C2 1.66 2 2.32 2 3 C1.34 3 0.68 3 0 3 C0 4.65 0 6.3 0 8 C1.65 7.67 3.3 7.34 5 7 C4.67 7.99 4.34 8.98 4 10 C2.35 10 0.7 10 -1 10 C-2.15837626 5.94568308 -1.83691257 3.78187881 0 0 Z " fill="#66836E" transform="translate(175,610)"/>
<path d="M0 0 C0.33 0.99 0.66 1.98 1 3 C1.66 3 2.32 3 3 3 C3.33 4.65 3.66 6.3 4 8 C2.35 8 0.7 8 -1 8 C-1.125 2.25 -1.125 2.25 0 0 Z " fill="#003343" transform="translate(162,524)"/>
<path d="M0 0 C3.40198926 4.04998722 6 8.63626649 6 14 C5.34 14 4.68 14 4 14 C3.32739649 12.23141309 2.66211605 10.46003984 2 8.6875 C1.62875 7.70136719 1.2575 6.71523437 0.875 5.69921875 C0 3 0 3 0 0 Z " fill="#9DB490" transform="translate(300,121)"/>
<path d="M0 0 C0 3 0 3 -1 6 C-4.21284338 7.88579937 -6.24633583 9 -10 9 C-6.7 6.03 -3.4 3.06 0 0 Z " fill="#62977D" transform="translate(120,99)"/>
<path d="M0 0 C0.33 0.99 0.66 1.98 1 3 C1.66 3 2.32 3 3 3 C2.67 4.32 2.34 5.64 2 7 C0.68 7 -0.64 7 -2 7 C-2 5.35 -2 3.7 -2 2 C-1.34 2 -0.68 2 0 2 C0 1.34 0 0.68 0 0 Z " fill="#003241" transform="translate(177,611)"/>
<path d="M0 0 C3.3125 0.125 3.3125 0.125 7 1 C8.9375 4.0625 8.9375 4.0625 10 7 C5.56541027 5.6062718 3.12621626 3.39417765 0 0 Z " fill="#90AE8B" transform="translate(112,375)"/>
<path d="M0 0 C-1.11666174 3.34998521 -1.74694925 3.79340222 -4.5625 5.6875 C-5.20316406 6.12449219 -5.84382813 6.56148438 -6.50390625 7.01171875 C-6.99761719 7.33785156 -7.49132812 7.66398437 -8 8 C-8 5 -8 5 -5.6875 2.3125 C-3 0 -3 0 0 0 Z " fill="#8AAA89" transform="translate(73,83)"/>
<path d="M0 0 C1.32 0.33 2.64 0.66 4 1 C4 2.65 4 4.3 4 6 C3.01 5.67 2.02 5.34 1 5 C1.33 5.99 1.66 6.98 2 8 C1.01 8.495 1.01 8.495 0 9 C0 6.03 0 3.06 0 0 Z " fill="#003A4C" transform="translate(170,429)"/>
<path d="M0 0 C1.13643966 3.40931897 0.86747764 4.00335456 -0.4375 7.1875 C-0.72496094 7.90292969 -1.01242188 8.61835938 -1.30859375 9.35546875 C-1.53675781 9.89816406 -1.76492187 10.44085938 -2 11 C-2.66 10.67 -3.32 10.34 -4 10 C-3.125 4.25 -3.125 4.25 -2 2 C-1.34 2 -0.68 2 0 2 C0 1.34 0 0.68 0 0 Z " fill="#597562" transform="translate(170,467)"/>
<path d="M0 0 C0.99 0.495 0.99 0.495 2 1 C2.6328125 3.28515625 2.6328125 3.28515625 3.125 6.0625 C3.29257813 6.98160156 3.46015625 7.90070312 3.6328125 8.84765625 C3.75398437 9.55792969 3.87515625 10.26820313 4 11 C3.67 10.34 3.34 9.68 3 9 C2.34 9 1.68 9 1 9 C0.67 6.03 0.34 3.06 0 0 Z " fill="#5B7967" transform="translate(162,518)"/>
<path d="M0 0 C2.31 0 4.62 0 7 0 C6.67 0.66 6.34 1.32 6 2 C6.99 2.66 7.98 3.32 9 4 C6.36 3.67 3.72 3.34 1 3 C0.67 2.01 0.34 1.02 0 0 Z " fill="#729E81" transform="translate(110,372)"/>
<path d="M0 0 C2.97 0.495 2.97 0.495 6 1 C5.34 2.32 4.68 3.64 4 5 C2.68 4.34 1.36 3.68 0 3 C0 2.01 0 1.02 0 0 Z " fill="#0D4350" transform="translate(171,548)"/>
<path d="M0 0 C0.33 0 0.66 0 1 0 C1 3.63 1 7.26 1 11 C-2 7 -2 7 -1.75 4.9375 C-1.5025 4.298125 -1.255 3.65875 -1 3 C-0.67 2.01 -0.34 1.02 0 0 Z " fill="#003B4F" transform="translate(173,438)"/>
<path d="M0 0 C0.99 0.33 1.98 0.66 3 1 C4.1875 3.5625 4.1875 3.5625 5 6 C3.02 5.01 1.04 4.02 -1 3 C-0.67 2.01 -0.34 1.02 0 0 Z " fill="#8CAC8A" transform="translate(188,416)"/>
<path d="M0 0 C0.6875 1.6875 0.6875 1.6875 1 4 C-0.3125 6.75 -0.3125 6.75 -2 9 C-2.66 9 -3.32 9 -4 9 C-2.94124926 5.59687262 -1.99097846 2.98646769 0 0 Z " fill="#8DAC8C" transform="translate(49,111)"/>
<path d="M0 0 C1.98 0.99 1.98 0.99 4 2 C4.33 1.34 4.66 0.68 5 0 C4.25 4.75 4.25 4.75 2 7 C1.34 4.69 0.68 2.38 0 0 Z " fill="#9BB48E" transform="translate(298,280)"/>
<path d="" fill="#DFD0A5" transform="translate(0,0)"/>
<path d="" fill="#DFD0A5" transform="translate(0,0)"/>
<path d="" fill="#DFD0A5" transform="translate(0,0)"/>
<path d="" fill="#DFD0A5" transform="translate(0,0)"/>
<path d="" fill="#DFD0A5" transform="translate(0,0)"/>
<path d="" fill="#DFD0A5" transform="translate(0,0)"/>
<path d="" fill="#DFD0A5" transform="translate(0,0)"/>
<path d="" fill="#DFD0A5" transform="translate(0,0)"/>
<path d="" fill="#DFD0A5" transform="translate(0,0)"/>
<path d="" fill="#DFD0A5" transform="translate(0,0)"/>
<path d="" fill="#DFD0A5" transform="translate(0,0)"/>
<path d="" fill="#DFD0A5" transform="translate(0,0)"/>
<path d="" fill="#DFD0A5" transform="translate(0,0)"/>
<path d="" fill="#DFD0A5" transform="translate(0,0)"/>
<path d="" fill="#DFD0A5" transform="translate(0,0)"/>
<path d="" fill="#DFD0A5" transform="translate(0,0)"/>
<path d="" fill="#DFD0A5" transform="translate(0,0)"/>
<path d="" fill="#DFD0A5" transform="translate(0,0)"/>
<path d="" fill="#DFD0A5" transform="translate(0,0)"/>
<path d="" fill="#DFD0A5" transform="translate(0,0)"/>
<path d="" fill="#DFD0A5" transform="translate(0,0)"/>
<path d="" fill="#DFD0A5" transform="translate(0,0)"/>
<path d="" fill="#DFD0A5" transform="translate(0,0)"/>
<path d="" fill="#DFD0A5" transform="translate(0,0)"/>
<path d="" fill="#DFD0A5" transform="translate(0,0)"/>
<path d="" fill="#DFD0A5" transform="translate(0,0)"/>
<path d="" fill="#DFD0A5" transform="translate(0,0)"/>
<path d="" fill="#DFD0A5" transform="translate(0,0)"/>
<path d="" fill="#DFD0A5" transform="translate(0,0)"/>
<path d="" fill="#DFD0A5" transform="translate(0,0)"/>
<path d="" fill="#DFD0A5" transform="translate(0,0)"/>
<path d="" fill="#DFD0A5" transform="translate(0,0)"/>
<path d="" fill="#DFD0A5" transform="translate(0,0)"/>
<path d="" fill="#DFD0A5" transform="translate(0,0)"/>
</svg>
