<?xml version="1.0" standalone="no"?>
<!DOCTYPE svg PUBLIC "-//W3C//DTD SVG 1.1//EN" "http://www.w3.org/Graphics/SVG/1.1/DTD/svg11.dtd">
<svg xmlns="http://www.w3.org/2000/svg" width="359" height="644" viewBox="0 0 359 644"><path fill="#5c3b22" d="M224 49c11.358 5.255 22.266 11.089 32 19l2.71 2.105c22.77 18.019 38.454 41.497 49.248 68.272 11.292 29.57 13.09 63.403 8.52 94.58C309.874 272.843 292.622 307.289 268 339l-2.273 2.93C257.204 352.606 247.825 363.59 237 372l-1.532 1.2C218.487 386.402 201.611 394.177 181 400a21966 21966 0 0 0 6.738 12.275l1.465 2.666 1.434 2.615a253 253 0 0 0 3.75 6.452L196 427l-.437 2.313c-2.03 2.192-3.718 2.784-6.563 3.687-2.824.012-2.824.012-5.687-.312l-2.887-.301C178 432 178 432 176 431l.14 2.867c.534 15.812-3.417 29.889-8.677 44.702-3.265 9.284-4.838 18.02-4.775 27.868l.014 2.793c.115 6.673.841 12.522 3.298 18.77l.926 2.652c2.527 6.7 5.973 12.665 9.637 18.785 4.396 7.361 7.583 14.133 9.437 22.563l.57 2.39c2.012 12.22.26 25.035-3.59 36.7-2.44 6.37-2.44 6.37-4.98 8.91-2.062-.187-2.062-.187-4-1l-1-3c.707-2.129.707-2.129 1.813-4.562 4.608-11.13 5.153-22.506 4.187-34.438-1.524-11.25-5.795-20.58-11.988-30.035-6.31-9.778-11.333-20.604-12.189-32.406-.404-16.817 1.729-29.603 8.009-45.293 2.011-5.624 3.125-11.397 4.168-17.266l.402-2.238c.889-5.88.687-11.834.598-17.762l-1.687.488c-2.497.553-4.758.68-7.313.7l-2.562.042c-2.592-.245-4.208-.924-6.438-2.23.539-4.485 1.657-7.675 3.906-11.582l1.754-3.072 1.84-3.159 1.84-3.216c4.47-7.781 4.47-7.781 5.66-8.971l-3.559-1.031c-23.512-7-45.099-18.275-62.503-35.906l-1.567-1.657c-1.48-1.583-1.48-1.583-3.871-3.344-2.805-2.313-5.036-4.816-7.383-7.585a206 206 0 0 0-4.672-5.266C55.881 318.006 38.193 282.073 30 245c-1.269-6.299-2.223-12.623-3-19l-.398-3.156C24.717 203.89 25.418 184.687 29 166l.422-2.243C32.849 146.152 39.508 129.74 48 114l1.676-3.168C57.903 95.968 69.716 81.579 83 71l3.098-2.488c20.621-16.078 43.976-25.315 69.707-29.067 22.652-2.694 47.228.449 68.195 9.555"/><path fill="#ffa6a4" d="M119 81c2.813 1.375 2.813 1.375 5 3 1.166 2.332 1.144 3.538 1 6.125-.357 2.724-.816 4.571-2.242 6.93-4.111 4.898-9.092 8.755-14.059 12.746-15.555 12.674-23.906 30.853-31.242 49.14-1.491 3.131-3.139 5.49-5.457 8.059-2 1-2 1-5.312 1.375L63 168c-2.63-2.173-4.473-3.947-6-7-.824-4.757-.794-9.405.628-14.052C64.02 129.906 73.678 114.323 86 101l2.238-2.484C95.81 90.486 107.282 79.779 119 81"/><path fill="#0b2718" d="M170 429c2.5.375 2.5.375 5 1l1 1c1.347 16.764-2.976 31.908-8.537 47.57-3.265 9.283-4.838 18.019-4.775 27.868l.014 2.792c.115 6.673.841 12.522 3.298 18.77l.926 2.652c2.527 6.7 5.973 12.665 9.637 18.785 4.396 7.361 7.583 14.133 9.437 22.563l.57 2.39c2.012 12.22.26 25.035-3.59 36.7-2.44 6.37-2.44 6.37-4.98 8.91-2.062-.187-2.062-.187-4-1l-1-3c.707-2.129.707-2.129 1.813-4.562 4.608-11.13 5.153-22.506 4.187-34.438-1.524-11.25-5.795-20.58-11.988-30.035-6.31-9.778-11.333-20.604-12.189-32.406-.371-15.454 1.003-27.641 6.74-42.121 4.543-11.512 5.852-22.996 6.791-35.239l.216-2.781.18-2.507L169 430z"/><path fill="#5c3b22" d="m126 383 6 2v2l2.648.848c3.08 1.059 6 2.273 8.977 3.59 5.995 2.539 12.024 4.177 18.375 5.562l1-4 4 2v2c15.244-.4 15.244-.4 30-4l-7-1-1 2-3 1-2-2c3.242-2.038 6.37-3.758 10-5h3l-2-4h4a396 396 0 0 1 5.184 3.11c1.995 1.118 1.995 1.118 5.254 1.14L212 388c-3.468 2.98-7.322 4.456-11.562 6l-1.979.75c-5.721 2.118-11.56 3.71-17.459 5.25a21966 21966 0 0 0 6.738 12.275l1.465 2.666 1.434 2.615a253 253 0 0 0 3.75 6.452L196 427l-.437 2.313c-2.027 2.188-3.725 2.78-6.563 3.687-2.754.047-2.754.047-5.562-.25l-2.817-.266C178 432 178 432 175.911 430.954c-2.152-1.252-2.152-1.252-5.911-.954l-2 2c-3.002 1.016-5.845 1.163-9 1.188l-2.562.042c-2.592-.245-4.208-.924-6.438-2.23.539-4.485 1.657-7.675 3.906-11.582l1.754-3.072 1.84-3.159 1.84-3.216c4.47-7.781 4.47-7.781 5.66-8.971l-3.559-1.031C149.172 396.312 136.735 392.156 126 385zM82 72l2 1-4 4c2.086 1.165 2.086 1.165 5 1.5 3 .5 3 .5 5 1.5v2h6l1 3-6 1v-3l-7 1c.791 2 .791 2 2 4l3 1-2 7c2.537-1.355 2.537-1.355 5-3v-2l4 1-2.527 2.422C86.193 101.494 79.81 108.668 74 117l-1-2c.25-3.437.25-3.437 1-7 1.438-1.687 1.438-1.687 3-3 1.176-2.1 1.176-2.1 2-4l1 2 4-2-1-3h-3v-2h2l-3-8-1 4h-2v2l-7-1-.812 1.625L67 97l-1.562 3.188C64 103 64 103 63 104l2 2c-.375 2.125-.375 2.125-1 4h-2v-4h-2v-4l-3 1c-1.827 2.126-1.827 2.126-3 5-.251 3.709-.251 3.709 0 7h-3v2h-3l-.937 2.875C46 123 46 123 45 125h-2c4.556-15.156 15.363-28.341 25.957-39.746a90 90 0 0 0 4.07-4.832c1.787-2.193 3.55-3.938 5.723-5.734l1.86-1.551z"/><path fill="#3a3f28" d="m126 383 6 2v2l2.648.848c3.08 1.059 6 2.273 8.977 3.59 5.995 2.539 12.024 4.177 18.375 5.562l1-4 4 2v2c15.244-.4 15.244-.4 30-4l-7-1-1 2-3 1-2-2c3.242-2.038 6.37-3.758 10-5h3l-2-4h4a396 396 0 0 1 5.184 3.11c1.995 1.118 1.995 1.118 5.254 1.14L212 388c-3.467 2.98-7.321 4.46-11.562 6l-2.137.79c-5.692 2.068-11.424 3.74-17.301 5.21l5 10-2 1-2-6c-9.15-.986-9.15-.986-18 1-4.177 4.168-6.264 9.87-8.232 15.342L155 423l-2 1c1.507-5.23 3.866-9.63 6.563-14.312l1.248-2.206c3.032-5.325 3.032-5.325 4.189-6.482l-3.559-1.031C149.172 396.312 136.735 392.156 126 385z"/><path fill="#5c3b22" d="M223 50c4.928.609 8.815 2.747 13.125 5.063l2.29 1.224C244.68 59.704 250.412 63.555 256 68l2.727 2.113C270.158 79.178 279.422 89.296 288 101l-1 2-7.324-8.79-1.335-1.593q-1.368-1.65-2.707-3.324A150 150 0 0 0 272 85c-2.165-.944-2.165-.944-4-1l-.375-1.937L267 80l-2-1v-2l-3.25.938L258 79l-2.187.875L254 80c-2-1.687-2-1.687-4-4l-2.25-2.25L246 72c3.088-1.765 4.233-2 8-2v2h2l-1.5-1.375L253 69v-2l-2.168-.79c-2.968-1.268-5.456-2.803-8.144-4.585-8.739-5.758-8.739-5.758-18.688-8.625z"/><path fill="#693b23" d="M164 405c3.076-.637 6.063-.47 9.188-.312l2.56.068c2.085.059 4.169.148 6.252.244 1.563 2.813 1.563 2.813 3 6l-1 3h-2v-2h-2v2l-8 3v-3c-2.9-.678-2.9-.678-6-1l-2 2c-2.625.625-2.625.625-5 1 2.426-8.023 2.426-8.023 5-11"/><path fill="#5c3b22" d="M315 171c2.416 3.625 2.683 6.77 3 11 .13 2.734.164 5.462.168 8.2l.01 2.293q.007 2.389.007 4.777c.002 2.394.02 4.787.04 7.181.032 9.064-.477 17.625-2.225 26.549h-1c-.917-5.385-1.111-10.542-1-16h-2c-.09-3.842.167-7.253 1-11v-2h2v2h2c-.385-5.26-.385-5.26-2.125-10.125L314 192c.375-3.25.375-3.25 1-6l-3-1v-13z"/><path fill="#3a3f28" d="M45 287c3.22 3.877 5.375 8.302 7.688 12.75A2079.028 2079.028 0 0 1 57 308c-1.555-5.676-1.555-5.676-4.001-11l3 1 2-4h2l-2 10 4 1q.039 2.188.063 4.375l.035 2.46C62 314 62 314 61 316l3 1-1 1 3 2v2h2l1 5 3-1v-2h2l-1 5h-2l5 7-1 2c-10.051-11.721-17.996-24.748-25.187-38.375l-1.46-2.757-1.333-2.579-1.185-2.29C45 290 45 290 45 287M162.09 38.725c2.68-.029 5.356-.052 8.035-.038l2.958.004c8.866.116 17.28 1.385 25.917 3.309v1l-13 1v2h-25v-2c2.35-1.175 3.95-1.2 6.57-1.316l2.446-.116 3.109-.13L183 42l-26-1c3-2 3-2 5.09-2.275M170.219 397.54l2.281.085 2.281.04c2.55.385 4.085.871 6.219 2.335 1.484 2.383 1.484 2.383 2.75 5.125l1.297 2.758L186 410l-2 1-2-6c-9.15-.986-9.15-.986-18 1-4.177 4.168-6.264 9.87-8.232 15.342L155 423l-2 1c1.497-5.134 3.752-9.505 6.375-14.125l1.172-2.129c5.23-9.284 5.23-9.284 9.672-10.207"/><path fill="#693b23" d="M179 416h3v4l1.75-1.062C186 418 186 418 188.125 418l1.875 1c1.438 2.75 1.438 2.75 2 6l-.687 2.875L189 430c-5.597.99-10.829.266-16.187-1.5A130 130 0 0 1 169 427l3-3 11 3v-2h-3l-1-3 1-3z"/><path fill="#3a3f28" d="m142 43-2 2h-4l-1 3-9 1v3c-2.752.584-5.377 1.03-8.187 1.25C112.7 54.255 108.546 56.521 104 59l2 3-3 1-1 2h-4v-2l-4 2 1-3a92 92 0 0 1 7.063-4.25l2.16-1.192C129.903 42.64 129.903 42.64 142 43M64 91v6l-3 2 2 1c.563 1.938.563 1.938 1 4l1 2c-.437 2.125-.437 2.125-1 4h-2v-4h-2v-4l-3 1c-1.827 2.126-1.827 2.126-3 5-.251 3.709-.251 3.709 0 7h-3v2h-3l-.937 2.875C46 123 46 123 45 125h-2c3.659-12.171 11.99-24.99 21-34M308 260h1c-1.77 15.556-10.183 30.132-17 44-2-3.75-2-3.75-2-6l3-1a80 80 0 0 0 3.75-7.187l.996-2.002c.903-1.93 1.68-3.758 2.254-5.811-.234-3.231-.234-3.231-1-6 .438-2.875.438-2.875 1-5h4v-5h3zM288 306l1 3a61 61 0 0 1-3.687 6.188l-1.212 1.84C277.613 326.737 270.54 336.084 263 345l-2-2v-4l2.875-.687L267 337c1.44-2.51 1.44-2.51 2-5h2v-2l3-2c.25-3.084.25-3.084 0-6h3l-1-3h4a56 56 0 0 0 4.25-6.5l1.102-1.879A380 380 0 0 0 288 306"/><path fill="#5c3b22" d="m42 127 .438 1.875c.494 2.158.494 2.158 1.562 4.125l-3 1-1 2h2v2l-3 1c-.696 2.31-.696 2.31-1 5 .892 2.117.892 2.117 2 4v3h-2v7l-2 1c-2.055-1.668-2.055-1.668-4-4 .196-8.927 5.411-18.866 9-27z"/><path fill="#3a3f28" d="M186 411c2.491 3.208 4.688 6.538 6.813 10l1.957 3.125L196 427c-.488 2.25-.488 2.25-2 4-2.716 1.505-4.65 1.99-7.754 2.082l-2.809-.27-2.816-.23C178 432 178 432 174 429h15l1-2-2-1 3-1-.937-2.812L188 416h-2zM288 103c5.043 4.346 7.647 9.485 10.625 15.375l1.445 2.79c2.504 4.867 4.971 9.72 6.93 14.835-.312 2.438-.312 2.438-1 4l-2-5-2 1-.312-3.687c-.45-3.724-1.472-6.23-3.688-9.313l-1 4h3l-1 5-1-2h-2v-4h-2v-2l-2-1 2-3v2l3-2-1.46-2.45-1.915-3.237-1.898-3.2A56.6 56.6 0 0 1 288 103M88 134c2.438.75 2.438.75 5 2 .813 2.125.813 2.125 1 4-1.812.625-1.812.625-4 1l-3-2 .5 1.5c.707 3.534.56 6.897.5 10.5-2-2-2-2-2.625-4.125L85 145l-.687 1.62a1354 1354 0 0 1-3.126 7.255c-.356.842-.712 1.684-1.08 2.55-.35.806-.702 1.612-1.064 2.442l-.968 2.254C77 163 77 163 74 165c2.214-5.594 4.609-11.105 7-16.625l1.367-3.18c.436-1.005.872-2.01 1.32-3.047l1.2-2.775C86 137 86 137 88 134"/><path fill="#0b2718" d="m178 602 2 3v2h2c.605 1.738.605 1.738 1 4-.637 2.105-.637 2.105-1.687 4.188l-1.012 2.105L179 619c-2.145.738-2.145.738-4 1-1.113-1.687-1.113-1.687-2-4 .645-2.437.645-2.437 1.813-5 1.337-2.995 2.496-5.788 3.187-9M159 479h3l-1 7 1-3 3 1-2 12-2-3c-.125-2.687-.125-2.687 0-5h-2l.59 1.734c.41 2.266.41 2.266-.149 4.407l-.879 2.109-.87 2.14L157 500l-2-1c.434-7.031 1.743-13.329 4-20"/><path fill="#3a3f28" d="M101 365c2.824 1.195 4.628 2.537 7 4.563 2.707 2.445 2.707 2.445 5.188 3.312 2.05.257 2.05.257 4.812-.875v2h4v2l2 1c1.125 2.063 1.125 2.063 2 4-1 1-1 1-3 2-16.824-11.744-16.824-11.744-22-17z"/><path fill="#5c3b22" d="m159 41 1 2-5 1v-1h-5v3h-3v2h6v1l-3.375.438c-3.446.346-3.446.346-5.625 1.562l-.625-1.937L142 47c-3.06-.816-3.06-.816-6-1l1.938-.875L140 44l1-2c6.002-1.776 11.914-2.588 18-1"/><path fill="#693b23" d="M52 150h2q.72 2.843 1.438 5.688l.808 3.199A170 170 0 0 1 58 167h2c1.625 1.313 1.625 1.313 3 3v3l-6-3v-2h-3c-.562-1.875-.562-1.875-1-4l1-2h-2zM312 215h2l2 20-4-3 1-3h-2l.188 2.75C311 235 311 235 309.5 237.375L308 239c-.545-4.085-1-7.873-1-12l2 2 3-1z"/><path fill="#0b2718" d="M168 398c2.023-.266 2.023-.266 4.375-.25l2.336-.016c2.582.3 4.152.779 6.289 2.266l1 4h-18c2-4 2-4 4-6"/><path fill="#5c3b22" d="m60 130 3 1c.871 1.61.871 1.61 1 4a79 79 0 0 1-2.937 7.25l-.881 1.969A499 499 0 0 1 58 149l-3-3c.95-3.354 1.897-6.692 3-10l.5-2.625L59 131z"/><path fill="#3a3f28" d="M261 74c1.82.345 1.82.345 4 1a96 96 0 0 1 6.125 5.75l1.718 1.735C278.438 88.251 283.29 94.503 288 101l-1 2-7.324-8.79-1.335-1.593q-1.368-1.65-2.707-3.324A150 150 0 0 0 272 85c-2.165-.944-2.165-.944-4-1l-.375-1.937L267 80l-2-1v-2l-4-1zM223 50c4.928.609 8.814 2.748 13.125 5.063l2.274 1.213C246.346 60.603 253.686 65.455 260 72h-4c-1.75-1.375-1.75-1.375-3-3v-2l-2.168-.79c-2.968-1.268-5.456-2.803-8.144-4.585-8.739-5.758-8.739-5.758-18.688-8.625z"/><path fill="#693b23" d="M160 423c2.01.262 4.012.602 6 1l2 2-4 2 2 2-1 1c-2.02.072-4.042.084-6.062.063l-3.348-.028L153 431v-5l2-1 1 4v-2l5 1-2-3z"/><path fill="#3a3f28" d="M55 152h1l.402 1.828.535 2.422.528 2.39L58 161l.316 2.172L59 165c1.746 1.353 1.746 1.353 4 2 2.362.24 2.362.24 4.75.125l2.422-.055L72 167l-1 2-3 1v3l-4 1-.312-1.937L63 170l-3-1v-2h-2c-2.682-5.364-3.315-9.01-3-15"/><path fill="#693b23" d="M85 143h1q.039 2.406.063 4.813l.035 2.707C86 153 86 153 85 156h-2l-3 8-3-1c1.451-4.579 3.206-8.976 5.125-13.375l.84-1.941Q83.979 145.34 85 143"/><path fill="#123925" d="M152 424h1v7q2.876-.213 5.75-.437l3.234-.247c2.453-.257 4.655-.634 7.016-1.316v-2l3-1v2l2 1-1.875.375c-2.316.497-2.316.497-4.125 2.625-3.002 1.016-5.845 1.163-9 1.188l-2.562.042c-2.592-.245-4.208-.924-6.438-2.23q.45-3.008 1-6z"/><path fill="#5c3b22" d="M315 171c2 3 2 3 2.195 5.918l-.07 3.27-.055 3.292L317 186l-5-1v-13z"/><path fill="#eca29a" d="m119 81 2 2-2.437.813L116 85l-1 3-9-1v-3c4.54-2.18 7.85-3.599 13-3"/><path fill="#5c3b22" d="M88 352h7l1 4h2l1 7c-7.37-5.094-7.37-5.094-10-8.875z"/><path fill="#3a3f28" d="M106 79h4v2l2-1c2.333-.04 4.667-.043 7 0v1l-3.812.563c-5.432 1.155-9.405 3.917-13.903 7.074L99 90l-2-1 4-7h5z"/><path fill="#0b2718" d="M169 430h1l.313 1.938L171 434l3 1c.185 9.41.185 9.41-1 14l-2-2q-.061-3.5 0-7l-1-1v10h-1z"/><path fill="#3a3f28" d="m42 127 .438 1.875c.494 2.158.494 2.158 1.562 4.125l-3 1-1 2h2v2l-3 1c-.806 2.106-.806 2.106-1.187 4.563-.16.826-.318 1.652-.481 2.503L37 148h-2l-1 6h-1c.523-6.343 2.104-11.562 4.5-17.437l.973-2.467c2.365-5.934 2.365-5.934 3.527-7.096"/><path fill="#693b23" d="M159 41h24l1 2c-3.79.254-7.582.474-11.375.688l-3.273.22-3.125.166-2.889.175L161 44z"/><path fill="#3a3f28" d="m108 109 2 1-1.715 1.574-2.222 2.114-2.215 2.074c-2.013 2.119-2.013 2.119-2.535 4.863L101 123c-1.062 2.313-1.062 2.313-2 4l-1-2-4 1c3.036-6.714 8.768-11.926 14-17M317 182h1v30h-1l-.148-3.36-.227-4.39c-.03-.73-.062-1.46-.094-2.21-.212-4.264-.212-4.264-1.656-8.227L314 192c.46-2.578.46-2.578 1.375-5.25l.898-2.703z"/><path fill="#123925" d="M182 580h1c.055 2.354.094 4.708.125 7.063l.07 3.972c-.2 4.083-.923 7.115-2.195 10.965l-2-2a100 100 0 0 1 .25-8.437l.121-2.354c.132-2.076.375-4.144.629-6.209z"/><path fill="#3a3f28" d="M308 260h1c-.538 6.182-2.546 11.327-5 17l-1-4h-3v-2h4v-5h3z"/><path fill="#123925" d="M162 517c1.287 2.208 1.983 3.793 2.195 6.36l-.07 2.39-.055 2.422L164 530h-2l-1-2-3 1 .563-2.25c.429-2.7.288-4.196-.563-6.75l1 2c2.224-1.925 2.224-1.925 3-5"/><path fill="#3a3f28" d="m233 372 2 1c-12.095 10.236-12.095 10.236-18 13l-2-1 9-6-1-2 4-1v-2l2.438-.437L232 373zM200 43c7.381.492 14.179 2.065 21 5l1 2-15-3v-2h-7z"/><path fill="#123925" d="M168 444h1l.813 3.25c1.05 3.315 1.933 5.189 4.187 7.75l-1 2-2 1-4-2z"/><path fill="#693b23" d="M78 168c-1.152 2.468-2.048 4.048-4 6-2.625.125-2.625.125-5 0l-2-4c7.714-2 7.714-2 11-2"/><path fill="#3a3f28" d="m163 393 4 2v2l2.484-.07 3.266-.055 3.234-.07C179 397 179 397 183 399l-21-1z"/><path fill="#5c3b22" d="M251 353h2l1 3a1766 1766 0 0 1-4.437 4.5l-2.497 2.531L245 365h-1c-.125-2.375-.125-2.375 0-5l2-2h3v-2h2z"/><path fill="#3a3f28" d="m312 157 2 2c.565 2.655.738 5.291 1 8l-2-2-2 4-1-4-4 1v-2l3-1c1.709-3 1.709-3 3-6M91 65l2 1v1l4 1c-1.5 2.063-1.5 2.063-4 4-2.824.06-5.202-.44-8-1z"/><path fill="#0b2718" d="M160 503h1l1 16h-2c-1.662-3.813-2.118-6.73-1.687-10.812.3-2.333.3-2.333.687-4.188z"/><path fill="#3a3f28" d="M100 59c3.313.813 3.313.813 6 2-1.75 2-1.75 2-4 4h-4v-2l-4 2 1-3c2.188-1.812 2.188-1.812 5-3"/><path fill="#693b23" d="m31 236 1 4 11-1v3c-3.312.625-3.312.625-7 1l-3-2v2h-2l-1 2z"/><path fill="#5c3b22" d="m27 177 2 2c.625 2.625.625 2.625 1 5l2-1c1.478 2.957 1.06 5.742 1 9h-2l-1-6h-2zM178 390h5v2l-6 2v3h-4l-1-4 2.438-.375L177 392z"/><path fill="#693b23" d="m312 162 2 3v2h2l-1 8-1-3c-2-1.209-2-1.209-4-2zM240 69c4.601 1.489 7.502 3.746 11 7v2h-3v-2l-4-1v-2l-4-2z"/><path fill="#0b2718" d="m169 548 2.313 2.063L174 552l3-1c.688 1.813.688 1.813 1 4-1.437 1.75-1.437 1.75-3 3-2.617-2.368-4.329-4.896-6-8z"/><path fill="#123925" d="M223 50c4.507.603 7.859 2.366 11.813 4.563l1.81.998Q238.815 56.773 241 58l-2 1c-2.207-.96-2.207-.96-4.812-2.375-3.422-1.853-6.333-3.03-10.188-3.625zM159 499l3 1v12h-1l-1-8-1 5h-1c-.977-6.055-.977-6.055-1-8z"/><path fill="#3a3f28" d="M32 155h1l1 7-3 1-1 10h-1c-.255-5.865.508-11.316 2-17zM159 41l1 2-5 1v-1h-11l2-2c4.565-1.168 8.404-.991 13 0"/><path fill="#693b23" d="M312 215h2l1 14-3-2c-.293-2.82-.293-2.82-.187-6.125l.082-3.32zM316 192h1v12h-2v-2h-2c.586-6.055.586-6.055 1-8z"/><path fill="#5c3b22" d="m202 43-2.555.621-3.32.816-3.305.81c-2.745.632-2.745.632-4.82 1.753l-4-3c2.784-1.392 5.34-1.383 8.438-1.625l3.496-.29C199 42 199 42 202 43"/><path fill="#3a3f28" d="M76 338h2l1 2 3 1q1.01 2.495 2 5c2.02 2.272 2.02 2.272 4 4l-1 2q-2.759-2.93-5.5-5.875l-1.59-1.684c-1.341-1.446-2.63-2.94-3.91-4.441zM60 130l3 1c.875 1.813.875 1.813 1 4-1.437 2.25-1.437 2.25-3 4v-3h-3c.3-1.673.636-3.34 1-5z"/><path fill="#5c3b22" d="m44 127 6 1v7l-2-1v-2h-2v-2h-2zM218 49h6l1 4 6 1v1c-3.25.75-3.25.75-7 1-2.312-1.875-2.312-1.875-4-4l-2-1z"/><path fill="#3a3f28" d="m205.164 387.121 2.461.317 2.477.308L212 388c-2.847 2.32-5.476 3.916-9 5l-3-1 3-2-2-2c2-1 2-1 4.164-.879"/><path fill="#5c3b22" d="m303 134 2 1a89 89 0 0 1 2 4l2 3c.625 2.188.625 2.188 1 4h-2a99 99 0 0 1-3-5l-1-1-2 2zM260 342l2 1c-.187 2.375-.187 2.375-1 5-2.562 1.313-2.562 1.313-5 2v-4h2v-3zM310 150c1.206 2.332 2.165 4.496 3 7-.937 2.188-.937 2.188-2 4l-2-2h2l-3-6-2 2v-4c2-1 2-1 4-1"/><path fill="#693b23" d="M39 137c1 3 1 3 .563 5.188L39 144h3v6c-2.057-1.858-3.725-3.39-4.875-5.937-.167-2.749.713-4.602 1.875-7.063M231 55l6 2c-.562 1.938-.562 1.938-2 4-3.625.75-3.625.75-7 1v-2h4z"/><path fill="#123925" d="m156 489 4 1-3 10-2-1z"/><path fill="#0b2718" d="M161 476c2.063 2.313 2.063 2.313 4 5l-1 3-2-1-1 4-1-2 .5-1.875c.57-2.421.15-3.767-.5-6.125z"/><path fill="#693b23" d="M178 410h6v4h-2v-2h-2v2h-3zM109 367l5 1 1 4-4 1-3-4z"/><path fill="#5c3b22" d="M107 360v5h-2l-1-2-4 2-1-2h2v-2c2-1 2-1 6-1"/><path fill="#3a3f28" d="M79 107v3c-1.094 1.824-1.094 1.824-2.5 3.688l-1.406 1.886L74 117l-1-2c.688-3 .688-3 2-6 2.125-1.375 2.125-1.375 4-2M101 82l4 2v2a125 125 0 0 1-6 4l-2-1z"/><path fill="#693b23" d="m84 70 3 1 1 6-6-2z"/><path fill="#123925" d="m162 483 3 1-2 12c-2-4-2-4-1.977-6.36l.352-2.39.336-2.422z"/><path fill="#693b23" d="M36 259h4l-1 7-3 1z"/><path fill="#3a3f28" d="M314 232h1q.079 2.156.125 4.313l.07 2.425C315 241 315 241 313 244c-.88-5.285-.88-5.285-1-8 .938-2.5.938-2.5 2-4"/><path fill="#693b23" d="M110 115v3q-1.47 1.53-3 3l-1 3h-2l-1-4 5-2v-2z"/><path fill="#5c3b22" d="m45 123 5 5-6-1-1 4c-.553-2.076-1-3.844-1-6h3z"/><path fill="#3a3f28" d="m125 86 2 3c.125 2.688.125 2.688 0 5h2v3h-3l-2-2c.023-2.164.023-2.164.375-4.625l.336-2.477z"/><path fill="#693b23" d="m256 72 4 1c-.875 1.938-.875 1.938-2 4l-2 1-2-1v-3h2z"/><path fill="#0b2718" d="M167 535c1.5 1.063 1.5 1.063 3 3 .188 3.688.188 3.688 0 7-2.062-1.625-2.062-1.625-4-4 .25-3.25.25-3.25 1-6"/><path fill="#3a3f28" d="m274 324 3 1c-1.394 4.435-3.606 6.874-7 10 .313-2.375.313-2.375 1-5l3-2z"/><path fill="#5c3b22" d="m51 108 3 3v4h-3v2h-2z"/><path fill="#693b23" d="M78 103c-1.293 2.884-2.66 4.872-5 7l-1-6c3-1 3-1 6-1M179 393l3 1v2l4 1h-9v-3zM35 248h5l-1 6-1-2-3-1z"/><path fill="#3a3f28" d="M64 91v6l-6 3c1.312-3.937 2.92-6.227 6-9"/><path fill="#123925" d="M173 616h6v3l-4 1z"/><path fill="#3a3f28" d="M255 348h3v3c-2.5 2.188-2.5 2.188-5 4l-1-4h3z"/><path fill="#693b23" d="m47 288 4 2v2h2l-1 2-2-1-1 2c-1.46-2.647-2-3.894-2-7M52 150h2c1.607 3.215 1.057 6.436 1 10-2.296-3.445-2.54-5.938-3-10"/><path fill="#5c3b22" d="m118 101 5 3-2 4h-2v-5l-2-1z"/><path fill="#3a3f28" d="m171 426 1 2 2 1-1.875.375c-2.316.497-2.316.497-4.125 2.625l-3-1 1-2h3v-2zM152 424h1v8l-3-1q.45-3.008 1-6z"/><path fill="#693b23" d="m187 422 2 1-1 3-2 1 1 2h-3l-1-3zM72 112l2 3-4 6-2-3 1-2 2 1z"/><path fill="#5c3b22" d="m75 78 3 1-2 5h-3c.3-1.673.636-3.34 1-5z"/><path fill="#0b2718" d="m179 600 1 2h2l1 8-1-3h-2z"/><path fill="#5c3b22" d="m167 412 4 2-2 4-3-1zM170 409h5l1 4-6-2zM146 391h7l1 2-7 1z"/><path fill="#693b23" d="m69 170 1 2 6-2-2 4h-5z"/><path fill="#5c3b22" d="M54 148h3v10h-1v-6h-2z"/><path fill="#eca29a" d="m67 127 2 1v4h-2l1 3h-2c-.625-1.75-.625-1.75-1-4 .938-2.25.938-2.25 2-4"/><path fill="#5c3b22" d="m286 106 3 1 1 5h-2v-2l-3 1z"/><path fill="#123925" d="M170 459h3l-2 9h-1z"/><path fill="#5c3b22" d="M91 354h3l2 4-2 2c-1.5-1.312-1.5-1.312-3-3z"/><path fill="#693b23" d="M85 345q3.012.43 6 1l-1 3-2-1-1 2-3-4zM283 101l2 2c.625 2.625.625 2.625 1 5l-3-1c-1.187-2.062-1.187-2.062-2-4zM85 84c2.063.438 2.063.438 4 1l-1 3-3 1c-.562-1.937-.562-1.937-1-4z"/><path fill="#5c3b22" d="m91 74 5 1-2 1v2l-4-1z"/><path fill="#693b23" d="m128 53-4 1v2h-4l1-3c2.944-1.178 3.9-1.033 7 0"/><path fill="#123925" d="M159 479h3c-.375 2.938-.375 2.938-1 6l-2 1c-.562-1.812-.562-1.812-1-4z"/><path fill="#693b23" d="M118 370h4v4h-4zM41 132l3 1v5h-2v-2h-2z"/><path fill="#3a3f28" d="M122 48v3l-1 1c-2 .04-4 .043-6 0 2.386-1.892 4.072-3.024 7-4"/><path fill="#5c3b22" d="M164 405h6v3c-2.437-.375-2.437-.375-5-1zM99 352h4l-1 4h-3z"/><path fill="#693b23" d="M38 152h3c-.375 2.438-.375 2.438-1 5l-2 1z"/><path fill="#eca29a" d="M122 89c1.063 1.813 1.063 1.813 2 4l-1 3h-4v-2l2-1c.652-2.025.652-2.025 1-4"/><path fill="#693b23" d="M261 78c3 .313 3 .313 6 1l1 2h-2l-1 2-1-2c-2.017-1.134-2.017-1.134-4-2z"/><path fill="#3a3f28" d="m121 79 3 1v4l-5-2 2-1z"/><path fill="#5c3b22" d="M169 426v3h-5l-1-2c3-1 3-1 6-1M162 408h2l1 4-5 2z"/><path fill="#693b23" d="M198 388c2.438.375 2.438.375 5 1l1 2-4 1v-2h-2z"/><path fill="#3a3f28" d="M95 358h4v5c-2-1.375-2-1.375-4-3z"/><path fill="#693b23" d="m66 319 5 1-3 3-2-1z"/><path fill="#5c3b22" d="m60 309 2 1-1 5-1-2h-2v-2h2zM306 258l4 1-1 3-2 1v-2h-2zM58 165l4 1v2l2 1-1 2-3-2v-2h-2z"/><path fill="#693b23" d="M294 118h3l1 3-4 1-1-3z"/><path fill="#5c3b22" d="m78 104 1 4-5 2c1.152-2.468 2.048-4.048 4-6"/><path fill="#693b23" d="m58 101 3 1-1 4-3-1z"/><path fill="#3a3f28" d="M123 95c1 3 1 3 1 5l-5 1z"/><path fill="#693b23" d="m72 84 2 3v2l-5-1zM162 426l3 1-1 1 2 2-4 1zM148 386h4v3l-5-1z"/><path fill="#5c3b22" d="M303 272c1.231 2.463 1.072 4.28 1 7h-3q.45-3.008 1-6zM37 144c1.5 1.813 1.5 1.813 3 4v3h-2z"/><path fill="#693b23" d="M51 128h2l1 6h-2z"/><path fill="#eca29a" d="m118 97 3 2-4 3-1-4z"/><path fill="#5c3b22" d="M94 87h4l-1 5-2-1c-.625-2.062-.625-2.062-1-4M220 376l2 1-1 4-3-1v-3zM256 346l5 1c-2 2-2 2-5 3zM307 253l3 2-1 2h-4zM73 165l2 4-4 1zM57 99l6 1-1 3-5-2z"/><path fill="#693b23" d="m231 55 6 2-1 2h-3z"/><path fill="#3a3f28" d="m223 50 5 1-3 3z"/><path fill="#5c3b22" d="m283 304 3 1-1 5-2-1z"/><path fill="#693b23" d="m306 172 3 1v3h-3z"/><path fill="#5c3b22" d="m278 102 4 1-2 3-2-1z"/><path fill="#693b23" d="m83 97 2 1c-.375 1.938-.375 1.938-1 4l-2 1a100 100 0 0 1 0-5z"/><path fill="#5c3b22" d="M127 88h2v4h-3z"/><path fill="#693b23" d="m267 82 3 4h-4z"/><path fill="#5c3b22" d="M261 74c1.938.375 1.938.375 4 1l1 2-5-1zM211 381h3v3l-3 1z"/><path fill="#693b23" d="M220 378h5l-2 3h-2zM124 376l4 2-2 2-3-3z"/><path fill="#5c3b22" d="M234 368h2l1 4h-3z"/><path fill="#3a3f28" d="M101 361h2l-1 4-3-1 2-1z"/><path fill="#5c3b22" d="M251 353h2l1 3-3 2z"/><path fill="#3a3f28" d="m262 340 4 1-3 3z"/><path fill="#5c3b22" d="M50 293h2l1 4h-3z"/><path fill="#693b23" d="M310 240h3l-1 4-2-1z"/><path fill="#5c3b22" d="m79 83 3 2-1 3-3-4z"/><path fill="#123925" d="m176 609 2 2v3l-3-1z"/><path fill="#693b23" d="M174 418h2v4l-3-1zM163 406l3 1-2 4zM242 354h3v3h-3zM71 329l4 2-2 2z"/><path fill="#3a3f28" d="m274 324 3 1-2 4z"/><path fill="#5c3b22" d="M280 308h2l1 3-3 1z"/><path fill="#ffa6a4" d="m95 92 1 3-1 2-2-1z"/><path fill="#123925" d="m178 553 2 3-2 2-1-3z"/><path fill="#3a3f28" d="M168 414h3l-1 3h-2z"/><path fill="#693b23" d="m177 394 3 1v2h-3z"/><path fill="#3a3f28" d="M88 352h4l-1 3z"/><path fill="#693b23" d="M35 256h3v3l-3-1z"/><path fill="#eca29a" d="m70 164 4 1-3 2z"/><path fill="#5c3b22" d="m103 116 3 2-5 1zM56 111l-2 4v-2l-2-1c2-1 2-1 4-1"/><path fill="#eca29a" d="M107 106h4l-1 3z"/><path fill="#693b23" d="m56 103 2 4h-3z"/><path fill="#5c3b22" d="m283 98 1 3h-3v-2z"/><path fill="#693b23" d="m226 374 2 3-2 1-2-2h2zM285 306h3l-1 3-2-1zM298 271l3 1-2 3z"/><path fill="#eca29a" d="m90 126 2 3h-3z"/><path fill="#693b23" d="m66 121 3 1-2 3z"/><path fill="#eca29a" d="m75 114 2 3-2 2-1-3z"/><path fill="#693b23" d="m121 100 3 2-3 1-2-2z"/><path fill="#5c3b22" d="m114 106 2 2-3 1z"/><path fill="#693b23" d="m58 101 3 1-2 2z"/><path fill="#5c3b22" d="m84 70 2 1v2l-3-1z"/></svg>