<?xml version="1.0" standalone="no"?>
<!DOCTYPE svg PUBLIC "-//W3C//DTD SVG 1.1//EN" "http://www.w3.org/Graphics/SVG/1.1/DTD/svg11.dtd">
<svg xmlns="http://www.w3.org/2000/svg" width="359" height="644" viewBox="0 0 359 644"><path fill="#4500d4" d="M224 49c11.358 5.255 22.266 11.089 32 19l2.71 2.105c22.77 18.019 38.454 41.497 49.248 68.272 11.292 29.57 13.09 63.403 8.52 94.58C309.874 272.843 292.622 307.289 268 339l-2.273 2.93C257.204 352.606 247.825 363.59 237 372l-1.532 1.2C218.487 386.402 201.611 394.177 181 400a21966 21966 0 0 0 6.738 12.275l1.465 2.666 1.434 2.615a253 253 0 0 0 3.75 6.452L196 427l-.437 2.313c-2.03 2.192-3.718 2.784-6.563 3.687-2.824.012-2.824.012-5.687-.312l-2.887-.301C178 432 178 432 176 431l.14 2.867c.534 15.812-3.417 29.889-8.677 44.702-3.265 9.284-4.838 18.02-4.775 27.868l.014 2.793c.115 6.673.841 12.522 3.298 18.77l.926 2.652c2.527 6.7 5.973 12.665 9.637 18.785 4.396 7.361 7.583 14.133 9.437 22.563l.57 2.39c2.012 12.22.26 25.035-3.59 36.7-2.44 6.37-2.44 6.37-4.98 8.91-2.062-.187-2.062-.187-4-1l-1-3c.707-2.129.707-2.129 1.813-4.562 4.608-11.13 5.153-22.506 4.187-34.438-1.524-11.25-5.795-20.58-11.988-30.035-6.31-9.778-11.333-20.604-12.189-32.406-.404-16.817 1.729-29.603 8.009-45.293 2.011-5.624 3.125-11.397 4.168-17.266l.402-2.238c.889-5.88.687-11.834.598-17.762l-1.687.488c-2.497.553-4.758.68-7.313.7l-2.562.042c-2.592-.245-4.208-.924-6.438-2.23.539-4.485 1.657-7.675 3.906-11.582l1.754-3.072 1.84-3.159 1.84-3.216c4.47-7.781 4.47-7.781 5.66-8.971l-3.559-1.031c-23.512-7-45.099-18.275-62.503-35.906l-1.567-1.657c-1.48-1.583-1.48-1.583-3.871-3.344-2.805-2.313-5.036-4.816-7.383-7.585a206 206 0 0 0-4.672-5.266C55.881 318.006 38.193 282.073 30 245c-1.269-6.299-2.223-12.623-3-19l-.398-3.156C24.717 203.89 25.418 184.687 29 166l.422-2.243C32.849 146.152 39.508 129.74 48 114l1.676-3.168C57.903 95.968 69.716 81.579 83 71l3.098-2.488c20.621-16.078 43.976-25.315 69.707-29.067 22.652-2.694 47.228.449 68.195 9.555"/><path fill="#e9467c" d="M117.977 81.59C120 82 120 82 123.125 83.5L125 86c.227 3.405.168 4.927-1 8-4.056 6.553-10.83 11.595-16.442 16.795-10.929 10.159-18.226 20.662-24.296 34.268l-1.448 3.241a450 450 0 0 0-2.782 6.433c-3.678 8.4-3.678 8.4-7.145 11.466C69 168 69 168 65.437 168.187 62 167 62 167 59.064 164.563c-1.376-1.928-2.029-3.409-2.543-5.726-.547-9.073 3.59-17.047 7.5-24.988 9.829-19.426 22.394-35.928 40.355-48.512 4.487-2.79 8.278-4.11 13.602-3.746"/><path fill="#300076" d="M170 429c2.5.375 2.5.375 5 1l1 1c1.347 16.764-2.976 31.908-8.537 47.57-3.265 9.283-4.838 18.019-4.775 27.868l.014 2.792c.115 6.673.841 12.522 3.298 18.77l.926 2.652c2.527 6.7 5.973 12.665 9.637 18.785 4.396 7.361 7.583 14.133 9.437 22.563l.57 2.39c2.012 12.22.26 25.035-3.59 36.7-2.44 6.37-2.44 6.37-4.98 8.91-2.062-.187-2.062-.187-4-1l-1-3c.707-2.129.707-2.129 1.813-4.562 4.608-11.13 5.153-22.506 4.187-34.438-1.524-11.25-5.795-20.58-11.988-30.035-6.31-9.778-11.333-20.604-12.189-32.406-.371-15.454 1.003-27.641 6.74-42.121 4.543-11.512 5.852-22.996 6.791-35.239l.216-2.781.18-2.507L169 430z"/><path fill="#270062" d="M168 398c2.023-.266 2.023-.266 4.375-.25l2.336-.016c2.582.3 4.152.779 6.289 2.266l1 4h-18c2-4 2-4 4-6"/><path fill="#4500d4" d="m50 111 1 2a134 134 0 0 1-3.812 8l-1.12 2.234C43.281 128.72 43.281 128.72 41 131c.54-4.95 2.083-8.479 4.5-12.812l1.906-3.458C49 112 49 112 50 111"/><path fill="#ec546c" d="m67 161-1 5 3 2c-3.312-.312-3.312-.312-7-1-1.937-1.437-1.937-1.437-3-3v-2c2.928-.976 4.956-1.082 8-1"/><path fill="#270062" d="M176 610h2v3h2l-2 5h-3c-.625-1.75-.625-1.75-1-4 .938-2.25.938-2.25 2-4"/><path fill="#4500d4" d="M126.285 47.39 128 48c-5.245 3.348-9.879 4.945-16 6 2.245-2.496 4.385-3.87 7.438-5.25l2.308-1.078C124 47 124 47 126.286 47.39"/><path fill="#ec546c" d="m115.625 81.75 2.352-.016L120 82l2 2-3 1c-3.187-.937-3.187-.937-6-2l-1 2-3 1-2-2c2.994-1.723 5.177-2.273 8.625-2.25"/><path fill="#4500d4" d="m230 369 1.375 1.438c1.558 1.652 1.558 1.652 3.625 2.562l-5 4-2-1z"/><path fill="#ec546c" d="m116 97 4 1-6 7-2-1 2-2c.707-1.65 1.38-3.316 2-5"/><path fill="#4500d4" d="M279 91c3.26 3.17 6.222 6.4 9 10l-1 2-7-7c-.625-2.625-.625-2.625-1-5"/><path fill="#e9467c" d="m75 149 3 1-1 6-4-4z"/><path fill="#270062" d="m178 563 2 2 2-1 2 1-1 3c-2.062.688-2.062.688-4 1v-3l-2-1z"/><path fill="#ec546c" d="m106 105 5 1-4 5-2-1z"/><path fill="#4500d4" d="M86 97h2c-.187 1.75-.187 1.75-1 4-2.562 2.25-2.562 2.25-5 4z"/><path fill="#ec546c" d="m90 97 1 3-5 4-2-1z"/><path fill="#4500d4" d="m152 427 4 2v2l-5 1zM222 49l4 1-1 4c-1.5-1.375-1.5-1.375-3-3z"/><path fill="#e9467c" d="M85 108h2l1 3-5 1z"/><path fill="#4500d4" d="m32 155 2 1-1 4-2-1z"/><path fill="#e9467c" d="m82 137 2 1-2 4-2-4z"/><path fill="#4500d4" d="M40 130h3l-2 4h-2zM235 369h2l-1 4-2-1z"/><path fill="#e9467c" d="m60 142 2 4-2 2-1-3z"/></svg>