<?xml version="1.0" encoding="UTF-8"?>
<svg version="1.1" xmlns="http://www.w3.org/2000/svg" width="359" height="644">
<path d="M0 0 C0.72058594 0.63808594 1.44117188 1.27617188 2.18359375 1.93359375 C31.86723636 29.64244101 47.5566338 72.36306636 49.1262207 112.20385742 C49.51142914 128.04876457 48.69135834 143.37968101 46 159 C45.86078125 159.8240332 45.7215625 160.64806641 45.578125 161.49707031 C39.53178909 196.13753647 23.3895221 228.31651138 2 256 C1.2884375 256.92554688 0.576875 257.85109375 -0.15625 258.8046875 C-23.2747004 288.2531898 -51.23079236 313.73914052 -89 321 C-88.29875 322.093125 -87.5975 323.18625 -86.875 324.3125 C-84.19252042 328.59078896 -81.80548477 333.00117319 -79.42578125 337.453125 C-78.25531884 339.5439236 -77.03343706 341.44399796 -75.625 343.375 C-73.82652226 346.28023327 -73.27729679 347.65749766 -74 351 C-76.31538963 353.28254722 -77.65102399 353.96065237 -80.91015625 354.328125 C-81.95042969 354.30234375 -82.99070313 354.2765625 -84.0625 354.25 C-85.10535156 354.23453125 -86.14820313 354.2190625 -87.22265625 354.203125 C-90 354 -90 354 -93 353 C-92.938125 354.27875 -92.87625 355.5575 -92.8125 356.875 C-92.92420204 370.27924461 -96.3071631 382.38244108 -100.5625 395 C-104.16269762 405.74323061 -106.74464106 415.65974161 -107 427 C-107.02835938 428.10472656 -107.05671875 429.20945312 -107.0859375 430.34765625 C-106.67374 445.46780993 -100.01108388 458.89644663 -92.31518555 471.56835938 C-82.55011289 487.69248775 -80.0277894 505.94322313 -83.75390625 524.578125 C-85.39784827 530.53499727 -87.57074578 535.85611866 -91 541 C-92.65 541 -94.3 541 -96 541 C-97.53381853 536.25070649 -96.21444602 532.64815756 -94.625 528.125 C-88.84118851 511.31381165 -90.19806055 494.31801483 -97.4140625 478.02734375 C-99.57448175 473.90339075 -102.11505693 470.08509609 -104.68847656 466.21069336 C-115.26185764 450.09094803 -118.76099512 430.40946325 -114.8671875 411.56713867 C-113.21620748 404.42353813 -110.82779623 397.69104886 -108.15307617 390.87646484 C-103.43378599 378.60903042 -102.46159681 366.00429637 -102 353 C-102.7425 353.32355469 -103.485 353.64710938 -104.25 353.98046875 C-107.94194269 355.34921455 -111.11143608 355.54094942 -115 355 C-118 353.5 -118 353.5 -120 352 C-119.68267405 344.9196647 -116.44341429 339.69461275 -113 333.625 C-112.16082031 332.11099609 -112.16082031 332.11099609 -111.3046875 330.56640625 C-107.20027546 323.20027546 -107.20027546 323.20027546 -106 322 C-107.20011719 321.69449219 -108.40023437 321.38898438 -109.63671875 321.07421875 C-134.17970208 314.47798084 -154.79699556 301.59623763 -173 284 C-173.60875977 283.4117041 -174.21751953 282.8234082 -174.84472656 282.21728516 C-182.73936251 274.55150665 -190.53240425 266.93750436 -197 258 C-197.44794922 257.38543945 -197.89589844 256.77087891 -198.35742188 256.13769531 C-233.25686407 208.09990655 -251.92648766 151.28314504 -242.62548828 91.59667969 C-238.11058603 65.20776009 -228.0023842 39.53505301 -212 18 C-211.30648437 17.06414062 -210.61296875 16.12828125 -209.8984375 15.1640625 C-199.41783069 1.77871822 -187.10299899 -9.56692435 -173 -19 C-172.1646875 -19.56976563 -171.329375 -20.13953125 -170.46875 -20.7265625 C-115.49378222 -55.93313433 -46.20181713 -42.35032838 0 0 Z " fill="#F0C5C9" transform="translate(270,79)"/>
<path d="M0 0 C2.5 1.625 2.5 1.625 4 4 C4.65827003 7.42300417 4.65102676 9.73221105 3.03515625 12.87890625 C-1.83664991 19.868889 -8.65333392 25.44573499 -15.20703125 30.8046875 C-28.8230078 42.03048276 -36.68537231 59.40936014 -42.515625 75.73046875 C-44.40074072 79.88268417 -46.78760458 83.89380229 -51 86 C-54.3125 86.375 -54.3125 86.375 -58 86 C-61.16639117 83.46688706 -63.73880431 80.89824124 -65 77 C-66.17202489 57.77879174 -49.44486245 36.2103648 -38 22 C-37.36336426 21.19344971 -37.36336426 21.19344971 -36.71386719 20.37060547 C-28.80954313 10.55374497 -13.65057939 -3.87573862 0 0 Z " fill="#F7F4F4" transform="translate(121,82)"/>
<path d="M0 0 C1.67542976 0.28604898 3.34385343 0.61781233 5 1 C5.5238388 15.08078685 5.91145826 27.64296033 0.77050781 40.92431641 C-7.20386889 62.4066202 -10.4247908 84.16452579 -1.00927734 105.90087891 C1.54970158 111.22310938 4.59430348 116.30688267 7.63427734 121.36547852 C17.34745033 137.63854001 19.99873015 155.81059466 16.24609375 174.578125 C14.60215173 180.53499727 12.42925422 185.85611866 9 191 C7.35 191 5.7 191 4 191 C2.46618147 186.25070649 3.78555398 182.64815756 5.375 178.125 C11.15881149 161.31381165 9.80193945 144.31801483 2.5859375 128.02734375 C0.42551825 123.90339075 -2.11505693 120.08509609 -4.68847656 116.21069336 C-15.26185764 100.09094803 -18.76099512 80.40946325 -14.8671875 61.56713867 C-13.21942894 54.43747702 -10.86208988 47.69755621 -8.15307617 40.90942383 C-5.85615789 35.01598606 -4.62329381 29.13411586 -3.54296875 22.9140625 C-3 20 -3 20 -2 18 C-1.73492604 14.34418829 -1.55514201 10.69453367 -1.39453125 7.03320312 C-1.1006921 1.1006921 -1.1006921 1.1006921 0 0 Z " fill="#4C4D4F" transform="translate(170,429)"/>
<path d="M0 0 C0.66 0 1.32 0 2 0 C2.65134925 1.56020867 3.29582964 3.12328579 3.9375 4.6875 C4.29714844 5.55761719 4.65679687 6.42773438 5.02734375 7.32421875 C10.08654874 21.24211199 8.84253317 41.51874948 3 55 C1.79276542 57.49196057 0.53915371 59.69126943 -1 62 C-2.65 62 -4.3 62 -6 62 C-7.53381853 57.25070649 -6.21444602 53.64815756 -4.625 49.125 C-0.60542188 37.44172075 0.06263305 26.49364601 -2.66015625 14.41015625 C-3.01502214 11.89346364 -2.92330488 10.35838447 -2 8 C-1.34 7.67 -0.68 7.34 0 7 C0.99 7.33 1.98 7.66 3 8 C2.34 7.01 1.68 6.02 1 5 C0.67 5 0.34 5 0 5 C0 3.35 0 1.7 0 0 Z " fill="#5A5B5D" transform="translate(180,558)"/>
<path d="M0 0 C1.67542976 0.28604898 3.34385343 0.61781233 5 1 C5.5550072 15.91859362 5.77028888 29.05671179 0 43 C-0.33 43.99 -0.66 44.98 -1 46 C-1.66 46 -2.32 46 -3 46 C-3 46.66 -3 47.32 -3 48 C-4.32 48 -5.64 48 -7 48 C-8.09535708 42.57902896 -7.74433069 38.84912295 -6.1875 33.5625 C-5.65189453 31.70818359 -5.65189453 31.70818359 -5.10546875 29.81640625 C-4.54960188 27.89738883 -3.99371718 25.97837611 -3.4362793 24.05981445 C-2.07052743 19.04751129 -1.6226881 14.2432501 -1.4375 9.0625 C-1.12368651 1.12368651 -1.12368651 1.12368651 0 0 Z " fill="#515355" transform="translate(170,429)"/>
<path d="M0 0 C1.515625 1.2265625 1.515625 1.2265625 3 3 C3.109375 5.0859375 3.109375 5.0859375 2.75 7.375 C2.64171875 8.12523437 2.5334375 8.87546875 2.421875 9.6484375 C2.14792346 11.17546366 1.83580486 12.69630759 1.47973633 14.20629883 C0.90863876 17.53203392 0.88798329 20.67607419 0.90234375 24.05078125 C0.9037587 24.70958786 0.90517365 25.36839447 0.90663147 26.04716492 C0.912195 28.13565762 0.92474053 30.22404011 0.9375 32.3125 C0.94251972 33.73502449 0.9470818 35.15755066 0.95117188 36.58007812 C0.96215243 40.05342077 0.97939165 43.52669961 1 47 C0.67 46.34 0.34 45.68 0 45 C-0.66 45 -1.32 45 -2 45 C-2.33 45.66 -2.66 46.32 -3 47 C-3 45.68 -3 44.36 -3 43 C-3.66 43 -4.32 43 -5 43 C-7.37499274 30.51703815 -7.30499112 13.81363568 -2 2 C-1.34 2 -0.68 2 0 2 C0 1.34 0 0.68 0 0 Z " fill="#292B2D" transform="translate(161,476)"/>
<path d="M0 0 C0.66 1.32 1.32 2.64 2 4 C3.32 4 4.64 4 6 4 C6.33 3.34 6.66 2.68 7 2 C5.21518987 11.26582278 5.21518987 11.26582278 3.9375 15.625 C1.06614137 27.01855105 1.88881958 38.57648951 4 50 C4.33556943 51.99962603 4.66958957 53.99951504 5 56 C4.34 55.34 3.68 54.68 3 54 C3 53.01 3 52.02 3 51 C2.34 51 1.68 51 1 51 C0.34 53.97 -0.32 56.94 -1 60 C-6.63339528 54.36660472 -7.21653979 41.63495823 -7.32568359 33.97290039 C-7.29552444 28.88773183 -7.18643228 23.97722809 -6 19 C-5.67 19 -5.34 19 -5 19 C-5 27.91 -5 36.82 -5 46 C-4.34 46 -3.68 46 -3 46 C-2.67 46.66 -2.34 47.32 -2 48 C-1.34 48 -0.68 48 0 48 C-0.01047363 47.16863525 -0.02094727 46.33727051 -0.03173828 45.48071289 C-0.0661057 42.35523529 -0.09103659 39.22985498 -0.10986328 36.10424805 C-0.12470245 34.10263623 -0.15013361 32.10111188 -0.17578125 30.09960938 C-0.21141443 23.02642413 0.23280545 16.84075309 2 10 C1.74163055 7.09010956 1.74163055 7.09010956 1 5 C0.34 5 -0.32 5 -1 5 C-0.67 3.35 -0.34 1.7 0 0 Z " fill="#9FA1A3" transform="translate(161,473)"/>
<path d="M0 0 C1.38671875 1.890625 1.38671875 1.890625 2.6875 4.25 C3.34298828 5.40242187 3.34298828 5.40242187 4.01171875 6.578125 C5.10006735 9.24522434 5.02387644 11.15392892 5 14 C5.66 14.66 6.32 15.32 7 16 C7 16.99 7 17.98 7 19 C6.01 19 5.02 19 4 19 C3.34 19.99 2.68 20.98 2 22 C2 21.01 2 20.02 2 19 C1.34 19 0.68 19 0 19 C-5.37129841 6.51480638 -5.37129841 6.51480638 -7 0 C-3.98968256 -0.93423645 -3.13349732 -1.04449911 0 0 Z " fill="#6B6D6F" transform="translate(176,547)"/>
<path d="M0 0 C0.33 0 0.66 0 1 0 C1.07654536 4.51617599 1.10228696 8.59085217 0 13 C1.65 13.33 3.3 13.66 5 14 C5.33 13.01 5.66 12.02 6 11 C5.62964591 17.78982507 3.59523599 22.26884891 0 28 C-1.65 28 -3.3 28 -5 28 C-6.53381853 23.25070649 -5.21444602 19.64815756 -3.625 15.125 C-1.88209966 10.05909737 -0.5989702 5.33501366 0 0 Z " fill="#717375" transform="translate(179,592)"/>
<path d="M0 0 C0.33 0 0.66 0 1 0 C1 1.98 1 3.96 1 6 C1.66 6 2.32 6 3 6 C3.33 5.34 3.66 4.68 4 4 C4.22423695 6.97871518 4.42969368 9.95685926 4.625 12.9375 C4.68945312 13.76830078 4.75390625 14.59910156 4.8203125 15.45507812 C5.18463245 21.30696726 4.57543729 26.3545408 3 32 C1.68 31.67 0.36 31.34 -1 31 C-1.33 31.66 -1.66 32.32 -2 33 C-1.84660156 32.12214844 -1.69320312 31.24429688 -1.53515625 30.33984375 C-0.69392753 24.45124273 -0.63508976 18.49991031 -0.4375 12.5625 C-0.39431641 11.35400391 -0.35113281 10.14550781 -0.30664062 8.90039062 C-0.20110596 5.93369394 -0.09899286 2.96692098 0 0 Z " fill="#2B2E30" transform="translate(180,574)"/>
<path d="M0 0 C2.31406112 3.47109168 2.08619615 4.94878113 2 9 C2.33 9.66 2.66 10.32 3 11 C3.13996069 15.66908861 3.04247285 20.32798622 3 25 C3.33 19.72 3.66 14.44 4 9 C4.33 9 4.66 9 5 9 C5.85373239 16.02804699 6.12109311 22.92278069 6 30 C5.67 29.34 5.34 28.68 5 28 C4.34 28 3.68 28 3 28 C2.67 28.66 2.34 29.32 2 30 C2 28.68 2 27.36 2 26 C1.34 26 0.68 26 0 26 C-0.89017921 21.42900043 -1.1343926 17.09153562 -1.125 12.4375 C-1.12757813 11.15746094 -1.13015625 9.87742187 -1.1328125 8.55859375 C-1.02078522 5.55692156 -0.70355355 2.90913811 0 0 Z " fill="#202223" transform="translate(156,493)"/>
<path d="M0 0 C1.65 0.33 3.3 0.66 5 1 C5 7.27 5 13.54 5 20 C4.34 19.34 3.68 18.68 3 18 C3 17.01 3 16.02 3 15 C2.34 15 1.68 15 1 15 C0.67 13.35 0.34 11.7 0 10 C0 13.3 0 16.6 0 20 C-0.33 20 -0.66 20 -1 20 C-1.02888514 16.85418577 -1.04675923 13.70840531 -1.0625 10.5625 C-1.07087891 9.66466797 -1.07925781 8.76683594 -1.08789062 7.84179688 C-1.09111328 6.98779297 -1.09433594 6.13378906 -1.09765625 5.25390625 C-1.10551147 4.06776733 -1.10551147 4.06776733 -1.11352539 2.85766602 C-1 1 -1 1 0 0 Z " fill="#2E2B2E" transform="translate(170,429)"/>
<path d="M0 0 C0.66 1.32 1.32 2.64 2 4 C3.32 4 4.64 4 6 4 C6.33 3.34 6.66 2.68 7 2 C5.21518987 11.26582278 5.21518987 11.26582278 3.9375 15.625 C1.53115162 24.92828391 1.82964029 35.45985604 2 45 C1.67 45 1.34 45 1 45 C-0.08401939 39.70131324 -0.18347979 34.57056755 -0.1875 29.1875 C-0.19974609 28.33607422 -0.21199219 27.48464844 -0.22460938 26.60742188 C-0.23634322 21.47191098 0.28434303 16.87738537 1.60571289 11.90966797 C2.12288149 9.40484271 1.77951761 7.4165046 1 5 C0.34 5 -0.32 5 -1 5 C-0.67 3.35 -0.34 1.7 0 0 Z " fill="#9C9EA0" transform="translate(161,473)"/>
<path d="M0 0 C0.66 0.33 1.32 0.66 2 1 C1.67 2.32 1.34 3.64 1 5 C1.66 5 2.32 5 3 5 C4.99785435 9.1205746 5.17835515 12.45194365 5 17 C2 15 2 15 1.3125 12.875 C1.209375 12.25625 1.10625 11.6375 1 11 C1.33 13.64 1.66 16.28 2 19 C1.01 18.01 0.02 17.02 -1 16 C-1.99 18.64 -2.98 21.28 -4 24 C-5.0826674 19.66933041 -4.70725583 17.96270145 -3.5625 13.75 C-3.27503906 12.67234375 -2.98757812 11.5946875 -2.69140625 10.484375 C-2.46324219 9.66453125 -2.23507813 8.8446875 -2 8 C-1.67 8 -1.34 8 -1 8 C-0.67 5.36 -0.34 2.72 0 0 Z " fill="#828487" transform="translate(170,439)"/>
<path d="M0 0 C0.77988281 -0.01417969 1.55976563 -0.02835937 2.36328125 -0.04296875 C4.8907668 0.20765587 6.50468031 0.92376228 8.6875 2.1875 C8.6875 3.1775 8.6875 4.1675 8.6875 5.1875 C3.4075 5.1875 -1.8725 5.1875 -7.3125 5.1875 C-4.73813681 0.03877362 -4.73813681 0.03877362 0 0 Z " fill="#7D4349" transform="translate(172.3125,397.8125)"/>
<path d="M0 0 C0.99 0.33 1.98 0.66 3 1 C3.74513723 3.09993221 4 4.77431099 4 7 C4.33 7 4.66 7 5 7 C5.33 9.64 5.66 12.28 6 15 C5.34 15 4.68 15 4 15 C4 20.61 4 26.22 4 32 C3.34 31.67 2.68 31.34 2 31 C2.01160156 30.02417969 2.02320313 29.04835938 2.03515625 28.04296875 C2.04417969 26.77066406 2.05320313 25.49835937 2.0625 24.1875 C2.07410156 22.92292969 2.08570313 21.65835937 2.09765625 20.35546875 C2.16159116 17.00394763 2.16159116 17.00394763 1 14 C0.77439324 11.60745424 0.59151405 9.21071877 0.4375 6.8125 C0.35371094 5.54019531 0.26992187 4.26789063 0.18359375 2.95703125 C0.12300781 1.98121094 0.06242188 1.00539063 0 0 Z " fill="#434649" transform="translate(156,487)"/>
<path d="M0 0 C1.60725635 3.21451269 1.05748185 6.43612536 1 10 C-0.32 10.33 -1.64 10.66 -3 11 C-5.47785723 7.33708062 -6.48964169 4.3890815 -7 0 C-3.98968256 -0.93423645 -3.13349732 -1.04449911 0 0 Z " fill="#494B4E" transform="translate(176,547)"/>
<path d="M0 0 C1.98 0.495 1.98 0.495 4 1 C4.84191782 3.9248633 5.11819313 6.50741656 5.09765625 9.546875 C5.09282227 10.81337891 5.09282227 10.81337891 5.08789062 12.10546875 C5.07951172 12.97816406 5.07113281 13.85085938 5.0625 14.75 C5.05798828 15.63816406 5.05347656 16.52632812 5.04882812 17.44140625 C5.037074 19.62767329 5.02064249 21.81380179 5 24 C4.67 24 4.34 24 4 24 C3.67 19.71 3.34 15.42 3 11 C1.68 11.33 0.36 11.66 -1 12 C-1.14285714 3.42857143 -1.14285714 3.42857143 0 0 Z " fill="#53565A" transform="translate(180,569)"/>
<path d="M0 0 C0.66 0 1.32 0 2 0 C2.33 1.65 2.66 3.3 3 5 C3.66 5 4.32 5 5 5 C5.33 6.98 5.66 8.96 6 11 C5.34 11 4.68 11 4 11 C3.67 12.32 3.34 13.64 3 15 C3 13.68 3 12.36 3 11 C2.34 11 1.68 11 1 11 C1 10.34 1 9.68 1 9 C0.01 9 -0.98 9 -2 9 C-1.34 6.03 -0.68 3.06 0 0 Z " fill="#3B3D40" transform="translate(162,524)"/>
<path d="M0 0 C0.99 0.33 1.98 0.66 3 1 C2.67 3.97 2.34 6.94 2 10 C1.21625 10.20625 0.4325 10.4125 -0.375 10.625 C-3.30916286 11.80676612 -3.30916286 11.80676612 -4.3125 15.125 C-4.539375 16.07375 -4.76625 17.0225 -5 18 C-6.3805087 14.23331402 -5.59568159 11.55210827 -4.5625 7.75 C-4.27503906 6.67234375 -3.98757812 5.5946875 -3.69140625 4.484375 C-3.46324219 3.66453125 -3.23507813 2.8446875 -3 2 C-2.34 3.32 -1.68 4.64 -1 6 C-1 5.34 -1 4.68 -1 4 C-0.68521554 2.66216607 -0.35412344 1.32796291 0 0 Z " fill="#1E1F20" transform="translate(171,449)"/>
<path d="M0 0 C0.66 0 1.32 0 2 0 C2.67756882 1.55780332 3.34159457 3.12150096 4 4.6875 C4.37125 5.55761719 4.7425 6.42773438 5.125 7.32421875 C6.01870488 10.0572002 6.16449676 12.14700934 6 15 C5.34 13.68 4.68 12.36 4 11 C2.68 11 1.36 11 0 11 C-0.33 12.65 -0.66 14.3 -1 16 C-2.38111722 13.7252187 -3.05694702 12.49828639 -2.75 9.8125 C-2 8 -2 8 0 7 C0.99 7.33 1.98 7.66 3 8 C2.34 7.01 1.68 6.02 1 5 C0.67 5 0.34 5 0 5 C0 3.35 0 1.7 0 0 Z " fill="#8C8F91" transform="translate(180,558)"/>
<path d="M0 0 C2.61500768 2.36595933 4.38999603 4.86049226 6 8 C5.67 8.66 5.34 9.32 5 10 C2.9375 10.625 2.9375 10.625 1 11 C1 11.99 1 12.98 1 14 C-0.32 12.68 -1.64 11.36 -3 10 C-2.67 9.34 -2.34 8.68 -2 8 C-1.01 8 -0.02 8 1 8 C0.67 7.34 0.34 6.68 0 6 C-0.039992 4.00039988 -0.04346799 1.99952758 0 0 Z " fill="#77797A" transform="translate(169,537)"/>
<path d="M0 0 C2.31406112 3.47109168 2.08619615 4.94878113 2 9 C2.33 9.66 2.66 10.32 3 11 C3.06950541 12.54023996 3.08452357 14.08334988 3.0625 15.625 C3.05347656 16.44226563 3.04445312 17.25953125 3.03515625 18.1015625 C3.02355469 18.72804688 3.01195312 19.35453125 3 20 C2.01 19.67 1.02 19.34 0 19 C-0.19600577 16.77156512 -0.38146569 14.54220107 -0.5625 12.3125 C-0.66691406 11.07113281 -0.77132812 9.82976562 -0.87890625 8.55078125 C-0.98493841 5.44164467 -0.77228525 2.99189028 0 0 Z " fill="#2D2F31" transform="translate(156,493)"/>
<path d="M0 0 C0.33 0.66 0.66 1.32 1 2 C0.65066406 2.47050781 0.30132812 2.94101563 -0.05859375 3.42578125 C-0.51363281 4.04839844 -0.96867187 4.67101562 -1.4375 5.3125 C-1.88996094 5.92738281 -2.34242187 6.54226562 -2.80859375 7.17578125 C-4.17336308 9.09677101 -4.17336308 9.09677101 -5 12 C-10.22222222 15 -10.22222222 15 -13 15 C-11.51163341 11.38423986 -9.4691203 9.43908025 -6.5 6.9375 C-3.81509872 4.66666629 -1.96528001 2.94792002 0 0 Z " fill="#EBB5BA" transform="translate(123,95)"/>
<path d="M0 0 C1.5 1.25 1.5 1.25 3 3 C3 4.32 3 5.64 3 7 C1.68 6.67 0.36 6.34 -1 6 C-1 6.66 -1 7.32 -1 8 C-1.66 8 -2.32 8 -3 8 C-3.33 8.99 -3.66 9.98 -4 11 C-3.125 4.25 -3.125 4.25 -2 2 C-1.34 2 -0.68 2 0 2 C0 1.34 0 0.68 0 0 Z " fill="#606264" transform="translate(161,476)"/>
<path d="M0 0 C0.66 0 1.32 0 2 0 C2 0.99 2 1.98 2 3 C2.66 3.33 3.32 3.66 4 4 C1.23547967 5.38226016 -1.0461363 5.09525387 -4.125 5.0625 C-5.22070312 5.05347656 -6.31640625 5.04445313 -7.4453125 5.03515625 C-8.70988281 5.01775391 -8.70988281 5.01775391 -10 5 C-10 4.01 -10 3.02 -10 2 C-6.80285048 0.93428349 -4.34084942 1 -1 1 C-0.67 0.67 -0.34 0.34 0 0 Z " fill="#F3DADE" transform="translate(190,428)"/>
<path d="M0 0 C1.45742463 -0.08096803 2.91612807 -0.13917774 4.375 -0.1875 C5.18710938 -0.22230469 5.99921875 -0.25710938 6.8359375 -0.29296875 C7.55007812 -0.19628906 8.26421875 -0.09960938 9 0 C9.66 0.99 10.32 1.98 11 3 C10.22914063 2.98839844 9.45828125 2.97679687 8.6640625 2.96484375 C7.66117188 2.95582031 6.65828125 2.94679688 5.625 2.9375 C4.12839844 2.92009766 4.12839844 2.92009766 2.6015625 2.90234375 C0.01567547 2.81993398 0.01567547 2.81993398 -2 4 C-1.34 2.68 -0.68 1.36 0 0 Z " fill="#392327" transform="translate(167,399)"/>
<path d="M0 0 C0.33 0 0.66 0 1 0 C1 2.31 1 4.62 1 7 C2.32 7 3.64 7 5 7 C4.67 7.99 4.34 8.98 4 10 C2.35 10 0.7 10 -1 10 C-2.15837626 5.94568308 -1.83691257 3.78187881 0 0 Z " fill="#8A8C8E" transform="translate(175,610)"/>
<path d="M0 0 C1.60080151 4.00200378 0.29279692 7.04556236 -1 11 C-4 10 -4 10 -6 8 C-5.625 5.875 -5.625 5.875 -5 4 C-4.0409375 3.8453125 -4.0409375 3.8453125 -3.0625 3.6875 C-2.381875 3.460625 -1.70125 3.23375 -1 3 C-0.67 2.01 -0.34 1.02 0 0 Z " fill="#717275" transform="translate(173,456)"/>
<path d="M0 0 C0.66 0.33 1.32 0.66 2 1 C2.99 0.67 3.98 0.34 5 0 C4.34 1.98 3.68 3.96 3 6 C2.34 5.67 1.68 5.34 1 5 C-0.485 10.445 -0.485 10.445 -2 16 C-2.33 16 -2.66 16 -3 16 C-2.52013969 10.43109483 -1.70084819 5.32932432 0 0 Z " fill="#F3DDDF" transform="translate(32,151)"/>
<path d="M0 0 C1.98 0.495 1.98 0.495 4 1 C4.33 2.65 4.66 4.3 5 6 C4.01 6 3.02 6 2 6 C1.34 6.99 0.68 7.98 0 9 C-1.125 2.25 -1.125 2.25 0 0 Z " fill="#212325" transform="translate(178,560)"/>
<path d="M0 0 C0.66 0 1.32 0 2 0 C2 6.27 2 12.54 2 19 C1.67 19 1.34 19 1 19 C0.95101562 18.25234375 0.90203125 17.5046875 0.8515625 16.734375 C0.77679688 15.74953125 0.70203125 14.7646875 0.625 13.75 C0.55539063 12.77546875 0.48578125 11.8009375 0.4140625 10.796875 C0.01534751 8.10366811 -0.63507063 6.33036721 -2 4 C-1.01 4.33 -0.02 4.66 1 5 C0.67 3.35 0.34 1.7 0 0 Z " fill="#181719" transform="translate(173,430)"/>
<path d="M0 0 C0 3.47684256 -0.66401429 5.7936343 -2 9 C-4.125 10.875 -4.125 10.875 -6 12 C-5.49135273 7.62563349 -4.57073772 4.59903281 -2 1 C-1.34 0.67 -0.68 0.34 0 0 Z " fill="#ECBFC2" transform="translate(52,108)"/>
<path d="M0 0 C0.66 0 1.32 0 2 0 C3.99785435 4.1205746 4.17835515 7.45194365 4 12 C1 10 1 10 0.48828125 7.6171875 C0.40126953 6.25980469 0.40126953 6.25980469 0.3125 4.875 C0.24675781 3.96492188 0.18101562 3.05484375 0.11328125 2.1171875 C0.07589844 1.41851562 0.03851563 0.71984375 0 0 Z " fill="#5C5F61" transform="translate(171,444)"/>
<path d="M0 0 C2.875 0.625 2.875 0.625 6 2 C7.375 5.125 7.375 5.125 8 8 C7.01 8 6.02 8 5 8 C0 2.65116279 0 2.65116279 0 0 Z " fill="#F0CED2" transform="translate(72,334)"/>
<path d="M0 0 C0.99 0 1.98 0 3 0 C3 0.66 3 1.32 3 2 C3.66 2 4.32 2 5 2 C4.625 3.9375 4.625 3.9375 4 6 C3.01 6.495 3.01 6.495 2 7 C0.5393715 4.35261084 0 3.10551666 0 0 Z " fill="#6A6C6F" transform="translate(160,533)"/>
<path d="M0 0 C2.72426311 2.35277269 3.8141763 4.62496331 5 8 C4.01 8.33 3.02 8.66 2 9 C1.67 7.68 1.34 6.36 1 5 C0.34 5 -0.32 5 -1 5 C-0.67 3.35 -0.34 1.7 0 0 Z " fill="#F1D1D4" transform="translate(291,106)"/>
<path d="M0 0 C0.99 0.66 1.98 1.32 3 2 C2.67 2.66 2.34 3.32 2 4 C-0.32156597 4.40729228 -2.6568787 4.74438677 -5 5 C-5.66 3.68 -6.32 2.36 -7 1 C-6.401875 1.20625 -5.80375 1.4125 -5.1875 1.625 C-2.71549154 2.30671915 -2.71549154 2.30671915 0 0 Z " fill="#F1CDD1" transform="translate(279,90)"/>
<path d="M0 0 C0.66 0 1.32 0 2 0 C3.61949011 2.57213134 4.04408751 3.67669159 3.625 6.75 C3.41875 7.4925 3.2125 8.235 3 9 C0.23776722 6.23776722 0.42143709 3.79293383 0 0 Z " fill="#757779" transform="translate(157,524)"/>
<path d="M0 0 C1.46726798 3.81489674 0.43336419 6.29011622 -1 10 C-3.1519437 6.77208445 -3.20086443 5.71599191 -3 2 C-2.34 2 -1.68 2 -1 2 C-0.67 1.34 -0.34 0.68 0 0 Z " fill="#F1D4D8" transform="translate(311,253)"/>
<path d="M0 0 C0.66 0.33 1.32 0.66 2 1 C1.01 2.485 1.01 2.485 0 4 C1.32 4.99 2.64 5.98 4 7 C1.69 7 -0.62 7 -3 7 C-3.33 6.01 -3.66 5.02 -4 4 C-2.68 2.68 -1.36 1.36 0 0 Z " fill="#F2D3D6" transform="translate(82,71)"/>
<path d="M0 0 C2.0625 0.4375 2.0625 0.4375 4 1 C3.67 1.99 3.34 2.98 3 4 C1.02 4.33 -0.96 4.66 -3 5 C-1.125 1.125 -1.125 1.125 0 0 Z " fill="#F1CDD2" transform="translate(67,86)"/>
<path d="M0 0 C1.32 1.32 2.64 2.64 4 4 C3.34 5.32 2.68 6.64 2 8 C1.34 7.67 0.68 7.34 0 7 C0 4.69 0 2.38 0 0 Z " fill="#5B5D60" transform="translate(178,609)"/>
<path d="M0 0 C0.99 0.495 0.99 0.495 2 1 C2.59355614 3.64860427 2.74209269 6.29197322 3 9 C2.01 8.67 1.02 8.34 0 8 C0 5.36 0 2.72 0 0 Z " fill="#343639" transform="translate(156,504)"/>
<path d="M0 0 C0.99 0.33 1.98 0.66 3 1 C4.1875 3.5625 4.1875 3.5625 5 6 C2.11562221 4.70700306 0.12780579 3.34058637 -2 1 C-1.34 0.67 -0.68 0.34 0 0 Z " fill="#F1D2D7" transform="translate(114,374)"/>
<path d="M0 0 C0.99 0.33 1.98 0.66 3 1 C3 1.66 3 2.32 3 3 C-0.465 4.485 -0.465 4.485 -4 6 C-2.84826645 3.53199953 -1.95216435 1.95216435 0 0 Z " fill="#EABABD" transform="translate(77,76)"/>
<path d="M0 0 C1.8125 0.1875 1.8125 0.1875 4 1 C5.75 3.5625 5.75 3.5625 7 6 C5.68 6.33 4.36 6.66 3 7 C3 5.68 3 4.36 3 3 C1.5833253 1.2488427 1.5833253 1.2488427 0 0 Z " fill="#ECBABF" transform="translate(259,72)"/>
<path d="" fill="#F8F8F8" transform="translate(0,0)"/>
<path d="" fill="#F8F8F8" transform="translate(0,0)"/>
<path d="" fill="#F8F8F8" transform="translate(0,0)"/>
<path d="" fill="#F8F8F8" transform="translate(0,0)"/>
<path d="" fill="#F8F8F8" transform="translate(0,0)"/>
<path d="" fill="#F8F8F8" transform="translate(0,0)"/>
<path d="" fill="#F8F8F8" transform="translate(0,0)"/>
<path d="" fill="#F8F8F8" transform="translate(0,0)"/>
<path d="" fill="#F8F8F8" transform="translate(0,0)"/>
<path d="" fill="#F8F8F8" transform="translate(0,0)"/>
<path d="" fill="#F8F8F8" transform="translate(0,0)"/>
<path d="" fill="#F8F8F8" transform="translate(0,0)"/>
<path d="" fill="#F8F8F8" transform="translate(0,0)"/>
<path d="" fill="#F8F8F8" transform="translate(0,0)"/>
<path d="" fill="#F8F8F8" transform="translate(0,0)"/>
<path d="" fill="#F8F8F8" transform="translate(0,0)"/>
<path d="" fill="#F8F8F8" transform="translate(0,0)"/>
<path d="" fill="#F8F8F8" transform="translate(0,0)"/>
<path d="" fill="#F8F8F8" transform="translate(0,0)"/>
<path d="" fill="#F8F8F8" transform="translate(0,0)"/>
<path d="" fill="#F8F8F8" transform="translate(0,0)"/>
<path d="" fill="#F8F8F8" transform="translate(0,0)"/>
<path d="" fill="#F8F8F8" transform="translate(0,0)"/>
<path d="" fill="#F8F8F8" transform="translate(0,0)"/>
<path d="" fill="#F8F8F8" transform="translate(0,0)"/>
<path d="" fill="#F8F8F8" transform="translate(0,0)"/>
<path d="" fill="#F8F8F8" transform="translate(0,0)"/>
<path d="" fill="#F8F8F8" transform="translate(0,0)"/>
<path d="" fill="#F8F8F8" transform="translate(0,0)"/>
<path d="" fill="#F8F8F8" transform="translate(0,0)"/>
<path d="" fill="#F8F8F8" transform="translate(0,0)"/>
<path d="" fill="#F8F8F8" transform="translate(0,0)"/>
<path d="" fill="#F8F8F8" transform="translate(0,0)"/>
<path d="" fill="#F8F8F8" transform="translate(0,0)"/>
</svg>
