<?xml version="1.0" standalone="no"?>
<!DOCTYPE svg PUBLIC "-//W3C//DTD SVG 1.1//EN" "http://www.w3.org/Graphics/SVG/1.1/DTD/svg11.dtd">
<svg xmlns="http://www.w3.org/2000/svg" width="359" height="644" viewBox="0 0 359 644"><path fill="#c42321" d="M224 49c11.358 5.255 22.266 11.089 32 19l2.71 2.105c22.77 18.019 38.454 41.497 49.248 68.272 11.292 29.57 13.09 63.403 8.52 94.58C309.874 272.843 292.622 307.289 268 339l-2.273 2.93C257.204 352.606 247.825 363.59 237 372l-1.532 1.2C218.487 386.402 201.611 394.177 181 400a21966 21966 0 0 0 6.738 12.275l1.465 2.666 1.434 2.615a253 253 0 0 0 3.75 6.452L196 427l-.437 2.313c-2.03 2.192-3.718 2.784-6.563 3.687-2.824.012-2.824.012-5.687-.312l-2.887-.301C178 432 178 432 176 431l.14 2.867c.534 15.812-3.417 29.889-8.677 44.702-3.265 9.284-4.838 18.02-4.775 27.868l.014 2.793c.115 6.673.841 12.522 3.298 18.77l.926 2.652c2.527 6.7 5.973 12.665 9.637 18.785 4.396 7.361 7.583 14.133 9.437 22.563l.57 2.39c2.012 12.22.26 25.035-3.59 36.7-2.44 6.37-2.44 6.37-4.98 8.91-2.062-.187-2.062-.187-4-1l-1-3c.707-2.129.707-2.129 1.813-4.562 4.608-11.13 5.153-22.506 4.187-34.438-1.524-11.25-5.795-20.58-11.988-30.035-6.31-9.778-11.333-20.604-12.189-32.406-.404-16.817 1.729-29.603 8.009-45.293 2.011-5.624 3.125-11.397 4.168-17.266l.402-2.238c.889-5.88.687-11.834.598-17.762l-1.687.488c-2.497.553-4.758.68-7.313.7l-2.562.042c-2.592-.245-4.208-.924-6.438-2.23.539-4.485 1.657-7.675 3.906-11.582l1.754-3.072 1.84-3.159 1.84-3.216c4.47-7.781 4.47-7.781 5.66-8.971l-3.559-1.031c-23.512-7-45.099-18.275-62.503-35.906l-1.567-1.657c-1.48-1.583-1.48-1.583-3.871-3.344-2.805-2.313-5.036-4.816-7.383-7.585a206 206 0 0 0-4.672-5.266C55.881 318.006 38.193 282.073 30 245c-1.269-6.299-2.223-12.623-3-19l-.398-3.156C24.717 203.89 25.418 184.687 29 166l.422-2.243C32.849 146.152 39.508 129.74 48 114l1.676-3.168C57.903 95.968 69.716 81.579 83 71l3.098-2.488c20.621-16.078 43.976-25.315 69.707-29.067 22.652-2.694 47.228.449 68.195 9.555"/><path fill="#f6a79f" d="M118.46 81.652C121 82 121 82 123.689 83.625 125 86 125 86 125.625 88.688c-.753 3.989-2.055 6.456-4.39 9.753-4.789 5.484-10.643 9.925-16.235 14.559-12.66 10.51-19.58 26.38-25.652 41.295C77.39 159.067 75.654 163.238 72 167c-2 1-2 1-5.25 1.5-3.75-.5-3.75-.5-5.543-1.676-1.851-1.842-3.033-3.488-4.207-5.824-1.033-3.877-.771-7.079 0-11 6.273-20.749 19.194-40.276 34.813-55.145C95.899 91.107 100.28 87.908 105 85l2.434-1.652c3.743-1.966 6.873-1.824 11.027-1.696"/><path fill="#1f1f1e" d="M170 429c2.5.375 2.5.375 5 1l1 1c1.347 16.764-2.976 31.908-8.537 47.57-3.265 9.283-4.838 18.019-4.775 27.868l.014 2.792c.115 6.673.841 12.522 3.298 18.77l.926 2.652c2.527 6.7 5.973 12.665 9.637 18.785 4.396 7.361 7.583 14.133 9.437 22.563l.57 2.39c2.012 12.22.26 25.035-3.59 36.7-2.44 6.37-2.44 6.37-4.98 8.91-2.062-.187-2.062-.187-4-1l-1-3c.707-2.129.707-2.129 1.813-4.562 4.608-11.13 5.153-22.506 4.187-34.438-1.524-11.25-5.795-20.58-11.988-30.035-6.31-9.778-11.333-20.604-12.189-32.406-.371-15.454 1.003-27.641 6.74-42.121 4.543-11.512 5.852-22.996 6.791-35.239l.216-2.781.18-2.507L169 430z"/><path fill="#c42321" d="M184 407c3.008 3.762 5.4 7.844 7.813 12l1.31 2.156 1.209 2.094 1.116 1.89L196 427c-.753 2.155-.753 2.155-2 4-2.728 1.516-4.632 1.994-7.754 2.047l-2.809-.297-2.816-.266C178 432 178 432 175.911 430.954c-2.152-1.252-2.152-1.252-5.911-.954l-2 2c-3.002 1.016-5.845 1.163-9 1.188l-2.562.042c-2.592-.245-4.208-.924-6.438-2.23.375-2.937.375-2.937 1-6l2-1c1 3 1 3 .563 5.188L153 431c5.41.225 9.811-.39 15-2l1-2 7 1v-2h2v3c3.982 1.054 6.982.841 11 0l1-3h-2v-2l-3 1-.437-2.75c-.427-2.465-.914-4.838-1.563-7.25h2l-1-2c-.04-2-.043-4 0-6"/><path fill="#1f1f1e" d="M157 496h1l-1 8 4-1c1.071 6.026 1.1 11.89 1 18l-4 2 2 1-2 3c-3.672-8.896-3.295-17.569-3-27h2z"/><path fill="#c42321" d="M307 240h3c3.062 6.6 3.062 6.6 2.905 10.157-.43 2.197-.972 4.318-1.592 6.468l-.569 2.195c-1.085 4.117-2.354 8.155-3.744 12.18h-1c-.125-6.625-.125-6.625 1-10h-2l-1-5h3c.08-3.875-.022-7.534-.562-11.375L306 241zM83 145l1 2c-.53 1.74-.53 1.74-1.434 3.809l-.966 2.263-1.037 2.365a785 785 0 0 0-1.997 4.622l-.908 2.072c-.824 2.01-.824 2.01-.658 4.869-.75 2.125-.75 2.125-2 4-2 .813-2 .813-4 1l-2-1-2 2-3-1v-3l-2.375-.937C59 167 59 167 57 166c-1.103-3.081-1.105-6.002-1.062-9.25l.027-2.703L56 152h1l.043 1.758c.2 3.28.45 6.19 1.89 9.176C60.24 164.852 60.24 164.852 63 167c3.5.917 3.5.917 7 0 4.63-3.779 6.586-7.855 8.75-13.25 3.176-7.676 3.176-7.676 4.25-8.75"/><path fill="#b42e2e" d="M70 84v3c-1.445 1.892-3.051 3.554-4.687 5.281L64 94v3l-2.375 1.375L59 100c-1.155 2.471-1.155 2.471-2 5l-1.625 1.375L54 108c-.25 3.625-.25 3.625 0 7h-4l-5 10h-2c4.712-15.674 16.067-29.203 27-41"/><path fill="#c42321" d="M28 175h1c.132 15.369-.154 30.653-1 46h-1c-1.075-6.976-1.15-13.824-1.125-20.875l-.012-3.395c.02-17.497.02-17.497 2.137-21.73"/><path fill="#b42e2e" d="m152 424 2 3c-.375 2.188-.375 2.188-1 4 5.41.225 9.811-.39 15-2l1-2 7 1v-2h2v3l13 2-2 2c-2.46.047-2.46.047-5.375-.25l-2.898-.266c-2.641-.469-4.36-1.295-6.727-2.484h-4l-2 2c-3.002 1.016-5.845 1.163-9 1.188l-2.562.042c-2.592-.245-4.208-.924-6.438-2.23q.45-3.008 1-6zM169.133 402.902l2.441.01 2.551.026 2.574.013q3.15.02 6.301.049l1 3-2 1v-2c-6.44-.107-12.626.038-19 1l-1 4 3 1-2 4-4-1v8l-4-1-1 3-1-2c.773-1.864.773-1.864 2.02-4.098l1.35-2.427 1.442-2.538 1.409-2.548c2.592-4.616 2.592-4.616 3.779-6.389 2.297-1.148 3.583-1.116 6.133-1.098"/><path fill="#c42321" d="M245 63c5.51 1.243 9.302 3.277 13.688 6.875l1.805 1.451c4.303 3.525 8.369 7.26 12.32 11.174l1.543 1.527c2.272 2.317 3.603 3.85 4.644 6.973h-2c-1.516-1.574-1.516-1.574-3.25-3.687-2.25-2.666-4.45-5.023-7.187-7.188L264 78v-2l-3 1-1-3h-3l-1 2v-2h-2l1-5h-2v-2h-4v-2l-4-1z"/><path fill="#4b1110" d="M168 398c3.365-.504 6.632-.467 10 0 2.625 2 2.625 2 4 4l-1 2h-17c2-4 2-4 4-6"/><path fill="#b42e2e" d="M45 287c3.04 3.649 4.965 7.744 7 12h2l1 5h2v3h2c1.688 1.75 1.688 1.75 3 4-.187 2.188-.187 2.188-1 4l-2 1a5848 5848 0 0 1-4.75-8.5l-1.344-2.398C45 290.917 45 290.917 45 287"/><path fill="#1f1f1e" d="m156 489 4 1-1 5 2-1c1.129 5.361 1.097 10.553 1 16h-1l-1-5-3-1v-4h-2z"/><path fill="#c42321" d="M103 361c2.563 2.375 2.563 2.375 5 5l3 1 1 4 3 1h-3v2c-3.429-1.51-5.957-3.517-8.75-6l-2.422-2.125L99 364v-2c1.688-.812 1.688-.812 4-1"/><path fill="#1f1f1e" d="M169 431h1l1 6 3-1c.077 4.516.102 8.59-1 13h-4z"/><path fill="#c42321" d="m237 367 2 3c-6.086 5.135-12.049 10.082-19 14h-2l-1-4h6l1-2h2v-3l3.375-1.312L233 372l2-3h2zM38 135c.746 2.569 1.038 3.833.438 6.5L38 144c.892 2.117.892 2.117 2 4v3h-3v2l-4 1c.516-6.84 2.486-12.639 5-19"/><path fill="#1f1f1e" d="M180 574h1l2 10h1v11h-3v5h-1z"/><path fill="#b42e2e" d="M126 47v2c-2.849 2.114-5.4 3.118-8.812 4.125-5.71 1.761-10.681 4.862-15.78 7.915-1.77 1.042-3.586 2.008-5.408 2.96l-2-1c7.178-4.694 14.423-8.852 22.188-12.5l2.25-1.06C123.728 47 123.728 47 126 47M252 353c.727 1.738.727 1.738 1 4-1.477 2.105-1.477 2.105-3.625 4.188l-2.102 2.105C245 365 245 365 242.227 365.738L240 366v-2h2v-2h2v-3l5-1v-2l-3-1h6z"/><path fill="#c42321" d="M87 346h5c1.563 2.75 1.563 2.75 3 6-.312 2.375-.312 2.375-1 4h3v2h-2l-1 2-6-8 3-1-1-3h-3zM38 260h1l.375 3.438L40 267l2 1-.062 3.563c-.007 3.911.42 7.582 1.062 11.437-3.28-4.919-5.41-10.314-7-16 .146-2.904.71-4.357 2-7M317 194h1c.03 3.875.047 7.75.063 11.625l.025 3.316.01 3.223.016 2.952c-.12 3.033-.555 5.903-1.114 8.884h-1l-1-14h-3v-2h2l1-3v3h2zM308 254l3 2c-1.068 5.114-2.231 10.072-4 15h-1c-.125-6.625-.125-6.625 1-10h-2l-1-5h3zM185 40l11 1-1 2h-8v2c-2.75.917-4.36 1.109-7.187 1.063L176 46v-2h8zM294 292c.688 2.625.688 2.625 1 6-1.437 3.375-1.437 3.375-3 6-2-2.312-2-2.312-4-5v-3h2v-3c2-1 2-1 4-1M93 89l5 1-15 15c0-3.54.496-5.786 2-9a169 169 0 0 1 6-2c1.44-2.51 1.44-2.51 2-5"/><path fill="#b42e2e" d="M315 179c1.488 1.113 1.488 1.113 3 3 .293 2.918.293 2.918.188 6.188l-.083 3.292L318 194h-2c-2-3-2-3-2.23-5.41l.043-2.653.019-2.66C314 181 314 181 315 179"/><path fill="#c42321" d="M96 122c.625 1.563.625 1.563 1 4a103 103 0 0 1-2 7h-5l-1 3-1-2c1.398-2.566 1.398-2.566 3.375-5.562l1.96-3.004C95 123 95 123 96 122"/><path fill="#b42e2e" d="M279 91c4.01 3.778 7.173 7.796 10.313 12.313l1.376 1.955Q292.35 107.63 294 110l-2 1a466 466 0 0 1-2.5-3.375l-1.406-1.898L287 104v-2l-3-1-1-3-3-1z"/><path fill="#c42321" d="M307 141c1.989 1.694 2.97 2.925 3.95 5.375l.738 2.625.761 2.625C313 154 313 154 313 157h-2l-.875-1.812c-1.172-2.381-1.172-2.381-3.125-5.188.375-2.062.375-2.062 1-4v-2l-4 1v-3zM296 116c3.21 2.67 4.51 5.922 6.188 9.688l1.605 3.574L305 132l-2 1-3-6-1 2-2-2c-.043-2.333-.04-4.667 0-7-.429-2.31-.429-2.31-1-4M92 64h2l1 3-2.5 1.25L90 70v4l2 1-4 2-.375-2.937L87 71l-2-1a483 483 0 0 1 3.375-3l1.898-1.687z"/><path fill="#1f1f1e" d="M158 484c1.984 1.082 1.984 1.082 4 3 .39 3.137.39 3.137.25 6.688l-.11 3.574L162 500c-1.506-1.964-2.891-3.783-4-6 .938-2.125.938-2.125 2-4h-2l-1 2c-.125-5.75-.125-5.75 1-8"/><path fill="#1f1f1e" d="m159 479 1.313 1.938L162 483l3 1-2 12-2-4c.375-2.75.375-2.75 1-5l-3-1c-.75-1.875-.75-1.875-1-4z"/><path fill="#b42e2e" d="M56 152h1l.043 1.758c.201 3.296.4 6.188 1.96 9.14C60.38 164.761 60.38 164.761 63 167c2.671.955 2.671.955 5 1l-1 4h-3v-3l-2.375-.937C59 167 59 167 57 166c-1.103-3.081-1.105-6.002-1.062-9.25l.027-2.703z"/><path fill="#c42321" d="m261 340 5 1a466 466 0 0 1-2.75 3.813l-1.547 2.144c-1.728 2.073-3.488 3.517-5.703 5.043v-4h3l.438-2.875C260 342 260 342 261 340"/><path fill="#b42e2e" d="M76 338c1.75.188 1.75.188 4 1 2.564 2.79 4.445 5.557 6 9q.996 2.002 2 4c-4.514-3.669-8.502-7.335-12-12z"/><path fill="#c42321" d="M315 210h1l1 17-2-1c-.598-1.96-.598-1.96-1.062-4.375-.522-2.647-1.082-5.057-1.938-7.625 1.375-2.187 1.375-2.187 3-4"/><path fill="#1f1f1e" d="m164 535 5 1 1 3h-2l2 6-1.937-2-2.063-2h-1l-2-1z"/><path fill="#b42e2e" d="M176 426h2v3l13 2-2 2c-2.531.012-2.531.012-5.5-.312l-2.969-.301C178 432 178 432 176 431z"/><path fill="#1f1f1e" d="M169 399a365 365 0 0 1 4.875-.125l2.742-.07L179 399l2 2c-2.645 1.322-4.678 1.097-7.625 1.063l-3.04-.028L168 402z"/><path fill="#c42321" d="M70 84v3c-1.445 1.892-3.051 3.554-4.687 5.281L64 94v3l-6 3c1.429-4.491 3.93-7.462 7.125-10.812l1.418-1.522Q68.263 85.826 70 84M57 149l-1 11h-3c-1.607-3.215-1.057-6.436-1-10 2-1 2-1 5-1M155 392l8 1v1l-5 1-1 3-8-2 2-3 5 2z"/><path fill="#1f1f1e" d="m171 551 1.813.5c2.3.611 2.3.611 5.187.5v5l-4 1a132 132 0 0 1-3-5z"/><path fill="#c42321" d="M99 362h3l.742 1.766c1.462 2.597 3.105 4.074 5.383 5.984l2.195 1.86L112 373h-3c-2.48-1.898-2.48-1.898-5.187-4.375l-2.731-2.46L99 364z"/><path fill="#b42e2e" d="M112 80c4.17-.236 7.944.017 12 1l1 5-1.64-1.457c-2.839-1.856-4.748-2.03-8.11-2.23-1.477-.1-1.477-.1-2.984-.2L110 82z"/><path fill="#1f1f1e" d="M178 560h2l1 9h-3q-.579-3.489-1-7zM165 528c1.746 2.62 2.387 4.038 3 7l-1.875.875c-2.258 1.062-2.258 1.062-4.125 3.125l-2-6h5zM172 450h2v5h-2l-1 3-2 1-1-8h3z"/><path fill="#1f1f1e" d="M168 444h1v5h4v-5h1l1 9-1-3-5 4c-1.158-3.473-1.069-6.36-1-10"/><path fill="#b42e2e" d="m313 228 3 2-1 11c-2.163-3.245-2.609-5.167-3-9 .438-2.375.438-2.375 1-4"/><path fill="#c42321" d="M164 394c2.063.438 2.063.438 4 1v2l-2 2c-3.5.25-3.5.25-7 0l-2-2 2.938-.937c2.903-.758 2.903-.758 4.062-2.063M273 329l2 1a962 962 0 0 1-2.937 4l-1.653 2.25L269 338h-1v-7c2.375-1.062 2.375-1.062 5-2M285 306h2v2l2 1-6 9c-1-4-1-4-1-7h3z"/><path fill="#1f1f1e" d="M183 575h1c.12 5.778-.168 11.28-1 17h-1a519 519 0 0 1-.625-6.25l-.352-3.516C181 579 181 579 181.977 576.578z"/><path fill="#c42321" d="M315 171c2 3 2 3 2.195 5.918l-.07 3.27-.055 3.292L317 186h-1l-1-5h-1zM120 99l1 4-2 2-1.937.438c-2.174.428-2.174.428-3.813 2.124L112 109l-2-1z"/><path fill="#b42e2e" d="M211 45q2.409.68 4.813 1.375l2.707.773C221 48 221 48 224 50v2c-2.375-.375-2.375-.375-5-1l-2-2a126 126 0 0 0-6-2zM157 414l2 2c.125 3.125.125 3.125 0 6l-4-1-1 3-1-2c.777-1.945.777-1.945 1.938-4.125l1.152-2.195zM244 359l3 1c-.312 1.875-.312 1.875-1 4l-3 2h-3v-2h2v-2h2z"/><path fill="#c42321" d="m84 70 3 1 1 6-6-2z"/><path fill="#1f1f1e" d="M182 598h1l1 8-6 1v-3h2zM170 431h4v5l-4 2z"/><path fill="#b42e2e" d="m213 386 2 1-10 5v-4q1.935-.543 3.875-1.062l2.18-.598zM75 78c2.125.375 2.125.375 4 1l-2 2 1 3c-1.937-.312-1.937-.312-4-1l-1-3zM126 47v2c-2.125 1.625-2.125 1.625-5 3-3.312.188-3.312.188-6 0 3.273-2.667 6.649-5 11-5"/><path fill="#1f1f1e" d="M173 616h6v3l-4 1z"/><path fill="#b42e2e" d="m152 424 2 3c-.375 2.688-.375 2.688-1 5l-3-1q.45-3.008 1-6zM91 354h3v2h3v2h-2l-1 2c-1.5-1.312-1.5-1.312-3-3z"/><path fill="#c42321" d="m78 104 4 2a698 698 0 0 1-2.437 3.5l-1.372 1.969L77 113h-1v-5l3-1z"/><path fill="#b42e2e" d="M183 394c3.375-.187 3.375-.187 7 0l2 3-6 1zM32 155h1l1 7-4 1q.447-3.507 1-7z"/><path fill="#1f1f1e" d="m160 478 2 2 2-1 1 5-3-1-1 2z"/><path fill="#b42e2e" d="M38 260h1v9l-2 1c-.625-2.187-.625-2.187-1-5 .938-2.812.938-2.812 2-5M42 125l2 4-1 3h-2v2h-2z"/><path fill="#f6a79f" d="M111 102h2c-.312 2.375-.312 2.375-1 5l-3 2-1-4h3z"/><path fill="#b42e2e" d="M245 63c6.523 1.6 6.523 1.6 8.938 3.625L255 68l-2 1v-2h-4v-2l-4-1zM176 426h2v3l4 2c-1.875.563-1.875.563-4 1l-2-1z"/><path fill="#1f1f1e" d="M175 613h5l-1 4-5-1z"/><path fill="#b42e2e" d="m293 297 2 1-3 6c-2-3.75-2-3.75-2-6zM32 251c1.938.313 1.938.313 4 1l1 3-4 2z"/><path fill="#f6a79f" d="m73 120 1 3c-1.937 3.188-1.937 3.188-4 6-.625-1.812-.625-1.812-1-4 2-3 2-3 4-5"/><path fill="#b42e2e" d="M92 64h2l1 3-6 2-1-2a83 83 0 0 1 4-3"/><path fill="#1f1f1e" d="m183 564 2 3-2 4-2-5h2z"/><path fill="#c42321" d="m100 119 2 3-5 2-1-3z"/><path fill="#f6a79f" d="M99 116v3c-2 1.688-2 1.688-4 3v-4z"/><path fill="#1f1f1e" d="m165 462 2 2v3h2l-2 4z"/><path fill="#f6a79f" d="m107 84 4 2h-2l-1 2-4-2z"/><path fill="#c42321" d="m73 81 3 3-1 2h-3l-1-3z"/><path fill="#b42e2e" d="m237 367 2 3-4 3-1-3 3-1zM307 263h2l-2 8h-1q-.062-3.5 0-7z"/><path fill="#f6a79f" d="m86 129 1 2 3 1-2 2-3-1z"/><path fill="#b42e2e" d="M293 113h3l1 3-2 2v-2l-4-1z"/><path fill="#c42321" d="m279 91 3 2v4h-2z"/><path fill="#b42e2e" d="m260 74 5 1v3l-1-2-3 1z"/><path fill="#1f1f1e" d="M168 539c1.938.813 1.938.813 4 2l1 3-4-1z"/><path fill="#b42e2e" d="m150 393 5 2-1 2-5-1z"/><path fill="#c42321" d="M215 382h3l1 3-4 1z"/><path fill="#b42e2e" d="m58 163 4 4c-3 0-3 0-5-1z"/><path fill="#f6a79f" d="m88 124 4 4-2 2z"/><path fill="#1f1f1e" d="m161 474 2 4-2 3c-.562-1.812-.562-1.812-1-4zM169 463h3l-1 5-2-2zM175 616l5 1-2 2-3-1zM176 609l2 2v3l-3-1zM158 518l4 2-1 2h-2z"/><path fill="#c42321" d="M267 337v3h-3v-2z"/><path fill="#f6a79f" d="m95 92 1 3-1 2-2-1z"/><path fill="#c42321" d="M88 352h4l-1 3z"/><path fill="#f6a79f" d="m117 98 4 1-3 2z"/><path fill="#b42e2e" d="m98 85 4 2-2 2z"/><path fill="#f6a79f" d="M110 82h2l-1 3-3-1z"/><path fill="#b42e2e" d="m84 70 3 1v2l-4-1z"/><path fill="#c42321" d="m123 49 3 1-4 2z"/><path fill="#f6a79f" d="M108 106h3l-1 3-2-1zM82 105l2 1-1 3-2-3zM86 103l1 3h-3z"/><path fill="#b42e2e" d="m104 367 3 1-2 2z"/></svg>