<?xml version="1.0" standalone="no"?>
<!DOCTYPE svg PUBLIC "-//W3C//DTD SVG 1.1//EN" "http://www.w3.org/Graphics/SVG/1.1/DTD/svg11.dtd">
<svg xmlns="http://www.w3.org/2000/svg" width="359" height="644" viewBox="0 0 359 644"><path fill="#d46314" d="M224 49c11.358 5.255 22.266 11.089 32 19l2.71 2.105c22.77 18.019 38.454 41.497 49.248 68.272 11.292 29.57 13.09 63.403 8.52 94.58C309.874 272.843 292.622 307.289 268 339l-2.273 2.93C257.204 352.606 247.825 363.59 237 372l-1.532 1.2C218.487 386.402 201.611 394.177 181 400a21966 21966 0 0 0 6.738 12.275l1.465 2.666 1.434 2.615a253 253 0 0 0 3.75 6.452L196 427l-.437 2.313c-2.03 2.192-3.718 2.784-6.563 3.687-2.824.012-2.824.012-5.687-.312l-2.887-.301C178 432 178 432 176 431l.14 2.867c.534 15.812-3.417 29.889-8.677 44.702-3.265 9.284-4.838 18.02-4.775 27.868l.014 2.793c.115 6.673.841 12.522 3.298 18.77l.926 2.652c2.527 6.7 5.973 12.665 9.637 18.785 4.396 7.361 7.583 14.133 9.437 22.563l.57 2.39c2.012 12.22.26 25.035-3.59 36.7-2.44 6.37-2.44 6.37-4.98 8.91-2.062-.187-2.062-.187-4-1l-1-3c.707-2.129.707-2.129 1.813-4.562 4.608-11.13 5.153-22.506 4.187-34.438-1.524-11.25-5.795-20.58-11.988-30.035-6.31-9.778-11.333-20.604-12.189-32.406-.404-16.817 1.729-29.603 8.009-45.293 2.011-5.624 3.125-11.397 4.168-17.266l.402-2.238c.889-5.88.687-11.834.598-17.762l-1.687.488c-2.497.553-4.758.68-7.313.7l-2.562.042c-2.592-.245-4.208-.924-6.438-2.23.539-4.485 1.657-7.675 3.906-11.582l1.754-3.072 1.84-3.159 1.84-3.216c4.47-7.781 4.47-7.781 5.66-8.971l-3.559-1.031c-23.512-7-45.099-18.275-62.503-35.906l-1.567-1.657c-1.48-1.583-1.48-1.583-3.871-3.344-2.805-2.313-5.036-4.816-7.383-7.585a206 206 0 0 0-4.672-5.266C55.881 318.006 38.193 282.073 30 245c-1.269-6.299-2.223-12.623-3-19l-.398-3.156C24.717 203.89 25.418 184.687 29 166l.422-2.243C32.849 146.152 39.508 129.74 48 114l1.676-3.168C57.903 95.968 69.716 81.579 83 71l3.098-2.488c20.621-16.078 43.976-25.315 69.707-29.067 22.652-2.694 47.228.449 68.195 9.555"/><path fill="#ffbb91" d="M118.352 81.734C121 82 121 82 123.75 83.438c1.297 2.658 1.513 3.91 1.438 6.812-.447 2.653-1.034 4.499-2.442 6.797-4.083 4.919-9.083 8.766-14.047 12.754-15.555 12.674-23.906 30.853-31.242 49.14-1.491 3.131-3.139 5.49-5.457 8.059-2 1-2 1-5.312 1.375L63 168c-2.63-2.173-4.473-3.947-6-7-.824-4.757-.794-9.405.628-14.052C63.575 131.092 72.567 115.486 84 103l2.55-2.797c8.731-9.147 18.64-18.676 31.802-18.469"/><path fill="#3a2d1c" d="M170 429c2.5.375 2.5.375 5 1l1 1c1.347 16.764-2.976 31.908-8.537 47.57-3.265 9.283-4.838 18.019-4.775 27.868l.014 2.792c.115 6.673.841 12.522 3.298 18.77l.926 2.652c2.527 6.7 5.973 12.665 9.637 18.785 4.396 7.361 7.583 14.133 9.437 22.563l.57 2.39c2.012 12.22.26 25.035-3.59 36.7-2.44 6.37-2.44 6.37-4.98 8.91-2.062-.187-2.062-.187-4-1l-1-3c.707-2.129.707-2.129 1.813-4.562 4.608-11.13 5.153-22.506 4.187-34.438-1.524-11.25-5.795-20.58-11.988-30.035-6.31-9.778-11.333-20.604-12.189-32.406-.371-15.454 1.003-27.641 6.74-42.121 4.543-11.512 5.852-22.996 6.791-35.239l.216-2.781.18-2.507L169 430z"/><path fill="#cc6528" d="m163 404 1 2c-.68 1.66-.68 1.66-1.8 3.633l-1.214 2.195q-1.28 2.263-2.562 4.524c-2.677 4.849-4.31 9.215-5.424 14.648 3.726.149 6.629.124 10.188-1.062C166 429 166 429 168.375 429.375L170 430c-2 2-2 2-3.812 2.613-2.43.43-4.721.556-7.188.575l-2.562.042c-2.592-.245-4.208-.924-6.438-2.23.533-4.326 1.521-7.426 3.723-11.18l1.63-2.812 1.71-2.883 1.72-2.953Q160.88 407.578 163 404"/><path fill="#722516" d="M168 398c2.023-.266 2.023-.266 4.375-.25l2.336-.016c2.582.3 4.152.779 6.289 2.266l1 4h-18c2-4 2-4 4-6"/><path fill="#3a2d1c" d="m159 492 3 1c.111 5.458-.083 10.615-1 16h-3l-1-4-1 7h-1v-12l2-1c.73-2.314 1.401-4.648 2-7"/><path fill="#453924" d="M168 444h1l.813 3.25c.888 3.65.888 3.65 2.812 5.656L174 455c-.145 2.578-.145 2.578-.812 5.25l-.645 2.703L172 465l-1-2h-2c-2.192-6.575-2.082-12.268-1-19"/><path fill="#3a2d1c" d="M180 574h1l2 10h1v11h-3v5h-1z"/><path fill="#d46314" d="M73 81v3a101 101 0 0 1-3 3l-1.375 2.438C67 92 67 92 64.313 94.062L62 96v7l-5-2c3.498-7.745 9.901-14.206 16-20"/><path fill="#3a2d1c" d="m176 609 3 4 2-4c.75 2.125.75 2.125 1 5-1.937 3.313-1.937 3.313-4 6-1.937-.312-1.937-.312-4-1l-1-3a110 110 0 0 1 3-7"/><path fill="#cc6528" d="m315 222 2 2c-.181 2.93-.466 5.727-.875 8.625l-.316 2.43c-.26 1.983-.533 3.964-.809 5.945l-3-1a590 590 0 0 1-.125-6.25l-.07-3.516c.186-3.08.551-4.677 2.195-7.234z"/><path fill="#d46314" d="M126 47v2c-2.355 1.682-4.246 2.892-7.137 3.305-4.214 1.023-7.717 3.157-11.488 5.258q-2.265 1.26-4.54 2.503l-2.013 1.124C99 62 99 62 96 62c5.876-4.5 12.277-7.722 18.938-10.875l2.585-1.228C123.734 47 123.734 47 126 47"/><path fill="#3a2d1c" d="M169 431h1l1 13h2v5h2l-1 6c-2.162-1.644-3.533-2.765-5-5-.62-3.292-.474-6.478-.312-9.812l.068-2.678c.059-2.17.148-4.34.244-6.51M179 556c1.438 1.063 1.438 1.063 3 3 .813 3.563.813 3.563 1 7-2 2-2 2-5 3-1-6.625-1-6.625-1-10 1-2 1-2 2-3"/><path fill="#cc6528" d="M304 272c.59 1.757.59 1.757 1 4-.53 1.923-.53 1.923-1.434 3.89l-.966 2.15-1.038 2.21-1.025 2.258A658 658 0 0 1 298 292c-1-3-1-3-.613-4.93L298 285l.395-2.07c.417-2.053.859-3.971 1.605-5.93 2.125-1.5 2.125-1.5 4-2zM47 115c.621 1.734.621 1.734 1 4-.777 2.14-.777 2.14-1.937 4.25l-1.153 2.14L44 127l2 1c-1.812 3-1.812 3-4 6h-3c1.996-6.719 4.73-12.807 8-19"/><path fill="#d46314" d="m233 372 2 1a600 600 0 0 1-5.125 4.375l-2.883 2.46c-2.981 2.157-5.462 3.212-8.992 4.165l1-2h2l1-3q1.47-1.53 3-3l1-2 2.375.125L231 374z"/><path fill="#cc6528" d="M249 356h2c-.246 1.766-.246 1.766-1 4-1.848 1.922-1.848 1.922-4.062 3.75l-2.223 1.86L242 367l-2-1c1.37-3.149 2.875-5.048 5.5-7.25l1.844-1.578z"/><path fill="#d46314" d="m91 65 2 1-2 3h-3l-2 5h2l-2 4-4-1c0-2.625 0-2.625 1-6 2.466-2.315 5.159-4.175 8-6M268 80c4.037 1.566 6.47 4.442 9.25 7.625l1.39 1.563A716 716 0 0 1 282 93l-1 2h-3v-2l-4 2v-4h3l-1.46-1.645c-.633-.715-1.264-1.43-1.915-2.168l-1.898-2.144C270 83 270 83 268 80"/><path fill="#453924" d="m181 563 3 1c.625 2.313.625 2.313 1 5l-2 3h-2l-1 5h-1c-.977-6.055-.977-6.055-1-8l2-2c.643-2.069.643-2.069 1-4"/><path fill="#3a2d1c" d="m163 524 2 2c-.375 3.125-.375 3.125-1 6l2 1h-6l-1-5h2v-2h2zM180 602h2l1 9-2 1-3 2-1-6 2-1c.656-2.527.656-2.527 1-5"/><path fill="#453924" d="M165 528c1.735 2.603 2.611 3.987 3 7l-2 2v-2h-2l-1 4c-2-2-2-2-2.625-4.125L160 533l4-1zM162 517c1.063 1.688 1.063 1.688 2 4-.375 2.75-.375 2.75-1 5h-2v2l-3 1 .563-2.25c.429-2.7.288-4.196-.563-6.75l1 2c2.224-1.925 2.224-1.925 3-5"/><path fill="#d46314" d="M124 94v3c-2.692 4.282-5.775 8.075-9.812 11.125L112 109l-2-1 2.047-1.793 2.703-2.394 2.672-2.356c2.457-2.342 4.527-4.759 6.578-7.457"/><path fill="#453924" d="M168 444h1l.813 3.25c1.05 3.315 1.933 5.189 4.187 7.75l-1 2-2-2-2 2-2-1z"/><path fill="#3a2d1c" d="M169 399a365 365 0 0 1 4.875-.125l2.742-.07L179 399l2 2c-2.645 1.322-4.678 1.097-7.625 1.063l-3.04-.028L168 402z"/><path fill="#d46314" d="M307 141c1.375 1.063 1.375 1.063 3 3 1.442 4.098 2.263 7.655 2 12l-2-2v-4h-2c-1.062-2.812-1.062-2.812-2-6zM251 65c4.607 2.592 8.93 5.627 13 9v1c-2.312.125-2.312.125-5 0l-3-2-1-3c-2-1.209-2-1.209-4-2z"/><path fill="#cc6528" d="m202 386 3 1-3 3h2v-2l6 1c-1.997 1.64-3.676 2.886-6.125 3.75L202 393l-2-1q.452-2.51 1-5z"/><path fill="#d46314" d="m74 328 1 2 2 1-3 1 2 6c-2.964-2.808-5.445-5.183-7-9 3-1 3-1 5-1"/><path fill="#453924" d="m156 489 4 1c-.254 1.482-.53 2.96-.812 4.438l-.458 2.496L158 499l-3 1z"/><path fill="#d46314" d="M91 129c.687 2.49 1 4.379 1 7-1.875 2.188-1.875 2.188-4 4h-2l-1 2c.483-5.155 3.186-8.816 6-13"/><path fill="#cc6528" d="M310 248h3l-2 10-3-3c.261-2.675.8-4.601 2-7"/><path fill="#3a2d1c" d="M167 456c1.563 1.25 1.563 1.25 3 3-.312 2.188-.312 2.188-1 4h2v3l-3 1v-3h-2z"/><path fill="#cc6528" d="m38 137 1 2c-.168 2.696-.612 5.324-1 8l-3 1v3h-2q.678-2.659 1.375-5.312l.773-2.989C36 140 36 140 38 137"/><path fill="#3a2d1c" d="m172 549 5 1 1 5-7-2zM164 535l5 1 1 3-3 2c-2.187-.375-2.187-.375-4-1zM157 516l5 5-4 2 2 1-2 3c-1.062-2.125-1.062-2.125-2-5 .375-3.312.375-3.312 1-6"/><path fill="#cc6528" d="m217 47 7 2v3l-7 2z"/><path fill="#453924" d="m156 504 2 1c.594 2.649.742 5.292 1 8h-3l-1 4zM165 462l1 2h2l1 2h2l-1 5h-3z"/><path fill="#d46314" d="m150 393 12 4v2a564 564 0 0 1-5.375-.875l-3.023-.492L151 397l-2-2zM86 97l3 1-6 7-2-2c.375-2.125.375-2.125 1-4l2 2z"/><path fill="#453924" d="m162 483 3 1-2 12c-2-4-2-4-1.977-6.36l.352-2.39.336-2.422z"/><path fill="#cc6528" d="m101 362 6 4-1 4-7-6z"/><path fill="#453924" d="m161 474 2 2c2.069.643 2.069.643 4 1l-1 5-3-3-2 2c-.562-1.812-.562-1.812-1-4z"/><path fill="#cc6528" d="m187 393 8 2c-3.188 2.125-5.265 2.502-9 3zM55 308c1.875.688 1.875.688 4 2 1.125 2.5 1.125 2.5 2 5l2 2-2 2q-1.504-2.466-3-4.937l-1.687-2.778C55 309 55 309 55 308"/><path fill="#453924" d="M173 616h6v3l-4 1zM179 596h1c.054 1.77.093 3.541.125 5.313l.07 2.988C180 607 180 607 178 610c-.812-2.43-.998-4.013-.66-6.578l.597-2.672.59-2.703z"/><path fill="#3a2d1c" d="m160 478 4 1 1 5-3-1-1 2z"/><path fill="#cc6528" d="M251 356c-.312 1.875-.312 1.875-1 4l-3 2-2-1c.875-1.937.875-1.937 2-4 2-1 2-1 4-1M44 273l1 3-2-1zm-5 1h3c.919 3.676.959 5.164 0 9z"/><path fill="#d46314" d="m97 121 1 2a101 101 0 0 1-3 6h-3c1.186-3.375 2.276-5.647 5-8"/><path fill="#cc6528" d="M126 47v2c-2.125 1.625-2.125 1.625-5 3-3.312.188-3.312.188-6 0 3.273-2.667 6.649-5 11-5"/><path fill="#453924" d="M164 541h3c1.688 2.5 1.688 2.5 3 5l-2 3z"/><path fill="#cc6528" d="M176 426h2v3l2 1c-1.625.625-1.625.625-4 1-3.25-.937-3.25-.937-6-2l3-2h3z"/><path fill="#ffbb91" d="m116 97 5 1-5 5z"/><path fill="#3a2d1c" d="m163 524 2 2c-.375 2.125-.375 2.125-1 4v-2h-2v2h-3v-2h2v-2h2z"/><path fill="#d46314" d="m68 119 3 1a101 101 0 0 1-2 6l-2 1c-.625-2.312-.625-2.312-1-5zM233 372l2 1-6 5-2-1v-3l2.438-.437L232 373z"/><path fill="#cc6528" d="M283 311h3c-.375 1.875-.375 1.875-1 4l-2 2h-2z"/><path fill="#d46314" d="M282 95c4.875 4.75 4.875 4.75 6 7-1.875-.125-1.875-.125-4-1-1.25-3.062-1.25-3.062-2-6"/><path fill="#cc6528" d="m192 428 1 4-10-1v-1c6.75-2 6.75-2 9-2"/><path fill="#d46314" d="M270 330h3c-.312 1.938-.312 1.938-1 4l-3 1z"/><path fill="#cc6528" d="m35 250 1 3c-.937 2.188-.937 2.188-2 4-2-3.75-2-3.75-2-6z"/><path fill="#d46314" d="M79 107v3c-2 2.188-2 2.188-4 4v-5z"/><path fill="#cc6528" d="m95 88 3 3-2 1-3-1c1-2 1-2 2-3m-3 3v3l-2 1zM75 78h3a56.5 56.5 0 0 1-4 7c-.625-2.375-.625-2.375-1-5z"/><path fill="#3a2d1c" d="M174 436c-.375 2.438-.375 2.438-1 5l-2 1-1-5c2-1 2-1 4-1"/><path fill="#cc6528" d="m67 321 3 1c-.875 4.75-.875 4.75-2 7-1.062-2.312-1.062-2.312-2-5zM237 367l2 3-4 3-1-3zM91 354h3l1 3-2 2-2-2z"/><path fill="#ffbb91" d="m72 162 2 3-3 2-2-2z"/><path fill="#3a2d1c" d="M175 559h5l-2 1c-1.134 2.017-1.134 2.017-2 4z"/><path fill="#cc6528" d="m150 393 5 2-1 2-5-1zM86 97l3 1-4 4zM84 70l3 2-2 3-3-1zM40 130h3l-1 4h-3zM68 88v3h-4l1-2z"/><path fill="#d46314" d="m103 81 5 2-4 2-2-3z"/><path fill="#cc6528" d="m251 65 4 2-1 2-3-1z"/><path fill="#453924" d="m175 616 5 1-2 2-3-1zM176 609l2 2v3l-3-1z"/><path fill="#ffbb91" d="M59 162h3l-1 4-2-1z"/><path fill="#cc6528" d="m268 81 3 3-3 1zM76 338l3 1-1 3zM307 263h2l-2 4zM50 113l2 3-2 2-1-3zM95 62l3 2-3 2-1-3z"/><path fill="#d46314" d="m240 364 3 1-2 2z"/><path fill="#cc6528" d="m118 51 2 2h-3z"/></svg>