<?xml version="1.0" encoding="UTF-8"?>
<svg version="1.1" xmlns="http://www.w3.org/2000/svg" width="359" height="644">
<path d="M0 0 C0.72058594 0.63808594 1.44117188 1.27617188 2.18359375 1.93359375 C31.86723636 29.64244101 47.5566338 72.36306636 49.1262207 112.20385742 C49.51142914 128.04876457 48.69135834 143.37968101 46 159 C45.86078125 159.8240332 45.7215625 160.64806641 45.578125 161.49707031 C39.53178909 196.13753647 23.3895221 228.31651138 2 256 C1.2884375 256.92554688 0.576875 257.85109375 -0.15625 258.8046875 C-23.2747004 288.2531898 -51.23079236 313.73914052 -89 321 C-88.29875 322.093125 -87.5975 323.18625 -86.875 324.3125 C-84.19252042 328.59078896 -81.80548477 333.00117319 -79.42578125 337.453125 C-78.25531884 339.5439236 -77.03343706 341.44399796 -75.625 343.375 C-73.82652226 346.28023327 -73.27729679 347.65749766 -74 351 C-76.31538963 353.28254722 -77.65102399 353.96065237 -80.91015625 354.328125 C-81.95042969 354.30234375 -82.99070313 354.2765625 -84.0625 354.25 C-85.10535156 354.23453125 -86.14820313 354.2190625 -87.22265625 354.203125 C-90 354 -90 354 -93 353 C-92.938125 354.27875 -92.87625 355.5575 -92.8125 356.875 C-92.92420204 370.27924461 -96.3071631 382.38244108 -100.5625 395 C-104.16269762 405.74323061 -106.74464106 415.65974161 -107 427 C-107.02835938 428.10472656 -107.05671875 429.20945312 -107.0859375 430.34765625 C-106.67374 445.46780993 -100.01108388 458.89644663 -92.31518555 471.56835938 C-82.55011289 487.69248775 -80.0277894 505.94322313 -83.75390625 524.578125 C-85.39784827 530.53499727 -87.57074578 535.85611866 -91 541 C-92.65 541 -94.3 541 -96 541 C-97.53381853 536.25070649 -96.21444602 532.64815756 -94.625 528.125 C-88.84118851 511.31381165 -90.19806055 494.31801483 -97.4140625 478.02734375 C-99.57448175 473.90339075 -102.11505693 470.08509609 -104.68847656 466.21069336 C-115.26185764 450.09094803 -118.76099512 430.40946325 -114.8671875 411.56713867 C-113.21620748 404.42353813 -110.82779623 397.69104886 -108.15307617 390.87646484 C-103.43378599 378.60903042 -102.46159681 366.00429637 -102 353 C-102.7425 353.32355469 -103.485 353.64710938 -104.25 353.98046875 C-107.94194269 355.34921455 -111.11143608 355.54094942 -115 355 C-118 353.5 -118 353.5 -120 352 C-119.68267405 344.9196647 -116.44341429 339.69461275 -113 333.625 C-112.16082031 332.11099609 -112.16082031 332.11099609 -111.3046875 330.56640625 C-107.20027546 323.20027546 -107.20027546 323.20027546 -106 322 C-107.20011719 321.69449219 -108.40023437 321.38898438 -109.63671875 321.07421875 C-134.17970208 314.47798084 -154.79699556 301.59623763 -173 284 C-173.60875977 283.4117041 -174.21751953 282.8234082 -174.84472656 282.21728516 C-182.73936251 274.55150665 -190.53240425 266.93750436 -197 258 C-197.44794922 257.38543945 -197.89589844 256.77087891 -198.35742188 256.13769531 C-233.25686407 208.09990655 -251.92648766 151.28314504 -242.62548828 91.59667969 C-238.11058603 65.20776009 -228.0023842 39.53505301 -212 18 C-211.30648437 17.06414062 -210.61296875 16.12828125 -209.8984375 15.1640625 C-199.41783069 1.77871822 -187.10299899 -9.56692435 -173 -19 C-172.1646875 -19.56976563 -171.329375 -20.13953125 -170.46875 -20.7265625 C-115.49378222 -55.93313433 -46.20181713 -42.35032838 0 0 Z " fill="#856EBC" transform="translate(270,79)"/>
<path d="M0 0 C2.5625 1.625 2.5625 1.625 4 4 C4.66320805 7.44868188 4.64959745 9.75662988 3 12.9140625 C-1.63372238 19.52238248 -7.96637908 24.65827756 -14.140625 29.7734375 C-28.16510285 41.53412168 -35.91620141 58.14031613 -42.66821289 74.83642578 C-44.50768016 79.2891279 -46.52642491 83.76321245 -51 86 C-54.3125 86.375 -54.3125 86.375 -58 86 C-61.16639117 83.46688706 -63.73880431 80.89824124 -65 77 C-66.07172726 59.42367289 -51.03584048 37.06875846 -40 24 C-32.53524079 15.66845986 -24.64792567 7.77413733 -15 2 C-13.989375 1.34 -12.97875 0.68 -11.9375 0 C-7.75144791 -1.42503901 -4.24135608 -1.16697653 0 0 Z " fill="#E8E3EC" transform="translate(121,82)"/>
<path d="M0 0 C1.67542976 0.28604898 3.34385343 0.61781233 5 1 C5.5238388 15.08078685 5.91145826 27.64296033 0.77050781 40.92431641 C-7.20386889 62.4066202 -10.4247908 84.16452579 -1.00927734 105.90087891 C1.54970158 111.22310938 4.59430348 116.30688267 7.63427734 121.36547852 C17.34745033 137.63854001 19.99873015 155.81059466 16.24609375 174.578125 C14.60215173 180.53499727 12.42925422 185.85611866 9 191 C7.35 191 5.7 191 4 191 C2.46618147 186.25070649 3.78555398 182.64815756 5.375 178.125 C11.15881149 161.31381165 9.80193945 144.31801483 2.5859375 128.02734375 C0.42551825 123.90339075 -2.11505693 120.08509609 -4.68847656 116.21069336 C-15.26191227 100.09086474 -18.7604343 80.41026249 -14.86743164 61.56787109 C-13.23268204 54.49557314 -10.87798051 47.83331436 -8.22338867 41.08959961 C-3.59940206 29.07076981 -1.61710812 16.7885417 -1.17578125 3.96484375 C-1 1 -1 1 0 0 Z " fill="#55586D" transform="translate(170,429)"/>
<path d="M0 0 C3.78718433 4.83063545 6.55885722 10.19214284 9.5 15.5625 C10.08136719 16.59697266 10.66273438 17.63144531 11.26171875 18.69726562 C17.30277939 29.73567963 19.55236662 39.25405885 19.4375 51.8125 C19.42831543 53.52336792 19.42831543 53.52336792 19.41894531 55.26879883 C19.21009095 66.5429178 17.35617411 76.46573883 11 86 C9.35 86 7.7 86 6 86 C4.46618147 81.25070649 5.78555398 77.64815756 7.375 73.125 C13.17482749 56.26725967 11.78102795 39.26915044 4.5390625 22.94140625 C1.78264829 17.67343695 -1.5455491 12.83451689 -5 8 C-4 6 -4 6 -1 5 C-0.67 3.35 -0.34 1.7 0 0 Z " fill="#242B40" transform="translate(168,534)"/>
<path d="M0 0 C0.33 0 0.66 0 1 0 C0.98952637 0.56283691 0.97905273 1.12567383 0.96826172 1.70556641 C0.62564579 22.175516 0.62564579 22.175516 5.40234375 41.95703125 C6.39466428 45.34908118 6.1914201 48.49063153 6 52 C4.1875 52.6875 4.1875 52.6875 2 53 C-1.4529278 50.5453988 -2.29895802 46.93893559 -3.625 43.0625 C-4.05039063 41.83660156 -4.47578125 40.61070312 -4.9140625 39.34765625 C-6.30171724 35.06988607 -7.12684725 31.55923136 -7.1328125 27.05078125 C-7.13474609 25.65569336 -7.13474609 25.65569336 -7.13671875 24.23242188 C-7.13285156 23.26884766 -7.12898437 22.30527344 -7.125 21.3125 C-7.12886719 20.33732422 -7.13273438 19.36214844 -7.13671875 18.35742188 C-7.13542969 17.43123047 -7.13414062 16.50503906 -7.1328125 15.55078125 C-7.13168457 14.70169189 -7.13055664 13.85260254 -7.12939453 12.9777832 C-7 11 -7 11 -6 10 C-5.95936168 8.33382885 -5.957279 6.66611905 -6 5 C-4.515 5.99 -4.515 5.99 -3 7 C-2.01 4.69 -1.02 2.38 0 0 Z " fill="#3C4054" transform="translate(162,488)"/>
<path d="M0 0 C0.33 0 0.66 0 1 0 C1 1.98 1 3.96 1 6 C1.66 6 2.32 6 3 6 C3.66 4.02 4.32 2.04 5 0 C5.33 0 5.66 0 6 0 C6.55379608 34.84229357 6.55379608 34.84229357 -1 46 C-2.65 46 -4.3 46 -6 46 C-7.53381853 41.25070649 -6.21444602 37.64815756 -4.625 33.125 C-1.8157491 24.95964985 -0.86029631 17.16397908 -0.4375 8.5625 C-0.37272461 7.32209961 -0.37272461 7.32209961 -0.30664062 6.05664062 C-0.20161967 4.03790451 -0.10041441 2.01897049 0 0 Z " fill="#3C4158" transform="translate(180,574)"/>
<path d="M0 0 C1.65 0.33 3.3 0.66 5 1 C5 9.58 5 18.16 5 27 C4.34 27 3.68 27 3 27 C2.67 28.32 2.34 29.64 2 31 C0 30 0 30 -1.14453125 26.62109375 C-2.3337732 21.40170768 -2.02953379 16.36954036 -1.6875 11.0625 C-1.63916016 10.10537109 -1.59082031 9.14824219 -1.54101562 8.16210938 C-1.14773261 1.14773261 -1.14773261 1.14773261 0 0 Z " fill="#131925" transform="translate(170,429)"/>
<path d="M0 0 C3.67251375 3.41923694 6.59239714 6.55438286 7.4375 11.625 C7 14 7 14 5.3515625 15.6328125 C2.3621916 17.37081884 0.37455907 17.33518114 -3.0625 17.25 C-4.62677734 17.22679687 -4.62677734 17.22679687 -6.22265625 17.203125 C-9 17 -9 17 -12 16 C-11.98839844 16.6290625 -11.97679687 17.258125 -11.96484375 17.90625 C-11.90713127 23.38069088 -12.19771527 28.58457806 -13 34 C-13.33 34 -13.66 34 -14 34 C-14 27.4 -14 20.8 -14 14 C-10.52674819 12.8422494 -7.63932552 12.93133348 -4 13 C-4.66 12.01 -5.32 11.02 -6 10 C-4.1875 8 -4.1875 8 -2 6 C-1.01 6 -0.02 6 1 6 C0.67 4.02 0.34 2.04 0 0 Z " fill="#9285C1" transform="translate(189,416)"/>
<path d="M0 0 C2.74573672 2.40952406 4.07057727 4.87159651 5.5625 8.1875 C5.97628906 9.08855469 6.39007813 9.98960937 6.81640625 10.91796875 C9.98120236 19.15897249 10.30872643 26.48018644 10.25 35.25 C10.25773438 36.42046875 10.26546875 37.5909375 10.2734375 38.796875 C10.27085937 39.9209375 10.26828125 41.045 10.265625 42.203125 C10.26336914 43.22051758 10.26111328 44.23791016 10.25878906 45.28613281 C10 48 10 48 8 52 C8 42.76 8 33.52 8 24 C7.01 26.475 7.01 26.475 6 29 C3.875 29.8125 3.875 29.8125 2 30 C1.46969932 27.56421213 0.95047688 25.12694025 0.4375 22.6875 C0.21030273 21.65206055 0.21030273 21.65206055 -0.02148438 20.59570312 C-0.71761569 17.24455934 -1.10155309 15.30465928 0 12 C1 12 2 12 3 12 C3 10.68 3 9.36 3 8 C2.34 8 1.68 8 1 8 C0.67 5.36 0.34 2.72 0 0 Z " fill="#5E6387" transform="translate(177,551)"/>
<path d="M0 0 C0.33 0 0.66 0 1 0 C1 1.98 1 3.96 1 6 C1.66 6 2.32 6 3 6 C3.66 4.02 4.32 2.04 5 0 C5.33 0 5.66 0 6 0 C6.05859888 3.83326795 6.09379643 7.66641888 6.125 11.5 C6.14175781 12.57765625 6.15851563 13.6553125 6.17578125 14.765625 C6.2131143 20.88824592 5.80603367 26.14105614 4 32 C3.01 31.67 2.02 31.34 1 31 C1 28.69 1 26.38 1 24 C0.67 24 0.34 24 0 24 C0 16.08 0 8.16 0 0 Z " fill="#141A2A" transform="translate(180,574)"/>
<path d="M0 0 C0.33 0 0.66 0 1 0 C-0.17071689 17.95929526 -0.17071689 17.95929526 -1.5625 23.0625 C-2.16319351 25.7227141 -2.06173087 28.28384152 -2 31 C-3.32 31 -4.64 31 -6 31 C-7.03965818 26.74235222 -7.15018779 22.60748793 -7.125 18.25 C-7.12886719 17.56550781 -7.13273438 16.88101562 -7.13671875 16.17578125 C-7.12672061 11.12672061 -7.12672061 11.12672061 -6 10 C-5.95936168 8.33382885 -5.957279 6.66611905 -6 5 C-4.515 5.99 -4.515 5.99 -3 7 C-2.01 4.69 -1.02 2.38 0 0 Z " fill="#141927" transform="translate(162,488)"/>
<path d="M0 0 C0.66 0.99 1.32 1.98 2 3 C1.67 3.33 1.34 3.66 1 4 C1.40929986 6.05396726 1.40929986 6.05396726 2 8 C2.66 6.35 3.32 4.7 4 3 C4.99 3 5.98 3 7 3 C6.44687265 7.02992782 5.8441938 11.02022924 5 15 C4.34 14.67 3.68 14.34 3 14 C2.319375 14.99 2.319375 14.99 1.625 16 C1.08875 16.66 0.5525 17.32 0 18 C-0.66 18 -1.32 18 -2 18 C-3.1161656 21.71429898 -3.3124195 25.39161508 -3.5625 29.25 C-3.64628906 30.51328125 -3.73007813 31.7765625 -3.81640625 33.078125 C-3.87699219 34.04234375 -3.93757812 35.0065625 -4 36 C-4.33 36 -4.66 36 -5 36 C-5.53765737 24.06699347 -5.48008375 10.9601675 0 0 Z " fill="#434962" transform="translate(159,478)"/>
<path d="M0 0 C0.33 0 0.66 0 1 0 C0.97679687 0.92039062 0.95359375 1.84078125 0.9296875 2.7890625 C0.80229113 11.72500783 1.48543066 20.16685474 3 29 C3.28037109 30.68416016 3.28037109 30.68416016 3.56640625 32.40234375 C3.78103516 33.68818359 3.78103516 33.68818359 4 35 C3.01 35 2.02 35 1 35 C0.67 33.02 0.34 31.04 0 29 C-1.98 29.33 -3.96 29.66 -6 30 C-6.33 26.7 -6.66 23.4 -7 20 C-6.34 21.32 -5.68 22.64 -5 24 C-4.34 24 -3.68 24 -3 24 C-3.02320313 23.01257813 -3.04640625 22.02515625 -3.0703125 21.0078125 C-3.08835938 19.72648438 -3.10640625 18.44515625 -3.125 17.125 C-3.14820313 15.84882813 -3.17140625 14.57265625 -3.1953125 13.2578125 C-3 10 -3 10 -1 8 C-0.54188325 6.02764667 -0.54188325 6.02764667 -0.375 3.875 C-0.189375 1.956875 -0.189375 1.956875 0 0 Z " fill="#6A6E8A" transform="translate(162,494)"/>
<path d="M0 0 C0.66 0.33 1.32 0.66 2 1 C3.32860925 1.35169068 4.66158328 1.68770276 6 2 C6 2.66 6 3.32 6 4 C5.34 4 4.68 4 4 4 C3.67 9.94 3.34 15.88 3 22 C2.67 22 2.34 22 2 22 C2 17.38 2 12.76 2 8 C0.35 8.66 -1.3 9.32 -3 10 C-5.23828125 10.1953125 -5.23828125 10.1953125 -7.3125 10.125 C-8.529375 10.08375 -9.74625 10.0425 -11 10 C-10.34 9.34 -9.68 8.68 -9 8 C-9 7.01 -9 6.02 -9 5 C-8.34 5 -7.68 5 -7 5 C-7 4.34 -7 3.68 -7 3 C-7.66 2.67 -8.32 2.34 -9 2 C-7.35 2 -5.7 2 -4 2 C-4 2.99 -4 3.98 -4 5 C-3.67 4.34 -3.34 3.68 -3 3 C-2.01 3 -1.02 3 0 3 C0 2.01 0 1.02 0 0 Z " fill="#9C8CC8" transform="translate(166,424)"/>
<path d="M0 0 C0.58984375 1.859375 0.58984375 1.859375 1 4 C-0.4375 6.25 -0.4375 6.25 -2 8 C-1.67 8.66 -1.34 9.32 -1 10 C-2.32 10.33 -3.64 10.66 -5 11 C-5 11.66 -5 12.32 -5 13 C-6.50854609 14.24619025 -8.01981619 15.48950582 -9.5546875 16.703125 C-11.15352723 17.96857447 -11.15352723 17.96857447 -12 20.125 C-13.55155407 23.03416387 -16.06880544 23.72556758 -19 25 C-17.46016278 20.2641053 -14.82219015 16.88832393 -11.75 13.0625 C-11.28464844 12.46759766 -10.81929687 11.87269531 -10.33984375 11.25976562 C-7.13589754 7.22173424 -3.7017587 3.58676323 0 0 Z " fill="#9686C1" transform="translate(72,81)"/>
<path d="M0 0 C0 0.66 0 1.32 0 2 C3.54518884 0.60240095 3.54518884 0.60240095 7 -1 C10.73584906 0.47169811 10.73584906 0.47169811 12 3 C9.73139163 3.5304408 7.46001511 4.04905434 5.1875 4.5625 C3.92292969 4.85253906 2.65835938 5.14257812 1.35546875 5.44140625 C-2 6 -2 6 -5 5 C-6.49676706 4.88340402 -7.99875061 4.82501041 -9.5 4.8125 C-10.2734375 4.79832031 -11.046875 4.78414063 -11.84375 4.76953125 C-14.29680056 4.86338472 -14.29680056 4.86338472 -17 7 C-18.32 6.34 -19.64 5.68 -21 5 C-18.55420823 2.69074515 -17.40557866 2.00998186 -13.984375 1.92578125 C-12.91703125 2.05339844 -11.8496875 2.18101562 -10.75 2.3125 C-9.67234375 2.43238281 -8.5946875 2.55226563 -7.484375 2.67578125 C-6.66453125 2.78277344 -5.8446875 2.88976562 -5 3 C-5.33 2.01 -5.66 1.02 -6 0 C-3 -1 -3 -1 0 0 Z " fill="#9D89C7" transform="translate(182,394)"/>
<path d="M0 0 C1.32 0.33 2.64 0.66 4 1 C4 4 4 4 2.5 5.6875 C2.005 6.120625 1.51 6.55375 1 7 C0.01 6.67 -0.98 6.34 -2 6 C-3.64555699 7.22809091 -3.64555699 7.22809091 -5 9 C-4.67156616 11.06381575 -4.67156616 11.06381575 -4 13 C-4.33 13.66 -4.66 14.32 -5 15 C-5.66 15 -6.32 15 -7 15 C-7.33 15.66 -7.66 16.32 -8 17 C-8.99 16.34 -9.98 15.68 -11 15 C-12.36125 15.928125 -12.36125 15.928125 -13.75 16.875 C-16.14948817 18.44389611 -18.40961612 19.80443821 -21 21 C-17.1701892 15.84956478 -12.61038338 12.18318027 -7.60546875 8.19140625 C-4.61578514 5.67684478 -2.32312554 3.12420331 0 0 Z " fill="#7866B3" transform="translate(123,95)"/>
<path d="M0 0 C2.31 0 4.62 0 7 0 C7.33 3.3 7.66 6.6 8 10 C8.66 10 9.32 10 10 10 C10.33 12.31 10.66 14.62 11 17 C9.68 16.67 8.36 16.34 7 16 C7 15.34 7 14.68 7 14 C6.34 14 5.68 14 5 14 C4.15675328 12.421924 3.32576082 10.8372958 2.5 9.25 C2.0359375 8.36828125 1.571875 7.4865625 1.09375 6.578125 C0 4 0 4 0 0 Z " fill="#262C41" transform="translate(170,549)"/>
<path d="M0 0 C1.51953125 1.20703125 1.51953125 1.20703125 3 3 C3.07421875 5.26171875 3.07421875 5.26171875 2.6875 7.6875 C2.50767578 8.89986328 2.50767578 8.89986328 2.32421875 10.13671875 C2.21722656 10.75160156 2.11023438 11.36648438 2 12 C1.34 12 0.68 12 0 12 C-0.33 12.99 -0.66 13.98 -1 15 C-1.33 14.67 -1.66 14.34 -2 14 C-2.66 15.32 -3.32 16.64 -4 18 C-6.08168944 14.65220841 -6.1006308 12.74809609 -5.25 8.9375 C-4.97929687 7.65166016 -4.97929687 7.65166016 -4.703125 6.33984375 C-4 4 -4 4 -2 1 C-1.67 1.33 -1.34 1.66 -1 2 C-0.67 1.34 -0.34 0.68 0 0 Z " fill="#2D3347" transform="translate(165,469)"/>
<path d="M0 0 C1.2109375 1.578125 1.2109375 1.578125 2 4 C0.98613427 6.4546223 -0.02723255 8.49546254 -1.375 10.75 C-1.71789062 11.35199219 -2.06078125 11.95398438 -2.4140625 12.57421875 C-3.26177818 14.05772119 -4.12905505 15.53001487 -5 17 C-7.97921225 13.59956236 -7.97921225 13.59956236 -8.07421875 10.859375 C-7.53710938 7.9296875 -7.53710938 7.9296875 -7 5 C-6.34 5 -5.68 5 -5 5 C-4.731875 4.360625 -4.46375 3.72125 -4.1875 3.0625 C-3 1 -3 1 0 0 Z " fill="#907EC0" transform="translate(295,291)"/>
<path d="M0 0 C5.78006308 5.07023077 8.50011716 13.50175738 9 21 C8.34 20.01 7.68 19.02 7 18 C6.01 18 5.02 18 4 18 C3.34 17.67 2.68 17.34 2 17 C1.34 17.66 0.68 18.32 0 19 C-0.33 16.69 -0.66 14.38 -1 12 C0.33333333 12 1.66666667 12 3 12 C3 10.68 3 9.36 3 8 C2.34 8 1.68 8 1 8 C0.67 5.36 0.34 2.72 0 0 Z " fill="#5D617B" transform="translate(177,551)"/>
<path d="M0 0 C0.77988281 -0.01417969 1.55976563 -0.02835937 2.36328125 -0.04296875 C4.8907668 0.20765587 6.50468031 0.92376228 8.6875 2.1875 C8.6875 3.1775 8.6875 4.1675 8.6875 5.1875 C3.4075 5.1875 -1.8725 5.1875 -7.3125 5.1875 C-4.73813681 0.03877362 -4.73813681 0.03877362 0 0 Z " fill="#212644" transform="translate(172.3125,397.8125)"/>
<path d="M0 0 C2.24606427 1.77444972 2.95081002 2.58352485 3.29296875 5.48046875 C3.25816406 6.37378906 3.22335938 7.26710938 3.1875 8.1875 C3.16042969 9.08855469 3.13335937 9.98960937 3.10546875 10.91796875 C3.07066406 11.60503906 3.03585938 12.29210937 3 13 C3.66 13.33 4.32 13.66 5 14 C5.33 13.01 5.66 12.02 6 11 C5.28571429 19.57142857 5.28571429 19.57142857 2 23 C2 20.36 2 17.72 2 15 C0.68 15 -0.64 15 -2 15 C-1.38487182 9.99109914 -0.7282448 4.99367864 0 0 Z " fill="#54586E" transform="translate(179,592)"/>
<path d="M0 0 C0.33 0.66 0.66 1.32 1 2 C6.28 2 11.56 2 17 2 C17.33 1.34 17.66 0.68 18 0 C18.66 1.65 19.32 3.3 20 5 C19.34 5.66 18.68 6.32 18 7 C17.67 6.01 17.34 5.02 17 4 C15.10489301 3.91839252 13.20875496 3.86053541 11.3125 3.8125 C10.25675781 3.77769531 9.20101562 3.74289062 8.11328125 3.70703125 C4.61734982 4.03600849 2.86945129 5.04717898 0 7 C-2.3125 7.6875 -2.3125 7.6875 -4 8 C-2.87548273 5.0280615 -1.77706209 2.66559313 0 0 Z " fill="#9A86C1" transform="translate(164,401)"/>
<path d="M0 0 C0 0.33 0 0.66 0 1 C-1.98 1.33 -3.96 1.66 -6 2 C-5.67 2.66 -5.34 3.32 -5 4 C-6.41538717 4.33872513 -7.83237963 4.67074624 -9.25 5 C-10.03890625 5.185625 -10.8278125 5.37125 -11.640625 5.5625 C-14 6 -14 6 -18 6 C-19.75635377 6.29804791 -21.50674957 6.63299991 -23.25 7 C-24.14203125 7.185625 -25.0340625 7.37125 -25.953125 7.5625 C-26.62859375 7.706875 -27.3040625 7.85125 -28 8 C-24.05584537 4.34743657 -20.26803642 2.92280457 -15.125 1.75 C-14.44308594 1.57726563 -13.76117188 1.40453125 -13.05859375 1.2265625 C-8.60231231 0.15705496 -4.57902291 -0.16737943 0 0 Z " fill="#887EB7" transform="translate(154,40)"/>
<path d="M0 0 C5.08335725 0.15404113 7.35754718 3.02068432 10.64453125 6.50390625 C11.09183594 6.99761719 11.53914063 7.49132812 12 8 C11.67 8.66 11.34 9.32 11 10 C10.38125 9.505 9.7625 9.01 9.125 8.5 C7.16119096 6.80777227 7.16119096 6.80777227 5 7 C4.67 6.67 4.34 6.34 4 6 C3.01 6.66 2.02 7.32 1 8 C0.01 7.34 -0.98 6.68 -2 6 C-1.34 4.02 -0.68 2.04 0 0 Z " fill="#8C77BF" transform="translate(266,79)"/>
<path d="M0 0 C0.99 0 1.98 0 3 0 C3.17835515 4.54805635 2.99785435 7.8794254 1 12 C-0.32 10.68 -1.64 9.36 -3 8 C-3.66 8.66 -4.32 9.32 -5 10 C-4.67 7.03 -4.34 4.06 -4 1 C-3.01 1 -2.02 1 -1 1 C-0.67 0.67 -0.34 0.34 0 0 Z " fill="#45495E" transform="translate(168,463)"/>
<path d="M0 0 C0.33 0 0.66 0 1 0 C1.33 5.94 1.66 11.88 2 18 C-3 14 -3 14 -3.48828125 10.765625 C-3.43027344 9.60546875 -3.37226563 8.4453125 -3.3125 7.25 C-3.26738281 6.07953125 -3.22226563 4.9090625 -3.17578125 3.703125 C-3.11777344 2.81109375 -3.05976563 1.9190625 -3 1 C-2.01 1.495 -2.01 1.495 -1 2 C-0.67 1.34 -0.34 0.68 0 0 Z " fill="#272F4B" transform="translate(173,438)"/>
<path d="M0 0 C0.33 0 0.66 0 1 0 C1.14368684 8.71700174 0.71961582 17.31320899 0 26 C-0.66 25.67 -1.32 25.34 -2 25 C-3.19732437 20.21070252 -3.58043885 14.9189733 -3 10 C-2.34 9.34 -1.68 8.68 -1 8 C-0.54188325 6.02764667 -0.54188325 6.02764667 -0.375 3.875 C-0.25125 2.59625 -0.1275 1.3175 0 0 Z " fill="#525776" transform="translate(162,494)"/>
<path d="M0 0 C0.33 0.66 0.66 1.32 1 2 C1.66 2.33 2.32 2.66 3 3 C3.125 9.75 3.125 9.75 2 12 C-1.875 11.125 -1.875 11.125 -3 10 C-2.62056512 5.90210331 -2.30694043 3.46041065 0 0 Z " fill="#9A88C4" transform="translate(153,421)"/>
<path d="M0 0 C3.29967665 2.80472516 5.08459104 6.16918209 7 10 C6.67 10.99 6.34 11.98 6 13 C4.02 13.33 2.04 13.66 0 14 C0 12.68 0 11.36 0 10 C0.66 10 1.32 10 2 10 C1.505 8.63875 1.505 8.63875 1 7.25 C0 4 0 4 0 0 Z " fill="#55586E" transform="translate(169,537)"/>
<path d="M0 0 C1.5625 1.6875 1.5625 1.6875 3 4 C2.6875 6.75 2.6875 6.75 2 9 C1.34 9 0.68 9 0 9 C0 9.99 0 10.98 0 12 C1.65 12 3.3 12 5 12 C5 12.33 5 12.66 5 13 C1.625 13.125 1.625 13.125 -2 13 C-2.66 12.34 -3.32 11.68 -4 11 C-3.01 11 -2.02 11 -1 11 C-1.45822468 7.53058454 -1.89131683 4.32604951 -3 1 C-2.01 0.67 -1.02 0.34 0 0 Z " fill="#7765B3" transform="translate(157,420)"/>
<path d="M0 0 C0.33 0.66 0.66 1.32 1 2 C1.66 2 2.32 2 3 2 C1.19760479 7.66467066 1.19760479 7.66467066 -0.03125 9.75 C-1.38908525 12.90368187 -1.43521224 15.83382024 -1.625 19.25 C-1.69976562 20.51328125 -1.77453125 21.7765625 -1.8515625 23.078125 C-1.90054688 24.04234375 -1.94953125 25.0065625 -2 26 C-2.33 26 -2.66 26 -3 26 C-3.55353075 8.14350797 -3.55353075 8.14350797 0 0 Z " fill="#80849A" transform="translate(157,488)"/>
<path d="M0 0 C-0.55550695 3.59905908 -1.74887248 4.99909799 -4.5625 7.25 C-5.20316406 7.77078125 -5.84382812 8.2915625 -6.50390625 8.828125 C-6.99761719 9.21484375 -7.49132812 9.6015625 -8 10 C-9 7 -9 7 -8.3125 4.4375 C-6.25931284 0.62443813 -4.22851835 0 0 0 Z " fill="#8D7CBD" transform="translate(248,359)"/>
<path d="M0 0 C1.70840281 1.63412443 2.93453047 2.86906094 4 5 C3.22265625 6.7265625 3.22265625 6.7265625 2.0625 8.625 C1.0415625 10.295625 1.0415625 10.295625 0 12 C-0.66 12 -1.32 12 -2 12 C-2.33 13.32 -2.66 14.64 -3 16 C-2.52013969 10.43109483 -1.70084819 5.32932432 0 0 Z " fill="#A193C8" transform="translate(32,151)"/>
<path d="M0 0 C0 0.99 0 1.98 0 3 C-5.625 6 -5.625 6 -9 6 C-9.33 4.68 -9.66 3.36 -10 2 C-6.49223216 0.39644899 -3.85645121 -0.22036864 0 0 Z " fill="#907FC0" transform="translate(211,387)"/>
<path d="M0 0 C1.6852084 4.07679159 0.16939007 6.83075593 -1.4375 10.75 C-1.91058594 11.92046875 -2.38367188 13.0909375 -2.87109375 14.296875 C-3.24363281 15.18890625 -3.61617188 16.0809375 -4 17 C-4.99 16.67 -5.98 16.34 -7 16 C-6.51572038 11.73833933 -5.80256591 9.25097645 -3 6 C-0.89767656 3.1315587 -0.89767656 3.1315587 0 0 Z " fill="#AE9ECF" transform="translate(308,263)"/>
<path d="M0 0 C1.9375 0.8125 1.9375 0.8125 4 2 C4.33 2.99 4.66 3.98 5 5 C2.69 6.65 0.38 8.3 -2 10 C-2.66 9.67 -3.32 9.34 -4 9 C-3.67 7.68 -3.34 6.36 -3 5 C-3.66 4.67 -4.32 4.34 -5 4 C-2.92446352 3.4465236 -1.15634036 3 1 3 C0.67 2.01 0.34 1.02 0 0 Z " fill="#9988C4" transform="translate(224,374)"/>
<path d="M0 0 C0.33 0.99 0.66 1.98 1 3 C0.67 3.66 0.34 4.32 0 5 C0.66 5 1.32 5 2 5 C0.66666667 7.66666667 -0.66666667 10.33333333 -2 13 C-2.66 13 -3.32 13 -4 13 C-4.33 13.99 -4.66 14.98 -5 16 C-5.33 15.34 -5.66 14.68 -6 14 C-5.09176973 11.56442428 -4.13171929 9.23804483 -3.0625 6.875 C-2.77181641 6.21628906 -2.48113281 5.55757812 -2.18164062 4.87890625 C-1.46139802 3.24950495 -0.73158857 1.62433868 0 0 Z " fill="#7162AE" transform="translate(83,144)"/>
<path d="M0 0 C-0.33 1.65 -0.66 3.3 -1 5 C-4 5 -7 5 -10 5 C-5 -1.5 -5 -1.5 0 0 Z " fill="#9180C0" transform="translate(88,71)"/>
<path d="M0 0 C2.97 0.495 2.97 0.495 6 1 C5.67 1.99 5.34 2.98 5 4 C5.66 4.33 6.32 4.66 7 5 C6.34 6.65 5.68 8.3 5 10 C0.07692308 5.69230769 0.07692308 5.69230769 -0.3125 2.1875 C-0.209375 1.465625 -0.10625 0.74375 0 0 Z " fill="#9886C4" transform="translate(64,320)"/>
<path d="M0 0 C0.33 0 0.66 0 1 0 C1.23509196 4.81938524 0.45184478 8.46298506 -1 13 C-2.32 11.68 -3.64 10.36 -5 9 C-3.25 4.125 -3.25 4.125 -1 3 C-0.67 2.01 -0.34 1.02 0 0 Z " fill="#9382C1" transform="translate(62,305)"/>
<path d="M0 0 C1.65 0 3.3 0 5 0 C5.66 1.32 6.32 2.64 7 4 C5.68 5.32 4.36 6.64 3 8 C1.5 6.8125 1.5 6.8125 0 5 C-0.1875 2.3125 -0.1875 2.3125 0 0 Z " fill="#7A67B6" transform="translate(66,115)"/>
<path d="M0 0 C0.99 0.33 1.98 0.66 3 1 C4.1875 3.5625 4.1875 3.5625 5 6 C4.01 6.99 3.02 7.98 2 9 C0.5 7.8125 0.5 7.8125 -1 6 C-1.25 3.375 -1.25 3.375 -1 1 C-0.67 0.67 -0.34 0.34 0 0 Z " fill="#917CC2" transform="translate(266,330)"/>
<path d="M0 0 C0 0.99 0 1.98 0 3 C-3.56223605 4.68216702 -5.25802944 5.08637855 -9 4 C-11.18703385 4.37907282 -11.18703385 4.37907282 -13 5 C-9.76220634 1.00037254 -4.97776602 -1.65925534 0 0 Z " fill="#A795CB" transform="translate(123,49)"/>
<path d="M0 0 C0.33 0.99 0.66 1.98 1 3 C1.66 3 2.32 3 3 3 C3 5.64 3 8.28 3 11 C2.01 11.33 1.02 11.66 0 12 C-0.38218767 10.34385343 -0.71395102 8.67542976 -1 7 C-0.67 6.67 -0.34 6.34 0 6 C-0.33 5.01 -0.66 4.02 -1 3 C-0.67 2.01 -0.34 1.02 0 0 Z " fill="#151C2F" transform="translate(178,604)"/>
<path d="M0 0 C2.475 0.495 2.475 0.495 5 1 C5 2.98 5 4.96 5 7 C3.68 7.33 2.36 7.66 1 8 C0.17361624 5.10765685 0 3.11257569 0 0 Z " fill="#151B2D" transform="translate(163,533)"/>
<path d="M0 0 C1.95273962 2.92910944 2.75396363 5.08132291 3.6875 8.4375 C3.95949219 9.38496094 4.23148437 10.33242187 4.51171875 11.30859375 C4.99803744 13.98918237 4.89369149 15.46287583 4 18 C3.67 15.69 3.34 13.38 3 11 C2.01 10.67 1.02 10.34 0 10 C-1.31404708 6.41623524 -1.2089448 3.62683441 0 0 Z " fill="#695DA9" transform="translate(309,146)"/>
<path d="M0 0 C2.93200474 2.85276137 5.64315404 5.65079784 8 9 C7.67 9.66 7.34 10.32 7 11 C3.01824456 8.89851796 0.64960955 6.63094642 -2 3 C-1 1 -1 1 0 0 Z " fill="#A393C8" transform="translate(281,92)"/>
<path d="M0 0 C1.65 0.33 3.3 0.66 5 1 C4.67 2.32 4.34 3.64 4 5 C4.99 5.33 5.98 5.66 7 6 C4.03 5.67 1.06 5.34 -2 5 C-1.34 3.35 -0.68 1.7 0 0 Z " fill="#7866B3" transform="translate(159,393)"/>
<path d="M0 0 C0 0.33 0 0.66 0 1 C-1.98 1.33 -3.96 1.66 -6 2 C-5.67 2.66 -5.34 3.32 -5 4 C-7.97 4.66 -10.94 5.32 -14 6 C-14.33 4.68 -14.66 3.36 -15 2 C-9.77487721 0.53329887 -5.4185766 -0.22577402 0 0 Z " fill="#B7A4D4" transform="translate(154,40)"/>
<path d="M0 0 C0.66 0.99 1.32 1.98 2 3 C1.67 3.33 1.34 3.66 1 4 C1.33 4.99 1.66 5.98 2 7 C1.0625 9.6875 1.0625 9.6875 0 12 C-0.99 12 -1.98 12 -3 12 C-2.69106068 10.3743193 -2.3777305 8.74947252 -2.0625 7.125 C-1.88847656 6.22007812 -1.71445313 5.31515625 -1.53515625 4.3828125 C-1 2 -1 2 0 0 Z " fill="#60647F" transform="translate(159,478)"/>
<path d="M0 0 C0.99 0.66 1.98 1.32 3 2 C2.67 2.66 2.34 3.32 2 4 C2.66 4 3.32 4 4 4 C4 3.34 4 2.68 4 2 C5.32 2 6.64 2 8 2 C8.33 3.32 8.66 4.64 9 6 C5.7 5.67 2.4 5.34 -1 5 C-0.34 4.67 0.32 4.34 1 4 C0.01 3.34 -0.98 2.68 -2 2 C-1.34 1.34 -0.68 0.68 0 0 Z " fill="#8F75C2" transform="translate(171,424)"/>
<path d="M0 0 C-1.32 2.31 -2.64 4.62 -4 7 C-4.33 6.34 -4.66 5.68 -5 5 C-5.66 5 -6.32 5 -7 5 C-6.625 2.5625 -6.625 2.5625 -6 0 C-3.50907189 -1.24546405 -2.58919267 -0.7767578 0 0 Z " fill="#9382C0" transform="translate(279,324)"/>
<path d="M0 0 C0.66 1.32 1.32 2.64 2 4 C2.66 4 3.32 4 4 4 C4.33 3.34 4.66 2.68 5 2 C5 3.65 5 5.3 5 7 C2.69 7 0.38 7 -2 7 C-1.125 2.25 -1.125 2.25 0 0 Z " fill="#9887C4" transform="translate(40,129)"/>
<path d="M0 0 C4.75481646 0.57634139 7.97048212 2.55068521 12 5 C8.18510326 6.46726798 5.70988378 5.43336419 2 4 C2 3.34 2 2.68 2 2 C1.34 2 0.68 2 0 2 C0 1.34 0 0.68 0 0 Z " fill="#A498C8" transform="translate(227,51)"/>
<path d="M0 0 C0.928125 0.2784375 0.928125 0.2784375 1.875 0.5625 C4.04160178 1.23686176 4.04160178 1.23686176 6 0 C5.67 1.98 5.34 3.96 5 6 C4.34 5.67 3.68 5.34 3 5 C2.34 6.32 1.68 7.64 1 9 C-0.61949011 6.42786866 -1.04408751 5.32330841 -0.625 2.25 C-0.41875 1.5075 -0.2125 0.765 0 0 Z " fill="#131822" transform="translate(160,478)"/>
<path d="M0 0 C2 1 2 1 3 3 C2.071875 3.433125 1.14375 3.86625 0.1875 4.3125 C-2.47184073 5.72038627 -4.08105905 6.76123556 -6 9 C-6.33 7.68 -6.66 6.36 -7 5 C-4.69 3.35 -2.38 1.7 0 0 Z " fill="#A090C7" transform="translate(100,58)"/>
<path d="M0 0 C2.1385485 2.1385485 2.42655063 3.13275314 3 6 C2.360625 6.28875 1.72125 6.5775 1.0625 6.875 C-1.15206079 7.82823451 -1.15206079 7.82823451 -2 10 C-2.66 10 -3.32 10 -4 10 C-2.8905928 6.51329166 -1.73662334 3.22515763 0 0 Z " fill="#9D91C5" transform="translate(159,409)"/>
<path d="M0 0 C2 2 2 2 2 5 C2.66 5 3.32 5 4 5 C6.09230769 9.43076923 6.09230769 9.43076923 5.625 12.3125 C5.41875 12.869375 5.2125 13.42625 5 14 C4.67 12.02 4.34 10.04 4 8 C2.68 8.33 1.36 8.66 0 9 C0.33 7.02 0.66 5.04 1 3 C0.34 2.67 -0.32 2.34 -1 2 C-0.67 1.34 -0.34 0.68 0 0 Z " fill="#9B8EC3" transform="translate(306,138)"/>
<path d="M0 0 C0.99 0.66 1.98 1.32 3 2 C3 2.66 3 3.32 3 4 C2.34 4 1.68 4 1 4 C0.67 6.97 0.34 9.94 0 13 C-0.99 12.67 -1.98 12.34 -3 12 C-2.49202991 7.6822542 -1.80317221 3.96697886 0 0 Z " fill="#747691" transform="translate(176,607)"/>
<path d="M0 0 C0.99 0.33 1.98 0.66 3 1 C3.66 0.67 4.32 0.34 5 0 C7.1519437 3.22791555 7.20086443 4.28400809 7 8 C5.8274869 7.04882866 4.66212985 6.08882991 3.5 5.125 C2.8503125 4.59132813 2.200625 4.05765625 1.53125 3.5078125 C1.0259375 3.01023437 0.520625 2.51265625 0 2 C0 1.34 0 0.68 0 0 Z " fill="#A696CB" transform="translate(81,345)"/>
<path d="M0 0 C1.5 1.25 1.5 1.25 3 3 C3 4.32 3 5.64 3 7 C2.34 7.66 1.68 8.32 1 9 C-0.625 6.75 -0.625 6.75 -2 4 C-1.1875 1.6875 -1.1875 1.6875 0 0 Z " fill="#9A86C6" transform="translate(284,306)"/>
<path d="M0 0 C0.66666667 2.66666667 1.33333333 5.33333333 2 8 C0.02 8.99 0.02 8.99 -2 10 C-2.66 8.68 -3.32 7.36 -4 6 C-2.68 4.02 -1.36 2.04 0 0 Z " fill="#7262AF" transform="translate(93,126)"/>
<path d="M0 0 C3.93673644 1.31224548 6.22719294 2.91910327 9 6 C2.375 5.25 2.375 5.25 -1 3 C-0.67 2.01 -0.34 1.02 0 0 Z " fill="#9B8DC3" transform="translate(241,58)"/>
<path d="M0 0 C0.33 0 0.66 0 1 0 C1.84681133 5.08086796 2.09038099 9.84828377 2 15 C1.01 14.34 0.02 13.68 -1 13 C-1.2982655 8.45145106 -1.10962199 4.43848796 0 0 Z " fill="#A28CCB" transform="translate(314,223)"/>
<path d="M0 0 C3.40198926 4.04998722 6 8.63626649 6 14 C5.34 14 4.68 14 4 14 C3.32739649 12.23141309 2.66211605 10.46003984 2 8.6875 C1.62875 7.70136719 1.2575 6.71523437 0.875 5.69921875 C0 3 0 3 0 0 Z " fill="#B2A7CE" transform="translate(300,121)"/>
<path d="M0 0 C-0.55550695 3.59905908 -1.74887248 4.99909799 -4.5625 7.25 C-5.20316406 7.77078125 -5.84382813 8.2915625 -6.50390625 8.828125 C-6.99761719 9.21484375 -7.49132812 9.6015625 -8 10 C-7.29677677 6.68187874 -6.4442247 5.33795407 -4 3 C-4 2.34 -4 1.68 -4 1 C-2 0 -2 0 0 0 Z " fill="#7564AF" transform="translate(88,97)"/>
<path d="M0 0 C-1 3 -1 3 -3 5 C-4.32 5 -5.64 5 -7 5 C-7 4.34 -7 3.68 -7 3 C-7.66 2.67 -8.32 2.34 -9 2 C-5.62902617 0.50178941 -3.79557881 0 0 0 Z " fill="#7B68B7" transform="translate(110,57)"/>
<path d="M0 0 C1.98 0.66 3.96 1.32 6 2 C5.67 3.98 5.34 5.96 5 8 C2.20127563 5.47211993 0.54226981 3.79588866 0 0 Z " fill="#5C627D" transform="translate(163,540)"/>
<path d="M0 0 C0.86625 0.2784375 0.86625 0.2784375 1.75 0.5625 C4.20692525 1.04023546 5.64397534 0.75729364 8 0 C7.67 1.98 7.34 3.96 7 6 C4.69 5.01 2.38 4.02 0 3 C0 2.01 0 1.02 0 0 Z " fill="#565B78" transform="translate(160,475)"/>
<path d="M0 0 C4.93928888 -0.3367697 5.78492722 -0.16130459 10 3 C4.06 3.495 4.06 3.495 -2 4 C-1.34 2.68 -0.68 1.36 0 0 Z " fill="#14181D" transform="translate(167,399)"/>
<path d="M0 0 C0.66 0.33 1.32 0.66 2 1 C2.99444068 4.34493684 3.10348268 6.68955197 2 10 C-1.07692308 5.69230769 -1.07692308 5.69230769 -0.6875 2.1875 C-0.460625 1.465625 -0.23375 0.74375 0 0 Z " fill="#9D8EC4" transform="translate(50,295)"/>
<path d="M0 0 C0.66 1.32 1.32 2.64 2 4 C1.01 5.32 0.02 6.64 -1 8 C-1.66 7.67 -2.32 7.34 -3 7 C-3 5.02 -3 3.04 -3 1 C-2.01 0.67 -1.02 0.34 0 0 Z " fill="#9986C3" transform="translate(295,291)"/>
<path d="M0 0 C0.66 0.99 1.32 1.98 2 3 C0 6 0 6 -3.125 6.6875 C-4.07375 6.790625 -5.0225 6.89375 -6 7 C-4.60667426 3.63279613 -3.0210714 2.0140476 0 0 Z " fill="#7C68B5" transform="translate(100,119)"/>
<path d="M0 0 C3 3 3 3 3.1875 6.1875 C3.125625 7.115625 3.06375 8.04375 3 9 C1.02 9.99 1.02 9.99 -1 11 C-0.67 7.37 -0.34 3.74 0 0 Z " fill="#727595" transform="translate(179,592)"/>
<path d="M0 0 C4.29 0.33 8.58 0.66 13 1 C13 1.33 13 1.66 13 2 C11.73542969 2.09087891 11.73542969 2.09087891 10.4453125 2.18359375 C9.34960938 2.26738281 8.25390625 2.35117187 7.125 2.4375 C6.03445312 2.51871094 4.94390625 2.59992188 3.8203125 2.68359375 C1.05271029 2.83001703 1.05271029 2.83001703 -1 4 C-0.67 2.68 -0.34 1.36 0 0 Z " fill="#9A88C6" transform="translate(176,429)"/>
<path d="M0 0 C0.99 0 1.98 0 3 0 C3 0.99 3 1.98 3 3 C-1.95 3 -6.9 3 -12 3 C-12 2.67 -12 2.34 -12 2 C-11.21753906 1.93941406 -10.43507812 1.87882812 -9.62890625 1.81640625 C-8.61699219 1.73261719 -7.60507813 1.64882813 -6.5625 1.5625 C-5.55316406 1.48128906 -4.54382813 1.40007812 -3.50390625 1.31640625 C-1.06359221 1.26788532 -1.06359221 1.26788532 0 0 Z " fill="#212633" transform="translate(178,400)"/>
<path d="M0 0 C2.72426311 2.35277269 3.8141763 4.62496331 5 8 C4.01 8.33 3.02 8.66 2 9 C1.67 7.68 1.34 6.36 1 5 C0.34 5 -0.32 5 -1 5 C-0.67 3.35 -0.34 1.7 0 0 Z " fill="#A494C9" transform="translate(291,106)"/>
<path d="M0 0 C2.31 1.98 4.62 3.96 7 6 C6.67 6.66 6.34 7.32 6 8 C5.38125 7.505 4.7625 7.01 4.125 6.5 C2.16119096 4.80777227 2.16119096 4.80777227 0 5 C0 4.34 0 3.68 0 3 C-0.66 3 -1.32 3 -2 3 C-1 1 -1 1 0 0 Z " fill="#B8A6D3" transform="translate(271,81)"/>
<path d="M0 0 C2 3 2 3 2 5 C0 6.625 0 6.625 -2 8 C-2.66 6.68 -3.32 5.36 -4 4 C-2.68 2.68 -1.36 1.36 0 0 Z " fill="#9080BE" transform="translate(77,76)"/>
<path d="M0 0 C0.33 0 0.66 0 1 0 C0.67 2.97 0.34 5.94 0 9 C-0.66 9 -1.32 9 -2 9 C-2.33 9.99 -2.66 10.98 -3 12 C-3.33 10.35 -3.66 8.7 -4 7 C-3.34 7 -2.68 7 -2 7 C-2 6.01 -2 5.02 -2 4 C-1.34 4 -0.68 4 0 4 C0 2.68 0 1.36 0 0 Z " fill="#A096C5" transform="translate(313,244)"/>
<path d="M0 0 C0.33 0 0.66 0 1 0 C1.33 2.31 1.66 4.62 2 7 C1.34 7 0.68 7 0 7 C-0.33 7.66 -0.66 8.32 -1 9 C-1.66 9 -2.32 9 -3 9 C-2.44271087 5.65626525 -1.64826111 2.96687001 0 0 Z " fill="#A697CA" transform="translate(44,120)"/>
<path d="M0 0 C0.66 0.33 1.32 0.66 2 1 C1.67 1.66 1.34 2.32 1 3 C1.66 3.33 2.32 3.66 3 4 C1.35 5.32 -0.3 6.64 -2 8 C-2.66 7.67 -3.32 7.34 -4 7 C-2.68 4.69 -1.36 2.38 0 0 Z " fill="#7061AE" transform="translate(101,82)"/>
<path d="M0 0 C0.33 0.66 0.66 1.32 1 2 C1.99 2.33 2.98 2.66 4 3 C3.67 4.32 3.34 5.64 3 7 C2.01 6.67 1.02 6.34 0 6 C-0.38218767 4.34385343 -0.71395102 2.67542976 -1 1 C-0.67 0.67 -0.34 0.34 0 0 Z " fill="#7A67B5" transform="translate(161,408)"/>
<path d="M0 0 C1.88391785 3.26545761 2.49287967 6.28111761 3 10 C2.01 10 1.02 10 0 10 C-0.95024979 6.30458414 -0.95024979 3.69541586 0 0 Z " fill="#7C809E" transform="translate(163,519)"/>
<path d="M0 0 C1.32 0 2.64 0 4 0 C2.63016497 3.16115776 2.0109362 3.9927092 -1 6 C-1.625 4.125 -1.625 4.125 -2 2 C-1.34 1.34 -0.68 0.68 0 0 Z " fill="#A898CB" transform="translate(258,346)"/>
<path d="M0 0 C1.65 0.33 3.3 0.66 5 1 C4.01 1.495 4.01 1.495 3 2 C3 3.65 3 5.3 3 7 C1.68 5.68 0.36 4.36 -1 3 C-0.67 2.01 -0.34 1.02 0 0 Z " fill="#9E8AC7" transform="translate(220,48)"/>
<path d="M0 0 C1.98 0.66 3.96 1.32 6 2 C5.34 3.65 4.68 5.3 4 7 C0 2.25 0 2.25 0 0 Z " fill="#4E526A" transform="translate(170,551)"/>
<path d="M0 0 C1.32 0 2.64 0 4 0 C4 1.32 4 2.64 4 4 C3.01 4.495 3.01 4.495 2 5 C1.34 5.66 0.68 6.32 0 7 C0 4.69 0 2.38 0 0 Z " fill="#18203E" transform="translate(170,431)"/>
<path d="M0 0 C1.75098126 2.62647188 3.38731308 5.28775382 5 8 C2.13302508 6.71480435 0.02392288 5.42870746 -2 3 C-2 2.34 -2 1.68 -2 1 C-1.34 0.67 -0.68 0.34 0 0 Z " fill="#AC9ECE" transform="translate(101,362)"/>
<path d="M0 0 C2.64 0.33 5.28 0.66 8 1 C6.8125 2.5625 6.8125 2.5625 5 4 C2.3125 3.6875 2.3125 3.6875 0 3 C0 2.01 0 1.02 0 0 Z " fill="#A697CA" transform="translate(200,42)"/>
<path d="M0 0 C0.33 0.66 0.66 1.32 1 2 C3.01669827 3.13350534 3.01669827 3.13350534 5 4 C4.67 4.99 4.34 5.98 4 7 C3.01 7 2.02 7 1 7 C0.67 4.69 0.34 2.38 0 0 Z " fill="#131826" transform="translate(178,566)"/>
<path d="M0 0 C2.31 0 4.62 0 7 0 C7 1.65 7 3.3 7 5 C4.11562221 3.70700306 2.12780579 2.34058637 0 0 Z " fill="#A799CB" transform="translate(112,375)"/>
<path d="M0 0 C0.66 1.32 1.32 2.64 2 4 C-0.31 4 -2.62 4 -5 4 C-4.67 3.01 -4.34 2.02 -4 1 C-2 0 -2 0 0 0 Z " fill="#7A67B6" transform="translate(82,75)"/>
<path d="" fill="#EFF1F3" transform="translate(0,0)"/>
<path d="" fill="#EFF1F3" transform="translate(0,0)"/>
<path d="" fill="#EFF1F3" transform="translate(0,0)"/>
<path d="" fill="#EFF1F3" transform="translate(0,0)"/>
<path d="" fill="#EFF1F3" transform="translate(0,0)"/>
<path d="" fill="#EFF1F3" transform="translate(0,0)"/>
<path d="" fill="#EFF1F3" transform="translate(0,0)"/>
<path d="" fill="#EFF1F3" transform="translate(0,0)"/>
<path d="" fill="#EFF1F3" transform="translate(0,0)"/>
<path d="" fill="#EFF1F3" transform="translate(0,0)"/>
<path d="" fill="#EFF1F3" transform="translate(0,0)"/>
<path d="" fill="#EFF1F3" transform="translate(0,0)"/>
<path d="" fill="#EFF1F3" transform="translate(0,0)"/>
<path d="" fill="#EFF1F3" transform="translate(0,0)"/>
<path d="" fill="#EFF1F3" transform="translate(0,0)"/>
<path d="" fill="#EFF1F3" transform="translate(0,0)"/>
<path d="" fill="#EFF1F3" transform="translate(0,0)"/>
<path d="" fill="#EFF1F3" transform="translate(0,0)"/>
<path d="" fill="#EFF1F3" transform="translate(0,0)"/>
<path d="" fill="#EFF1F3" transform="translate(0,0)"/>
<path d="" fill="#EFF1F3" transform="translate(0,0)"/>
<path d="" fill="#EFF1F3" transform="translate(0,0)"/>
<path d="" fill="#EFF1F3" transform="translate(0,0)"/>
<path d="" fill="#EFF1F3" transform="translate(0,0)"/>
<path d="" fill="#EFF1F3" transform="translate(0,0)"/>
<path d="" fill="#EFF1F3" transform="translate(0,0)"/>
<path d="" fill="#EFF1F3" transform="translate(0,0)"/>
<path d="" fill="#EFF1F3" transform="translate(0,0)"/>
<path d="" fill="#EFF1F3" transform="translate(0,0)"/>
<path d="" fill="#EFF1F3" transform="translate(0,0)"/>
<path d="" fill="#EFF1F3" transform="translate(0,0)"/>
<path d="" fill="#EFF1F3" transform="translate(0,0)"/>
<path d="" fill="#EFF1F3" transform="translate(0,0)"/>
<path d="" fill="#EFF1F3" transform="translate(0,0)"/>
</svg>
