<?xml version="1.0" standalone="no"?>
<!DOCTYPE svg PUBLIC "-//W3C//DTD SVG 1.1//EN" "http://www.w3.org/Graphics/SVG/1.1/DTD/svg11.dtd">
<svg xmlns="http://www.w3.org/2000/svg" width="359" height="644" viewBox="0 0 359 644"><path fill="#478898" d="M224 49c11.358 5.255 22.266 11.089 32 19l2.71 2.105c22.77 18.019 38.454 41.497 49.248 68.272 11.292 29.57 13.09 63.403 8.52 94.58C309.874 272.843 292.622 307.289 268 339l-2.273 2.93C257.204 352.606 247.825 363.59 237 372l-1.532 1.2C218.487 386.402 201.611 394.177 181 400a21966 21966 0 0 0 6.738 12.275l1.465 2.666 1.434 2.615a253 253 0 0 0 3.75 6.452L196 427l-.437 2.313c-2.03 2.192-3.718 2.784-6.563 3.687-2.824.012-2.824.012-5.687-.312l-2.887-.301C178 432 178 432 176 431l.14 2.867c.534 15.812-3.417 29.889-8.677 44.702-3.265 9.284-4.838 18.02-4.775 27.868l.014 2.793c.115 6.673.841 12.522 3.298 18.77l.926 2.652c2.527 6.7 5.973 12.665 9.637 18.785 4.396 7.361 7.583 14.133 9.437 22.563l.57 2.39c2.012 12.22.26 25.035-3.59 36.7-2.44 6.37-2.44 6.37-4.98 8.91-2.062-.187-2.062-.187-4-1l-1-3c.707-2.129.707-2.129 1.813-4.562 4.608-11.13 5.153-22.506 4.187-34.438-1.524-11.25-5.795-20.58-11.988-30.035-6.31-9.778-11.333-20.604-12.189-32.406-.404-16.817 1.729-29.603 8.009-45.293 2.011-5.624 3.125-11.397 4.168-17.266l.402-2.238c.889-5.88.687-11.834.598-17.762l-1.687.488c-2.497.553-4.758.68-7.313.7l-2.562.042c-2.592-.245-4.208-.924-6.438-2.23.539-4.485 1.657-7.675 3.906-11.582l1.754-3.072 1.84-3.159 1.84-3.216c4.47-7.781 4.47-7.781 5.66-8.971l-3.559-1.031c-23.512-7-45.099-18.275-62.503-35.906l-1.567-1.657c-1.48-1.583-1.48-1.583-3.871-3.344-2.805-2.313-5.036-4.816-7.383-7.585a206 206 0 0 0-4.672-5.266C55.881 318.006 38.193 282.073 30 245c-1.269-6.299-2.223-12.623-3-19l-.398-3.156C24.717 203.89 25.418 184.687 29 166l.422-2.243C32.849 146.152 39.508 129.74 48 114l1.676-3.168C57.903 95.968 69.716 81.579 83 71l3.098-2.488c20.621-16.078 43.976-25.315 69.707-29.067 22.652-2.694 47.228.449 68.195 9.555"/><path fill="#9bcdd5" d="M114.023 80.98c3.726.328 6.342.617 9.54 2.645C125 86 125 86 125.625 89.25c-.717 4.3-1.936 6.328-4.656 9.645-4.361 4.663-9.198 8.809-14.11 12.878-14.024 11.761-21.775 28.367-28.527 45.063C76.71 160.761 74.863 163.858 72 167c-2 1-2 1-5.312 1.375L63 168c-2.623-2.098-4.397-4.139-6.312-6.875-1.015-3.135-.857-5.838-.688-9.125 6.303-21.306 19.338-40.97 34.979-56.533 5.296-5.017 15.447-14.413 23.044-14.487"/><path fill="#133239" d="M170 429c2.5.375 2.5.375 5 1l1 1c1.347 16.764-2.976 31.908-8.537 47.57-3.265 9.283-4.838 18.019-4.775 27.868l.014 2.792c.115 6.673.841 12.522 3.298 18.77l.926 2.652c2.527 6.7 5.973 12.665 9.637 18.785 4.396 7.361 7.583 14.133 9.437 22.563l.57 2.39c2.012 12.22.26 25.035-3.59 36.7-2.44 6.37-2.44 6.37-4.98 8.91-2.062-.187-2.062-.187-4-1l-1-3c.707-2.129.707-2.129 1.813-4.562 4.608-11.13 5.153-22.506 4.187-34.438-1.524-11.25-5.795-20.58-11.988-30.035-6.31-9.778-11.333-20.604-12.189-32.406-.371-15.454 1.003-27.641 6.74-42.121 4.543-11.512 5.852-22.996 6.791-35.239l.216-2.781.18-2.507L169 430z"/><path fill="#133239" d="m178 602 2 3v2h2c.605 1.738.605 1.738 1 4-.637 2.105-.637 2.105-1.687 4.188l-1.012 2.105L179 619c-2.145.738-2.145.738-4 1-1.113-1.687-1.113-1.687-2-4 .645-2.437.645-2.437 1.813-5 1.337-2.995 2.496-5.788 3.187-9"/><path fill="#478898" d="m192 424 2 2c-.375 3.125-.375 3.125-1 6-6.24 1.296-11.015.97-17.125-.937-1.965-.67-3.925-1.351-5.875-2.063l1-2 4 1v-2h4l1 3 9 1 1-4zM123 95l5 4c-.562 1.938-.562 1.938-2 4-3.625.75-3.625.75-7 1l-1 3-2 3h2l-1 2-4-2 2-1-1-2-4 2c2.55-3.224 4.983-6.105 8.188-8.687 2.94-2.19 2.94-2.19 4.812-5.313"/><path fill="#102328" d="M169 431h5v18h-2c-1.47-2.938-1-5.754-1-9l-1-1v10h-1z"/><path fill="#133239" d="M168 398c2.023-.266 2.023-.266 4.375-.25l2.336-.016c2.582.3 4.152.779 6.289 2.266l1 4h-18c2-4 2-4 4-6"/><path fill="#102328" d="m184 569 2 3c-.26 2.01-.61 4.01-1 6-.262 2.954-.41 5.913-.562 8.875l-.131 2.375q-.158 2.875-.307 5.75h-1l-1-15v13h-1c-.8-4.404-1.14-8.71-1.25-13.187l-.078-3.043c.328-2.77.328-2.77 1.781-5.07A79 79 0 0 1 184 569M168 451l3 6 2-1a348 348 0 0 1-.375 4.25c-.07.789-.14 1.578-.21 2.39-.43 2.446-1.201 4.208-2.415 6.36-2-2-2-2-2.687-4.5-.41-4.595.101-8.938.687-13.5"/><path fill="#133239" d="m178 563 2 2 2-2 2 1c.875 2.25.875 2.25 1 5-1.812 2.625-1.812 2.625-4 5l-2 3a837 837 0 0 1-1.062-5.875l-.598-3.305L177 565z"/><path fill="#478898" d="M187.773 39.893 190 40c1.812 1.5 1.812 1.5 3 3l-2 1c-2.125-.437-2.125-.437-4-1l-2 4-1-4-25-1v-1q6.344-.252 12.687-.5l3.631-.145 3.506-.136 3.222-.127q2.864-.089 5.727-.2"/><path fill="#133239" d="M167 452h1l-.07 2.379c-.103 5.969.024 10.995 2.07 16.621l-2 2-1-4h-2v2h-2l.621-2.379c1.419-5.531 2.734-10.945 3.379-16.621"/><path fill="#478898" d="M224 370h3v4l2.313-.5C232 373 232 373 235 373a367 367 0 0 1-4.312 3.563l-2.426 2.003L226 380l-3-1 1-6h2v-2zM66 115h2v3l5-1c-1.335 3.594-2.96 6.755-5 10l-1-2 1-2h-3z"/><path fill="#102328" d="M165 469h2l1 7-5 1-1-5 3-1z"/><path fill="#1b444c" d="m156 489 4 1-3 14h-1c-1.333-10.558-1.333-10.558 0-15"/><path fill="#478898" d="M165 403c3.355-.195 3.355-.195 7.188-.125l3.855.055L179 403v1l-12 1v7l-2 1-.375-2.312c-.506-2.89-.506-2.89-2.625-5.688z"/><path fill="#102328" d="M158 484c1.758 2.064 2.91 3.699 3.688 6.313.377 3.246.376 6.422.312 9.687-1.506-1.964-2.891-3.783-4-6 .938-2.125.938-2.125 2-4h-2l-1 2c-.125-5.75-.125-5.75 1-8"/><path fill="#478898" d="m73 81 3 3-1 2-3 1-1 2h-5a5817 5817 0 0 1 4.59-5.371A50 50 0 0 1 73 81M161 426l1 3 2 1-3 1 1 2h-8l-1-2h4v-2h2v-2z"/><path fill="#478898" d="m154 423 2 1-.625 1.813L155 428l2 3-6 1c-.625-2.375-.625-2.375-1-5l2-2 2 1z"/><path fill="#133239" d="m164 527 2 1c.73 2.314 1.401 4.648 2 7h-6l-1 2-1-4h4z"/><path fill="#478898" d="m50 111 1 2c-.606 2.02-1.27 4.023-2 6h-2l-.875 2.875C45 125 45 125 43 127c.332-6.302 3.673-10.852 7-16M150.625 40.938l2.477.027L155 41l-4 1 1 3-1 2-3-1v-2l-4-2c2.405-1.203 3.95-1.1 6.625-1.062M314 230h2l-1 11h-3q.212-2.188.438-4.375c.08-.812.162-1.624.246-2.46C313 232 313 232 314 230"/><path fill="#133239" d="M180 586h1l1 15-2 1c-1.303-5.5-.71-10.47 0-16"/><path fill="#102328" d="M162 535h6l2 4h-2l1 3-2 1c-1.46-2.647-2-3.894-2-7l-3 1z"/><path fill="#478898" d="m312 162 3 1c.88 5.285.88 5.285 1 8-.937 2.5-.937 2.5-2 4-1.125-5.625-1.125-5.625 0-9h-2z"/><path fill="#102328" d="M182 597h1l-.562 3.688c-.428 3.342-.36 6.032.562 9.312l-1-3h-2l-1-7 2 1z"/><path fill="#1b444c" d="m162 483 3 1-2 12c-2-4-2-4-1.977-6.36l.352-2.39.336-2.422z"/><path fill="#133239" d="M173 438h1v11h-2c-.625-3.25-.625-3.25-1-7 .938-2.437.938-2.437 2-4"/><path fill="#478898" d="m155 419 3 1c1.188 2.563 1.188 2.563 2 5l-6-2v3h-2c1.875-5.875 1.875-5.875 3-7"/><path fill="#133239" d="M168 398c3.02-.174 5.984-.265 9 0 2.563 1.5 2.563 1.5 4 3-2.882.96-4.145 1.077-7.062.75l-2.098-.203L170 401z"/><path fill="#1b444c" d="m174 614 1 2c2.527.656 2.527.656 5 1l-2 3c-1.937-.312-1.937-.312-4-1l-1-3zM160 494h1c1.129 5.361 1.097 10.553 1 16h-1l-.375-2.937L160 504l-2-1z"/><path fill="#133239" d="m161 474 2 2c2.069.643 2.069.643 4 1l-1 5-3-3-2 2c-.562-1.812-.562-1.812-1-4z"/><path fill="#102328" d="M167 399c1.996-.203 1.996-.203 4.438-.25l2.433-.078L176 399l2 3q-2.437.079-4.875.125l-2.742.07L168 402l-2-2z"/><path fill="#478898" d="M58 307h1l1 6h3v7c-3.875-3.75-3.875-3.75-5-6-.04-2.333-.043-4.667 0-7"/><path fill="#387889" d="m81 149 1 4 2-1-1 5-1-2h-2l-2 5-1-2c.777-2.164.777-2.164 1.938-4.625l1.152-2.477z"/><path fill="#478898" d="m167.82 396.121 3.305.317 3.32.308L177 397v1c-.888.09-.888.09-1.793.184-4.117.436-8.162.903-12.207 1.816v-3c2-1 2-1 4.82-.879"/><path fill="#102328" d="m168 451 3 6 2-1-1 4h-4z"/><path fill="#478898" d="M297 280h4c.125 2.875.125 2.875 0 6l-2 2-2-1v-3h2z"/><path fill="#387889" d="m97 121 1 2a101 101 0 0 1-3 6h-3c1.186-3.375 2.276-5.647 5-8"/><path fill="#478898" d="m91 65 2 1-4 5-4-1z"/><path fill="#102328" d="M170 542c2 2 2 2 2.625 4.125L173 548l-4 2q-.061-3.5 0-7z"/><path fill="#478898" d="m295 291 1 2a140 140 0 0 1-2 7l-2-1v-7zM53 106l1 2-1 2 3 1-2 4v-2h-2c-.043-2-.04-4 0-6z"/><path fill="#102328" d="m160 478 4 1 1 5-5-2z"/><path fill="#387889" d="m233 372 2 1-6 5-2-1v-3l2.438-.437L232 373z"/><path fill="#478898" d="M88 97c-.25 1.813-.25 1.813-1 4-2.062 1.75-2.062 1.75-4 3 .375-2.937.375-2.937 1-6 2-1 2-1 4-1"/><path fill="#133239" d="m175 556 2 1v2h3c-1.065 2.13-2.292 3.366-4 5z"/><path fill="#1b444c" d="M170 459h3l-2 9h-1z"/><path fill="#102328" d="m184 569 2 3c-.375 3.188-.375 3.188-1 6l-2-3c.375-3.187.375-3.187 1-6"/><path fill="#478898" d="m60 133 3 1-1 5-1-2h-2zM84 70l3 1-1 5-4-2zM102 58c2.13 1.065 3.366 2.292 5 4h-6l-1-3z"/><path fill="#478898" d="m105 56 3 2v3l-5-1v-3z"/><path fill="#133239" d="M182 602h3l-1 6-1-2-2-1z"/><path fill="#478898" d="M91 354h3l1 3-2 2-2-2zM288 300l3 2-1 5-2-3zM305 263l1 2h2l-2 4v-2h-2z"/><path fill="#387889" d="m99 85 4 2-4 3-2-1z"/><path fill="#478898" d="M108 369h4l-1 5c-1.5-1.375-1.5-1.375-3-3z"/><path fill="#387889" d="M307 253h3l1 3c-1.875.625-1.875.625-4 1l-2-2h2z"/><path fill="#478898" d="m295 113 2 3-3 3c0-4 0-4 1-6"/><path fill="#387889" d="m92 90 4 2-3 3-2-1z"/><path fill="#478898" d="M49 295h4v2h-2l-1 2z"/><path fill="#1b444c" d="m178 602 2 3-1 3h-2z"/><path fill="#478898" d="M119 49h3l-1 3h-3zM307 261l2 4h-3zM232 56l5 1-1 2-4-2zM223 50h2v4l-3-1z"/><path fill="#102328" d="m175 613 3 1v2h-3z"/><path fill="#478898" d="m156 416 2 4-2 1-1-3z"/><path fill="#387889" d="M88 352h4l-1 3zM274 324l3 1-1 3z"/><path fill="#478898" d="m95 62 2 2-2 2-1-3z"/></svg>