<?xml version="1.0" standalone="no"?>
<!DOCTYPE svg PUBLIC "-//W3C//DTD SVG 1.1//EN" "http://www.w3.org/Graphics/SVG/1.1/DTD/svg11.dtd">
<svg xmlns="http://www.w3.org/2000/svg" width="359" height="644" viewBox="0 0 359 644"><path fill="#934383" d="M224 49c11.358 5.255 22.266 11.089 32 19l2.71 2.105c22.77 18.019 38.454 41.497 49.248 68.272 11.292 29.57 13.09 63.403 8.52 94.58C309.874 272.843 292.622 307.289 268 339l-2.273 2.93C257.204 352.606 247.825 363.59 237 372l-1.532 1.2C218.487 386.402 201.611 394.177 181 400a21966 21966 0 0 0 6.738 12.275l1.465 2.666 1.434 2.615a253 253 0 0 0 3.75 6.452L196 427l-.437 2.313c-2.03 2.192-3.718 2.784-6.563 3.687-2.824.012-2.824.012-5.687-.312l-2.887-.301C178 432 178 432 176 431l.14 2.867c.534 15.812-3.417 29.889-8.677 44.702-3.265 9.284-4.838 18.02-4.775 27.868l.014 2.793c.115 6.673.841 12.522 3.298 18.77l.926 2.652c2.527 6.7 5.973 12.665 9.637 18.785 4.396 7.361 7.583 14.133 9.437 22.563l.57 2.39c2.012 12.22.26 25.035-3.59 36.7-2.44 6.37-2.44 6.37-4.98 8.91-2.062-.187-2.062-.187-4-1l-1-3c.707-2.129.707-2.129 1.813-4.562 4.608-11.13 5.153-22.506 4.187-34.438-1.524-11.25-5.795-20.58-11.988-30.035-6.31-9.778-11.333-20.604-12.189-32.406-.404-16.817 1.729-29.603 8.009-45.293 2.011-5.624 3.125-11.397 4.168-17.266l.402-2.238c.889-5.88.687-11.834.598-17.762l-1.687.488c-2.497.553-4.758.68-7.313.7l-2.562.042c-2.592-.245-4.208-.924-6.438-2.23.539-4.485 1.657-7.675 3.906-11.582l1.754-3.072 1.84-3.159 1.84-3.216c4.47-7.781 4.47-7.781 5.66-8.971l-3.559-1.031c-23.512-7-45.099-18.275-62.503-35.906l-1.567-1.657c-1.48-1.583-1.48-1.583-3.871-3.344-2.805-2.313-5.036-4.816-7.383-7.585a206 206 0 0 0-4.672-5.266C55.881 318.006 38.193 282.073 30 245c-1.269-6.299-2.223-12.623-3-19l-.398-3.156C24.717 203.89 25.418 184.687 29 166l.422-2.243C32.849 146.152 39.508 129.74 48 114l1.676-3.168C57.903 95.968 69.716 81.579 83 71l3.098-2.488c20.621-16.078 43.976-25.315 69.707-29.067 22.652-2.694 47.228.449 68.195 9.555"/><path fill="#efc7c8" d="M118.352 81.734C121 82 121 82 123.75 83.438c1.314 2.693 1.485 3.935 1.375 6.874-.562 3.313-1.397 5.566-3.5 8.188-3.596 3.742-7.717 6.88-11.754 10.129-14.049 11.602-22.589 26.453-29.465 43.191l-.782 1.899a426 426 0 0 0-2.07 5.222C75.829 162.338 73.81 164.454 71 167l-1 1c-3.25.375-3.25.375-7 0-2.63-2.173-4.473-3.947-6-7-.894-5.214-.456-10.036 1.281-15.016C66.13 125.604 78.317 106.266 95 92c7.555-5.915 13.536-10.42 23.352-10.266"/><path fill="#1d1b1f" d="M170 429c2.5.375 2.5.375 5 1l1 1c1.347 16.764-2.976 31.908-8.537 47.57-3.265 9.283-4.838 18.019-4.775 27.868l.014 2.792c.115 6.673.841 12.522 3.298 18.77l.926 2.652c2.527 6.7 5.973 12.665 9.637 18.785 4.396 7.361 7.583 14.133 9.437 22.563l.57 2.39c2.012 12.22.26 25.035-3.59 36.7-2.44 6.37-2.44 6.37-4.98 8.91-2.062-.187-2.062-.187-4-1l-1-3c.707-2.129.707-2.129 1.813-4.562 4.608-11.13 5.153-22.506 4.187-34.438-1.524-11.25-5.795-20.58-11.988-30.035-6.31-9.778-11.333-20.604-12.189-32.406-.371-15.454 1.003-27.641 6.74-42.121 4.543-11.512 5.852-22.996 6.791-35.239l.216-2.781.18-2.507L169 430z"/><path fill="#8d4776" d="m170.414 397.246 2.211.192 2.227.12c2.416.497 4.039 1.152 6.148 2.442 1.4 1.952 1.4 1.952 2.656 4.324l1.41 2.62 1.434 2.743 2.844 5.325 1.356 2.577c1.173 2.176 2.414 4.288 3.69 6.403L196 427c-.75 2.438-.75 2.438-2 4l-2-1 .688-1.687L193 426c-1.156-2.732-1.156-2.732-3-5l-3-1c-.879-1.926-.879-1.926-1.562-4.312-.903-3.087-1.923-5.847-3.438-8.688l-4 1c1.02 1.114 1.02 1.114 2.063 2.25L182 413c-.375 2.188-.375 2.188-1 4l2 2v4l6 2v5h-4l-1-3-3-1-1-2-2.117.473-2.758.59-2.742.597L170 426l-2-1v-3h8v-3l-10-2c.75-3.375.75-3.375 2-7 2.125-1.437 2.125-1.437 4-2v-4c-2.94.184-2.94.184-6 1-1.258 1.85-1.258 1.85-2 4l-1.5 1.375c-2.88 3.12-3.563 7.565-4.5 11.625l-3-1-1 6-3 1c1.04-4.86 3.393-8.942 5.688-13.312l1.279-2.514c6.906-13.197 6.906-13.197 12.447-14.928M220 48c12.906 3.45 25.652 11.852 36 20l2.734 2.117C270.168 79.193 279.403 89.307 288 101l1.844 2.191L291 105l-1 3-1-3h-2l-1-3-2-1-1-3c-3.61.656-3.61.656-7 2l-4-4h7c-2.896-6.757-6.567-11.094-12-16l-1.64-1.508c-3.198-2.81-6.49-4.742-10.36-6.492v-2l-2.375-.437C250 69 250 69 248 68v5l-4-2-1 2c-1-6.75-1-6.75-1-9l-9 1-1-2 6-2c-2.463-1.231-4.28-1.072-7-1l-1-3 3-1-6-3v3h-3v-2l-5-1-1-4zm34 24c1.563 1.75 1.563 1.75 3 4-.312 2.25-.312 2.25-1 4h-2c-2.125-1.875-2.125-1.875-4-4v-2h4z"/><path fill="#8d4776" d="m170.414 397.246 2.211.192 2.227.12c2.416.497 4.039 1.152 6.148 2.442 1.4 1.952 1.4 1.952 2.656 4.324l1.41 2.62 1.434 2.743 2.844 5.325 1.356 2.577c1.173 2.176 2.414 4.288 3.69 6.403L196 427c-.75 2.438-.75 2.438-2 4l-2-1 .688-1.687L193 426c-1.156-2.732-1.156-2.732-3-5l-3-1c-.879-1.855-.879-1.855-1.562-4.187l-.692-2.293L184 411l-2-6h-16l-2 4-1.5 1.375c-2.88 3.12-3.563 7.565-4.5 11.625l-3-1-1 6-3 1c1.04-4.86 3.393-8.942 5.688-13.312l1.279-2.514c6.906-13.197 6.906-13.197 12.447-14.928M281 311h5c-2.296 12.273-15.188 24.7-23 34l-1-2-2-1h2l-1-3 3 1 2-3v-1a530 530 0 0 1 1-5l2.938-.75L273 329c.969-2.032.969-2.032 1-4h3l-1-3-4 1v-11l4 1 3-1v2h2zM95 359c2.375.25 2.375.25 5 1l.813 2 1.187 2c2.643.753 5.255 1.029 8 1l2-1v3l5 1v2l-6-1c.732 1.966.732 1.966 2 4a89 89 0 0 0 4 2 91 91 0 0 1 4 4l2.25 2.25L125 383c-10.184-3.543-19.437-12.494-27-20a94 94 0 0 1-3-4M171.063 38.813l3.048-.038 2.924-.005 2.668-.013C182 39 182 39 185 41c-5.395 2.683-9.63 3.496-15.625 3.438l-2.234.06c-2.18-.002-2.18-.002-6.141-.498-3.023-2.027-3.023-2.027-5-4 4.964-1.445 9.932-1.184 15.063-1.187"/><path fill="#8d4776" d="m191 390 1 2-3 1 4 2-1 2c-6.897 2.14-13.358 2.143-20.547 1.973-3.323-.106-3.323-.106-5.957.636-3.564.558-6.248-.397-9.684-1.421l-3.73-1.083C149 396 149 396 147 394l7-1v2q2.685.542 5.375 1.063l3.023.597L165 397l2-1a61 61 0 0 1 4.352.121l2.578.147 2.695.17 2.719.158q3.328.195 6.656.404v-3l-2-1 1-2c3.063-.625 3.063-.625 6-1"/><path fill="#1d1b1f" d="m155 499 2 2 3-2c1.42 6.783 2.227 13.067 2 20a180 180 0 0 1-6-1l-1-1a57 57 0 0 1-.098-4.035l.01-2.451.025-2.577.014-2.587q.02-3.175.049-6.35"/><path fill="#8d4776" d="m108 109 2 1-1.437 1.188L107 113l-.437 2.563L106 118q-1.988 1.025-4 2c-1.283 2.538-1.283 2.538-2 5h-4l-2 8c-1.125-1.687-1.125-1.687-2-4 1.218-4.202 3.362-6.826 6.313-10l2.421-2.617c2.383-2.506 4.781-4.978 7.266-7.383M59 97l1 2h2v5l3 1-1 4h-2l-2-7h-3l2 6c-2.49.687-4.379 1-7 1v3l2 1h-2l-1 2-3-1a1357 1357 0 0 1 3.25-5.687l1.828-3.2c1.795-2.907 3.73-5.498 5.922-8.113M71 331c5 5 5 5 6.563 6.813L79 339h4l2 8 5 1 1 6c-4.073-1.581-6.595-4.503-9.437-7.687l-1.472-1.63C76.767 340.96 73.666 337.228 71 333zM218 379h8c-3.038 3.301-6.202 5.54-10.062 7.813l-3.16 1.894L210 390l-3-1-1-6 6-1v3h3v-3h2z"/><path fill="#1d1b1f" d="M170 429c2.063.438 2.063.438 4 1v5l-3-1 1 3v4l2-3a764 764 0 0 1-.437 4.375l-.247 2.46C173 447 173 447 172 449h-3c-.029-3.146-.047-6.292-.062-9.437l-.026-2.721-.01-2.588-.016-2.396L169 430z"/><path fill="#934383" d="M166 404h6v4l-3 2c-1.205 2.552-1.205 2.552-2 5l-7-1 2-5h2z"/><path fill="#1d1b1f" d="M168 398c2.023-.266 2.023-.266 4.375-.25l2.336-.016c2.582.3 4.152.779 6.289 2.266l1 4h-18c2-4 2-4 4-6"/><path fill="#8d4776" d="m91 129 1 2c-.559 1.945-.559 1.945-1.437 4.125l-.872 2.195L89 139h-2l1 7-1.875.75c-2.206 1.072-2.206 1.072-3.187 3L82 152l-3 6-1-2c.542-1.844.542-1.844 1.477-4.07l1.035-2.47 1.113-2.585 1.043-2.516c2.32-5.46 5.03-10.431 8.332-15.359M128 47v2h-4l-1 3c-2.937 1.625-2.937 1.625-6 3l-2 1c-2.333.04-4.667.043-7 0v2l-4 1 1-3c1.794-1.167 1.794-1.167 4.113-2.262l2.533-1.2 2.666-1.225 2.631-1.26C123.475 47 123.475 47 128 47M86 69l2 1-.187 2.375L88 75l3 2-2 4-1-3-2.375.125L83 78l-2-2-4 2a592 592 0 0 1 2.813-3.375l1.582-1.898C83 71 83 71 86 69m-2 12 4 1ZM220 48c6.757 1.967 12.967 5.445 19 9l-2 1c-2.383-.996-2.383-.996-5.125-2.437l-2.758-1.434L227 53v3h-3v-2l-5-1-1-4zM317 192h1v18h-2l-1 3v-5h-2l-1 4v-12l4 1zM55 152h1l.402 1.828.535 2.422.528 2.39L58 161l.316 2.172L59 165c1.746 1.353 1.746 1.353 4 2 2.362.24 2.362.24 4.75.125l2.422-.055L72 167l-1 2c-3.727 1.242-6.081 1.531-10 1-2.07-1.36-3.393-2.755-4.91-4.71-1.751-3.68-1.527-7.127-1.3-11.13zM300 278l3 1c-1.895 6.518-4.518 12.178-8 18l-1-2c.178-2.805.355-5.29 1-8 1.438-1.625 1.438-1.625 3-3 1.2-3.1 1.2-3.1 2-6"/><path fill="#934383" d="m158 420 1 9-8 3-1-5h4l.375-2.937L155 421c2-1 2-1 3-1"/><path fill="#8d4776" d="m69 122 1 2a133 133 0 0 1-3.75 7.75l-1.094 2.133q-1.066 2.079-2.142 4.154c-1.364 2.641-2.691 5.3-4.014 7.963-1-3-1-3-.66-5.48l.597-2.708.59-2.73L60 133l2 1v-8l1 2 3-1c1.699-2.498 1.699-2.498 3-5M291 113l1 2 4-1a500 500 0 0 1 3.063 5.313l1.722 2.988L302 125l-1 3-5-9-1 2h-3l-2-7z"/><path fill="#1d1b1f" d="m159 479 1.313 1.938L162 483l3 1-2 12-3-2c-.044-2.333-.04-4.667 0-7a206 206 0 0 0-2-5z"/><path fill="#8d4776" d="M47 116c1.938.875 1.938.875 4 2l1 2-5-1 1 5-1.89.215L44 125c-1.138 2.08-1.138 2.08-1.75 4.563l-.734 2.503L41 134c-.715-1.547-.715-1.547-1-4a77 77 0 0 1 3.438-7.25l1.025-1.969c.835-1.6 1.685-3.19 2.537-4.781M140 384l4 1-2 4h-2v2l2 1c-4.755-.576-7.97-2.55-12-5l2-1q3.511.421 7 1zM106 369c2.02.602 4.021 1.273 6 2l1 2 1.813.875c2.61 1.342 4.18 2.992 6.187 5.125l2.25 2.25L125 383c-4.32-1.477-7.556-3.69-11.187-6.437l-3.168-2.372C108 372 108 372 106 369M254 355c-6.15 7.483-6.15 7.483-10 10v-5l3-1v-3c2.463-1.231 4.28-1.072 7-1M31 209h1c.249 2.269.473 4.54.688 6.813l.386 3.832L33 223c-1.355 1.762-1.355 1.762-3 3l-2 3c-.17-4.441.046-7.092 2-11 .448-2.356.448-2.356.625-4.75l.227-2.422z"/><path fill="#934383" d="M44 140h2l-1 20h-3c-.125-7.75-.125-7.75 1-10 .226-1.704.409-3.413.563-5.125l.253-2.758z"/><path fill="#1d1b1f" d="M178 553c1.633 1.988 2.89 3.712 3.813 6.125L182 561l-2 2-1-2-3 3-2-6 2-2 2 1z"/><path fill="#8d4776" d="M57 143c1.043 1.648 1.043 1.648 2 4-.137 2.727-.137 2.727-.687 5.625l-.512 2.914L57 158l-3 2v-12h2z"/><path fill="#1d1b1f" d="M175 613c2.625-.187 2.625-.187 5 0 .125 2.375.125 2.375 0 5l-2 2c-2.062-.187-2.062-.187-4-1l-1-3zM165 528c2 3 2 3 2.875 4.938L168 535c-1.812 2.25-1.812 2.25-4 4h-2l-2-6 5-1z"/><path fill="#8d4776" d="M187 414c3.625 3.088 5.825 6.748 8.242 10.781L196 427c-.867 2.281-.867 2.281-2 4l-2-1 .688-1.687L193 426c-1.156-2.732-1.156-2.732-3-5l-3-1zM241 59c7.752 2.81 14.477 7.925 20 14-4.362-1.473-7.51-3.74-11.125-6.562-4.131-3.29-4.131-3.29-8.875-5.438zM102 58l1 4 5 1-1 2c-2.812.125-2.812.125-6 0l-3-2v-3zM170 428h8v2l13 1-2 2c-6.788.24-12.83-1.323-19-4z"/><path fill="#1d1b1f" d="m174 549 1 3h3v5l-4 1c-1.562-2.375-1.562-2.375-3-5 1-2 1-2 3-4"/><path fill="#8d4776" d="M152 393a69 69 0 0 1 3.625 1.938c3.366 1.505 6.784 2.224 10.375 3.062v1c-6.067.396-11.344-.746-17-3l-2-2a76 76 0 0 1 5-1M73 81v3a101 101 0 0 1-3 3l-1.312 2.438C66.606 92.598 64.216 94.07 61 96c1.416-3.15 3.137-5.495 5.438-8.062l1.808-2.036A137 137 0 0 1 73 81M170 428c-.75 1.938-.75 1.938-2 4-3.024 1.062-5.94 1.164-9.125 1.188l-2.633.042L154 433l-2-2h14v-2c2-1 2-1 4-1M228 371l7 1c-2.808 2.964-5.183 5.445-9 7 .523-2.763 1.109-5.326 2-8M216 371h7v2h-2v2l-7 1v-3h2zM119 79l5 1v4l3 1 1 3c-1.437 2.188-1.437 2.188-3 4l-.75-3.25c-1.265-3.796-2.357-5.146-5.25-7.75zM185 40l9 1-1 3-6 1z"/><path fill="#1d1b1f" d="M160 513c1.563 1.625 1.563 1.625 3 4-.312 3.25-.312 3.25-1 6l-1-2h-2l-1 2-2-1 1-6 2 2zM168 444h1v5h3l1-5h1l1 9-1-3-5 4c-1.158-3.473-1.069-6.36-1-10M167 399c1.996-.203 1.996-.203 4.438-.25l2.433-.078L176 399l2 3c-1.265.09-1.265.09-2.555.184l-3.32.253-3.305.247c-2.767.146-2.767.146-4.82 1.316 1.875-3.875 1.875-3.875 3-5"/><path fill="#8d4776" d="M62 319h2c1.625 1.5 1.625 1.5 3 3v-2h3l-.5 3.313c-.567 3.562-.567 3.562-.5 6.687a1994 1994 0 0 1-3.5-4.937l-1.969-2.778L62 320zM101 86l2 1-11 9-2-1c.688-2.437.688-2.437 2-5 2.563-.687 2.563-.687 5-1l1-2zM311 156h2l1 9-2-4-2 5-2-2v-3h2z"/><path fill="#1d1b1f" d="m182 602 2 2c-.375 3.125-.375 3.125-1 6l-3-1-1 2h-2v-3c1.375-1.687 1.375-1.687 3-3h2zM172 450h2v5h-2l-1 3-2 1-1-8h3z"/><path fill="#8d4776" d="M95 359c2.188.063 2.188.063 5 1 1.932 2.172 3.482 4.526 5 7l-1 2a1766 1766 0 0 1-4.5-4.437l-2.531-2.497L95 360zM281 311h5c-.615 3.995-2.706 6.745-5 10l-1-2c.168-2.696.612-5.324 1-8M316 210h2c.293 5.957.293 5.957 0 8-1.512 1.762-1.512 1.762-3 3a272 272 0 0 1-.625-4.375l-.352-2.46L314 212zM126 377l2 2-2 4 4 2-1 2c-3.192-2.416-5.747-4.68-8-8zM29 230c2 2.25 2 2.25 4 5v4h-2l-1 3c-.96-2.882-1.106-4.699-1.062-7.687l.027-2.45zM315 171l2 3c.195 3.137.195 3.137.125 6.688l-.055 3.574L317 187h-1l-.375-2.75c-.546-2.84-1.198-4.776-2.625-7.25h2zM157 41l-1 2h-2l-1 3-2-1 1-2h-4v-2c3.325-1.108 5.622-.845 9 0"/><path fill="#1d1b1f" d="M170 429c2.063.438 2.063.438 4 1v5l-3-1 1 3-2 1c-.879-6.152-.879-6.152-1-8z"/><path fill="#934383" d="M192 386h4v2c-2.062 1.625-2.062 1.625-5 3-3.812.188-3.812.188-7 0 1.75-1.5 1.75-1.5 4-3h4z"/><path fill="#8d4776" d="M43 282h3v6l3 1-2 4a418 418 0 0 1-2-3.812l-1.125-2.145C43 285 43 285 43 282M168 422h8l-1 3a76 76 0 0 1-5 1l-2-1zM163 404l3 1c-1.309 2.92-2.705 4.797-5 7a165 165 0 0 0-3 4c.576-4.755 2.55-7.97 5-12M124 93h2l-1 5h-2v2c-2 1.625-2 1.625-4 3l-2-1a622 622 0 0 1 3.375-4.5l1.898-2.531zM266 79l7 6-3 2-2-1v-2h-2zM167 396c3.4-.059 6.656.413 10 1v1c-.888.09-.888.09-1.793.184-4.117.436-8.162.903-12.207 1.816 1.375-2.062 1.375-2.062 4-4M94 63l2 1v6h-2v-2h-5z"/><path fill="#1d1b1f" d="M165 535c1.938.313 1.938.313 4 1l1 3-3 2c-2.187-.375-2.187-.375-4-1z"/><path fill="#8d4776" d="m38 269 4 4-1 3h2v5c-1.426-1.207-1.426-1.207-3-3-.73-2.262-.73-2.262-1.187-4.687-.16-.809-.318-1.617-.481-2.45z"/><path fill="#934383" d="m36 151 2 1-1 8-3-1c.875-5.75.875-5.75 2-8M81 75l2 1v2h5v2c-2.312.125-2.312.125-5 0l-3-2v2h-2c1.875-3.875 1.875-3.875 3-5"/><path fill="#8d4776" d="M148 41v2h4l-1 3-3-1q-3.498-1.009-7-2v-1c4.75-1 4.75-1 7-1"/><path fill="#1d1b1f" d="m160 478 4 1 1 5-3-1-1 2z"/><path fill="#934383" d="M168 418c5.75-.125 5.75-.125 8 1v2h-8z"/><path fill="#8d4776" d="M274 325h3c-1.394 4.435-3.606 6.874-7 10 .375-2.437.375-2.437 1-5l2-1c.652-2.025.652-2.025 1-4M300 278l3 1-3 9h-1c-.125-6.625-.125-6.625 1-10M29 225h3v7l-2-1-2 3z"/><path fill="#934383" d="m248 68 7 2v2l-7 1z"/><path fill="#1d1b1f" d="m178 560 5 2v4h-3l-1-2-2 1zM158 484c1.5 1.188 1.5 1.188 3 3 .188 2.688.188 2.688 0 5l-1-2h-2l-1 2c-.125-5.75-.125-5.75 1-8"/><path fill="#8d4776" d="m312 162 3 1 1 8h-2v-3h-2zM199 42l3 1h-2v3l4 2h-6l-1-4h2z"/><path fill="#934383" d="M178 406h4v5c-1.937-.312-1.937-.312-4-1l-1-3z"/><path fill="#8d4776" d="m96 122 1 2c-.559 2.164-.559 2.164-1.437 4.625l-.872 2.477L94 133c-1.047-1.836-1.047-1.836-2-4 .886-3.1 1.713-4.713 4-7"/><path fill="#1d1b1f" d="m165 527 1 6h-6l1-2 1-3c2-1 2-1 3-1"/><path fill="#8d4776" d="m75 328 3 1v4l-5 1zM237 57l-1 3h-5l-1-3c3.01-.934 3.867-1.044 7 0M198 389h2l1 5-4 1c-.625-1.875-.625-1.875-1-4z"/><path fill="#934383" d="M219 376h6v3h-6zM280 99l4 1 1 4-2 1c-1.5-1.312-1.5-1.312-3-3z"/><path fill="#8d4776" d="m74 87 2 1v5l-4-1v-3h2z"/><path fill="#1d1b1f" d="M165 469h2l1 5-5-1v-2h2z"/><path fill="#8d4776" d="M150 427h3v2l3 1-5 2zM316 216h1v8h-3c-.125-2.875-.125-2.875 0-6zM257 71l8 4v3a396 396 0 0 1-4-2.375c-.743-.44-1.485-.882-2.25-1.336L257 73z"/><path fill="#934383" d="m103 57 1 2h4v3h-5zM42 260l2 1v6h-2a129 129 0 0 1-1-6z"/><path fill="#8d4776" d="m29 220 3 4-4 5c-.125-6.75-.125-6.75 1-9"/><path fill="#1d1b1f" d="m183 564 2 3-2 4-2-5h2zM162 483l3 1-1 7-2-3c-.125-2.687-.125-2.687 0-5"/><path fill="#8d4776" d="M90 354c2.438.813 2.438.813 5 2l1 3h-3c-1.687-2.5-1.687-2.5-3-5M51 109l1 3 2 1h-2l-1 2-3-1zM124 84l3 1 1 3c-1.437 2.188-1.437 2.188-3 4zM85 348l6 3v3c-1.875-.75-1.875-.75-4-2-1.25-2.125-1.25-2.125-2-4M74 114l1 2-4 4v-5zM75 78h3c-.875 1.938-.875 1.938-2 4l-2 1-1-3zM96 79l5 1v2h-5zM188 41h6l-1 3h-5z"/><path fill="#1d1b1f" d="M175 559h5c-1.065 2.13-2.292 3.366-4 5zM168 539c1.938.813 1.938.813 4 2l1 3-4-1v-2l-2-1z"/><path fill="#8d4776" d="m154 421 1 2c-.25 2.063-.25 2.063-1 4l-3 1c.613-2.962 1.254-4.38 3-7M256 346h2v5l-2 1c-.562-1.875-.562-1.875-1-4zM291 295h3l1 3-2 2v-2l-3-1zM80 154h1v6l-3 1-1-3 2-1zM92 129h1l-1 7h-2c.875-4.75.875-4.75 2-7"/><path fill="#934383" d="m78 87 2 1v4h-3z"/><path fill="#8d4776" d="m194 41 5 1v2h-6zM186 426h3v4h-3zM230 372h5c-1.375 2-1.375 2-3 4h-2zM240 364l3 1-3 4-2-1zM249 355h5l-4 4zM47 116c1.938.875 1.938.875 4 2l1 2-5-1z"/><path fill="#934383" d="m161 410 4 1v2h-4z"/><path fill="#8d4776" d="m163 404 3 1-2 4-2-1zM140 389l4 1-1 3-2-1zM290 303l1 2-3 3-1-4zM305 141l3 3-4 3zM55 103l1 4-4 1z"/><path fill="#934383" d="m273 100 3 1-2 3h-2z"/><path fill="#8d4776" d="m84 70 2 1-1 4-3-1z"/><path fill="#934383" d="M174 410h2v4h-3z"/><path fill="#8d4776" d="m289 300 4 2-2 2-2-1zM289 298h4v3l-4-1zM38 136h2v4h-3zM102 58l1 2-1 2h-3l1-3zM239 57l3 2-5 1v-2z"/><path fill="#3c393d" d="M169 466h2l-1 5-2-4z"/><path fill="#8d4776" d="m243 361 1 4-4-2zM49 297l4 2v2l-3-1zM33 250l3 1v2h-4zM50 113l2 3-3 1-2-2h3zM59 97l1 4h-3zM252 351h2l1 3h-3zM300 278l3 1-1 3z"/><path fill="#934383" d="m298 125 3 1v2h-3z"/><path fill="#efc7c8" d="m70 122 2 1-2 4-1-3z"/><path fill="#8d4776" d="m116 102 1 4-3-1z"/><path fill="#efc7c8" d="m119 82 2 1-1 3-3-2h2z"/><path fill="#934383" d="m69 324 2 2-2 2z"/><path fill="#8d4776" d="M67 320h3l-1 3-2-1z"/><path fill="#efc7c8" d="M108 106h3l-1 3-2-1zM82 105l2 1-1 3-2-3z"/><path fill="#934383" d="m97 84 2 1v2h-3z"/><path fill="#8d4776" d="m81 344 3 1-2 2zM282 97l2 1v2l-3-1zM263 75l3 1-2 2z"/></svg>