<?xml version="1.0" standalone="no"?>
<!DOCTYPE svg PUBLIC "-//W3C//DTD SVG 1.1//EN" "http://www.w3.org/Graphics/SVG/1.1/DTD/svg11.dtd">
<svg xmlns="http://www.w3.org/2000/svg" width="359" height="644" viewBox="0 0 359 644"><path fill="#d35de9" d="M224 49c11.358 5.255 22.266 11.089 32 19l2.71 2.105c22.77 18.019 38.454 41.497 49.248 68.272 11.292 29.57 13.09 63.403 8.52 94.58C309.874 272.843 292.622 307.289 268 339l-2.273 2.93C257.204 352.606 247.825 363.59 237 372l-1.532 1.2C218.487 386.402 201.611 394.177 181 400a21966 21966 0 0 0 6.738 12.275l1.465 2.666 1.434 2.615a253 253 0 0 0 3.75 6.452L196 427l-.437 2.313c-2.03 2.192-3.718 2.784-6.563 3.687-2.824.012-2.824.012-5.687-.312l-2.887-.301C178 432 178 432 176 431l.14 2.867c.534 15.812-3.417 29.889-8.677 44.702-3.265 9.284-4.838 18.02-4.775 27.868l.014 2.793c.115 6.673.841 12.522 3.298 18.77l.926 2.652c2.527 6.7 5.973 12.665 9.637 18.785 4.396 7.361 7.583 14.133 9.437 22.563l.57 2.39c2.012 12.22.26 25.035-3.59 36.7-2.44 6.37-2.44 6.37-4.98 8.91-2.062-.187-2.062-.187-4-1l-1-3c.707-2.129.707-2.129 1.813-4.562 4.608-11.13 5.153-22.506 4.187-34.438-1.524-11.25-5.795-20.58-11.988-30.035-6.31-9.778-11.333-20.604-12.189-32.406-.404-16.817 1.729-29.603 8.009-45.293 2.011-5.624 3.125-11.397 4.168-17.266l.402-2.238c.889-5.88.687-11.834.598-17.762l-1.687.488c-2.497.553-4.758.68-7.313.7l-2.562.042c-2.592-.245-4.208-.924-6.438-2.23.539-4.485 1.657-7.675 3.906-11.582l1.754-3.072 1.84-3.159 1.84-3.216c4.47-7.781 4.47-7.781 5.66-8.971l-3.559-1.031c-23.512-7-45.099-18.275-62.503-35.906l-1.567-1.657c-1.48-1.583-1.48-1.583-3.871-3.344-2.805-2.313-5.036-4.816-7.383-7.585a206 206 0 0 0-4.672-5.266C55.881 318.006 38.193 282.073 30 245c-1.269-6.299-2.223-12.623-3-19l-.398-3.156C24.717 203.89 25.418 184.687 29 166l.422-2.243C32.849 146.152 39.508 129.74 48 114l1.676-3.168C57.903 95.968 69.716 81.579 83 71l3.098-2.488c20.621-16.078 43.976-25.315 69.707-29.067 22.652-2.694 47.228.449 68.195 9.555"/><path fill="#ffd5ee" d="M118.941 81.434C121 82 121 82 123.562 83.625 125 86 125 86 125.626 89.25c-.717 4.3-1.936 6.328-4.656 9.645-4.361 4.663-9.198 8.809-14.11 12.878-14.024 11.761-21.775 28.367-28.527 45.063C76.71 160.761 74.863 163.858 72 167c-2 1-2 1-5.312 1.375L63 168c-2.623-2.098-4.397-4.139-6.312-6.875-1.015-3.135-.857-5.838-.688-9.125 6.524-22.054 19.909-41.934 36.371-57.7C96.61 90.369 101.037 86.97 106 84l3.063-2c3.564-1.213 6.187-1.158 9.878-.566"/><path fill="#232080" d="M170 429c2.5.375 2.5.375 5 1l1 1c1.347 16.764-2.976 31.908-8.537 47.57-3.265 9.283-4.838 18.019-4.775 27.868l.014 2.792c.115 6.673.841 12.522 3.298 18.77l.926 2.652c2.527 6.7 5.973 12.665 9.637 18.785 4.396 7.361 7.583 14.133 9.437 22.563l.57 2.39c2.012 12.22.26 25.035-3.59 36.7-2.44 6.37-2.44 6.37-4.98 8.91-2.062-.187-2.062-.187-4-1l-1-3c.707-2.129.707-2.129 1.813-4.562 4.608-11.13 5.153-22.506 4.187-34.438-1.524-11.25-5.795-20.58-11.988-30.035-6.31-9.778-11.333-20.604-12.189-32.406-.371-15.454 1.003-27.641 6.74-42.121 4.543-11.512 5.852-22.996 6.791-35.239l.216-2.781.18-2.507L169 430z"/><path fill="#d35de9" d="m170.219 397.54 2.281.085 2.281.04c2.524.381 4.044.995 6.219 2.335 1.4 1.952 1.4 1.952 2.656 4.324l1.41 2.62 1.434 2.743 2.844 5.325 1.357 2.577a164 164 0 0 0 3.67 6.411l1.629 3-.437 2.313c-2.027 2.188-3.725 2.78-6.563 3.687-2.754.047-2.754.047-5.562-.25l-2.817-.266C178 432 178 432 175.911 430.954c-2.152-1.252-2.152-1.252-5.911-.954l-2 2c-3.002 1.016-5.845 1.163-9 1.188l-2.562.042c-2.592-.245-4.208-.924-6.438-2.23.54-4.418 1.61-7.612 3.8-11.477l1.714-3.03 1.798-3.118 1.764-3.14c6.717-11.777 6.717-11.777 11.143-12.696"/><path fill="#232080" d="M177 559h3q.976 2.34 1.938 4.688l1.09 2.636c3.889 10.7 3.97 24.966 2.687 36.163-1.277 6.746-3.79 11.928-7.715 17.513-1.937-.312-1.937-.312-4-1l-1-3c.798-2.404 1.846-4.637 2.895-6.941 2.903-8.035 3.458-16.208 3.73-24.684l.117-3.043q.14-3.666.258-7.332h3l-2-5h-2c-1.316-3.62-2-6.096-2-10M170 429c2.5.375 2.5.375 5 1l1 1c.625 9.767-.011 18.607-3 28h-2v4h-3l-1 2q.39-7.45.8-14.899.137-2.535.27-5.072.192-3.638.395-7.275l.117-2.304c.104-1.82.256-3.635.418-5.45z"/><path fill="#232080" d="M167 533c7.94 11.91 16.105 24.834 19 39l.574 2.316c.582 3.667.531 7.296.488 10.996l-.013 2.245q-.02 2.722-.049 5.443l-2 1-.078-3.918c-.277-9.444-.852-17.802-4.082-26.746C180 561 180 561 180 559h-3c.424 1.462.865 2.92 1.313 4.375l.738 2.46L180 568l3 2v4h-3l-1 3-.7-3.184c-1.671-7.293-3.219-13.81-7.445-20.117L170 552l1-3 1.313 2.438L174 554l3 1-1.5-2.375C174 550 174 550 174 548l-3-1v-3c-1.015-1.744-2.032-3.488-3.125-5.184C167 537 167 537 167 533M155 499l1.313 1.5L158 502h3l.332 2.895c.88 7.181 1.94 13.923 4.18 20.835C166 528 166 528 165 532l-3-8-2 2-2 1c-3.853-9.128-3.285-18.301-3-28"/><path fill="#342ba3" d="M159 479h1l1 5h4l-.402 2.063c-1.574 8.635-2.176 17.187-2.598 25.937h-1l-1-10-4 2c-1.951-9.014.339-16.433 3-25"/><path fill="#d35de9" d="m155 419 3 1c.688 2.063.688 2.063 1 4l4 1-1 4 5 1v2c-2.91.97-4.902 1.165-7.937 1.188l-2.59.042c-2.612-.243-4.228-.912-6.473-2.23.366-3.84 1.025-6.04 3.063-9.375zM187 422l2 1-1 2 5-1c.563 2.313.563 2.313 1 5l-1 3a440 440 0 0 1-6.25-.312l-3.516-.176C180 431 180 431 177.578 429.582L176 428v-2l3.25.25L183 426c2.441-1.854 2.441-1.854 4-4"/><path fill="#342ba3" d="M170 431h6q.08 3.938.125 7.875l.05 2.262c.018 1.955-.072 3.91-.175 5.863l-2 2c-.648 2.57-.648 2.57-1 5h-1v-5h-2z"/><path fill="#0417b1" d="M177 559h3q.976 2.34 1.938 4.688l1.09 2.636c2.13 5.86 2.094 11.323 2.035 17.489l-.014 2.677q-.02 3.255-.049 6.51l-3-1v-13h-1v-5h2l-2-5h-2c-1.316-3.62-2-6.096-2-10"/><path fill="#232080" d="m178 602 2 3v2h2a564 564 0 0 1-.875 5.375l-.492 3.023L180 618l-2 2c-2.062-.187-2.062-.187-4-1l-1-3c.742-2.34.742-2.34 1.875-4.937 1.298-3.01 2.426-5.857 3.125-9.063"/><path fill="#1b185a" d="m155 499 1.313 1.5L158 502h3l1 17h-1v-6h-3l-2 2c-1.502-3.003-1.093-5.79-1.062-9.125l.027-3.883z"/><path fill="#232080" d="M168 398c2.023-.266 2.023-.266 4.375-.25l2.336-.016c2.582.3 4.152.779 6.289 2.266l1 4h-18c2-4 2-4 4-6M179 556c1.367 1.102 1.367 1.102 3 3 1.133 2.96 1.133 2.96 2.125 6.375l1.008 3.398c1.514 5.633 1.997 10.705 1.93 16.54l-.014 2.244q-.02 2.722-.049 5.443l-2 1-.078-3.918c-.277-9.444-.852-17.802-4.082-26.746C180 561 180 561 180 559h-3v-2z"/><path fill="#d35de9" d="M317 192h1c.38 25.326.38 25.326-.875 36l-.238 2.097c-.22 1.647-.544 3.278-.887 4.903l-2 2a226 226 0 0 1-.625-4.25l-.352-2.39L313 228l.959-1.686c1.427-3.172 1.505-6.281 1.674-9.705l.126-2.135c.13-2.24.248-4.482.366-6.724q.13-2.285.262-4.57.319-5.59.613-11.18M154 423l7 2-2 4h-2v2l-6 1c-.625-2.375-.625-2.375-1-5l2-2 2 1zM296 116c3.142 2.65 4.538 5.81 6.25 9.5l1.64 3.469L305 132l-1 3-2-4-4 1-.184-2.23-.253-2.958-.247-2.917c-.293-2.681-.743-5.261-1.316-7.895M165 403h18l1 3c-1.375 1.5-1.375 1.5-3 3h-2v-3l-2.375 1.063L174 408l-2-1v-2c-4.14-.21-4.14-.21-8 1zM83 144l1 3-1 2h2v6l-2-2-2 4h-2l1 5-5 2c1.451-4.579 3.206-8.976 5.125-13.375l.84-1.941Q81.979 146.34 83 144M102 58c2.13 1.065 3.366 2.292 5 4l-1.758.078c-4.143.301-6.9.739-10.617 2.734C92.302 66.749 90.627 68.47 89 71l-4-1c11.018-9.134 11.018-9.134 17-12M187 41c5.778-.236 10.513.132 16 2v2a323 323 0 0 1-5.812.688l-3.27.386L191 46c-1.887-1.48-1.887-1.48-3-3h4l-5-1zM37 147l3 1v2h-2l.563 2.813C39 156 39 156 38 159h-2v-3l-1.437 1.5L33 159h-1q.172-2.47.375-4.937c.07-.917.14-1.834.21-2.778.138-.754.274-1.508.415-2.285l2-1v5h2l-.562-1.875L36 149z"/><path fill="#d35de9" d="M187.773 39.893 190 40c1.812 1.5 1.812 1.5 3 3-2 1-2 1-3.974.899l-2.424-.301c-5.738-.643-11.46-.926-17.227-1.16l-3.043-.131Q162.666 42.15 159 42v-1q6.344-.252 12.687-.5l3.631-.145 3.506-.136 3.222-.127q2.864-.089 5.727-.2M93 126a162 162 0 0 1 2 9c-6.75 3.875-6.75 3.875-9 5 1.46-5.31 3.983-9.463 7-14"/><path fill="#0417b1" d="M169 541c2.496 2.276 4.066 4.607 5.688 7.563l1.324 2.378C177 553 177 553 177 555c-2.666-.38-4.03-1.024-6.187-2.687C169 550 169 550 168.188 546.938 168 544 168 544 169 541"/><path fill="#342ba3" d="M159 479h1l1 5h4l-2 12c-1.547-3.093-2.677-5.794-3.687-9.062l-.825-2.598L158 482z"/><path fill="#0417b1" d="M173 437h1q.039 2.844.063 5.688l.035 3.199c-.09 2.837-.449 5.357-1.098 8.113h-1v-5h-2v-10l2 1z"/><path fill="#d35de9" d="m179 393 3 1v2l9-3 2 3c-4.648 2.4-8.91 2.2-14 2z"/><path fill="#232080" d="M171 459h2c-1.167 5.929-2.755 11.388-5 17l-2-1v-4h2l1-4h-2l1-4h3zM158 484c2.154 2.622 3.4 4.644 4 8h-3l-2 6h-1c-.369-9.41-.369-9.41 2-14"/><path fill="#1b185a" d="M168 398a75 75 0 0 1 4.563-.062l2.503.027L177 398l2 4h-12v-3z"/><path fill="#d35de9" d="m60 133 3 1c-.665 4.389-2.188 7.981-4 12h-1c-.687-3.125-.687-3.125-1-7 1.438-3.437 1.438-3.437 3-6M109 109l1 2-5 4 3 3-10 3c1.72-3.44 2.852-5.101 5.5-7.687l1.844-1.825C107 110 107 110 109 109M178 394l2 1v2l3 2-3.105-.035-4.083-.027-2.04-.026c-3.726-.018-7.15.195-10.772 1.088v-3c3.411-1.097 6.207-.942 9.75-.562l2.984.308L178 397z"/><path fill="#d35de9" d="M159 393q2.514.428 5 1l-1 4 3 1c-6.75.125-6.75.125-9-1q.456-2.01 1-4zM73 81l3 3c-.625 1.938-.625 1.938-2 4-3 .813-3 .813-6 1l-2-1z"/><path fill="#0417b1" d="M177 559h3l3 8-2 2h-2c-1.316-3.62-2-6.096-2-10M166 465l1 2h2l-1 4h-2l1 6-5 1 .621-1.828.816-2.422.81-2.39A85 85 0 0 0 166 465"/><path fill="#1c1424" d="M170 429q2.514.428 5 1v6l-1.375-1.937c-1.464-2.16-1.464-2.16-3.625-3.063v18h-1c-.029-3.146-.047-6.292-.062-9.437l-.026-2.721-.01-2.588-.016-2.396L169 430z"/><path fill="#d35de9" d="m249 356 3 1a367 367 0 0 1-2.812 3.438l-1.583 1.933C246 364 246 364 243 365l1-6 5-1zM69 115h2v2h2c-1.186 3.375-2.276 5.647-5 8v-2h-3a78 78 0 0 1 2-5l2-1zM54 305c2.667 2.49 4.557 4.634 6 8h3v7c-4.18-3.56-6.686-8.087-9-13z"/><path fill="#1b185a" d="m179 600 1 2h2c.555 3.007.97 5.94 1 9-1.437 3.563-1.437 3.563-3 6l-1-2c.559-1.945.559-1.945 1.438-4.125l.87-2.195L182 607h-2z"/><path fill="#d35de9" d="M129.262 46.422 131 47h-2l-1 2c-3.28 1.239-6.586 2.212-10 3l1-3c1.707-.984 1.707-.984 3.813-1.75l2.082-.797C127 46 127 46 129.262 46.422"/><path fill="#342ba3" d="M157 512c2.125.438 2.125.438 4 1v6l-2-4-2 7h-1l-1-9z"/><path fill="#d35de9" d="m266 79 5 5-1 2-6-1zM146 41c2.164-.195 2.164-.195 4.625-.125l2.477.055L155 41l-4 1 1 3-1 2-2-1 1-2-6-1z"/><path fill="#342ba3" d="m180 568 3 2v4h-3l-1 3-1-8z"/><path fill="#232080" d="m163 538 1.875 1.5L167 541h2c.625 1.75.625 1.75 1 4-.977 2.14-.977 2.14-2 4a805 805 0 0 1-2.5-4.375l-1.406-2.46C163 540 163 540 163 538"/><path fill="#0417b1" d="M166 533c1.414 2.639 2.372 5.071 3 8h-2l-1 2c-1.354-2.709-1.065-5.01-1-8l-2-1z"/><path fill="#d35de9" d="m97 121 6 4c-3.75 2-3.75 2-6 2l-1-2-2 1c1.875-3.875 1.875-3.875 3-5M82 72l2 1v2l2 2h-2v2l-1.812-1c-2.242-1.208-2.242-1.208-5.188-1z"/><path fill="#d35de9" d="m84 70 3 1 1 6-6-2zM163 404l1 2c-.937 2.125-.937 2.125-2 4l2 1-1 2-3 1-2 2c.576-4.755 2.55-7.97 5-12M230 369c2.625-.187 2.625-.187 5 0l1 4-5 2v-3h-3z"/><path fill="#342ba3" d="m174 614 3 2 3 1-2 3c-1.937-.312-1.937-.312-4-1l-1-3z"/><path fill="#d35de9" d="M190 428h2l1 4-13-1 3-2c2-.04 4-.043 6 0zM79 154c.964 2.892 1 5 1 8l-5 2c1.11-3.487 2.263-6.775 4-10M101 82l2 1-1 2 2 1-5 4-2-1 2-4h2zM204 44l9 1v3h-5l-1-3zM225 375l5 1a91 91 0 0 1-4 4h-2zM249 356l3 1-5 5-1-4h3z"/><path fill="#342ba3" d="M160 533h2v2h3l-1 4h-2z"/><path fill="#0417b1" d="m170 445 3 1v8h-1v-5h-2zM170 431h4v3h-3l1 3-2 1z"/><path fill="#d35de9" d="m110 367 2 1v3l3 1c-2.375.188-2.375.188-5 0l-2-3h2z"/><path fill="#342ba3" d="M182 602h3l-1 6-1-2-2-1z"/><path fill="#d35de9" d="M258 346h2c-.312 1.875-.312 1.875-1 4l-3 2c.3-1.673.636-3.34 1-5zM281 311h3c.688 1.813.688 1.813 1 4-1.437 1.75-1.437 1.75-3 3zM32 242l3 3-1 3-2-1-1 2zM73 81l3 3-1 2h-3l-1-3z"/><path fill="#0417b1" d="m179 605 1 2h2l-1 5-3-2z"/><path fill="#d35de9" d="m57 162 4 4-2 2h-2z"/><path fill="#1b185a" d="m158 484 2 4h-2l-1 4c-.125-5.75-.125-5.75 1-8"/><path fill="#d35de9" d="M307 253h3l1 3c-1.875.625-1.875.625-4 1l-2-2h2zM84 101v3c-2 1.688-2 1.688-4 3 .313-1.875.313-1.875 1-4zM92 90l4 2-3 3-2-1zM214 46c2.13 1.065 3.366 2.292 5 4l-4 1zM74 79l3 2-1 3-3-3z"/><path fill="#0417b1" d="m166 465 1 2h2l-2 4z"/><path fill="#d35de9" d="m76 108 2 3-3 3a100 100 0 0 1 0-5zM179 403l3 1-1 3-3-3zM291 297l2 1v3l-3-1zM100 119l2 3h-4zM232 56l5 1-1 2-4-2z"/><path fill="#1b185a" d="m175 613 3 1-1 3-2-1z"/><path fill="#d35de9" d="M243 362h3l-1 3h-2zM274 324l3 1-1 3zM84 70l3 1v2l-4-1z"/><path fill="#1b185a" d="m167 399 3 1-3 2z"/></svg>