<?xml version="1.0" encoding="UTF-8"?>
<svg version="1.1" xmlns="http://www.w3.org/2000/svg" width="359" height="644">
<path d="M0 0 C0.72058594 0.63808594 1.44117188 1.27617188 2.18359375 1.93359375 C31.86723636 29.64244101 47.5566338 72.36306636 49.1262207 112.20385742 C49.51142914 128.04876457 48.69135834 143.37968101 46 159 C45.86078125 159.8240332 45.7215625 160.64806641 45.578125 161.49707031 C39.53178909 196.13753647 23.3895221 228.31651138 2 256 C1.2884375 256.92554688 0.576875 257.85109375 -0.15625 258.8046875 C-23.2747004 288.2531898 -51.23079236 313.73914052 -89 321 C-88.29875 322.093125 -87.5975 323.18625 -86.875 324.3125 C-84.19252042 328.59078896 -81.80548477 333.00117319 -79.42578125 337.453125 C-78.25531884 339.5439236 -77.03343706 341.44399796 -75.625 343.375 C-73.82652226 346.28023327 -73.27729679 347.65749766 -74 351 C-76.31538963 353.28254722 -77.65102399 353.96065237 -80.91015625 354.328125 C-81.95042969 354.30234375 -82.99070313 354.2765625 -84.0625 354.25 C-85.10535156 354.23453125 -86.14820313 354.2190625 -87.22265625 354.203125 C-90 354 -90 354 -93 353 C-92.938125 354.27875 -92.87625 355.5575 -92.8125 356.875 C-92.92420204 370.27924461 -96.3071631 382.38244108 -100.5625 395 C-104.16269762 405.74323061 -106.74464106 415.65974161 -107 427 C-107.02835938 428.10472656 -107.05671875 429.20945312 -107.0859375 430.34765625 C-106.67374 445.46780993 -100.01108388 458.89644663 -92.31518555 471.56835938 C-82.55011289 487.69248775 -80.0277894 505.94322313 -83.75390625 524.578125 C-85.39784827 530.53499727 -87.57074578 535.85611866 -91 541 C-92.65 541 -94.3 541 -96 541 C-97.53381853 536.25070649 -96.21444602 532.64815756 -94.625 528.125 C-88.84118851 511.31381165 -90.19806055 494.31801483 -97.4140625 478.02734375 C-99.57448175 473.90339075 -102.11505693 470.08509609 -104.68847656 466.21069336 C-115.26185764 450.09094803 -118.76099512 430.40946325 -114.8671875 411.56713867 C-113.21620748 404.42353813 -110.82779623 397.69104886 -108.15307617 390.87646484 C-103.43378599 378.60903042 -102.46159681 366.00429637 -102 353 C-102.7425 353.32355469 -103.485 353.64710938 -104.25 353.98046875 C-107.94194269 355.34921455 -111.11143608 355.54094942 -115 355 C-118 353.5 -118 353.5 -120 352 C-119.68267405 344.9196647 -116.44341429 339.69461275 -113 333.625 C-112.16082031 332.11099609 -112.16082031 332.11099609 -111.3046875 330.56640625 C-107.20027546 323.20027546 -107.20027546 323.20027546 -106 322 C-107.20011719 321.69449219 -108.40023437 321.38898438 -109.63671875 321.07421875 C-134.17970208 314.47798084 -154.79699556 301.59623763 -173 284 C-173.60875977 283.4117041 -174.21751953 282.8234082 -174.84472656 282.21728516 C-182.73936251 274.55150665 -190.53240425 266.93750436 -197 258 C-197.44794922 257.38543945 -197.89589844 256.77087891 -198.35742188 256.13769531 C-233.25686407 208.09990655 -251.92648766 151.28314504 -242.62548828 91.59667969 C-238.11058603 65.20776009 -228.0023842 39.53505301 -212 18 C-211.30648437 17.06414062 -210.61296875 16.12828125 -209.8984375 15.1640625 C-199.41783069 1.77871822 -187.10299899 -9.56692435 -173 -19 C-172.1646875 -19.56976563 -171.329375 -20.13953125 -170.46875 -20.7265625 C-115.49378222 -55.93313433 -46.20181713 -42.35032838 0 0 Z " fill="#EFAF10" transform="translate(270,79)"/>
<path d="M0 0 C2.5625 1.625 2.5625 1.625 4 4 C4.82204249 8.27462095 4.31521654 11.06967621 1.9375 14.625 C-1.92009915 19.3643361 -6.68350476 23.13942722 -11.32080078 27.08276367 C-26.03693895 39.65287382 -33.47986321 54.28503616 -41.14404297 71.73681641 C-46.47539384 83.73769692 -46.47539384 83.73769692 -51 86 C-54.3125 86.375 -54.3125 86.375 -58 86 C-61.16639117 83.46688706 -63.73880431 80.89824124 -65 77 C-66.11042187 58.78908134 -50.36661641 36.39203171 -39 23 C-31.83017572 14.97268953 -24.25034306 7.59843853 -15 2 C-13.989375 1.34 -12.97875 0.68 -11.9375 0 C-7.75144791 -1.42503901 -4.24135608 -1.16697653 0 0 Z " fill="#F0DDCB" transform="translate(121,82)"/>
<path d="M0 0 C1.67542976 0.28604898 3.34385343 0.61781233 5 1 C5.5238388 15.08078685 5.91145826 27.64296033 0.77050781 40.92431641 C-7.20386889 62.4066202 -10.4247908 84.16452579 -1.00927734 105.90087891 C1.54970158 111.22310938 4.59430348 116.30688267 7.63427734 121.36547852 C17.34745033 137.63854001 19.99873015 155.81059466 16.24609375 174.578125 C14.60215173 180.53499727 12.42925422 185.85611866 9 191 C7.35 191 5.7 191 4 191 C2.46618147 186.25070649 3.78555398 182.64815756 5.375 178.125 C11.15881149 161.31381165 9.80193945 144.31801483 2.5859375 128.02734375 C0.42551825 123.90339075 -2.11505693 120.08509609 -4.68847656 116.21069336 C-15.26191227 100.09086474 -18.7604343 80.41026249 -14.86743164 61.56787109 C-13.23268204 54.49557314 -10.87798051 47.83331436 -8.22338867 41.08959961 C-3.59940206 29.07076981 -1.61710812 16.7885417 -1.17578125 3.96484375 C-1 1 -1 1 0 0 Z " fill="#546D4C" transform="translate(170,429)"/>
<path d="M0 0 C1.67542976 0.28604898 3.34385343 0.61781233 5 1 C5.52312535 15.06160935 5.92135243 27.60264864 0.77050781 40.85839844 C-0.82836919 45.30242538 -1.99586907 49.88678542 -3.25 54.4375 C-3.75173349 56.24966359 -4.25666402 58.06094677 -4.765625 59.87109375 C-4.97993164 60.64380615 -5.19423828 61.41651855 -5.41503906 62.21264648 C-6 64 -6 64 -7 65 C-7.24224061 67.48520924 -7.42548846 69.94602371 -7.5625 72.4375 C-7.60568359 73.16018066 -7.64886719 73.88286133 -7.69335938 74.62744141 C-7.96643604 79.48538854 -8.06945303 84.31391969 -7.9375 89.1796875 C-8 91 -8 91 -9 93 C-9.66 93 -10.32 93 -11 93 C-11.495 93.99 -11.495 93.99 -12 95 C-12.66 95 -13.32 95 -14 95 C-19.1363548 76.33485354 -15.11979793 58.6092108 -8.22338867 41.08959961 C-3.59940206 29.07076981 -1.61710812 16.7885417 -1.17578125 3.96484375 C-1 1 -1 1 0 0 Z " fill="#4E6849" transform="translate(170,429)"/>
<path d="M0 0 C1.98 0.99 3.96 1.98 6 3 C5.54177532 6.46941546 5.10868317 9.67395049 4 13 C3.65772583 14.33106622 3.32248257 15.66400079 3 17 C3.99 17.33 4.98 17.66 6 18 C8.87076672 22.27818807 7.8814797 26.18016602 7 31 C6.42298261 33.37748521 5.74461231 35.66688142 5 38 C4.34 37.67 3.68 37.34 3 37 C2.55078125 34.015625 2.55078125 34.015625 2.3125 30.25 C2.22613281 29.01765625 2.13976562 27.7853125 2.05078125 26.515625 C2.00654331 23.45299809 2.25066846 20.95225357 3 18 C2.34 18 1.68 18 1 18 C1.03480469 18.60585937 1.06960937 19.21171875 1.10546875 19.8359375 C1.31824384 26.42183303 0.2121768 31.81117204 -2 38 C-5.10021321 36.47639094 -8.05162229 34.80178638 -11 33 C-11.12375 34.2375 -11.2475 35.475 -11.375 36.75 C-11.69467869 39.94678692 -12.51829318 42.16136167 -14 45 C-13.45985645 38.66901514 -12.35099511 33.02913898 -10.375 27 C-10.1157373 26.19199951 -9.85647461 25.38399902 -9.58935547 24.55151367 C-6.8412778 16.18266421 -3.49661915 8.07946614 0 0 Z " fill="#F0AE18" transform="translate(43,122)"/>
<path d="M0 0 C0.33 0 0.66 0 1 0 C0.97679687 0.92039062 0.95359375 1.84078125 0.9296875 2.7890625 C0.63804688 23.24556858 5.08821295 39.29882849 16.07373047 56.54125977 C20.45902073 63.71477877 20.45902073 63.71477877 19.8515625 68.6328125 C19.57054687 69.74398437 19.28953125 70.85515625 19 72 C17.68 71.67 16.36 71.34 15 71 C15 70.34 15 69.68 15 69 C14.34 69 13.68 69 13 69 C12.64808594 68.26136719 12.29617187 67.52273438 11.93359375 66.76171875 C9.35728251 61.46783638 6.70219717 56.40420518 3.4375 51.5 C-5.78749008 37.261875 -5.78749008 37.261875 -4.8125 29.25 C-4.544375 28.1775 -4.27625 27.105 -4 26 C-3.67 26.66 -3.34 27.32 -3 28 C-2.67 27.34 -2.34 26.68 -2 26 C-1.34 26 -0.68 26 0 26 C-0.08378906 24.7934375 -0.16757813 23.586875 -0.25390625 22.34375 C-0.35716289 20.72919169 -0.46000536 19.11460686 -0.5625 17.5 C-0.61857422 16.70851563 -0.67464844 15.91703125 -0.73242188 15.1015625 C-1.05189484 9.90480221 -0.79686914 5.14718438 0 0 Z " fill="#3E5D3D" transform="translate(162,494)"/>
<path d="M0 0 C0.33 1.32 0.66 2.64 1 4 C0.34 4 -0.32 4 -1 4 C0.98 6.97 0.98 6.97 3 10 C1.35 10 -0.3 10 -2 10 C-1.67 11.32 -1.34 12.64 -1 14 C0.98 12.68 2.96 11.36 5 10 C6.32 10.66 7.64 11.32 9 12 C8.34 12 7.68 12 7 12 C7 12.99 7 13.98 7 15 C8.98 15 10.96 15 13 15 C13.33 15.99 13.66 16.98 14 18 C13 20 13 20 12 21 C14.31 21.99 16.62 22.98 19 24 C19 24.66 19 25.32 19 26 C18.01 26 17.02 26 16 26 C16.01160156 26.6290625 16.02320313 27.258125 16.03515625 27.90625 C16.09286873 33.38069088 15.80228473 38.58457806 15 44 C14.67 44 14.34 44 14 44 C13.505 34.1 13.505 34.1 13 24 C11.68 24 10.36 24 9 24 C8.67 29.28 8.34 34.56 8 40 C7.67 40 7.34 40 7 40 C7 35.38 7 30.76 7 26 C5.35 26.66 3.7 27.32 2 28 C-2.15349277 28.6057177 -5.22358763 28.38820618 -9 26.5 C-9.66 26.005 -10.32 25.51 -11 25 C-10.59300129 18.54863744 -8.17175469 14.08342169 -4.9375 8.5625 C-4.46505859 7.73556641 -3.99261719 6.90863281 -3.50585938 6.05664062 C-2.34712591 4.03178315 -1.17845586 2.01342134 0 0 Z " fill="#F0AE17" transform="translate(161,406)"/>
<path d="M0 0 C0.99 0.99 1.98 1.98 3 3 C3.66 2.67 4.32 2.34 5 2 C5.26331019 6.12519291 5.08773767 9.0873855 3.5625 12.9375 C0.29337296 21.94301977 0.80594897 32.71936841 1.0625 42.1796875 C1 44 1 44 0 46 C-0.66 46 -1.32 46 -2 46 C-2.33 46.66 -2.66 47.32 -3 48 C-3.66 48 -4.32 48 -5 48 C-8.25559543 36.16939877 -8.25559543 22.83060123 -5 11 C-4.34 11 -3.68 11 -3 11 C-1.84188612 8.05270463 -1.84188612 8.05270463 -2 5 C-1.34 5 -0.68 5 0 5 C0 3.35 0 1.7 0 0 Z " fill="#456142" transform="translate(161,476)"/>
<path d="M0 0 C0.33 0 0.66 0 1 0 C1 1.65 1 3.3 1 5 C1.66 5 2.32 5 3 5 C3 6.65 3 8.3 3 10 C3.66 10.33 4.32 10.66 5 11 C4.34 13.31 3.68 15.62 3 18 C3.99 18.66 4.98 19.32 6 20 C6 20.99 6 21.98 6 23 C6.99 23 7.98 23 9 23 C10.03018109 29.56740443 10.03018109 29.56740443 9.8125 32.6875 C10.07544538 35.93049305 11.64903725 36.85647514 14 39 C16.14742167 42.31608652 16.15137796 44.68075266 15.75 48.5625 C15.66234375 49.51253906 15.5746875 50.46257812 15.484375 51.44140625 C15 54 15 54 13 57 C-4.88414737 15.14348487 -4.88414737 15.14348487 -1 4 C-0.34 6.31 0.32 8.62 1 11 C0.67 7.37 0.34 3.74 0 0 Z " fill="#EEAF2F" transform="translate(30,230)"/>
<path d="M0 0 C1.98 0 3.96 0 6 0 C4.43332597 3.77192613 2.08045254 6.16355845 -0.796875 9.02734375 C-1.50375458 9.733536 -1.50375458 9.733536 -2.22491455 10.45399475 C-3.22114543 11.44721254 -4.21979766 12.43800682 -5.22070312 13.42651367 C-6.73620776 14.9238729 -8.24366692 16.42896734 -9.75 17.93554688 C-14.34686117 22.50917293 -18.97638526 26.89842366 -24 31 C-26 30 -26 30 -29 28 C-28.505 26.515 -28.505 26.515 -28 25 C-26.35 25 -24.7 25 -23 25 C-22.67 24.01 -22.34 23.02 -22 22 C-19.75790702 20.34430057 -17.4124563 18.94680889 -15.03125 17.5 C-12.7091093 16.0861604 -12.7091093 16.0861604 -12 13 C-11.319375 12.34 -10.63875 11.68 -9.9375 11 C-7.65210239 9.10497717 -7.65210239 9.10497717 -8 6 C-7.25 3.875 -7.25 3.875 -6 2 C-3.9375 1.1875 -3.9375 1.1875 -2 1 C-1.67 1.33 -1.34 1.66 -1 2 C-0.67 1.34 -0.34 0.68 0 0 Z " fill="#EEB240" transform="translate(256,346)"/>
<path d="M0 0 C1.5 1.3125 1.5 1.3125 3 3 C3 3.99 3 4.98 3 6 C3.99 5.67 4.98 5.34 6 5 C5.67 4.01 5.34 3.02 5 2 C5.66 1.34 6.32 0.68 7 0 C9.72869407 0.03287583 12.2966618 0.56397771 15 1 C15 1.99 15 2.98 15 4 C15.66 4.33 16.32 4.66 17 5 C17.07419487 8.85813342 17.11112389 12.29625368 16 16 C15.65939189 17.66519519 15.32441604 19.33157466 15 21 C8.69017562 16.00472237 1.60363976 9.81091929 -1 2 C-0.67 1.34 -0.34 0.68 0 0 Z " fill="#EFAF11" transform="translate(73,332)"/>
<path d="M0 0 C0.33 0.66 0.66 1.32 1 2 C3.62506802 2.02690844 6.24986173 2.04679404 8.875 2.0625 C9.62136719 2.07087891 10.36773437 2.07925781 11.13671875 2.08789062 C15.19845578 2.20688084 15.19845578 2.20688084 19 1 C19.60328125 2.15757812 20.2065625 3.31515625 20.828125 4.5078125 C21.63524231 6.04696644 22.44254376 7.58602384 23.25 9.125 C23.64574219 9.88554687 24.04148438 10.64609375 24.44921875 11.4296875 C26.25277195 14.85939522 28.06570888 18.19340301 30.265625 21.38671875 C32 24 32 24 32.5 26.6875 C32 29 32 29 30.359375 30.6328125 C27.31471157 32.39710422 25.2436455 32.30142322 21.75 32.1875 C20.13351563 32.14689453 20.13351563 32.14689453 18.484375 32.10546875 C17.66453125 32.07066406 16.8446875 32.03585937 16 32 C20.625 27.125 20.625 27.125 24 26 C23.979375 25.030625 23.95875 24.06125 23.9375 23.0625 C24 20 24 20 25 19 C24.505 18.5875 24.01 18.175 23.5 17.75 C22 16 22 16 22 12 C21.34 12 20.68 12 20 12 C17 6.25 17 6.25 17 4 C14.58325776 3.97294692 12.1668206 3.95313562 9.75 3.9375 C9.06808594 3.92912109 8.38617188 3.92074219 7.68359375 3.91210938 C4.30657446 3.89571608 1.22708361 3.94371232 -2 5 C-1.34 3.35 -0.68 1.7 0 0 Z " fill="#EEB54E" transform="translate(164,401)"/>
<path d="M0 0 C3 1 3 1 5 4 C5.99 4.33 6.98 4.66 8 5 C8 7.31 8 9.62 8 12 C6.2984375 12.2165625 6.2984375 12.2165625 4.5625 12.4375 C1.19222799 12.61171478 1.19222799 12.61171478 0 14 C-1.44833365 14.28562755 -2.91009733 14.50497976 -4.375 14.6875 C-5.56222656 14.84798828 -5.56222656 14.84798828 -6.7734375 15.01171875 C-9 15 -9 15 -12 13 C-11.34 13 -10.68 13 -10 13 C-10 12.01 -10 11.02 -10 10 C-7.69 9.34 -5.38 8.68 -3 8 C-4.65518954 7.18372788 -4.65518954 7.18372788 -7 7 C-8.7325 7.7425 -8.7325 7.7425 -10.5 8.5 C-14.08332312 10.03570991 -14.57636808 10.14121064 -18 9 C-12 6 -6 3 0 0 Z " fill="#F0AE15" transform="translate(120,48)"/>
<path d="M0 0 C1.84424956 3.15234811 2.25636333 5.47059315 2.265625 9.10546875 C2.26820313 10.08966797 2.27078125 11.07386719 2.2734375 12.08789062 C2.26570312 13.11076172 2.25796875 14.13363281 2.25 15.1875 C2.25773438 16.19103516 2.26546875 17.19457031 2.2734375 18.22851562 C2.25722514 24.45811326 1.57740739 29.97205034 0 36 C-1.32 35.67 -2.64 35.34 -4 35 C-4.495 37.475 -4.495 37.475 -5 40 C-5.33 40 -5.66 40 -6 40 C-6.18371577 35.86639523 -5.90689218 32.24058245 -5.0625 28.1875 C-3.86566609 22.15276003 -3.58403556 16.15110826 -3.34204102 10.01831055 C-3.09601921 4.19203842 -3.09601921 4.19203842 -2 2 C-1.34 2 -0.68 2 0 2 C0 1.34 0 0.68 0 0 Z " fill="#3E5D38" transform="translate(183,570)"/>
<path d="M0 0 C0 0.66 0 1.32 0 2 C0.66 2 1.32 2 2 2 C2 2.66 2 3.32 2 4 C-8.47007422 8.66174774 -18.46888098 12.93230379 -30 14 C-30 13.01 -30 12.02 -30 11 C-28.02 11 -26.04 11 -24 11 C-24 10.34 -24 9.68 -24 9 C-22 7 -22 7 -20 5 C-19.01 5.33 -18.02 5.66 -17 6 C-17 5.01 -17 4.02 -17 3 C-11.17745757 1.03181664 -6.16618181 -0.40214229 0 0 Z " fill="#EFAE1A" transform="translate(209,386)"/>
<path d="M0 0 C2 3 2 3 3 5 C3.66 3.68 4.32 2.36 5 1 C8.63 1.33 12.26 1.66 16 2 C16.4412719 7.3835172 16.4412719 7.3835172 16 10 C13.5 11.8125 13.5 11.8125 11 13 C11 13.99 11 14.98 11 16 C10.6937566 17.33981486 10.36548445 18.67511887 10 20 C8.26976259 17.54072998 6.54406507 15.07865461 4.828125 12.609375 C3.77478258 11.10588625 2.70885242 9.61071278 1.609375 8.140625 C-1.05298121 4.50332145 -1.05298121 4.50332145 -0.75 1.625 C-0.5025 1.08875 -0.255 0.5525 0 0 Z " fill="#EFB123" transform="translate(58,310)"/>
<path d="M0 0 C0.33 0 0.66 0 1 0 C0.97679687 0.92039062 0.95359375 1.84078125 0.9296875 2.7890625 C0.74652822 15.63637746 2.22395425 27.66491721 6 40 C4.35 39.67 2.7 39.34 1 39 C1.20625 39.78375 1.4125 40.5675 1.625 41.375 C1.74875 42.24125 1.8725 43.1075 2 44 C1.34 44.66 0.68 45.32 0 46 C-5.92482916 33.69931663 -5.92482916 33.69931663 -4 26 C-3.67 26.66 -3.34 27.32 -3 28 C-2.67 27.34 -2.34 26.68 -2 26 C-1.34 26 -0.68 26 0 26 C-0.08378906 24.7934375 -0.16757813 23.586875 -0.25390625 22.34375 C-0.35716289 20.72919169 -0.46000536 19.11460686 -0.5625 17.5 C-0.61857422 16.70851563 -0.67464844 15.91703125 -0.73242188 15.1015625 C-1.05189484 9.90480221 -0.79686914 5.14718438 0 0 Z " fill="#839475" transform="translate(162,494)"/>
<path d="M0 0 C0.98120464 3.05263664 0.98120464 4.94736336 0 8 C0.99 8 1.98 8 3 8 C3 7.34 3 6.68 3 6 C3.99 6 4.98 6 6 6 C6 6.99 6 7.98 6 9 C10.31749571 9.39039407 10.31749571 9.39039407 14 7.4375 C16 6 16 6 18.9375 6.1875 C21.74984301 6.93363182 24.34026549 7.82658771 27 9 C27 9.66 27 10.32 27 11 C26.01 11 25.02 11 24 11 C24.01160156 11.6290625 24.02320313 12.258125 24.03515625 12.90625 C24.09286873 18.38069088 23.80228473 23.58457806 23 29 C22.67 29 22.34 29 22 29 C21.505 19.1 21.505 19.1 21 9 C19.68 9 18.36 9 17 9 C16.67 14.28 16.34 19.56 16 25 C15.67 25 15.34 25 15 25 C15 20.38 15 15.76 15 11 C13.35 11.66 11.7 12.32 10 13 C5.84650723 13.6057177 2.77641237 13.38820618 -1 11.5 C-1.66 11.005 -2.32 10.51 -3 10 C-2.25 3.375 -2.25 3.375 0 0 Z " fill="#EDB54C" transform="translate(153,421)"/>
<path d="M0 0 C0.33 0 0.66 0 1 0 C0.96970703 0.61407715 0.93941406 1.2281543 0.90820312 1.86083984 C0.76963716 4.69877744 0.63480153 7.5368812 0.5 10.375 C0.45230469 11.34050781 0.40460938 12.30601562 0.35546875 13.30078125 C0.09304717 18.88661209 -0.0325434 24.43422019 0.08007812 30.02587891 C0 32 0 32 -1 34 C-1.66 34 -2.32 34 -3 34 C-3.66 34.66 -4.32 35.32 -5 36 C-5.33 32.37 -5.66 28.74 -6 25 C-5.34 25.66 -4.68 26.32 -4 27 C-4 25.35 -4 23.7 -4 22 C-4.99 22.66 -5.98 23.32 -7 24 C-7.02714735 21.77090129 -7.04646254 19.54170633 -7.0625 17.3125 C-7.07990234 15.45044922 -7.07990234 15.45044922 -7.09765625 13.55078125 C-7.01478673 10.53764546 -6.70839449 7.91724661 -6 5 C-5.34 5.33 -4.68 5.66 -4 6 C-2.04783565 4.04783565 -1.15173355 2.46800047 0 0 Z " fill="#12391C" transform="translate(162,488)"/>
<path d="M0 0 C0.33 0 0.66 0 1 0 C0.76336586 10.77760958 -2.08164921 20.70500606 -5 31 C-6.92408575 28.11387138 -7.27338912 27.2478839 -7.5625 24 C-7.8035815 21.40222383 -8.16030532 19.51908403 -9 17 C-8.34 16.34 -7.68 15.68 -7 15 C-6.0129875 10.39394168 -5.56425724 5.67527428 -5 1 C-4.67 1.66 -4.34 2.32 -4 3 C-3.34 3 -2.68 3 -2 3 C-1.67 2.34 -1.34 1.68 -1 1 C-0.67 0.67 -0.34 0.34 0 0 Z " fill="#EEB238" transform="translate(315,232)"/>
<path d="M0 0 C0.99 0 1.98 0 3 0 C2.43467077 4.49334213 1.2655976 7.99446384 -0.72265625 12.0546875 C-1.26083984 13.16328125 -1.79902344 14.271875 -2.35351562 15.4140625 C-2.91748047 16.55617188 -3.48144531 17.69828125 -4.0625 18.875 C-4.63033203 20.0403125 -5.19816406 21.205625 -5.78320312 22.40625 C-7.18195175 25.2742724 -8.58772888 28.13861866 -10 31 C-10.99 30.67 -11.98 30.34 -13 30 C-13.625 27.125 -13.625 27.125 -14 24 C-13.34 23.34 -12.68 22.68 -12 22 C-12 22.66 -12 23.32 -12 24 C-11.34 23.67 -10.68 23.34 -10 23 C-10.04125 22.113125 -10.0825 21.22625 -10.125 20.3125 C-10.00102754 17.02722987 -9.38612096 14.94550705 -8 12 C-6.68 12 -5.36 12 -4 12 C-3.86722656 11.42765625 -3.73445313 10.8553125 -3.59765625 10.265625 C-3.00619683 8.02349125 -2.26711146 5.91420381 -1.4375 3.75 C-1.16808594 3.04359375 -0.89867187 2.3371875 -0.62109375 1.609375 C-0.41613281 1.07828125 -0.21117187 0.5471875 0 0 Z " fill="#EEB031" transform="translate(303,272)"/>
<path d="M0 0 C1.65 0.33 3.3 0.66 5 1 C5 7.27 5 13.54 5 20 C3.02 20 1.04 20 -1 20 C-1.02888514 16.85418577 -1.04675923 13.70840531 -1.0625 10.5625 C-1.07087891 9.66466797 -1.07925781 8.76683594 -1.08789062 7.84179688 C-1.09111328 6.98779297 -1.09433594 6.13378906 -1.09765625 5.25390625 C-1.10551147 4.06776733 -1.10551147 4.06776733 -1.11352539 2.85766602 C-1 1 -1 1 0 0 Z " fill="#2E3F1E" transform="translate(170,429)"/>
<path d="M0 0 C0.33 0 0.66 0 1 0 C1.87890625 6.15234375 1.87890625 6.15234375 2 8 C1.67 8.33 1.34 8.66 1 9 C1.7425 9.6496875 1.7425 9.6496875 2.5 10.3125 C4 12 4 12 4 15 C6.64 15 9.28 15 12 15 C12 15.66 12 16.32 12 17 C10.35 17 8.7 17 7 17 C7 19.64 7 22.28 7 25 C5.35 25 3.7 25 2 25 C1.34 23.68 0.68 22.36 0 21 C-0.66 22.32 -1.32 23.64 -2 25 C-2.24911914 16.41922945 -1.69882188 8.41826913 0 0 Z " fill="#EFB019" transform="translate(28,167)"/>
<path d="M0 0 C2.83788059 4.54060895 3 9.74897456 3 15 C2.36485174 17.34210921 1.7013284 19.67684969 1 22 C-0.98 21.01 -2.96 20.02 -5 19 C-5.12375 20.2375 -5.2475 21.475 -5.375 22.75 C-5.69467869 25.94678692 -6.51829318 28.16136167 -8 31 C-7.46255203 24.32220896 -6.12046864 18.4664015 -4 12.125 C-3.72671875 11.28453125 -3.4534375 10.4440625 -3.171875 9.578125 C-2.45636393 7.38248809 -1.7314121 5.19038097 -1 3 C-0.67 2.01 -0.34 1.02 0 0 Z " fill="#EEBA4D" transform="translate(37,136)"/>
<path d="M0 0 C0.6796875 1.80859375 0.6796875 1.80859375 1 4 C-0.1796875 5.59765625 -0.1796875 5.59765625 -1.875 7.0625 C-4.27388174 9.16570562 -4.94963154 9.84889463 -6 13 C-4.35 12.34 -2.7 11.68 -1 11 C-1 12.65 -1 14.3 -1 16 C-4.28696233 16.79953138 -5.71023192 17.09658936 -9 16 C-8.67 16.99 -8.34 17.98 -8 19 C-11 19 -11 19 -12.6875 17.5 C-13.120625 17.005 -13.55375 16.51 -14 16 C-11.7140466 11.73236687 -8.76416143 8.52336376 -5.3125 5.1875 C-4.80138672 4.68541016 -4.29027344 4.18332031 -3.76367188 3.66601562 C-2.51365638 2.43936491 -1.2574532 1.21902509 0 0 Z " fill="#EFB12A" transform="translate(77,76)"/>
<path d="M0 0 C1.75 0.0625 1.75 0.0625 4 1 C7.51547772 5.37059393 8.29842125 8.14895398 7.875 13.75 C7.45840315 17.38760176 7.07720764 18.88418854 5 22 C3.95803611 19.65331612 2.94183447 17.30024695 1.9375 14.9375 C1.64294922 14.28072266 1.34839844 13.62394531 1.04492188 12.94726562 C-0.96756096 8.14098308 -1.15797484 5.08847232 0 0 Z " fill="#EFB332" transform="translate(38,265)"/>
<path d="M0 0 C2.64 0.33 5.28 0.66 8 1 C8 1.99 8 2.98 8 4 C8.33 4.33 8.66 4.66 9 5 C8.67 5.66 8.34 6.32 8 7 C7.34 6.67 6.68 6.34 6 6 C6.33 7.32 6.66 8.64 7 10 C7.66 10 8.32 10 9 10 C10.25664978 12.90600261 11 14.79604584 11 18 C11.66 18 12.32 18 13 18 C13.625 19.8125 13.625 19.8125 14 22 C13.34 22.99 12.68 23.98 12 25 C0 5.18443804 0 5.18443804 0 0 Z " fill="#EEBA5E" transform="translate(44,287)"/>
<path d="M0 0 C8.52097703 8.52097703 9.37783486 32.67230359 10 44 C9.01 44.495 9.01 44.495 8 45 C7.80083984 43.08574219 7.80083984 43.08574219 7.59765625 41.1328125 C7.41947335 39.46352004 7.24107686 37.79425036 7.0625 36.125 C6.97548828 35.28324219 6.88847656 34.44148438 6.79882812 33.57421875 C6.71181641 32.76855469 6.62480469 31.96289062 6.53515625 31.1328125 C6.456604 30.38918457 6.37805176 29.64555664 6.29711914 28.87939453 C6.08362653 26.91553684 6.08362653 26.91553684 5 25 C4.34 25 3.68 25 3 25 C3 27.64 3 30.28 3 33 C2.34 33 1.68 33 1 33 C1 29.37 1 25.74 1 22 C1.66 22 2.32 22 3 22 C3.495 17.545 3.495 17.545 4 13 C3.34 13 2.68 13 2 13 C1.66307215 11.39658445 1.33058907 9.79223445 1 8.1875 C0.814375 7.29417969 0.62875 6.40085938 0.4375 5.48046875 C0 3 0 3 0 0 Z " fill="#EFC268" transform="translate(309,143)"/>
<path d="M0 0 C4.67105792 1.55701931 8.08705685 4.08447373 12 7 C10 10 10 10 7 11 C7.33 11.99 7.66 12.98 8 14 C5 14 5 14 3 13 C3 12.34 3 11.68 3 11 C2.34 11 1.68 11 1 11 C1.33 10.01 1.66 9.02 2 8 C2.99 8 3.98 8 5 8 C4.01 7.01 3.02 6.02 2 5 C1.67 5.33 1.34 5.66 1 6 C-0.99958364 6.04080783 -3.00045254 6.04254356 -5 6 C-5 5.01 -5 4.02 -5 3 C-3.68 3 -2.36 3 -1 3 C-0.67 2.01 -0.34 1.02 0 0 Z " fill="#EFB126" transform="translate(241,58)"/>
<path d="M0 0 C0.33 0.66 0.66 1.32 1 2 C1.99 2 2.98 2 4 2 C4.226875 2.598125 4.45375 3.19625 4.6875 3.8125 C6.35016542 6.58360904 8.24185568 7.35824743 11 9 C15 13.43243243 15 13.43243243 15 16 C16.65 16.33 18.3 16.66 20 17 C20 17.66 20 18.32 20 19 C20.66 19 21.32 19 22 19 C22.33 19.99 22.66 20.98 23 22 C22.34 22.33 21.68 22.66 21 23 C12.57537564 16.70530324 5.31663207 9.52305743 -2 2 C-1.34 1.34 -0.68 0.68 0 0 Z " fill="#EDAF53" transform="translate(90,352)"/>
<path d="M0 0 C0.33 0 0.66 0 1 0 C1.21275375 14.80602439 1.31479714 29.3465074 -1 44 C-1.33 44 -1.66 44 -2 44 C-1.97679687 43.32453125 -1.95359375 42.6490625 -1.9296875 41.953125 C-1.90261719 40.61507812 -1.90261719 40.61507812 -1.875 39.25 C-1.84019531 37.92742187 -1.84019531 37.92742187 -1.8046875 36.578125 C-2.01175916 33.84477907 -2.76075681 32.40072995 -4 30 C-4.16015625 27.9296875 -4.16015625 27.9296875 -4.0625 25.875 C-3.70512683 22.2050965 -3.70512683 22.2050965 -5 20 C-4.34 19.34 -3.68 18.68 -3 18 C-2.53993654 15.79749008 -2.53993654 15.79749008 -2.375 13.375 C-2.26285156 12.14910156 -2.26285156 12.14910156 -2.1484375 10.8984375 C-2.09945313 10.27195313 -2.05046875 9.64546875 -2 9 C-1.67 9 -1.34 9 -1 9 C-0.67 6.03 -0.34 3.06 0 0 Z " fill="#EFC97C" transform="translate(318,188)"/>
<path d="M0 0 C1.98 0.99 3.96 1.98 6 3 C5.74438677 5.3431213 5.40729228 7.67843403 5 10 C4.01 10.495 4.01 10.495 3 11 C2.67 11.99 2.34 12.98 2 14 C-1.13349732 15.04449911 -1.98968256 14.93423645 -5 14 C-4.34580901 8.93001981 -2.1453591 4.58009223 0 0 Z " fill="#F0B01A" transform="translate(43,122)"/>
<path d="M0 0 C1.65 0.99 3.3 1.98 5 3 C3.4467033 6.47064731 1.3770513 9.22929462 -1 12.1875 C-1.70125 13.06792969 -2.4025 13.94835937 -3.125 14.85546875 C-5 17 -5 17 -7 18 C-7.33 15.36 -7.66 12.72 -8 10 C-7.34 10 -6.68 10 -6 10 C-6 10.66 -6 11.32 -6 12 C-5.34 12 -4.68 12 -4 12 C-4 10.02 -4 8.04 -4 6 C-3.01 5.67 -2.02 5.34 -1 5 C-1.99 4.34 -2.98 3.68 -4 3 C-2.68 2.01 -1.36 1.02 0 0 Z " fill="#EEB23E" transform="translate(269,328)"/>
<path d="M0 0 C3.09423168 3.09423168 3.93706005 6.5523812 4.125 10.875 C4.08375 11.57625 4.0425 12.2775 4 13 C3.34 11.68 2.68 10.36 2 9 C1.67 9.99 1.34 10.98 1 12 C0.34 12 -0.32 12 -1 12 C-1.33 14.97 -1.66 17.94 -2 21 C-2.33 21 -2.66 21 -3 21 C-3.53030068 18.56421213 -4.04952312 16.12694025 -4.5625 13.6875 C-4.78969727 12.65206055 -4.78969727 12.65206055 -5.02148438 11.59570312 C-5.71761569 8.24455934 -6.10155309 6.30465928 -5 3 C-4.34 3 -3.68 3 -3 3 C-2.67 3.66 -2.34 4.32 -2 5 C-1.34 3.35 -0.68 1.7 0 0 Z " fill="#6B8060" transform="translate(182,560)"/>
<path d="M0 0 C-2.77727166 2.94442226 -5.56790344 5.22993965 -9 7.375 C-9.845625 7.91898437 -10.69125 8.46296875 -11.5625 9.0234375 C-14 10 -14 10 -16.3125 9.1640625 C-16.869375 8.77992188 -17.42625 8.39578125 -18 8 C-17.1875 5.0625 -17.1875 5.0625 -16 2 C-12.7955129 0.93183763 -10.35033432 1 -7 1 C-4.53721199 -0.231394 -2.7204945 -0.07159196 0 0 Z " fill="#EEB33E" transform="translate(229,378)"/>
<path d="M0 0 C2.97 0.495 2.97 0.495 6 1 C6.06058594 1.60328125 6.12117187 2.2065625 6.18359375 2.828125 C6.26738281 3.62734375 6.35117188 4.4265625 6.4375 5.25 C6.55931641 6.43335938 6.55931641 6.43335938 6.68359375 7.640625 C6.97634993 9.82364639 7.42064419 11.8773182 8 14 C6.68 14.33 5.36 14.66 4 15 C-0.11888494 9.98010898 -0.51211281 6.40141012 0 0 Z " fill="#224725" transform="translate(163,533)"/>
<path d="M0 0 C0.33 0.99 0.66 1.98 1 3 C1.928125 2.7215625 1.928125 2.7215625 2.875 2.4375 C5 2 5 2 7 3 C7.21192221 8.19209404 6.5912689 12.126739 5 17 C4.896875 16.4225 4.79375 15.845 4.6875 15.25 C3.90207202 12.67950842 2.69495803 11.06342716 1 9 C0.01 11.64 -0.98 14.28 -2 17 C-3.10318677 12.58725292 -2.64855836 10.59423342 -1.5625 6.25 C-1.27503906 5.07953125 -0.98757812 3.9090625 -0.69140625 2.703125 C-0.46324219 1.81109375 -0.23507813 0.9190625 0 0 Z " fill="#567252" transform="translate(168,446)"/>
<path d="M0 0 C2 2 2 2 2 6 C2.66 6 3.32 6 4 6 C4.02902996 10.24998566 4.04680887 14.49994581 4.0625 18.75 C4.07087891 19.9565625 4.07925781 21.163125 4.08789062 22.40625 C4.09111328 23.56640625 4.09433594 24.7265625 4.09765625 25.921875 C4.10289307 26.99018555 4.10812988 28.05849609 4.11352539 29.15917969 C4.01503008 31.62389235 3.71565464 33.65245467 3 36 C2.34 36 1.68 36 1 36 C0.67 36.99 0.34 37.98 0 39 C0.16242188 37.75476563 0.32484375 36.50953125 0.4921875 35.2265625 C1.11496755 29.60393693 1.1470771 24.02673727 1.125 18.375 C1.12886719 17.37726562 1.13273438 16.37953125 1.13671875 15.3515625 C1.12980644 10.12585546 0.90851884 5.14827342 0 0 Z " fill="#526B49" transform="translate(183,567)"/>
<path d="M0 0 C1.98 0 3.96 0 6 0 C4.55746343 3.36591866 2.66735273 5.51047079 0 8 C-0.99 7.67 -1.98 7.34 -3 7 C-4.65 8.65 -6.3 10.3 -8 12 C-8 5 -8 5 -6 2 C-3.9375 1.1875 -3.9375 1.1875 -2 1 C-1.67 1.33 -1.34 1.66 -1 2 C-0.67 1.34 -0.34 0.68 0 0 Z " fill="#EFAE1B" transform="translate(256,346)"/>
<path d="M0 0 C0.33 0 0.66 0 1 0 C1 12.54 1 25.08 1 38 C1.66 38 2.32 38 3 38 C3.66 39.32 4.32 40.64 5 42 C4.01 42.495 4.01 42.495 3 43 C1.86649466 45.01669827 1.86649466 45.01669827 1 47 C-0.72524851 31.27087264 -2.12350137 15.77458159 0 0 Z " fill="#EB9C13" transform="translate(27,182)"/>
<path d="M0 0 C1.01938156 0.00212242 1.01938156 0.00212242 2.05935669 0.00428772 C4.20888862 0.00984107 6.35831258 0.02238456 8.5078125 0.03515625 C9.97395682 0.04017729 11.44010279 0.04473914 12.90625 0.04882812 C16.48180533 0.05979514 20.05729836 0.07702706 23.6328125 0.09765625 C23.6328125 0.42765625 23.6328125 0.75765625 23.6328125 1.09765625 C22.55797607 1.17282471 22.55797607 1.17282471 21.46142578 1.24951172 C18.22612865 1.48109199 14.99204658 1.72669293 11.7578125 1.97265625 C10.06591797 2.09060547 10.06591797 2.09060547 8.33984375 2.2109375 C7.26347656 2.29472656 6.18710938 2.37851562 5.078125 2.46484375 C3.58563232 2.57481689 3.58563232 2.57481689 2.06298828 2.68701172 C-0.54154371 2.88574046 -0.54154371 2.88574046 -2.3671875 5.09765625 C-3.3571875 5.09765625 -4.3471875 5.09765625 -5.3671875 5.09765625 C-5.3671875 4.10765625 -5.3671875 3.11765625 -5.3671875 2.09765625 C-7.0171875 2.09765625 -8.6671875 2.09765625 -10.3671875 2.09765625 C-10.6971875 2.75765625 -11.0271875 3.41765625 -11.3671875 4.09765625 C-14.3371875 3.60265625 -14.3371875 3.60265625 -17.3671875 3.09765625 C-11.90649775 -0.05274168 -6.17195684 -0.02550395 0 0 Z " fill="#ECA010" transform="translate(161.3671875,39.90234375)"/>
<path d="M0 0 C3.96087782 1.67279791 7.02194491 4.35374073 10.25 7.125 C10.82194092 7.61202393 11.39388184 8.09904785 11.9831543 8.60083008 C16.54247425 12.5212153 20.86092692 16.63584138 25 21 C24.67 21.66 24.34 22.32 24 23 C23.45730469 22.4225 22.91460937 21.845 22.35546875 21.25 C21.64003906 20.5075 20.92460937 19.765 20.1875 19 C19.47980469 18.2575 18.77210938 17.515 18.04296875 16.75 C16.06860631 14.67472392 16.06860631 14.67472392 13 15 C10.06047445 12.41041797 8.24877829 10.74633486 7 7 C6.38125 6.71125 5.7625 6.4225 5.125 6.125 C2.32079102 4.64041877 1.45276712 2.76025753 0 0 Z " fill="#EDB04C" transform="translate(253,66)"/>
<path d="M0 0 C0.33 0 0.66 0 1 0 C1.33 1.98 1.66 3.96 2 6 C1.34 6 0.68 6 0 6 C0 11.28 0 16.56 0 22 C0.33 20.68 0.66 19.36 1 18 C1.33 17.01 1.66 16.02 2 15 C3.2866645 17.573329 3.16824551 19.50223038 3.1875 22.375 C3.20167969 23.33148438 3.21585938 24.28796875 3.23046875 25.2734375 C2.99458685 28.06404033 2.32454023 29.57946765 1 32 C0.83249586 34.66709069 0.83249586 34.66709069 1 37 C-2.2672093 31.33683721 -2.19321301 25.13643049 -2.1875 18.75 C-2.18814453 18.00435791 -2.18878906 17.25871582 -2.18945312 16.49047852 C-2.13536807 10.82076709 -1.50892388 5.48332161 0 0 Z " fill="#85977D" transform="translate(156,487)"/>
<path d="M0 0 C4.3177458 0.50797009 8.03302114 1.19682779 12 3 C12 3.66 12 4.32 12 5 C11.01 5 10.02 5 9 5 C9.01160156 5.6290625 9.02320313 6.258125 9.03515625 6.90625 C9.09286873 12.38069088 8.80228473 17.58457806 8 23 C7.67 23 7.34 23 7 23 C6.67 16.4 6.34 9.8 6 3 C4.68 3 3.36 3 2 3 C1.67 8.28 1.34 13.56 1 19 C0.67 19 0.34 19 0 19 C0 14.38 0 9.76 0 5 C-0.66 4.67 -1.32 4.34 -2 4 C-1.34 2.68 -0.68 1.36 0 0 Z " fill="#D6C28A" transform="translate(168,427)"/>
<path d="M0 0 C0.99 0 1.98 0 3 0 C1.36047417 4.6393176 -1.06871052 8.63855858 -3.625 12.8125 C-4.04523438 13.50537109 -4.46546875 14.19824219 -4.8984375 14.91210938 C-5.9289467 16.61010748 -6.96401681 18.30533614 -8 20 C-8.66 19.34 -9.32 18.68 -10 18 C-9.57044137 15.12014216 -8.47704949 12.46186823 -7.4375 9.75 C-7.16808594 9.04359375 -6.89867187 8.3371875 -6.62109375 7.609375 C-6.41613281 7.07828125 -6.21117187 6.5471875 -6 6 C-4.68 6 -3.36 6 -2 6 C-2 5.01 -2 4.02 -2 3 C-1.34 3 -0.68 3 0 3 C0 2.01 0 1.02 0 0 Z " fill="#EEB450" transform="translate(289,303)"/>
<path d="M0 0 C1.68373405 3.3674681 2.68218415 6.15015766 3.625 9.75 C3.88539063 10.73484375 4.14578125 11.7196875 4.4140625 12.734375 C4.60742188 13.48203125 4.80078125 14.2296875 5 15 C3.35 14.67 1.7 14.34 0 14 C0.20625 14.78375 0.4125 15.5675 0.625 16.375 C0.74875 17.24125 0.8725 18.1075 1 19 C0.34 19.66 -0.32 20.32 -1 21 C-1.69937202 19.5682384 -2.38412718 18.12932968 -3.0625 16.6875 C-3.44535156 15.88699219 -3.82820312 15.08648438 -4.22265625 14.26171875 C-5 12 -5 12 -4 9 C-3.34 9 -2.68 9 -2 9 C-2 9.66 -2 10.32 -2 11 C-1.34 10.67 -0.68 10.34 0 10 C0 6.7 0 3.4 0 0 Z " fill="#6D8365" transform="translate(163,519)"/>
<path d="M0 0 C1 2 2 4 3 6 C3.66 5.67 4.32 5.34 5 5 C4.67 7.31 4.34 9.62 4 12 C3.34 12 2.68 12 2 12 C2 13.98 2 15.96 2 18 C-0.475 17.01 -0.475 17.01 -3 16 C-2.30834212 10.58201328 -1.24200752 5.3177215 0 0 Z " fill="#153B1B" transform="translate(168,451)"/>
<path d="M0 0 C1.93719378 -0.05406122 3.87481921 -0.09282025 5.8125 -0.125 C6.89144531 -0.14820313 7.97039062 -0.17140625 9.08203125 -0.1953125 C12 0 12 0 15 2 C14.67 2.99 14.34 3.98 14 5 C8.72 4.67 3.44 4.34 -2 4 C-1.34 2.68 -0.68 1.36 0 0 Z " fill="#5F321C" transform="translate(167,399)"/>
<path d="M0 0 C0.33 0 0.66 0 1 0 C1 1.65 1 3.3 1 5 C1.66 5 2.32 5 3 5 C3 6.65 3 8.3 3 10 C3.66 10.33 4.32 10.66 5 11 C4.649375 12.0725 4.29875 13.145 3.9375 14.25 C3.02738562 17.89045753 2.96053317 18.67370616 4 22 C4.03888349 24.33300933 4.0448635 26.66709801 4 29 C1.43860984 25.15791476 0.79014843 21.52721214 -0.1875 17.0625 C-0.37763672 16.25103516 -0.56777344 15.43957031 -0.76367188 14.60351562 C-0.93833984 13.81783203 -1.11300781 13.03214844 -1.29296875 12.22265625 C-1.4530542 11.50859619 -1.61313965 10.79453613 -1.77807617 10.05883789 C-2.02304943 7.78616515 -1.67946622 6.16764662 -1 4 C-0.34 6.31 0.32 8.62 1 11 C0.67 7.37 0.34 3.74 0 0 Z " fill="#EFC46D" transform="translate(30,230)"/>
<path d="M0 0 C0.99 0.33 1.98 0.66 3 1 C3.33 1.99 3.66 2.98 4 4 C-1.75 6 -1.75 6 -4 6 C-6.52123468 7.02342801 -9.00467159 8.11998129 -11.4921875 9.22265625 C-14.25089192 10.07776868 -15.30871768 9.80096839 -18 9 C-12 6 -6 3 0 0 Z " fill="#ECB96B" transform="translate(120,48)"/>
<path d="M0 0 C1.98 0.66 3.96 1.32 6 2 C6 2.66 6 3.32 6 4 C6.99 4.33 7.98 4.66 9 5 C2.98660063 6.95928381 -2.69632197 8.41632611 -9 9 C-9 8.01 -9 7.02 -9 6 C-7.02 6 -5.04 6 -3 6 C-3 5.34 -3 4.68 -3 4 C-2.34 3.34 -1.68 2.68 -1 2 C-0.67 1.34 -0.34 0.68 0 0 Z " fill="#EBAE46" transform="translate(188,391)"/>
<path d="M0 0 C0.66 0 1.32 0 2 0 C2.66 2.31 3.32 4.62 4 7 C5.65 7 7.3 7 9 7 C9.66 8.98 10.32 10.96 11 13 C7.10993227 11.61219205 4.03441292 9.7847773 0.6875 7.375 C-0.19550781 6.74335938 -1.07851562 6.11171875 -1.98828125 5.4609375 C-2.65214844 4.97882813 -3.31601563 4.49671875 -4 4 C-2.68 3.34 -1.36 2.68 0 2 C0 1.34 0 0.68 0 0 Z " fill="#EEB248" transform="translate(116,372)"/>
<path d="M0 0 C0.99 0 1.98 0 3 0 C2.4253379 4.78642607 1.01754357 8.53788787 -1.0625 12.875 C-1.61035156 14.02742188 -2.15820312 15.17984375 -2.72265625 16.3671875 C-3.14417969 17.23601562 -3.56570313 18.10484375 -4 19 C-4.33 19 -4.66 19 -5 19 C-5.33 16.69 -5.66 14.38 -6 12 C-5.34 12 -4.68 12 -4 12 C-3.86722656 11.42765625 -3.73445313 10.8553125 -3.59765625 10.265625 C-3.00619683 8.02349125 -2.26711146 5.91420381 -1.4375 3.75 C-1.16808594 3.04359375 -0.89867187 2.3371875 -0.62109375 1.609375 C-0.41613281 1.07828125 -0.21117187 0.5471875 0 0 Z " fill="#EEB04A" transform="translate(303,272)"/>
<path d="M0 0 C1.88372214 3.17596839 2.20001885 5.31969081 1.9765625 8.984375 C1.925 9.91894531 1.8734375 10.85351562 1.8203125 11.81640625 C1.75585938 12.78449219 1.69140625 13.75257813 1.625 14.75 C1.56828125 15.73355469 1.5115625 16.71710937 1.453125 17.73046875 C1.31192448 20.154411 1.16054205 22.57727459 1 25 C0.67 25 0.34 25 0 25 C0 20.05 0 15.1 0 10 C-0.99 10 -1.98 10 -3 10 C-3.125 4.25 -3.125 4.25 -2 2 C-1.34 2 -0.68 2 0 2 C0 1.34 0 0.68 0 0 Z " fill="#0C3D1F" transform="translate(183,570)"/>
<path d="M0 0 C0.66 0.33 1.32 0.66 2 1 C2.66 1 3.32 1 4 1 C4.28875 1.639375 4.5775 2.27875 4.875 2.9375 C5.82823451 5.15206079 5.82823451 5.15206079 8 6 C8 4.68 8 3.36 8 2 C9.65 1.67 11.3 1.34 13 1 C13.33 1.99 13.66 2.98 14 4 C12.375 6 12.375 6 10 8 C6.75 8.25 6.75 8.25 4 8 C3.67 7.34 3.34 6.68 3 6 C3.33 5.34 3.66 4.68 4 4 C3.01 4 2.02 4 1 4 C1 4.66 1 5.32 1 6 C0.01 5.67 -0.98 5.34 -2 5 C-1.34 5 -0.68 5 0 5 C0 3.35 0 1.7 0 0 Z " fill="#F0AE0A" transform="translate(155,423)"/>
<path d="M0 0 C4.55315948 0.61811534 8.28459767 2.46765893 12.3125 4.5625 C13.28026367 5.0565332 13.28026367 5.0565332 14.26757812 5.56054688 C15.84785228 6.36824255 17.42432105 7.18337613 19 8 C15.25 9.125 15.25 9.125 13 8 C13 7.34 13 6.68 13 6 C10.36 6.66 7.72 7.32 5 8 C5 7.34 5 6.68 5 6 C4.01 5.67 3.02 5.34 2 5 C2 3.68 2 2.36 2 1 C1.34 0.67 0.68 0.34 0 0 Z " fill="#EDB23D" transform="translate(220,48)"/>
<path d="M0 0 C1.625 1.625 1.625 1.625 3 4 C1.76923077 9.23076923 1.76923077 9.23076923 0 11 C-1.66617115 11.04063832 -3.33388095 11.042721 -5 11 C-4.75 7.625 -4.75 7.625 -4 4 C-1.9375 2.5625 -1.9375 2.5625 0 2 C0 1.34 0 0.68 0 0 Z " fill="#425D3C" transform="translate(179,609)"/>
<path d="M0 0 C2 3 2 3 2 6 C3.32 5.67 4.64 5.34 6 5 C5.67 6.98 5.34 8.96 5 11 C3.35 10.01 1.7 9.02 0 8 C-0.33 8.99 -0.66 9.98 -1 11 C-1.33 11.33 -1.66 11.66 -2 12 C-1.67 12.66 -1.34 13.32 -1 14 C-1.99 14.99 -2.98 15.98 -4 17 C-5.6852084 12.92320841 -4.16939007 10.16924407 -2.5625 6.25 C-2.08941406 5.07953125 -1.61632812 3.9090625 -1.12890625 2.703125 C-0.75636719 1.81109375 -0.38382813 0.9190625 0 0 Z " fill="#839170" transform="translate(162,470)"/>
<path d="M0 0 C0.66 0.33 1.32 0.66 2 1 C0.76210371 4.71368887 -0.85224877 5.77354181 -4 8 C-4.66 8 -5.32 8 -6 8 C-5.34 9.65 -4.68 11.3 -4 13 C-4.99 13 -5.98 13 -7 13 C-7.66 12.01 -8.32 11.02 -9 10 C-10.98 10.99 -10.98 10.99 -13 12 C-9.48451346 6.95604105 -4.88263123 3.62024153 0 0 Z " fill="#EEB85D" transform="translate(91,64)"/>
<path d="M0 0 C0.33 1.32 0.66 2.64 1 4 C0.34 4 -0.32 4 -1 4 C0.98 6.97 0.98 6.97 3 10 C1.35 10 -0.3 10 -2 10 C-2.66 11.65 -3.32 13.3 -4 15 C-4.99 15 -5.98 15 -7 15 C-5.45454854 9.52067211 -2.84456788 4.88570819 0 0 Z " fill="#EEBC60" transform="translate(161,406)"/>
<path d="M0 0 C1.32 0.33 2.64 0.66 4 1 C4 1.66 4 2.32 4 3 C2.23244474 3.84026396 0.46082737 4.67198722 -1.3125 5.5 C-2.79169922 6.19609375 -2.79169922 6.19609375 -4.30078125 6.90625 C-7 8 -7 8 -10 8 C-9.625 5.5625 -9.625 5.5625 -9 3 C-6.29120665 1.64560332 -3.99066732 1.93498549 -1 2 C-0.67 1.34 -0.34 0.68 0 0 Z " fill="#EDB441" transform="translate(207,387)"/>
<path d="M0 0 C0.93423645 3.01031744 1.04449911 3.86650268 0 7 C0.66 7 1.32 7 2 7 C2.66 8.65 3.32 10.3 4 12 C2.35 12.33 0.7 12.66 -1 13 C-1.33 11.68 -1.66 10.36 -2 9 C-2.99 10.485 -2.99 10.485 -4 12 C-4.66 12 -5.32 12 -6 12 C-4.68139111 7.38486888 -2.78644563 3.90102388 0 0 Z " fill="#EEB347" transform="translate(52,106)"/>
<path d="M0 0 C2.64 0.33 5.28 0.66 8 1 C8 1.99 8 2.98 8 4 C8.33 4.33 8.66 4.66 9 5 C8.67 5.66 8.34 6.32 8 7 C7.34 6.67 6.68 6.34 6 6 C6 7.32 6 8.64 6 10 C5.01 9.67 4.02 9.34 3 9 C2.05078125 6.93359375 2.05078125 6.93359375 1.3125 4.4375 C1.06113281 3.61121094 0.80976562 2.78492188 0.55078125 1.93359375 C0.36902344 1.29550781 0.18726563 0.65742188 0 0 Z " fill="#EEB342" transform="translate(44,287)"/>
<path d="M0 0 C0.33 0 0.66 0 1 0 C1.10957031 0.68707031 1.21914063 1.37414062 1.33203125 2.08203125 C1.49058594 2.98308594 1.64914063 3.88414062 1.8125 4.8125 C1.96332031 5.70582031 2.11414062 6.59914062 2.26953125 7.51953125 C3.44341159 11.50570245 5.60290778 12.73527185 9 15 C10.65549531 15.38499891 12.3222433 15.72793135 14 16 C14 16.99 14 17.98 14 19 C10.98968256 19.93423645 10.13349732 20.04449911 7 19 C6.33333333 17.66666667 5.66666667 16.33333333 5 15 C4.13375 14.29875 3.2675 13.5975 2.375 12.875 C-1.03536303 8.7466658 -0.45046244 5.15529239 0 0 Z " fill="#F0AF2B" transform="translate(54,152)"/>
<path d="M0 0 C0.33 1.32 0.66 2.64 1 4 C-0.36328125 6.140625 -0.36328125 6.140625 -2.3125 8.25 C-2.94800781 8.95640625 -3.58351563 9.6628125 -4.23828125 10.390625 C-6 12 -6 12 -8 12 C-8.33 12.99 -8.66 13.98 -9 15 C-9.66 13.68 -10.32 12.36 -11 11 C-7.37 7.37 -3.74 3.74 0 0 Z " fill="#EDB253" transform="translate(77,76)"/>
<path d="M0 0 C1.98 0.99 1.98 0.99 4 2 C3.01 2 2.02 2 1 2 C0.67 1.34 0.34 0.68 0 0 Z M1 3 C1.66 3.66 2.32 4.32 3 5 C2.34 5.433125 1.68 5.86625 1 6.3125 C0.34 6.869375 -0.32 7.42625 -1 8 C-1 8.99 -1 9.98 -1 11 C-5.75 10.25 -5.75 10.25 -8 8 C-7.34 8 -6.68 8 -6 8 C-5.67 6.68 -5.34 5.36 -5 4 C-2.125 3.375 -2.125 3.375 1 3 Z " fill="#EFB333" transform="translate(148,384)"/>
<path d="M0 0 C2.63520741 2.40502363 4.40302943 5.0185849 6.25 8.0625 C6.79140625 8.94035156 7.3328125 9.81820312 7.890625 10.72265625 C8.25671875 11.47417969 8.6228125 12.22570312 9 13 C8.67 13.66 8.34 14.32 8 15 C5 14 5 14 3 12 C2.22227595 9.66682784 1.57584432 7.38564077 1 5 C0.34 5 -0.32 5 -1 5 C-0.67 3.35 -0.34 1.7 0 0 Z " fill="#EDB958" transform="translate(291,106)"/>
<path d="M0 0 C0.33 0.66 0.66 1.32 1 2 C3.62506802 2.02690844 6.24986173 2.04679404 8.875 2.0625 C9.62136719 2.07087891 10.36773437 2.07925781 11.13671875 2.08789062 C15.19845578 2.20688084 15.19845578 2.20688084 19 1 C19.66 2.98 20.32 4.96 21 7 C19.68 6.67 18.36 6.34 17 6 C17 5.34 17 4.68 17 4 C14.58325776 3.97294692 12.1668206 3.95313562 9.75 3.9375 C9.06808594 3.92912109 8.38617188 3.92074219 7.68359375 3.91210938 C4.30657446 3.89571608 1.22708361 3.94371232 -2 5 C-1.34 3.35 -0.68 1.7 0 0 Z " fill="#E8B762" transform="translate(164,401)"/>
<path d="M0 0 C3.93673644 1.31224548 6.22719294 2.91910327 9 6 C6.36 5.67 3.72 5.34 1 5 C1 5.33 1 5.66 1 6 C-0.98 6 -2.96 6 -5 6 C-5 5.01 -5 4.02 -5 3 C-3.68 3 -2.36 3 -1 3 C-0.67 2.01 -0.34 1.02 0 0 Z " fill="#EEB341" transform="translate(241,58)"/>
<path d="M0 0 C2.97 0.495 2.97 0.495 6 1 C6.33 1.99 6.66 2.98 7 4 C5.0625 7.1875 5.0625 7.1875 3 10 C2.67 9.34 2.34 8.68 2 8 C1.34 8 0.68 8 0 8 C0 5.36 0 2.72 0 0 Z " fill="#EFB01E" transform="translate(272,321)"/>
<path d="M0 0 C0.33 0 0.66 0 1 0 C1.70466321 5.10880829 1.70466321 5.10880829 1 8 C-1.37660588 10.49126669 -4.04280654 12.25736814 -7 14 C-6.35550393 10.98782888 -5.34977818 8.48344164 -3.9375 5.75 C-3.57527344 5.04359375 -3.21304688 4.3371875 -2.83984375 3.609375 C-2.56269531 3.07828125 -2.28554687 2.5471875 -2 2 C-1.34 2 -0.68 2 0 2 C0 1.34 0 0.68 0 0 Z " fill="#F1B022" transform="translate(81,152)"/>
<path d="M0 0 C3.3 0.66 6.6 1.32 10 2 C4.830606 5.8770455 2.49386689 7.29517577 -4 7 C-4 6.34 -4 5.68 -4 5 C-2.35 4.34 -0.7 3.68 1 3 C0.67 2.01 0.34 1.02 0 0 Z " fill="#EFAE25" transform="translate(231,55)"/>
<path d="M0 0 C1.8874394 3.27156162 2.60106002 6.24996419 3 10 C2.67 10.99 2.34 11.98 2 13 C0.68 12.67 -0.64 12.34 -2 12 C-2.17835515 7.45194365 -1.99785435 4.1205746 0 0 Z " fill="#EDA513" transform="translate(37,136)"/>
<path d="M0 0 C3.29967665 2.80472516 5.08459104 6.16918209 7 10 C6.67 10.99 6.34 11.98 6 13 C5.67 12.34 5.34 11.68 5 11 C4.01 11 3.02 11 2 11 C0.19769832 7.17010894 -0.19622241 4.21878192 0 0 Z " fill="#5E7759" transform="translate(169,537)"/>
<path d="M0 0 C1.125 1.5625 1.125 1.5625 2 4 C1.3125 7.6875 1.3125 7.6875 0 11 C-0.99 11.33 -1.98 11.66 -3 12 C-4.3125 9.375 -4.3125 9.375 -5 6 C-3.62336186 3.56483135 -2.00561708 2.00561708 0 0 Z " fill="#EEB543" transform="translate(62,92)"/>
<path d="M0 0 C0.66 0.33 1.32 0.66 2 1 C2.33 1.99 2.66 2.98 3 4 C3.99 4 4.98 4 6 4 C5.67 4.66 5.34 5.32 5 6 C1.04 6 -2.92 6 -7 6 C-3 2 -3 2 0 0 Z " fill="#EEB650" transform="translate(100,58)"/>
<path d="M0 0 C1 3 1 3 1 6 C-2.74406455 8.49604304 -5.54151685 9 -10 9 C-6.7 6.03 -3.4 3.06 0 0 Z " fill="#EDA418" transform="translate(120,99)"/>
<path d="M0 0 C3.39417765 3.12621626 5.6062718 5.56541027 7 10 C6.01 10.33 5.02 10.66 4 11 C1.25 9.5 1.25 9.5 -1 7 C-0.8125 3.25 -0.8125 3.25 0 0 Z " fill="#EEB956" transform="translate(284,96)"/>
<path d="M0 0 C0.66 0.66 1.32 1.32 2 2 C2.66 1.34 3.32 0.68 4 0 C4.66 0 5.32 0 6 0 C6.125 6.75 6.125 6.75 5 9 C4.34 9 3.68 9 3 9 C2.34 9.66 1.68 10.32 1 11 C0.67 7.37 0.34 3.74 0 0 Z " fill="#0A341A" transform="translate(156,513)"/>
<path d="M0 0 C0.33 0.99 0.66 1.98 1 3 C1.66 3.33 2.32 3.66 3 4 C3.59355614 6.64860427 3.74209269 9.29197322 4 12 C3.01 11.01 2.02 10.02 1 9 C0.01 11.64 -0.98 14.28 -2 17 C-3.10318677 12.58725292 -2.64855836 10.59423342 -1.5625 6.25 C-1.27503906 5.07953125 -0.98757812 3.9090625 -0.69140625 2.703125 C-0.46324219 1.81109375 -0.23507813 0.9190625 0 0 Z " fill="#87946F" transform="translate(168,446)"/>
<path d="M0 0 C0.66 0.99 1.32 1.98 2 3 C1.34 4.32 0.68 5.64 0 7 C0.66 7.33 1.32 7.66 2 8 C-0.19909405 10.19909405 -2.56070254 12.07423885 -5 14 C-4.34580901 8.93001981 -2.1453591 4.58009223 0 0 Z " fill="#ECB85C" transform="translate(43,122)"/>
<path d="M0 0 C0.99 0.66 1.98 1.32 3 2 C2.175 2.763125 1.35 3.52625 0.5 4.3125 C-2.34055197 6.75434142 -2.34055197 6.75434142 -2 10 C-2.99 10.495 -2.99 10.495 -4 11 C-5.4606285 8.35261084 -6 7.10551666 -6 4 C-3.5625 2.375 -3.5625 2.375 -1 1 C-0.67 0.67 -0.34 0.34 0 0 Z " fill="#F0AF22" transform="translate(103,116)"/>
<path d="M0 0 C0.763125 0.20625 1.52625 0.4125 2.3125 0.625 C-1.30078125 5.3125 -1.30078125 5.3125 -2.6875 6.625 C-3.6775 6.625 -4.6675 6.625 -5.6875 6.625 C-5.875 4.25 -5.875 4.25 -5.6875 1.625 C-2.6875 -0.375 -2.6875 -0.375 0 0 Z " fill="#EFAC28" transform="translate(87.6875,96.375)"/>
<path d="M0 0 C2.69378789 2.69378789 3.13672837 5.22574981 4.1875 8.875 C4.55230469 10.10992187 4.91710937 11.34484375 5.29296875 12.6171875 C5.93501035 15.68905505 6.12677877 17.14357992 5 20 C4.67 17.69 4.34 15.38 4 13 C3.34 13 2.68 13 2 13 C1.66307215 11.39658445 1.33058907 9.79223445 1 8.1875 C0.814375 7.29417969 0.62875 6.40085938 0.4375 5.48046875 C0 3 0 3 0 0 Z " fill="#EECA94" transform="translate(309,143)"/>
<path d="M0 0 C0.33 0.66 0.66 1.32 1 2 C0.67 2.66 0.34 3.32 0 4 C-0.66 4 -1.32 4 -2 4 C-1.690625 5.175625 -1.690625 5.175625 -1.375 6.375 C-1.25125 7.24125 -1.1275 8.1075 -1 9 C-1.66 9.66 -2.32 10.32 -3 11 C-3.99 11 -4.98 11 -6 11 C-5.62671065 5.64951939 -4.0042343 3.49087093 0 0 Z " fill="#EFA723" transform="translate(95,125)"/>
<path d="M0 0 C1.11375 0.4640625 1.11375 0.4640625 2.25 0.9375 C4.50692176 1.8094925 6.6450153 2.47667007 9 3 C9 3.66 9 4.32 9 5 C9.66 5 10.32 5 11 5 C11.33 5.99 11.66 6.98 12 8 C11.01 8.495 11.01 8.495 10 9 C8.33043913 7.69118353 6.66441696 6.37785174 5 5.0625 C4.071875 4.33160156 3.14375 3.60070312 2.1875 2.84765625 C1.465625 2.23792969 0.74375 1.62820313 0 1 C0 0.67 0 0.34 0 0 Z " fill="#EDBB6F" transform="translate(101,366)"/>
<path d="M0 0 C0.33 0 0.66 0 1 0 C1.33 2.64 1.66 5.28 2 8 C1.34 8 0.68 8 0 8 C-0.33 13.61 -0.66 19.22 -1 25 C-1.33 25 -1.66 25 -2 25 C-2.24911914 16.41922945 -1.69882188 8.41826913 0 0 Z " fill="#EFD2A5" transform="translate(28,167)"/>
<path d="M0 0 C0 0.33 0 0.66 0 1 C-3.3 1.33 -6.6 1.66 -10 2 C-10 2.66 -10 3.32 -10 4 C-8.68 4 -7.36 4 -6 4 C-6 4.66 -6 5.32 -6 6 C-8.64 6 -11.28 6 -14 6 C-14.33 4.68 -14.66 3.36 -15 2 C-9.77487721 0.53329887 -5.4185766 -0.22577402 0 0 Z " fill="#EFC372" transform="translate(154,40)"/>
<path d="M0 0 C0.99 0.33 1.98 0.66 3 1 C4.1875 3.5625 4.1875 3.5625 5 6 C2.69 6.33 0.38 6.66 -2 7 C-2 5.35 -2 3.7 -2 2 C-1.34 2 -0.68 2 0 2 C0 1.34 0 0.68 0 0 Z " fill="#EDB43D" transform="translate(190,419)"/>
<path d="M0 0 C2.375 0.125 2.375 0.125 5 1 C6.8125 3.5625 6.8125 3.5625 8 6 C7.34 6.66 6.68 7.32 6 8 C4.5 6.625 4.5 6.625 3 5 C3 4.34 3 3.68 3 3 C1.68 2.34 0.36 1.68 -1 1 C-0.67 0.67 -0.34 0.34 0 0 Z " fill="#EEB145" transform="translate(276,90)"/>
<path d="M0 0 C1.5 1.3125 1.5 1.3125 3 3 C3 3.99 3 4.98 3 6 C3.99 6.33 4.98 6.66 6 7 C6.33 8.65 6.66 10.3 7 12 C5.33333333 10.33333333 3.66666667 8.66666667 2 7 C1.38125 6.484375 0.7625 5.96875 0.125 5.4375 C-0.24625 4.963125 -0.6175 4.48875 -1 4 C-0.6875 1.8125 -0.6875 1.8125 0 0 Z " fill="#ECB568" transform="translate(73,332)"/>
<path d="M0 0 C1.125 1.6875 1.125 1.6875 2 4 C1.125 6.75 1.125 6.75 0 9 C-0.99 8.67 -1.98 8.34 -3 8 C-2.74438677 5.6568787 -2.40729228 3.32156597 -2 1 C-1.34 0.67 -0.68 0.34 0 0 Z " fill="#F0AB20" transform="translate(85,143)"/>
<path d="M0 0 C6.5508985 0.45759953 12.6753842 1.2100144 19 3 C16.39850359 4.70097842 15.15226623 5.01268885 12 4.75 C9.34362725 4.08590681 7.40647479 3.2420515 5 2 C3.34259285 1.62331656 1.67654729 1.27942455 0 1 C0 0.67 0 0.34 0 0 Z " fill="#EDCA94" transform="translate(189,40)"/>
<path d="M0 0 C1.32 0 2.64 0 4 0 C3.67 3.3 3.34 6.6 3 10 C2.34 8.68 1.68 7.36 1 6 C0.34 6.66 -0.32 7.32 -1 8 C-0.67 5.36 -0.34 2.72 0 0 Z " fill="#2E4D23" transform="translate(158,488)"/>
<path d="M0 0 C0.33 0 0.66 0 1 0 C1 5.94 1 11.88 1 18 C0.67 18 0.34 18 0 18 C0 15.03 0 12.06 0 9 C-0.99 8.67 -1.98 8.34 -3 8 C-2.67 7.01 -2.34 6.02 -2 5 C-1.34 5 -0.68 5 0 5 C0 3.35 0 1.7 0 0 Z " fill="#05351A" transform="translate(174,431)"/>
<path d="M0 0 C0.33 0.66 0.66 1.32 1 2 C4.3 2 7.6 2 11 2 C9 4 9 4 6.3984375 4.1953125 C5.40070313 4.17210937 4.40296875 4.14890625 3.375 4.125 C1.87066406 4.09792969 1.87066406 4.09792969 0.3359375 4.0703125 C-0.43492187 4.04710937 -1.20578125 4.02390625 -2 4 C-1.34 2.68 -0.68 1.36 0 0 Z " fill="#F1AE23" transform="translate(158,390)"/>
<path d="M0 0 C1.98 0.66 3.96 1.32 6 2 C6 2.66 6 3.32 6 4 C6.99 4.33 7.98 4.66 9 5 C2.71428571 7.42857143 2.71428571 7.42857143 -1 6 C-0.01 5.67 0.98 5.34 2 5 C1.01 4.01 0.02 3.02 -1 2 C-0.67 1.34 -0.34 0.68 0 0 Z " fill="#F0C05F" transform="translate(188,391)"/>
<path d="M0 0 C0.12375 0.639375 0.2475 1.27875 0.375 1.9375 C0.684375 2.9584375 0.684375 2.9584375 1 4 C1.66 4.33 2.32 4.66 3 5 C2.34 6.32 1.68 7.64 1 9 C-1 8 -1 8 -2 5 C-2.65129797 3.65909241 -3.31513275 2.32407669 -4 1 C-2 0 -2 0 0 0 Z " fill="#EDA60A" transform="translate(60,307)"/>
<path d="M0 0 C0.33 0 0.66 0 1 0 C0.67 3.96 0.34 7.92 0 12 C-2.71843438 8.37542083 -3.41789544 7.19115285 -4 3 C-3.34 3 -2.68 3 -2 3 C-1.67 2.34 -1.34 1.68 -1 1 C-0.67 0.67 -0.34 0.34 0 0 Z " fill="#EFC26B" transform="translate(315,232)"/>
<path d="M0 0 C0.99 0.33 1.98 0.66 3 1 C3.66 0.67 4.32 0.34 5 0 C7.1519437 3.22791555 7.20086443 4.28400809 7 8 C5.8274869 7.04882866 4.66212985 6.08882991 3.5 5.125 C2.8503125 4.59132813 2.200625 4.05765625 1.53125 3.5078125 C1.0259375 3.01023437 0.520625 2.51265625 0 2 C0 1.34 0 0.68 0 0 Z " fill="#EEBC6A" transform="translate(81,345)"/>
<path d="M0 0 C3.80635497 3.20760251 7.54563567 6.40746109 11 10 C10.67 10.66 10.34 11.32 10 12 C9.45730469 11.4225 8.91460937 10.845 8.35546875 10.25 C7.64003906 9.5075 6.92460937 8.765 6.1875 8 C5.47980469 7.2575 4.77210938 6.515 4.04296875 5.75 C2.06860631 3.67472392 2.06860631 3.67472392 -1 4 C-0.67 2.68 -0.34 1.36 0 0 Z " fill="#EDCD98" transform="translate(267,77)"/>
<path d="M0 0 C0.33 0.66 0.66 1.32 1 2 C1.99 2.33 2.98 2.66 4 3 C3.67 4.98 3.34 6.96 3 9 C1.68 8.67 0.36 8.34 -1 8 C-1.93065133 5.39417629 -2.14917407 4.35801776 -1.0625 1.75 C-0.711875 1.1725 -0.36125 0.595 0 0 Z " fill="#18411E" transform="translate(178,557)"/>
<path d="M0 0 C0.66 1.98 1.32 3.96 2 6 C-1.37503669 4.8141763 -3.64722731 3.72426311 -6 1 C-4 0 -4 0 0 0 Z " fill="#ECB659" transform="translate(125,379)"/>
<path d="M0 0 C-1 2 -1 2 -3.375 3.1875 C-6 4 -6 4 -9 3 C-9 2.01 -9 1.02 -9 0 C-5.93109813 -1.53445094 -3.29905734 -0.54984289 0 0 Z " fill="#F0AD1F" transform="translate(223,372)"/>
<path d="M0 0 C2 3 2 3 2 5 C2.99 5.33 3.98 5.66 5 6 C5.33 8.31 5.66 10.62 6 13 C3.0698415 10.36285735 0.9529579 7.41767633 -1 4 C-0.75 1.625 -0.75 1.625 0 0 Z " fill="#EDC077" transform="translate(58,310)"/>
<path d="M0 0 C0.66 0 1.32 0 2 0 C2 2.64 2 5.28 2 8 C2.66 8.33 3.32 8.66 4 9 C3.67 9.66 3.34 10.32 3 11 C2.34 11 1.68 11 1 11 C0.63890458 9.35567294 0.28629924 7.7094792 -0.0625 6.0625 C-0.25972656 5.14597656 -0.45695312 4.22945312 -0.66015625 3.28515625 C-0.77230469 2.53105469 -0.88445312 1.77695313 -1 1 C-0.67 0.67 -0.34 0.34 0 0 Z " fill="#F0AF20" transform="translate(310,224)"/>
<path d="M0 0 C2 2 2 2 2.5 5.5625 C2.665 6.696875 2.83 7.83125 3 9 C3.66 9.33 4.32 9.66 5 10 C4.67 10.99 4.34 11.98 4 13 C3.34 13 2.68 13 2 13 C1.46845258 11.39935157 0.95011647 9.79431126 0.4375 8.1875 C0.14746094 7.29417969 -0.14257812 6.40085938 -0.44140625 5.48046875 C-1 3 -1 3 0 0 Z " fill="#F0B124" transform="translate(308,147)"/>
<path d="M0 0 C3.80635497 3.20760251 7.54563567 6.40746109 11 10 C9.35 9.67 7.7 9.34 6 9 C5.67 8.01 5.34 7.02 5 6 C4.34 6 3.68 6 3 6 C3 5.34 3 4.68 3 4 C2.34 4 1.68 4 1 4 C0.67 2.68 0.34 1.36 0 0 Z " fill="#ECA22B" transform="translate(268,80)"/>
<path d="M0 0 C1.2065625 0.0309375 1.2065625 0.0309375 2.4375 0.0625 C1.4475 0.5575 1.4475 0.5575 0.4375 1.0625 C0.4375 1.7225 0.4375 2.3825 0.4375 3.0625 C-0.5525 3.0625 -1.5425 3.0625 -2.5625 3.0625 C-2.5625 3.7225 -2.5625 4.3825 -2.5625 5.0625 C-3.5525 4.7325 -4.5425 4.4025 -5.5625 4.0625 C-5.5625 3.4025 -5.5625 2.7425 -5.5625 2.0625 C-6.8825 1.7325 -8.2025 1.4025 -9.5625 1.0625 C-8.1084375 1.0934375 -8.1084375 1.0934375 -6.625 1.125 C-3.22707532 1.0556546 -3.2165483 0.0784524 0 0 Z " fill="#F0B123" transform="translate(153.5625,41.9375)"/>
<path d="M0 0 C0.99 0 1.98 0 3 0 C1.66511872 3.59391114 0.03977277 6.75490696 -2 10 C-2.93423645 6.98968256 -3.04449911 6.13349732 -2 3 C-1.34 3 -0.68 3 0 3 C0 2.01 0 1.02 0 0 Z " fill="#ECBB70" transform="translate(289,303)"/>
<path d="M0 0 C2.32590854 3.63423209 2.16265833 6.77088331 2 11 C1.67 11 1.34 11 1 11 C0.67 9.35 0.34 7.7 0 6 C-0.66 6.99 -1.32 7.98 -2 9 C-2 6.69 -2 4.38 -2 2 C-1.34 2 -0.68 2 0 2 C0 1.34 0 0.68 0 0 Z " fill="#315023" transform="translate(183,570)"/>
<path d="M0 0 C0.66 0 1.32 0 2 0 C2 1.65 2 3.3 2 5 C0.35 5.33 -1.3 5.66 -3 6 C-3.33 4.35 -3.66 2.7 -4 1 C-3.01 1.33 -2.02 1.66 -1 2 C-0.67 1.34 -0.34 0.68 0 0 Z " fill="#193F1D" transform="translate(162,524)"/>
<path d="M0 0 C1.46726798 3.81489674 0.43336419 6.29011622 -1 10 C-1.66 10 -2.32 10 -3 10 C-2.25 3.375 -2.25 3.375 0 0 Z " fill="#EBB563" transform="translate(153,421)"/>
<path d="M0 0 C0.66 0 1.32 0 2 0 C2 0.66 2 1.32 2 2 C3.32 2 4.64 2 6 2 C4.63016497 5.16115776 4.0109362 5.9927092 1 8 C0.67 5.36 0.34 2.72 0 0 Z " fill="#EDB953" transform="translate(261,338)"/>
<path d="M0 0 C2.82858266 3.36736031 4.4998253 6.87451958 6 11 C5.67 11.99 5.34 12.98 5 14 C5 13.34 5 12.68 5 12 C4.34 12 3.68 12 3 12 C2.49440092 10.56445975 1.9957251 9.1264798 1.5 7.6875 C1.2215625 6.88699219 0.943125 6.08648437 0.65625 5.26171875 C0 3 0 3 0 0 Z " fill="#EDC88E" transform="translate(300,121)"/>
<path d="M0 0 C4.75481646 0.57634139 7.97048212 2.55068521 12 5 C8.25 6.125 8.25 6.125 6 5 C6 4.34 6 3.68 6 3 C4.35 3 2.7 3 1 3 C0.67 2.01 0.34 1.02 0 0 Z " fill="#EEC788" transform="translate(227,51)"/>
<path d="M0 0 C0.99 0.33 1.98 0.66 3 1 C3.33 1.99 3.66 2.98 4 4 C2.02 4.66 0.04 5.32 -2 6 C-2.33 5.34 -2.66 4.68 -3 4 C-2.67 3.01 -2.34 2.02 -2 1 C-1.34 0.67 -0.68 0.34 0 0 Z " fill="#EEB547" transform="translate(120,48)"/>
<path d="M0 0 C2.92879371 0.62759865 5.36095629 1.58622659 8 3 C4.86501708 4.85776765 2.62528568 5.20140476 -1 5 C-0.67 3.35 -0.34 1.7 0 0 Z " fill="#EFB12B" transform="translate(185,40)"/>
<path d="M0 0 C1.875 0.1875 1.875 0.1875 4 1 C5.25 3.5625 5.25 3.5625 6 6 C5.34 6.66 4.68 7.32 4 8 C0 2.25 0 2.25 0 0 Z " fill="#798766" transform="translate(163,540)"/>
<path d="M0 0 C0.33 0 0.66 0 1 0 C2.42705634 5.30723432 3.4002792 9.53891111 2 15 C1.67 15 1.34 15 1 15 C-0.03590199 9.94997778 -0.10251672 5.12583611 0 0 Z " fill="#2D4D22" transform="translate(159,504)"/>
<path d="M0 0 C0.66 0 1.32 0 2 0 C2 1.32 2 2.64 2 4 C-1.31371 6.20914 -2.3446021 6.22481553 -6.1875 6.125 C-7.08855469 6.10695313 -7.98960937 6.08890625 -8.91796875 6.0703125 C-9.60503906 6.04710937 -10.29210937 6.02390625 -11 6 C-11 5.67 -11 5.34 -11 5 C-8.03 5 -5.06 5 -2 5 C-1.34 3.35 -0.68 1.7 0 0 Z " fill="#E0911E" transform="translate(179,393)"/>
<path d="M0 0 C1 3 1 3 0.22265625 5.04296875 C-0.16019531 5.75066406 -0.54304688 6.45835937 -0.9375 7.1875 C-1.31777344 7.90292969 -1.69804687 8.61835938 -2.08984375 9.35546875 C-2.54037109 10.16951172 -2.54037109 10.16951172 -3 11 C-3.33 11 -3.66 11 -4 11 C-4.33 8.69 -4.66 6.38 -5 4 C-3.68 4 -2.36 4 -1 4 C-0.67 2.68 -0.34 1.36 0 0 Z " fill="#EEC27D" transform="translate(302,280)"/>
<path d="M0 0 C1.98 0.495 1.98 0.495 4 1 C4.33 2.32 4.66 3.64 5 5 C4.01 5.33 3.02 5.66 2 6 C1.01 5.34 0.02 4.68 -1 4 C-0.67 2.68 -0.34 1.36 0 0 Z " fill="#F1B020" transform="translate(265,81)"/>
<path d="M0 0 C3.0916909 2.52956528 3.90931332 5.22454612 5 9 C4.01 8.67 3.02 8.34 2 8 C2 7.34 2 6.68 2 6 C1.34 6 0.68 6 0 6 C0 4.02 0 2.04 0 0 Z " fill="#697F65" transform="translate(177,551)"/>
<path d="M0 0 C0.625 1.8125 0.625 1.8125 1 4 C0.01 5.485 0.01 5.485 -1 7 C-1.99 7 -2.98 7 -4 7 C-3.39816251 4.97954558 -2.72693904 2.97888961 -2 1 C-1.34 0.67 -0.68 0.34 0 0 Z " fill="#ECB04C" transform="translate(158,414)"/>
<path d="M0 0 C0.66 0.33 1.32 0.66 2 1 C1.67 1.99 1.34 2.98 1 4 C-3.95 3.67 -8.9 3.34 -14 3 C-14 2.67 -14 2.34 -14 2 C-13.07316406 1.93941406 -12.14632812 1.87882812 -11.19140625 1.81640625 C-9.39509766 1.69072266 -9.39509766 1.69072266 -7.5625 1.5625 C-5.77005859 1.44068359 -5.77005859 1.44068359 -3.94140625 1.31640625 C-1.11429756 1.32343886 -1.11429756 1.32343886 0 0 Z " fill="#C4322E" transform="translate(180,400)"/>
<path d="M0 0 C3.7952131 1.49097658 5.61042731 3.75700849 8 7 C6.35 7 4.7 7 3 7 C2.690625 6.21625 2.38125 5.4325 2.0625 4.625 C1.07124962 2.07669872 1.07124962 2.07669872 0 0 Z " fill="#EFAF3D" transform="translate(97,359)"/>
<path d="M0 0 C0.66 0.99 1.32 1.98 2 3 C-0.97 5.475 -0.97 5.475 -4 8 C-3.67 6.35 -3.34 4.7 -3 3 C-2.34 3 -1.68 3 -1 3 C-0.67 2.01 -0.34 1.02 0 0 Z " fill="#ECB04E" transform="translate(253,352)"/>
<path d="M0 0 C0.66 0.99 1.32 1.98 2 3 C0.68 4.65 -0.64 6.3 -2 8 C-2.93423645 4.98968256 -3.04449911 4.13349732 -2 1 C-1.34 0.67 -0.68 0.34 0 0 Z " fill="#EDB44C" transform="translate(277,322)"/>
<path d="M0 0 C0.33 0.66 0.66 1.32 1 2 C1.66 2 2.32 2 3 2 C3 2.66 3 3.32 3 4 C3.66 4 4.32 4 5 4 C4.67 5.98 4.34 7.96 4 10 C0 4 0 4 0 0 Z " fill="#EEBE76" transform="translate(40,277)"/>
<path d="M0 0 C1.98 0.99 1.98 0.99 4 2 C3.67 3.65 3.34 5.3 3 7 C2.01 6.34 1.02 5.68 0 5 C-0.1875 2.375 -0.1875 2.375 0 0 Z " fill="#EEAC22" transform="translate(74,106)"/>
<path d="M0 0 C3.63 0 7.26 0 11 0 C11.33 0.99 11.66 1.98 12 3 C6.06 2.01 6.06 2.01 0 1 C0 0.67 0 0.34 0 0 Z " fill="#EDA017" transform="translate(112,80)"/>
<path d="M0 0 C0.928125 0.20625 1.85625 0.4125 2.8125 0.625 C2.1525 1.945 1.4925 3.265 0.8125 4.625 C-1.4975 3.635 -3.8075 2.645 -6.1875 1.625 C-3.1875 -0.375 -3.1875 -0.375 0 0 Z " fill="#EFB955" transform="translate(217.1875,46.375)"/>
<path d="M0 0 C1.1171875 1.734375 1.1171875 1.734375 2 4 C1.3203125 6.140625 1.3203125 6.140625 0.125 8.25 C-0.26429688 8.95640625 -0.65359375 9.6628125 -1.0546875 10.390625 C-1.36664063 10.92171875 -1.67859375 11.4528125 -2 12 C-3.12377697 8.69564916 -2.89554742 6.9493138 -1.5625 3.75 C-1.27503906 3.04359375 -0.98757812 2.3371875 -0.69140625 1.609375 C-0.46324219 1.07828125 -0.23507813 0.5471875 0 0 Z " fill="#95A388" transform="translate(176,607)"/>
<path d="M0 0 C0.99 0.33 1.98 0.66 3 1 C3 2.65 3 4.3 3 6 C2.01 6.33 1.02 6.66 0 7 C-1.125 2.25 -1.125 2.25 0 0 Z " fill="#597049" transform="translate(175,556)"/>
<path d="M0 0 C0.33 0.66 0.66 1.32 1 2 C0.01 3.32 -0.98 4.64 -2 6 C-3.5 4.625 -3.5 4.625 -5 3 C-5 2.34 -5 1.68 -5 1 C-3.35 0.67 -1.7 0.34 0 0 Z " fill="#EFAC04" transform="translate(165,409)"/>
<path d="M0 0 C1.625 1.625 1.625 1.625 3 4 C2.1875 7.25 2.1875 7.25 1 10 C0.34 9.34 -0.32 8.68 -1 8 C-0.96712417 5.27130593 -0.43602229 2.7033382 0 0 Z " fill="#EEA713" transform="translate(41,269)"/>
<path d="M0 0 C1 3 1 3 0.29296875 5.0078125 C-0.25423828 6.05582031 -0.25423828 6.05582031 -0.8125 7.125 C-1.16957031 7.82882813 -1.52664062 8.53265625 -1.89453125 9.2578125 C-3 11 -3 11 -5 12 C-4.35550393 8.98782888 -3.34977818 6.48344164 -1.9375 3.75 C-1.57527344 3.04359375 -1.21304688 2.3371875 -0.83984375 1.609375 C-0.56269531 1.07828125 -0.28554687 0.5471875 0 0 Z " fill="#EA9E1D" transform="translate(79,154)"/>
<path d="M0 0 C2.5654594 2.5654594 2.54046087 4.47686668 3 8 C1.68 7.67 0.36 7.34 -1 7 C-0.67 4.69 -0.34 2.38 0 0 Z " fill="#ECA107" transform="translate(307,141)"/>
<path d="M0 0 C0.33 0.99 0.66 1.98 1 3 C-0.65 3.33 -2.3 3.66 -4 4 C-3.67 4.99 -3.34 5.98 -3 7 C-3.99 7.495 -3.99 7.495 -5 8 C-5.66 6.68 -6.32 5.36 -7 4 C-6.030625 3.525625 -5.06125 3.05125 -4.0625 2.5625 C-1.19522563 1.29806053 -1.19522563 1.29806053 0 0 Z " fill="#EEAE28" transform="translate(114,106)"/>
<path d="M0 0 C0.33 1.32 0.66 2.64 1 4 C-1.97 6.475 -1.97 6.475 -5 9 C-3.90931332 5.22454612 -3.0916909 2.52956528 0 0 Z " fill="#EDAF41" transform="translate(77,76)"/>
<path d="M0 0 C0.99 1.32 1.98 2.64 3 4 C2.34 5.32 1.68 6.64 1 8 C1 7.01 1 6.02 1 5 C0.01 5 -0.98 5 -2 5 C-2 4.01 -2 3.02 -2 2 C-1.34 2 -0.68 2 0 2 C0 1.34 0 0.68 0 0 Z " fill="#476442" transform="translate(179,609)"/>
<path d="M0 0 C0.33 0.66 0.66 1.32 1 2 C1.66 2 2.32 2 3 2 C3 2.99 3 3.98 3 5 C2.01 5 1.02 5 0 5 C-0.33 6.65 -0.66 8.3 -1 10 C-2.31223496 6.06329512 -1.24296256 3.87511856 0 0 Z " fill="#0C331A" transform="translate(179,600)"/>
<path d="M0 0 C-0.33 1.98 -0.66 3.96 -1 6 C-2.65 5.01 -4.3 4.02 -6 3 C-4.46624489 -0.06751022 -3.38927784 0 0 0 Z " fill="#697E5B" transform="translate(168,475)"/>
<path d="M0 0 C2.31 0 4.62 0 7 0 C6.67 0.99 6.34 1.98 6 3 C4.35 3 2.7 3 1 3 C0.67 2.01 0.34 1.02 0 0 Z " fill="#EFAF03" transform="translate(165,405)"/>
<path d="M0 0 C2.62187494 1.04874998 3.79371361 1.64931313 5.25 4.125 C5.4975 4.74375 5.745 5.3625 6 6 C3 6 3 6 1 5 C0.375 2.4375 0.375 2.4375 0 0 Z " fill="#EDA62C" transform="translate(79,340)"/>
<path d="M0 0 C2.31 0.33 4.62 0.66 7 1 C7 1.99 7 2.98 7 4 C5.1875 4.625 5.1875 4.625 3 5 C2.01 4.34 1.02 3.68 0 3 C0 2.01 0 1.02 0 0 Z " fill="#EEAB1F" transform="translate(61,167)"/>
<path d="M0 0 C0.66 0.33 1.32 0.66 2 1 C2 2.65 2 4.3 2 6 C1.01 6 0.02 6 -1 6 C-1.33 5.01 -1.66 4.02 -2 3 C-2.33 2.34 -2.66 1.68 -3 1 C-2.01 0.67 -1.02 0.34 0 0 Z " fill="#F0B022" transform="translate(78,81)"/>
<path d="M0 0 C3.36591866 1.44253657 5.51047079 3.33264727 8 6 C7.01 6.33 6.02 6.66 5 7 C0 1.125 0 1.125 0 0 Z " fill="#EDBE7B" transform="translate(253,66)"/>
<path d="M0 0 C0.99 0 1.98 0 3 0 C3.625 2.375 3.625 2.375 4 5 C3.34 5.66 2.68 6.32 2 7 C0.5393715 4.35261084 0 3.10551666 0 0 Z " fill="#657E60" transform="translate(160,533)"/>
<path d="M0 0 C0.99 0 1.98 0 3 0 C3.33 1.32 3.66 2.64 4 4 C2.68 4 1.36 4 0 4 C-0.33 5.32 -0.66 6.64 -1 8 C-0.67 5.36 -0.34 2.72 0 0 Z " fill="#0E371B" transform="translate(158,484)"/>
<path d="M0 0 C1.65 0 3.3 0 5 0 C3.63016497 3.16115776 3.0109362 3.9927092 0 6 C0 4.02 0 2.04 0 0 Z " fill="#EDC06F" transform="translate(257,346)"/>
<path d="M0 0 C1.98 0.99 1.98 0.99 4 2 C3.67 4.31 3.34 6.62 3 9 C2.67 9 2.34 9 2 9 C2 7.35 2 5.7 2 4 C1.34 4 0.68 4 0 4 C0 2.68 0 1.36 0 0 Z " fill="#EDA412" transform="translate(312,228)"/>
<path d="M0 0 C0.66 0 1.32 0 2 0 C2.1875 2.875 2.1875 2.875 2 6 C1.01 6.66 0.02 7.32 -1 8 C-0.67 5.36 -0.34 2.72 0 0 Z " fill="#EDA313" transform="translate(32,155)"/>
<path d="M0 0 C1.42944945 2.35438733 2.08661261 3.48032433 1.625 6.25 C1.41875 6.8275 1.2125 7.405 1 8 C0.01 8 -0.98 8 -2 8 C-1.47731534 5.23723823 -0.89130413 2.6739124 0 0 Z " fill="#EEC16E" transform="translate(37,136)"/>
<path d="M0 0 C2.4375 0.75 2.4375 0.75 5 2 C5.8125 4.125 5.8125 4.125 6 6 C3.13275314 5.42655063 2.1385485 5.1385485 0 3 C0 2.01 0 1.02 0 0 Z " fill="#EFBE64" transform="translate(294,115)"/>
<path d="" fill="#F0F1F1" transform="translate(0,0)"/>
<path d="" fill="#F0F1F1" transform="translate(0,0)"/>
<path d="" fill="#F0F1F1" transform="translate(0,0)"/>
<path d="" fill="#F0F1F1" transform="translate(0,0)"/>
<path d="" fill="#F0F1F1" transform="translate(0,0)"/>
<path d="" fill="#F0F1F1" transform="translate(0,0)"/>
<path d="" fill="#F0F1F1" transform="translate(0,0)"/>
<path d="" fill="#F0F1F1" transform="translate(0,0)"/>
<path d="" fill="#F0F1F1" transform="translate(0,0)"/>
<path d="" fill="#F0F1F1" transform="translate(0,0)"/>
<path d="" fill="#F0F1F1" transform="translate(0,0)"/>
<path d="" fill="#F0F1F1" transform="translate(0,0)"/>
<path d="" fill="#F0F1F1" transform="translate(0,0)"/>
<path d="" fill="#F0F1F1" transform="translate(0,0)"/>
<path d="" fill="#F0F1F1" transform="translate(0,0)"/>
<path d="" fill="#F0F1F1" transform="translate(0,0)"/>
<path d="" fill="#F0F1F1" transform="translate(0,0)"/>
<path d="" fill="#F0F1F1" transform="translate(0,0)"/>
<path d="" fill="#F0F1F1" transform="translate(0,0)"/>
<path d="" fill="#F0F1F1" transform="translate(0,0)"/>
<path d="" fill="#F0F1F1" transform="translate(0,0)"/>
<path d="" fill="#F0F1F1" transform="translate(0,0)"/>
<path d="" fill="#F0F1F1" transform="translate(0,0)"/>
<path d="" fill="#F0F1F1" transform="translate(0,0)"/>
<path d="" fill="#F0F1F1" transform="translate(0,0)"/>
<path d="" fill="#F0F1F1" transform="translate(0,0)"/>
<path d="" fill="#F0F1F1" transform="translate(0,0)"/>
<path d="" fill="#F0F1F1" transform="translate(0,0)"/>
<path d="" fill="#F0F1F1" transform="translate(0,0)"/>
<path d="" fill="#F0F1F1" transform="translate(0,0)"/>
<path d="" fill="#F0F1F1" transform="translate(0,0)"/>
<path d="" fill="#F0F1F1" transform="translate(0,0)"/>
<path d="" fill="#F0F1F1" transform="translate(0,0)"/>
<path d="" fill="#F0F1F1" transform="translate(0,0)"/>
</svg>
