<?xml version="1.0" standalone="no"?>
<!DOCTYPE svg PUBLIC "-//W3C//DTD SVG 1.1//EN" "http://www.w3.org/Graphics/SVG/1.1/DTD/svg11.dtd">
<svg xmlns="http://www.w3.org/2000/svg" width="359" height="644" viewBox="0 0 359 644"><path fill="#979797" d="M224 49c11.358 5.255 22.266 11.089 32 19l2.71 2.105c22.77 18.019 38.454 41.497 49.248 68.272 11.292 29.57 13.09 63.403 8.52 94.58C309.874 272.843 292.622 307.289 268 339l-2.273 2.93C257.204 352.606 247.825 363.59 237 372l-1.532 1.2C218.487 386.402 201.611 394.177 181 400a21966 21966 0 0 0 6.738 12.275l1.465 2.666 1.434 2.615a253 253 0 0 0 3.75 6.452L196 427l-.437 2.313c-2.03 2.192-3.718 2.784-6.563 3.687-2.824.012-2.824.012-5.687-.312l-2.887-.301C178 432 178 432 176 431l.14 2.867c.534 15.812-3.417 29.889-8.677 44.702-3.265 9.284-4.838 18.02-4.775 27.868l.014 2.793c.115 6.673.841 12.522 3.298 18.77l.926 2.652c2.527 6.7 5.973 12.665 9.637 18.785 4.396 7.361 7.583 14.133 9.437 22.563l.57 2.39c2.012 12.22.26 25.035-3.59 36.7-2.44 6.37-2.44 6.37-4.98 8.91-2.062-.187-2.062-.187-4-1l-1-3c.707-2.129.707-2.129 1.813-4.562 4.608-11.13 5.153-22.506 4.187-34.438-1.524-11.25-5.795-20.58-11.988-30.035-6.31-9.778-11.333-20.604-12.189-32.406-.404-16.817 1.729-29.603 8.009-45.293 2.011-5.624 3.125-11.397 4.168-17.266l.402-2.238c.889-5.88.687-11.834.598-17.762l-1.687.488c-2.497.553-4.758.68-7.313.7l-2.562.042c-2.592-.245-4.208-.924-6.438-2.23.539-4.485 1.657-7.675 3.906-11.582l1.754-3.072 1.84-3.159 1.84-3.216c4.47-7.781 4.47-7.781 5.66-8.971l-3.559-1.031c-23.512-7-45.099-18.275-62.503-35.906l-1.567-1.657c-1.48-1.583-1.48-1.583-3.871-3.344-2.805-2.313-5.036-4.816-7.383-7.585a206 206 0 0 0-4.672-5.266C55.881 318.006 38.193 282.073 30 245c-1.269-6.299-2.223-12.623-3-19l-.398-3.156C24.717 203.89 25.418 184.687 29 166l.422-2.243C32.849 146.152 39.508 129.74 48 114l1.676-3.168C57.903 95.968 69.716 81.579 83 71l3.098-2.488c20.621-16.078 43.976-25.315 69.707-29.067 22.652-2.694 47.228.449 68.195 9.555"/><path fill="#d4d4d4" d="M117.25 81c3.75 1 3.75 1 6.313 2.5C125 86 125 86 125.223 88.02c-.14 3.266-.636 5.94-2.254 8.804-3.706 4.621-8.508 8.112-13.098 11.805-16.125 13.317-24.752 31.212-32.414 50.312-1.491 3.131-3.139 5.49-5.457 8.059-2 1-2 1-5.312 1.375L63 168c-2.63-2.173-4.473-3.947-6-7-.884-5.154-.467-9.972 1.21-14.91C65.98 125.569 78.64 106.629 95 92a101 101 0 0 1 10-7l2.121-1.348c3.464-1.992 6.103-2.95 10.129-2.652"/><path fill="#161616" d="M170 429c2.5.375 2.5.375 5 1l1 1c1.347 16.764-2.976 31.908-8.537 47.57-3.265 9.283-4.838 18.019-4.775 27.868l.014 2.792c.115 6.673.841 12.522 3.298 18.77l.926 2.652c2.527 6.7 5.973 12.665 9.637 18.785 4.396 7.361 7.583 14.133 9.437 22.563l.57 2.39c2.012 12.22.26 25.035-3.59 36.7-2.44 6.37-2.44 6.37-4.98 8.91-2.062-.187-2.062-.187-4-1l-1-3c.707-2.129.707-2.129 1.813-4.562 4.608-11.13 5.153-22.506 4.187-34.438-1.524-11.25-5.795-20.58-11.988-30.035-6.31-9.778-11.333-20.604-12.189-32.406-.371-15.454 1.003-27.641 6.74-42.121 4.543-11.512 5.852-22.996 6.791-35.239l.216-2.781.18-2.507L169 430z"/><path fill="#979797" d="m170.402 397.434 2.536.003 2.527-.066c2.535.629 2.535.629 5.066 2.64 2.95 3.57 4.966 7.24 7.031 11.364q1.126 2.2 2.254 4.398l1.089 2.145c1.07 2.036 2.22 4.003 3.4 5.977L196 427l-.437 2.313c-2.027 2.188-3.725 2.78-6.563 3.687-2.754.047-2.754.047-5.562-.25l-2.817-.266C178 432 178 432 175.911 430.954c-2.152-1.252-2.152-1.252-5.911-.954l-2 2c-3.002 1.016-5.845 1.163-9 1.188l-2.562.042c-2.592-.245-4.208-.924-6.438-2.23.54-4.418 1.61-7.612 3.8-11.477l1.714-3.03 1.798-3.118 1.764-3.14c6.677-11.705 6.677-11.705 11.326-12.801"/><path fill="#222" d="M168 398c3.365-.504 6.632-.467 10 0 2.625 2 2.625 2 4 4l-1 2h-17c2-4 2-4 4-6"/><path fill="#979797" d="m74 79 3 1-5 5-2-1z"/></svg>