<?xml version="1.0" standalone="no"?>
<!DOCTYPE svg PUBLIC "-//W3C//DTD SVG 1.1//EN" "http://www.w3.org/Graphics/SVG/1.1/DTD/svg11.dtd">
<svg xmlns="http://www.w3.org/2000/svg" width="359" height="644" viewBox="0 0 359 644"><path fill="#db7271" d="M224 49c11.358 5.255 22.266 11.089 32 19l2.71 2.105c22.77 18.019 38.454 41.497 49.248 68.272 11.292 29.57 13.09 63.403 8.52 94.58C309.874 272.843 292.622 307.289 268 339l-2.273 2.93C257.204 352.606 247.825 363.59 237 372l-1.532 1.2C218.487 386.402 201.611 394.177 181 400a21966 21966 0 0 0 6.738 12.275l1.465 2.666 1.434 2.615a253 253 0 0 0 3.75 6.452L196 427l-.437 2.313c-2.03 2.192-3.718 2.784-6.563 3.687-2.824.012-2.824.012-5.687-.312l-2.887-.301C178 432 178 432 176 431l.14 2.867c.534 15.812-3.417 29.889-8.677 44.702-3.265 9.284-4.838 18.02-4.775 27.868l.014 2.793c.115 6.673.841 12.522 3.298 18.77l.926 2.652c2.527 6.7 5.973 12.665 9.637 18.785 4.396 7.361 7.583 14.133 9.437 22.563l.57 2.39c2.012 12.22.26 25.035-3.59 36.7-2.44 6.37-2.44 6.37-4.98 8.91-2.062-.187-2.062-.187-4-1l-1-3c.707-2.129.707-2.129 1.813-4.562 4.608-11.13 5.153-22.506 4.187-34.438-1.524-11.25-5.795-20.58-11.988-30.035-6.31-9.778-11.333-20.604-12.189-32.406-.404-16.817 1.729-29.603 8.009-45.293 2.011-5.624 3.125-11.397 4.168-17.266l.402-2.238c.889-5.88.687-11.834.598-17.762l-1.687.488c-2.497.553-4.758.68-7.313.7l-2.562.042c-2.592-.245-4.208-.924-6.438-2.23.539-4.485 1.657-7.675 3.906-11.582l1.754-3.072 1.84-3.159 1.84-3.216c4.47-7.781 4.47-7.781 5.66-8.971l-3.559-1.031c-23.512-7-45.099-18.275-62.503-35.906l-1.567-1.657c-1.48-1.583-1.48-1.583-3.871-3.344-2.805-2.313-5.036-4.816-7.383-7.585a206 206 0 0 0-4.672-5.266C55.881 318.006 38.193 282.073 30 245c-1.269-6.299-2.223-12.623-3-19l-.398-3.156C24.717 203.89 25.418 184.687 29 166l.422-2.243C32.849 146.152 39.508 129.74 48 114l1.676-3.168C57.903 95.968 69.716 81.579 83 71l3.098-2.488c20.621-16.078 43.976-25.315 69.707-29.067 22.652-2.694 47.228.449 68.195 9.555"/><path fill="#f5e3e5" d="M117.188 81.063C121 82 121 82 123.5 83.625 125 86 125 86 125.625 89.25c-.717 4.3-1.936 6.328-4.656 9.645-4.361 4.663-9.198 8.809-14.11 12.878-14.024 11.761-21.775 28.367-28.527 45.063C76.71 160.761 74.863 163.858 72 167c-2 1-2 1-5.312 1.375L63 168c-2.623-2.098-4.397-4.139-6.312-6.875-1.015-3.135-.857-5.838-.688-9.125 6.34-21.43 19.436-41.135 35.271-56.678 6.855-6.504 15.837-14.983 25.917-14.26"/><path fill="#292b2c" d="M170 429c2.5.375 2.5.375 5 1l1 1c1.347 16.764-2.976 31.908-8.537 47.57-3.265 9.283-4.838 18.019-4.775 27.868l.014 2.792c.115 6.673.841 12.522 3.298 18.77l.926 2.652c2.527 6.7 5.973 12.665 9.637 18.785 4.396 7.361 7.583 14.133 9.437 22.563l.57 2.39c2.012 12.22.26 25.035-3.59 36.7-2.44 6.37-2.44 6.37-4.98 8.91-2.062-.187-2.062-.187-4-1l-1-3c.707-2.129.707-2.129 1.813-4.562 4.608-11.13 5.153-22.506 4.187-34.438-1.524-11.25-5.795-20.58-11.988-30.035-6.31-9.778-11.333-20.604-12.189-32.406-.371-15.454 1.003-27.641 6.74-42.121 4.543-11.512 5.852-22.996 6.791-35.239l.216-2.781.18-2.507L169 430z"/><path fill="#db7271" d="m171.313 38.875 2.994-.012 2.869.004 2.59.004C182 39 182 39 185 40v2l-8 1-1 3q-3.406.252-6.812.5l-3.833.281A98 98 0 0 1 159 47v-2h-3v2l-4 1 .625-1.875L153 44l-2-2 1-2c6.414-1.18 12.808-1.151 19.313-1.125"/><path fill="#37383a" d="m159 479 1.313 1.938L162 483l3 1-.402 2.133c-1.42 7.94-2.145 15.816-2.598 23.867h-1l-1-6h-4c-1.951-9.014.339-16.433 3-25"/><path fill="#db7271" d="m185 418 1.813 1c2.24 1.208 2.24 1.208 5.187 1 2.995 4.58 2.995 4.58 4 7-.75 2.438-.75 2.438-2 4l-2-1 1-4h-2l-2 4h-9v-3c-2.882.882-2.882.882-5 2l-2-1 2-4h9l-1-3z"/><path fill="#292b2c" d="M178 553c2.295 2.857 3.896 5.622 5.313 9l1.113 2.563L185 567c-.895 2.313-.895 2.313-2 4l-2-1-1 7h-1l-.84-3.395-1.097-4.418-.553-2.236c-.752-3.022-1.525-5.996-2.51-8.951l2-2 2 1zM178 602l2 3v2h2c.605 1.738.605 1.738 1 4-.637 2.105-.637 2.105-1.687 4.188l-1.012 2.105L179 619c-2.145.738-2.145.738-4 1-1.113-1.687-1.113-1.687-2-4 .645-2.437.645-2.437 1.813-5 1.337-2.995 2.496-5.788 3.187-9"/><path fill="#19191a" d="m155 499 3 3v2l3-1c.917 5.385 1.111 10.542 1 16l-4-1v-5l-3-1z"/><path fill="#292b2c" d="m166 469 2 3c-.323 4.355-1.195 8.03-3 12l-3-1-1 2c-.524-2.762-.97-5.208-1-8 1.438-3.5 1.438-3.5 3-6h3z"/><path fill="#19191a" d="m180 568 3 2 2-1c.87 3.483.899 5.575 0 9a85 85 0 0 0-.316 4.11l-.127 2.285-.12 2.355-.13 2.402A2020 2020 0 0 0 184 595h-1l-1-15v13h-1c-1.101-8.356-1.1-16.588-1-25"/><path fill="#431f20" d="M168 398c2.023-.266 2.023-.266 4.375-.25l2.336-.016c2.582.3 4.152.779 6.289 2.266l1 4h-18c2-4 2-4 4-6"/><path fill="#db7271" d="m95 62 1 4-2.875 1.563L90 70c-1.44 3.614-1.44 3.614-2 7l-6-2c.648-2.23.648-2.23 2-5 2.602-2.238 2.602-2.238 5.625-4.312l3.04-2.114zM169.133 402.902l2.441.01 2.551.026 2.574.013q3.15.02 6.301.049l1 3-2 2-1-3h-14v7l-2 1-4-5c.875-1.937.875-1.937 2-4 2.297-1.148 3.583-1.116 6.133-1.098"/><path fill="#19191a" d="M170 429c2.063.438 2.063.438 4 1 .246 7.385.246 7.385-1 10.5l-1 1.5-2-3v10h-1c-.029-3.146-.047-6.292-.062-9.437l-.026-2.721-.01-2.588-.016-2.396L169 430z"/><path fill="#37383a" d="M185 574c2 3 2 3 2.266 6.371q.012 2.034-.016 4.067l-.012 2.142c-.101 6.26-.939 12.295-2.238 18.42l-2-1v-7h2z"/><path fill="#db7271" d="m111 373 2.688 1.063c3.187 1.192 3.187 1.192 5.937.312L122 374c2.313 1.938 2.313 1.938 4 4h-3v2l2 3c-3.809-1.346-6.654-3.054-9.812-5.562l-2.395-1.88c-.888-.77-.888-.77-1.793-1.558zM60 130l3 1c0 5.637-1.716 9.934-4 15h-1c-1-6.625-1-6.625-1-10h2l-.062-2.437L59 131z"/><path fill="#37383a" d="m159 479 1.313 1.938L162 483l3 1-2 12c-2.21-3.314-2.99-6.165-4-10l-.687-2.25C158 482 158 482 159 479"/><path fill="#19191a" d="m172 549 5 1 1 7-4 1c-1.562-2.25-1.562-2.25-3-5 .313-2.312.313-2.312 1-4"/><path fill="#db7271" d="M233 371h3v2c-2.082 1.762-2.082 1.762-4.812 3.688l-2.708 1.949L226 380l-3-1c-.687-2.062-.687-2.062-1-4l1.898-.113 2.477-.2 2.46-.175L231 374zM66 115l7 2c-1.335 3.594-2.96 6.755-5 10l-1-2 1-2h-2zM186 42h16l-2 2c-3.625.125-3.625.125-7 0v2l-5 1v-2l-4-1h2zM151 425h4v2h4v2h-2v2l-6 1a76 76 0 0 1-1-5zM158 390l1 3c2.015.733 2.015.733 4 1l-5 1-1 3-8-2 2-3h3c2.17-1.44 2.17-1.44 4-3M244 61c4.063 1.428 7.219 3.396 10.688 5.938l2.886 2.09C260 71 260 71 262 74c-3.777-1.813-7.373-3.907-11-6v-2l-2.375-.25L246 65c-1.312-2.062-1.312-2.062-2-4"/><path fill="#37383a" d="m165 462 1 2 3 1c.625 2.875.625 2.875 1 6l-2 2-2-2h-3zM168 444h1l.813 3.25c1.05 3.315 1.933 5.189 4.187 7.75l-1 2-2 1-4-2z"/><path fill="#db7271" d="M252 353c.746 1.734.746 1.734 1 4-1.652 2.14-1.652 2.14-3.937 4.25l-2.278 2.14L245 365l-2-3 1-3 5-1 1-3h2zM177 392c1.5 1.375 1.5 1.375 3 3v2l3 2-3.105-.035-4.083-.027-2.04-.026c-3.726-.018-7.15.195-10.772 1.088v-3c3.411-1.097 6.207-.942 9.75-.562l2.984.308L178 397z"/><path fill="#37383a" d="M175 613c2.625-.187 2.625-.187 5 0 .125 2.375.125 2.375 0 5l-2 2c-2.062-.187-2.062-.187-4-1l-1-3zM181 563l3 1c.625 2.375.625 2.375 1 5l-2 2-2-1-1 7h-1c-.879-6.055-.879-6.055-1-8l1-2h2z"/><path fill="#db7271" d="M185 40c1.772.114 3.542.242 5.313.375l2.988.21C196 41 196 41 199 43l-13-1-1 5-4-1z"/><path fill="#19191a" d="M158 484c1.457 1.082 1.457 1.082 3 3 .512 3.137.512 3.137.688 6.688l.199 3.574L162 500c-1.506-1.964-2.891-3.783-4-6 .938-2.125.938-2.125 2-4h-2l-1 2c-.125-5.75-.125-5.75 1-8"/><path fill="#db7271" d="m91 129 1 2-1 2h2l1-2 1 3a83 83 0 0 1-4 3h-2v3h-3c1.225-4.053 2.699-7.444 5-11M264 79c1.813.25 1.813.25 4 1 1.75 2.063 1.75 2.063 3 4l-2 3-5-2zM190 419c2.68 2.323 3.96 3.896 5.25 7.25L196 429l-4 2 1-5h-2l-3-1v-2h2zM312 236l3 1c-.187 1.813-.187 1.813-1 4-2.375 1.75-2.375 1.75-5 3h-3l1-4h5zM222 49c3.125.75 3.125.75 6 2l1 3c-3.75 2-3.75 2-6 2l-.875-1.875c-1.062-2.258-1.062-2.258-3.125-4.125zM165 403h18l1 3-2 2-1-3q-3.687-.04-7.375-.062l-2.117-.026c-3.881-.096-3.881-.096-7.508 1.088zM158 394h6l-1 4 3 1c-6.75.125-6.75.125-9-1zM268 337c-.75 2.313-.75 2.313-2 5-2.125 1.813-2.125 1.813-4 3l-1-7c2.49-.687 4.379-1 7-1M97 121l1 3 2 1-1 3-7 1c1.186-3.375 2.276-5.647 5-8M109 109l1 2-2.437 1.875c-2.602 1.867-2.602 1.867-3.563 4.125l2 1-8 3c1.394-3.157 3.036-5.281 5.5-7.687l1.844-1.825C107 110 107 110 109 109M85 100v3c-1.969 2.7-1.969 2.7-4.5 5.688l-2.531 3.011L76 114l-1-3 1-3 3-1 .938-1.875c1.265-2.531 2.735-3.573 5.062-5.125M120 99l1 4c-1.437 2.25-1.437 2.25-3 4l-2-2-4 4-2-1z"/><path fill="#292b2c" d="M180 583h1l1 18-2 1c-.915-4.462-.978-8.345-.562-12.875l.308-3.492z"/><path fill="#db7271" d="M54 305c2.375 1.625 2.375 1.625 5 4a126 126 0 0 1 2 6l3 2-2 3a913 913 0 0 1-3.437-5.25l-1.934-2.953c-1.387-2.38-2.176-4.115-2.629-6.797M55 102h2c-.25 2.25-.25 2.25-1 5a181 181 0 0 1-4 4 100 100 0 0 0-3 6l-1-3c1.363-2.918 1.363-2.918 3.313-6.187l1.925-3.293z"/><path fill="#431f20" d="M178 400h3l1 4h-18l1-3 13 1z"/><path fill="#db7271" d="M35 250c1.125 1.625 1.125 1.625 2 4-.875 3.25-.875 3.25-2 6-2.125-3.188-2.502-5.265-3-9zM305 249h5l1 9-3 1-.937-3.312A170 170 0 0 0 305 249M167.875 428.313 170 429l-2 3c-2.937.813-2.937.813-6 1l-3-2c5.292-3.077 5.292-3.077 8.875-2.687M105 56l3 2h2l2 1-1 3-7-1-1-4zM231 55l6 2c-.562 1.938-.562 1.938-2 4-3.625.75-3.625.75-7 1v-2l4-2zM120 81h6c.977 5.86.977 5.86 1 8-.977 2.266-.977 2.266-2 4l-.332-1.863-.48-2.45-.458-2.425c-.59-2.343-.59-2.343-2.304-4.055zM206 387c3.688-.25 3.688-.25 7 0-2.118 2.33-4.033 3.888-7 5l-3-1c1.063-2 1.063-2 3-4M317 182h1v10l-4-1v-4l2-1c.652-2.025.652-2.025 1-4M241 58c2 1.375 2 1.375 4 3v2c-4.018.841-7.018 1.054-11 0l2-2c2.625-.125 2.625-.125 5 0z"/><path fill="#19191a" d="M178 560c1.5 1.25 1.5 1.25 3 3v4h-2l-1 2q-.579-3.489-1-7z"/><path fill="#37383a" d="m155 512 4 1-2 9h-1z"/><path fill="#db7271" d="m290 296 5 1-3 7-4-5zM38 258c.625 3.313.625 3.313 1 7l-2 3c-1.498-3.371-2-5.204-2-9 2-1 2-1 3-1M83 144c1.23 3.689 1.557 7.137 2 11l-2-2-3 1c.61-3.558 1.578-6.683 3-10"/><path fill="#292b2c" d="M160 513c1.563 1.625 1.563 1.625 3 4-.312 3.25-.312 3.25-1 6l-1-2h-2l-1 2v-5h1z"/><path fill="#db7271" d="m282 308 4 1-2 8h-3c-.074-3.343-.065-5.804 1-9M315 171c2 3 2 3 2.195 5.918l-.07 3.27-.055 3.292L317 186h-1v-6h-2zM129 46c-.125 1.875-.125 1.875-1 4-3.062 1.25-3.062 1.25-6 2v-4c4.75-2 4.75-2 7-2"/><path fill="#19191a" d="m163 525 2 1-1 6 2 1h-6l1-2 .5-2c.5-2 .5-2 1.5-4"/><path fill="#37383a" d="m159 499 3 1v10h-1l-1-6h-2z"/><path fill="#db7271" d="m171 424 3 2-1 2c2.882-.882 2.882-.882 5-2v5l-8-2 2-1zM157 414c1.188 1.625 1.188 1.625 2 4-1.375 3.25-1.375 3.25-3 6l-2-1c.557-3.344 1.352-6.033 3-9M134 387c3.313-.187 3.313-.187 7 0 1.938 1.5 1.938 1.5 3 3l-1 3c-3.074-1.537-6.02-3.29-9-5z"/><path fill="#37383a" d="M163 521c1.374 3.818.68 7.073 0 11h-4v-4h2zM159 479c2 3 2 3 3 6 .04 2.333.044 4.667 0 7h-1c-2.581-7.572-2.581-7.572-3-10z"/><path fill="#19191a" d="M167 456h1l-.125 2.375L168 461l2 2c.125 3.125.125 3.125 0 6l-.875-1.937L168 465l-2-1z"/><path fill="#db7271" d="m47 115 2 4h-2v6h-2c-.687-1.625-.687-1.625-1-4 1.438-3.25 1.438-3.25 3-6"/><path fill="#19191a" d="M166 540c2.375.625 2.375.625 5 2 1.313 3.125 1.313 3.125 2 6-1.812-.625-1.812-.625-4-2-1.75-3.125-1.75-3.125-3-6M160 478l4 1 1 5-3-1-1 2z"/><path fill="#db7271" d="m151 425 3 1-1 6-3-1zM85 345c2.063.438 2.063.438 4 1l1 6h-2a125 125 0 0 1-4-6zM121 49v5c-1.875-.375-1.875-.375-4-1l-2-2c3.75-2 3.75-2 6-2M148 41h7l-4 1 1 3-1 2h-2z"/><path fill="#19191a" d="m179 600 1 2h2l1 8-1-3h-2z"/><path fill="#37383a" d="M183 597h3l-1 8-2-1z"/><path fill="#db7271" d="m300 280 2 3c-1.579 2.368-2.975 4.067-5 6l-1-3c1.938-3.187 1.938-3.187 4-6M307 261l2 4-3 3-2-3h2v-2l-2-1zM299 131c4 0 4 0 6 1l-1 3-6-1zM75 78l4 1-3 5-3-3zM102 58l2 1-1 3-7 1c3.75-3.875 3.75-3.875 6-5M91 354h3l2 4-2 2c-1.5-1.312-1.5-1.312-3-3zM260 343h2c-.375 2.438-.375 2.438-1 5l-2 1-3-3h4zM51 297h2c1.063 2.25 1.063 2.25 2 5-.375 2.313-.375 2.313-1 4-2.125-3.188-2.502-5.265-3-9M306 141l3 1c.813 1.875.813 1.875 1 4l-2 3c-1.765-3.088-2-4.233-2-8M71 120a101 101 0 0 1-2 6l-2 1 1-4h-2v-2c2-1 2-1 5-1M57 99l6 1-1 3-3 1zM123 95c1.563 1.25 1.563 1.25 3 3-.312 2.188-.312 2.188-1 4-3-2-3-2-4-3z"/><path fill="#292b2c" d="m165 465 1 2 2 1-2 3h-3z"/><path fill="#db7271" d="M162 426c2.25.25 2.25.25 4 1l-2 1v2l-6 2v-2c1.75-2.187 1.75-2.187 4-4"/><path fill="#292b2c" d="M161 494v5h-2l-1 2v-6c2-1 2-1 3-1"/><path fill="#db7271" d="M183 427c3.688.313 3.688.313 7 1l-1 2h-9zM35 152v6h-3v-5c2-1 2-1 3-1"/><path fill="#292b2c" d="m172 549 5 1-2 3-3-1zM168 456l3 3-1 3-3-1z"/><path fill="#db7271" d="M179 403h4l1 3-2 2-1-3-3-1zM108 369h2v2h5l-4 3c-1.5-1.375-1.5-1.375-3-3zM102 364h2v3l3 1-2 2-4-5zM76 338l4 1 1 5a105 105 0 0 1-5-4zM34 146l3 1-1 4h-3zM293 113h3l1 3-2 2h-2v-2l-2-1h2zM73 81l3 3-1 2h-3l-1-3zM146 41h2l1 3-1 2-3-1-1-2h2z"/><path fill="#19191a" d="m174 436-2 6-2-3v-2c2-1 2-1 4-1"/><path fill="#db7271" d="m188 415 3 4-2 2-2-2c.375-2.125.375-2.125 1-4"/><path fill="#431f20" d="M178 400h3l1 4-6-1 2-1z"/><path fill="#db7271" d="M222 375h3l1 5-3-1c-.687-2.062-.687-2.062-1-4M68 88l3 3c-2.375.625-2.375.625-5 1l-2-2zM261 74l4 1v3l-4-2z"/><path fill="#37383a" d="M168 539c1.938.813 1.938.813 4 2l1 3-4-1z"/><path fill="#db7271" d="m160 412 3 1v3h-4zM221 377l1 2 3 1-2 2-2-1v-2l-2-1zM268 337l-2 4-3-1v-2c2-1 2-1 5-1M310 248l2 3c-.375 2.688-.375 2.688-1 5-1.062-1.75-1.062-1.75-2-4 .375-2.25.375-2.25 1-4M84 70c2 3.75 2 3.75 2 6l-4-2zM241 58c2 1.375 2 1.375 4 3v2l-4-1zM150 393l4 2v2l-5-1zM101 82l2 1-1 2 2 1-3 1-2-2h2zM105 56l3 2-5 2v-3z"/><path fill="#37383a" d="m178 602 2 3-1 3h-2zM167 543l3 3-2 3zM161 474l2 4-2 3c-.562-1.812-.562-1.812-1-4z"/><path fill="#db7271" d="m157 414 2 4-4 1zM42 125l3 4-3 1-1-2zM123 98l1 4-3 1-1-2zM154 421l1 4-3 1zM230 371l3 2-4 2zM48 291l2 1-1 4-2-3zM300 280l2 3-2 3c-.562-1.875-.562-1.875-1-4zM39 132h3v4h-2zM71 84l2 1-1 3-3-1zM71 330l4 1-2 3zM47 115l2 4h-3zM235 369l3 1-2 2-2-2z"/><path fill="#db7271" d="m41 129 2 1v2h-3zM85 98l3 1-2 2zM103 82l2 2-3 1z"/></svg>