<?xml version="1.0" standalone="no"?>
<!DOCTYPE svg PUBLIC "-//W3C//DTD SVG 1.1//EN" "http://www.w3.org/Graphics/SVG/1.1/DTD/svg11.dtd">
<svg xmlns="http://www.w3.org/2000/svg" width="359" height="644" viewBox="0 0 359 644"><path fill="#08b2cb" d="M224 49c11.358 5.255 22.266 11.089 32 19l2.71 2.105c22.77 18.019 38.454 41.497 49.248 68.272 11.292 29.57 13.09 63.403 8.52 94.58C309.874 272.843 292.622 307.289 268 339l-2.273 2.93C257.204 352.606 247.825 363.59 237 372l-1.532 1.2C218.487 386.402 201.611 394.177 181 400a21966 21966 0 0 0 6.738 12.275l1.465 2.666 1.434 2.615a253 253 0 0 0 3.75 6.452L196 427l-.437 2.313c-2.03 2.192-3.718 2.784-6.563 3.687-2.824.012-2.824.012-5.687-.312l-2.887-.301C178 432 178 432 176 431l.14 2.867c.534 15.812-3.417 29.889-8.677 44.702-3.265 9.284-4.838 18.02-4.775 27.868l.014 2.793c.115 6.673.841 12.522 3.298 18.77l.926 2.652c2.527 6.7 5.973 12.665 9.637 18.785 4.396 7.361 7.583 14.133 9.437 22.563l.57 2.39c2.012 12.22.26 25.035-3.59 36.7-2.44 6.37-2.44 6.37-4.98 8.91-2.062-.187-2.062-.187-4-1l-1-3c.707-2.129.707-2.129 1.813-4.562 4.608-11.13 5.153-22.506 4.187-34.438-1.524-11.25-5.795-20.58-11.988-30.035-6.31-9.778-11.333-20.604-12.189-32.406-.404-16.817 1.729-29.603 8.009-45.293 2.011-5.624 3.125-11.397 4.168-17.266l.402-2.238c.889-5.88.687-11.834.598-17.762l-1.687.488c-2.497.553-4.758.68-7.313.7l-2.562.042c-2.592-.245-4.208-.924-6.438-2.23.539-4.485 1.657-7.675 3.906-11.582l1.754-3.072 1.84-3.159 1.84-3.216c4.47-7.781 4.47-7.781 5.66-8.971l-3.559-1.031c-23.512-7-45.099-18.275-62.503-35.906l-1.567-1.657c-1.48-1.583-1.48-1.583-3.871-3.344-2.805-2.313-5.036-4.816-7.383-7.585a206 206 0 0 0-4.672-5.266C55.881 318.006 38.193 282.073 30 245c-1.269-6.299-2.223-12.623-3-19l-.398-3.156C24.717 203.89 25.418 184.687 29 166l.422-2.243C32.849 146.152 39.508 129.74 48 114l1.676-3.168C57.903 95.968 69.716 81.579 83 71l3.098-2.488c20.621-16.078 43.976-25.315 69.707-29.067 22.652-2.694 47.228.449 68.195 9.555"/><path fill="#abebee" d="M121 82c2.5 1.5 2.5 1.5 4 4 .428 3.248.032 5.899-1 9-3.756 6.131-9.775 10.36-15.3 14.8-15.556 12.675-23.907 30.854-31.243 49.141-1.491 3.131-3.139 5.49-5.457 8.059-2 1-2 1-5.312 1.375L63 168c-2.63-2.173-4.473-3.947-6-7-.888-5.178-.467-9.995 1.246-14.945C66.286 125.075 78.75 105.585 96 91c14.953-11.332 14.953-11.332 25-9"/><path fill="#02394e" d="M170 429c2.5.375 2.5.375 5 1l1 1c1.347 16.764-2.976 31.908-8.537 47.57-3.265 9.283-4.838 18.019-4.775 27.868l.014 2.792c.115 6.673.841 12.522 3.298 18.77l.926 2.652c2.527 6.7 5.973 12.665 9.637 18.785 4.396 7.361 7.583 14.133 9.437 22.563l.57 2.39c2.012 12.22.26 25.035-3.59 36.7-2.44 6.37-2.44 6.37-4.98 8.91-2.062-.187-2.062-.187-4-1l-1-3c.707-2.129.707-2.129 1.813-4.562 4.608-11.13 5.153-22.506 4.187-34.438-1.524-11.25-5.795-20.58-11.988-30.035-6.31-9.778-11.333-20.604-12.189-32.406-.371-15.454 1.003-27.641 6.74-42.121 4.543-11.512 5.852-22.996 6.791-35.239l.216-2.781.18-2.507L169 430z"/><path fill="#02394e" d="M182 597h1l-.879 6.152L182 605l1 1c-.342 6.724-.342 6.724-1.96 9.863-.956 1.42-1.992 2.785-3.04 4.137-1.937-.312-1.937-.312-4-1l-1-3c.707-2.27.707-2.27 1.813-4.812 1.562-3.692 2.979-7.362 4.187-11.188l2 1zM160 533h3v3c3.075-.776 3.075-.776 5-3l5 11-3-1-1 6c-4.022-4.47-6.542-9.56-9-15z"/><path fill="#08b2cb" d="m125 86 2 3c-.298 4.1-.874 7.456-3 11l2 1-8 4 1 3-1 2h-3l-1-3-4 2c2.41-3.03 4.469-5.598 7.563-7.937 3.095-2.62 4.842-5.354 6.437-9.063.785-3.273.785-3.273 1-6"/><path fill="#02394e" d="M168 398c2.023-.266 2.023-.266 4.375-.25l2.336-.016c2.582.3 4.152.779 6.289 2.266l1 4h-18c2-4 2-4 4-6M169 431h1v6l4 1-1 11-2-2q-.061-3.5 0-7l-1-1v10h-1zM176 609c2 1.688 2 1.688 4 4 .375 2.625.375 2.625 0 5l-2 2c-2.062-.187-2.062-.187-4-1l-1-3a110 110 0 0 1 3-7"/><path fill="#08b2cb" d="m305 263 1 2h2c-1.381 6.215-3.146 12.282-6 18l-2 1v-5h2l-.187-2.75L302 273l1.563-2.062L305 269c-.312-2.646-.312-2.646-1-5z"/><path fill="#02394e" d="M155 499c4 5 4 5 4.39 7.457l-.14 2.356-.11 2.394L159 513h-4z"/><path fill="#08b2cb" d="m102 58 2 1-1 3-7 1-1 5-4 1-1-3q2.437-1.72 4.875-3.437l2.742-1.934C100 59 100 59 102 58"/><path fill="#014a68" d="M182 567h3v26h-1l-1-17-2 3v-5h2z"/><path fill="#02394e" d="m164 468 3 1 1 7-5 1c-.625-2.25-.625-2.25-1-5 .938-2.312.938-2.312 2-4"/><path fill="#015a79" d="m170 439 2 1v7l2-3 1 9-3 1-1-3-3-1v-6h1z"/><path fill="#014a68" d="m165 462 1 2 4-1c.195 6.055.195 6.055 0 8l-2 2-3-2c-.853-2.702-1.09-4.523-.562-7.312z"/><path fill="#08b2cb" d="m78 335 3 6 2 1 .938 2.375c1.046 2.585 1.983 3.83 4.062 5.625l-1 2q-2.759-2.93-5.5-5.875l-1.59-1.684c-1.341-1.446-2.63-2.94-3.91-4.441v-2h2zM298 287l1 3c-1.215 2.7-1.215 2.7-2.937 5.688l-1.715 3.011L293 301l-4-1 2-6 3 1z"/><path fill="#014a68" d="M162 517c1.063 1.688 1.063 1.688 2 4-.375 2.75-.375 2.75-1 5l-2-1-2 4c-1.062-1.687-1.062-1.687-2-4 .375-2.75.375-2.75 1-5l1 2c2.224-1.925 2.224-1.925 3-5M156 489l4 1-3 14h-1c-1.333-10.558-1.333-10.558 0-15"/><path fill="#08b2cb" d="M176 426h3l1 5h11l-2 2c-2.531.012-2.531.012-5.5-.312l-2.969-.301C178 432 178 432 176 431zM44 281c2.29 2.29 2.641 3.669 3.5 6.75 1.08 3.784 2.226 7.525 3.5 11.25-2.813-2.458-4.193-5.063-5.75-8.437l-1.36-2.872C43 285 43 285 43.36 282.652c.21-.545.422-1.09.64-1.652M53 106c1.125 1.563 1.125 1.563 2 4-.875 3.75-.875 3.75-2 7l-3-2-2 1c1.156-3.912 2.355-6.875 5-10M46 117c.621 1.71.621 1.71 1 4-.777 2.29-.777 2.29-1.937 4.625-1.598 3.054-1.598 3.054-2.063 6.375h-2v2h-2c1.833-6 4.073-11.45 7-17M101 116v3l-2 3 4 1-1 2c-2.77.729-5.129 1-8 1 1.668-3.941 4.227-6.79 7-10"/><path fill="#02394e" d="m168 450 1.875.563L172 451l2-1c.188 3.313.188 3.313 0 7-1.5 1.938-1.5 1.938-3 3v-3a93 93 0 0 0-1-4l-2 2z"/><path fill="#014a68" d="M180 583h1l1 18-2 1c-.915-4.462-.978-8.345-.562-12.875l.308-3.492zM178 563c1.5 1 1.5 1 3 3 .388 2.702.419 5.302 0 8l-2 3a837 837 0 0 1-1.062-5.875l-.598-3.305L177 565z"/><path fill="#02394e" d="M162 530q2.514.428 5 1l-1 8-1-3h-2v-3h-3c1-2 1-2 2-3"/><path fill="#08b2cb" d="M213 387c-2.118 2.33-4.033 3.888-7 5l-3-1v-3c3.473-1.158 6.36-1.069 10-1"/><path fill="#014a68" d="M168 539c1.938.813 1.938.813 4 2l1 3-3-1-1 6c-1.5-1.312-1.5-1.312-3-3v-3l2-2z"/><path fill="#08b2cb" d="m127 384 2.063.875c3.008 1.224 3.008 1.224 6.562 2C139 388 139 388 140.938 390.125c.35.619.7 1.238 1.062 1.875-3.694-.583-6.499-1.6-9.75-3.437l-2.36-1.31C128 386 128 386 127 384M36 254l3 3-1 2v2a89 89 0 0 1-2 4c-1.062-2.187-1.062-2.187-2-5 .313-2.75.313-2.75 1-5zM101 82l2 1-1 2 5-2c-3.126 3.394-5.565 5.606-10 7l2-5h2zM84 70l3 1 1 6-6-2z"/><path fill="#02394e" d="M182 597h1l-.562 3.688c-.428 3.342-.36 6.032.562 9.312l-1-3h-2l-1-7 2 1zM167 399a196 196 0 0 1 4.375-.187l2.46-.106L176 399l2 3h-11z"/><path fill="#014a68" d="M168 398c3.02-.174 5.984-.265 9 0 2.563 1.5 2.563 1.5 4 3-2.882.96-4.145 1.077-7.062.75l-2.098-.203L170 401z"/><path fill="#08b2cb" d="M233 371h3v2c-1.531 1.29-1.531 1.29-3.5 2.625l-1.969 1.352L229 378l-2-1v-3l6-1zM315 224h1q.079 2.687.125 5.375l.07 3.023L316 235l-2 2a226 226 0 0 1-.625-4.25l-.352-2.39c-.023-2.36-.023-2.36.954-4.657z"/><path fill="#014a68" d="m161 474 2 2c2.069.643 2.069.643 4 1l-1 5-3-3-2 2c-.562-1.812-.562-1.812-1-4z"/><path fill="#015a79" d="m167 452 4 1 1 5-4 2z"/><path fill="#08b2cb" d="M245 359h3c-.187 1.813-.187 1.813-1 4-2.562 1.75-2.562 1.75-5 3v-2l-2-1 5-2zM36 142l3 4-1 2h-3v3h-2z"/><path fill="#02394e" d="m170 542 1 2 3 1c1.188 2.063 1.188 2.063 2 4l-2 1v-2l-4-1c-.562-1.937-.562-1.937-1-4z"/><path fill="#08b2cb" d="m162 406 1 2-1 2 2 1c-1.375 1.5-1.375 1.5-3 3h-2l-1 2c.565-3.958 1.809-6.666 4-10M125 86l2 3c-.062 3.5-.062 3.5-1 7-2.562 1.938-2.562 1.938-5 3l.93-1.703c1.1-2.36 1.671-4.502 2.195-7.047l.508-2.422z"/><path fill="#015a79" d="M173 616h6v3l-4 1z"/><path fill="#08b2cb" d="m151 425 3 1-1 6-3-1zM165 396l12 1v1c-.888.09-.888.09-1.793.184-4.117.436-8.162.903-12.207 1.816zM75 78c2.125.375 2.125.375 4 1l-2 3 1 2c-1.937-.312-1.937-.312-4-1l-1-3z"/><path fill="#014a68" d="m175 556 2 1v2h3c-1.065 2.13-2.292 3.366-4 5-.73-1.977-1.394-3.98-2-6z"/><path fill="#08b2cb" d="M29 230h1l1 6h1v5l-2 1c-.96-2.882-1.106-4.699-1.062-7.687l.027-2.45z"/><path fill="#abebee" d="M121 97c-.812 1.875-.812 1.875-2 4l-3 2-1-5c2-1 2-1 6-1"/><path fill="#08b2cb" d="M187 41q2.156-.04 4.313-.062l2.425-.036C196 41 196 41 199 42v2h-5v-2h-7zM93 126l3 4-5 1-1 3-1-2z"/><path fill="#02394e" d="m160 478 4 1 1 5-5-2z"/><path fill="#014a68" d="M170 431h4v4l-4 2z"/><path fill="#08b2cb" d="m154 393 3 1-1 3h-5v-2zM293 113h3l1 3-3 3-2-5z"/><path fill="#014a68" d="M160 533h3v3h2l-1 3h-2z"/><path fill="#08b2cb" d="M56 309h3l2 8c-3.815-3.446-3.815-3.446-4.75-6.25zM274 89l7 3v3l-2-2a90 90 0 0 0-6-1z"/><path fill="#014a68" d="M167 533c2 3 2 3 3 6l-3 1a76 76 0 0 1-1-5z"/><path fill="#02394e" d="m157 518 5 2-1 2h-2l-2 2z"/><path fill="#015a79" d="m162 483 3 1-1 7-2-3c-.125-2.687-.125-2.687 0-5"/><path fill="#08b2cb" d="M313 233c1.063 1.75 1.063 1.75 2 4-.375 2.25-.375 2.25-1 4h-2z"/><path fill="#014a68" d="M182 602h3l-1 6-1-2-2-1z"/><path fill="#02394e" d="m158 484 2 4-3 4c-.125-5.75-.125-5.75 1-8"/><path fill="#08b2cb" d="m80 152 1 2c-.606 2.02-1.27 4.023-2 6h-2c1.875-6.875 1.875-6.875 3-8M73 81l3 3-1 2h-3l-1-3zM250 355h3c-.875 1.938-.875 1.938-2 4l-2 1zM93 89l1 2 2 1-3 3-2-1z"/><path fill="#014a68" d="m178 602 2 3c-.375 2.688-.375 2.688-1 5-1.062-1.75-1.062-1.75-2-4 .375-2.25.375-2.25 1-4"/><path fill="#015a79" d="m159 479 2 3c-.375 2.188-.375 2.188-1 4-1.062-1.812-1.062-1.812-2-4z"/><path fill="#abebee" d="m114 81 7 1-3 2c-2.187-.375-2.187-.375-4-1z"/><path fill="#014a68" d="m181 607 2 4-2 3a76 76 0 0 1-1-5z"/><path fill="#015a79" d="M170 459h3l-1 6-2-3z"/><path fill="#08b2cb" d="M315 167c.625 1.875.625 1.875 1 4l-2 2-1-4h2zM76 108l2 4-3 2a100 100 0 0 1 0-5zM105 56l3 2-5 2v-3zM92 356h3l1 3h-3zM119 49h3l-1 3h-3z"/><path fill="#014a68" d="m176 609 2 2v3l-3-1z"/><path fill="#015a79" d="M182 567h3l-2 4z"/><path fill="#08b2cb" d="M245 359h3l-1 4z"/><path fill="#abebee" d="m66 129 2 3-4 2z"/><path fill="#015a79" d="m178 553 2 3-2 2-1-3z"/><path fill="#08b2cb" d="M88 352h4l-1 3zM274 324l3 1-1 3zM54 104l2 1-1 3-2-3z"/></svg>