<?xml version="1.0" encoding="UTF-8"?>
<!DOCTYPE svg PUBLIC "-//W3C//DTD SVG 1.1//EN" "http://www.w3.org/Graphics/SVG/1.1/DTD/svg11.dtd">
<!-- Creator: CorelDRAW -->
<svg xmlns="http://www.w3.org/2000/svg" xml:space="preserve" width="207.68mm" height="64.89mm" version="1.1" shape-rendering="geometricPrecision" text-rendering="geometricPrecision" image-rendering="optimizeQuality" fill-rule="evenodd" clip-rule="evenodd"
viewBox="0 0 20768 6489"
 xmlns:xlink="http://www.w3.org/1999/xlink"
 xmlns:xodm="http://www.corel.com/coreldraw/odm/2003">
 <g id="Layer_x0020_1">
  <metadata id="CorelCorpID_0Corel-Layer"/>
  <path fill="white" stroke="#373435" stroke-width="20" stroke-miterlimit="22.9256" d="M13861.18 3478.72l245.64 1269.1 252.45 402.57 347.98 266.1 436.69 122.82 607.26 -40.94 429.86 -293.39 293.39 -313.87 177.4 -511.74 136.47 -1153.11 -122.82 -1050.76 -429.86 -887.01 -313.86 -170.58 -429.86 -102.35 -361.63 0 -341.16 81.88 -211.52 129.64 -156.93 184.23 -115.99 150.11 -122.82 150.1 -122.81 211.52 -47.77 136.46 -40.94 170.58 -40.93 204.7 -20.47 170.58 -13.65 156.93 -20.47 197.87 -20.47 204.69 6.82 313.87zm-11615.55 280.8l0 -3609.38 4591.89 -13.64 6.83 934.75 -3370.57 61.41 6.82 2210.66 68.23 34.11 498.08 -129.64 825.58 -191.04 450.32 -81.88 498.08 -102.34 504.91 -75.05 416.2 -34.12 354.8 -54.58 272.92 -20.47 40.94 -2592.75 1153.09 -6.82 34.11 2442.64 68.23 54.58 286.57 -13.64 1787.63 -20.47 81.88 -34.12 40.93 -81.87 -20.47 -2319.83 156.93 -27.29 266.1 -20.47 259.28 13.64 320.68 27.3 177.4 13.64 54.58 95.53 -13.65 2313 40.94 75.05 518.55 20.47 191.05 -743.71 122.81 -416.2 225.16 -382.09 218.34 -211.52 170.57 -184.22 122.82 -150.1 245.62 -163.76 170.58 -109.16 218.34 -102.35 259.27 -61.41 272.92 -40.93 184.22 -34.12 238.81 0 231.98 -20.47 184.22 13.65 211.52 34.11 197.86 68.23 129.64 13.65 156.93 54.58 170.58 81.88 143.28 54.58 163.75 88.7 102.35 75.06 109.17 68.23 102.34 88.7 68.23 102.34c0,0 75.05,54.59 95.52,109.17 20.47,54.58 109.17,156.93 109.17,156.93l102.35 122.81 81.87 170.58 95.53 191.04 75.05 204.69 81.87 252.45 81.88 245.63 34.12 293.39 54.58 197.87 47.76 259.27 0 204.7 -27.29 429.85 -13.65 156.92 1098.51 443.5 307.03 129.64 1303.2 641.36 -1466.95 -504.9 -1248.61 -361.62 -429.85 1194.03 -566.31 702.77 -518.55 266.1 -511.73 184.22 -491.25 54.58 -709.6 -13.65 -757.35 -259.27 -675.48 -559.49 -334.33 -402.56 -184.22 -470.78 -184.22 -689.13 -68.23 -402.56 -20.47 -395.73 -511.73 -6.82 -40.93 68.23 0 3036.24 -1159.92 6.82 -6.82 -197.87 -6.82 -2920.25 -75.06 -54.58 -2176.54 27.29 -34.11 68.23 13.64 3015.77 -88.7 61.41 -1105.33 20.47 0 -1125.8 -20.47 -1944.56 -948.39 54.59 -1173.56 136.46 -859.7 122.81 -593.61 143.28 -368.44 109.17 13.65 2463.11 -334.33 40.94 -498.08 27.29 -368.44 -54.58 3.55 -2259.02 -261.06 35.59 -842.5 225.46 -1156.95 379.72 901.83 -468.71 1348.3 -553.55z"/>
 </g>
</svg>
